<?xml version="1.0" standalone="no"?>
<!DOCTYPE svg PUBLIC "-//W3C//DTD SVG 1.1//EN" "http://www.w3.org/Graphics/SVG/1.1/DTD/svg11.dtd" >
<svg xmlns="http://www.w3.org/2000/svg" xmlns:xlink="http://www.w3.org/1999/xlink" version="1.1">
<metadata>
Created by FontForge 20201107 at Thu Sep 15 20:38:28 2022
 By 
No Rights Reserved
</metadata>
<defs>
<font id="Novem" horiz-adv-x="1782" >
  <font-face 
    font-family="Novem"
    font-weight="400"
    font-stretch="normal"
    units-per-em="2048"
    panose-1="2 0 6 0 0 0 0 0 0 0"
    ascent="1638"
    descent="-410"
    x-height="1620"
    cap-height="1620"
    bbox="0 0 1782 1620"
    underline-thickness="150"
    underline-position="-292"
    unicode-range="U+0020-A78C"
  />
<missing-glyph horiz-adv-x="1944" 
d="M324 324q67 0 114.5 -47.5t47.5 -114.5t-47.5 -114.5t-114.5 -47.5t-114.5 47.5t-47.5 114.5t47.5 114.5t114.5 47.5zM1620 1296q-67 0 -114.5 47.5t-47.5 114.5t47.5 114.5t114.5 47.5t114.5 -47.5t47.5 -114.5t-47.5 -114.5t-114.5 -47.5zM972 1620q67 0 114.5 -47.5
t47.5 -114.5t-47.5 -114.5t-114.5 -47.5t-114.5 47.5t-47.5 114.5t47.5 114.5t114.5 47.5zM324 1620q67 0 114.5 -47.5t47.5 -114.5t-47.5 -114.5t-114.5 -47.5t-114.5 47.5t-47.5 114.5t47.5 114.5t114.5 47.5zM1620 972q67 0 114.5 -47.5t47.5 -114.5t-47.5 -114.5
t-114.5 -47.5t-114.5 47.5t-47.5 114.5t47.5 114.5t114.5 47.5zM972 972q67 0 114.5 -47.5t47.5 -114.5t-47.5 -114.5t-114.5 -47.5t-114.5 47.5t-47.5 114.5t47.5 114.5t114.5 47.5zM324 972q67 0 114.5 -47.5t47.5 -114.5t-47.5 -114.5t-114.5 -47.5t-114.5 47.5
t-47.5 114.5t47.5 114.5t114.5 47.5zM1620 324q67 0 114.5 -47.5t47.5 -114.5t-47.5 -114.5t-114.5 -47.5t-114.5 47.5t-47.5 114.5t47.5 114.5t114.5 47.5zM972 324q67 0 114.5 -47.5t47.5 -114.5t-47.5 -114.5t-114.5 -47.5t-114.5 47.5t-47.5 114.5t47.5 114.5
t114.5 47.5z" />
    <glyph glyph-name=".notdef" horiz-adv-x="1944" 
d="M324 324q67 0 114.5 -47.5t47.5 -114.5t-47.5 -114.5t-114.5 -47.5t-114.5 47.5t-47.5 114.5t47.5 114.5t114.5 47.5zM1620 1296q-67 0 -114.5 47.5t-47.5 114.5t47.5 114.5t114.5 47.5t114.5 -47.5t47.5 -114.5t-47.5 -114.5t-114.5 -47.5zM972 1620q67 0 114.5 -47.5
t47.5 -114.5t-47.5 -114.5t-114.5 -47.5t-114.5 47.5t-47.5 114.5t47.5 114.5t114.5 47.5zM324 1620q67 0 114.5 -47.5t47.5 -114.5t-47.5 -114.5t-114.5 -47.5t-114.5 47.5t-47.5 114.5t47.5 114.5t114.5 47.5zM1620 972q67 0 114.5 -47.5t47.5 -114.5t-47.5 -114.5
t-114.5 -47.5t-114.5 47.5t-47.5 114.5t47.5 114.5t114.5 47.5zM972 972q67 0 114.5 -47.5t47.5 -114.5t-47.5 -114.5t-114.5 -47.5t-114.5 47.5t-47.5 114.5t47.5 114.5t114.5 47.5zM324 972q67 0 114.5 -47.5t47.5 -114.5t-47.5 -114.5t-114.5 -47.5t-114.5 47.5
t-47.5 114.5t47.5 114.5t114.5 47.5zM1620 324q67 0 114.5 -47.5t47.5 -114.5t-47.5 -114.5t-114.5 -47.5t-114.5 47.5t-47.5 114.5t47.5 114.5t114.5 47.5zM972 324q67 0 114.5 -47.5t47.5 -114.5t-47.5 -114.5t-114.5 -47.5t-114.5 47.5t-47.5 114.5t47.5 114.5
t114.5 47.5z" />
    <glyph glyph-name=".null" horiz-adv-x="0" 
 />
    <glyph glyph-name="nonmarkingreturn" horiz-adv-x="682" 
 />
    <glyph glyph-name="space" unicode=" " horiz-adv-x="1134" 
 />
    <glyph glyph-name="space" unicode="&#xa0;" horiz-adv-x="1134" 
 />
    <glyph glyph-name="exclam" unicode="!" 
d="M810 324q67 0 115 -47q47 -48 47 -115t-47 -114q-48 -48 -115 -48t-114 48q-48 47 -48 114t48 115q47 47 114 47zM1310 1390q-2 6 -4 11h-992q-2 -5 -4 -11l432 -432q31 14 68 14t68 -14zM1306 1515q12 32 38 58q47 47 114 47t115 -47q47 -48 47 -115t-47 -114
q-48 -48 -115 -48q-37 0 -68 14l-432 -432q14 -31 14 -68q0 -67 -47 -114q-48 -48 -115 -48t-114 48q-48 47 -48 114q0 37 14 68l-432 432q-31 -14 -68 -14q-67 0 -114 48q-48 47 -48 114t48 115q47 47 114 47t115 -47q26 -26 37 -58h992z" />
    <glyph glyph-name="quotedbl" unicode="&#x22;" horiz-adv-x="1134" 
d="M753 1306q-31 12 -57 38q-48 47 -48 114t48 115q47 47 114 47t115 -47q47 -48 47 -115t-47 -114q-26 -26 -58 -38v-344q32 -11 58 -37q47 -48 47 -115t-47 -114q-48 -48 -115 -48t-114 48q-48 47 -48 114t48 115q26 26 57 37v344zM105 1306q-31 12 -57 38q-48 47 -48 114
t48 115q47 47 114 47t115 -47q47 -48 47 -115t-47 -114q-26 -26 -58 -38v-344q32 -11 58 -37q47 -48 47 -115t-47 -114q-48 -48 -115 -48t-114 48q-48 47 -48 114t48 115q26 26 57 37v344z" />
    <glyph glyph-name="numbersign" unicode="#" 
d="M281 273q43 -47 43 -111q0 -67 -47 -114q-48 -48 -115 -48t-114 48q-48 47 -48 114t48 115q47 47 114 47q9 0 17 -1l215 430h-80q-11 -31 -37 -57q-48 -48 -115 -48t-114 48q-48 47 -48 114t48 115q47 47 114 47t115 -47q26 -26 37 -58h137l241 481q-44 46 -44 110
q0 67 48 115q47 47 114 47t115 -47q47 -48 47 -115t-47 -114q-48 -48 -115 -48q-9 0 -17 1l-215 -430h521l241 481q-44 46 -44 110q0 67 48 115q47 47 114 47t115 -47q47 -48 47 -115t-47 -114q-48 -48 -115 -48q-9 0 -17 1l-215 -430h80q12 32 38 58q47 47 114 47t115 -47
q47 -48 47 -115t-47 -114q-48 -48 -115 -48t-114 48q-26 26 -38 57h-137l-240 -480q43 -47 43 -111q0 -67 -47 -114q-48 -48 -115 -48t-114 48q-48 47 -48 114t48 115q47 47 114 47q9 0 17 -1l215 430h-521z" />
    <glyph glyph-name="dollar" unicode="$" 
d="M673 867l-187 187l-176 -176l4 -11h359zM1134 566l176 176l-4 11h-359zM1458 0q-67 0 -114.5 47.5t-47.5 114.5q0 37 14 68l-176 176l-176 -176q14 -31 14 -68q0 -67 -47.5 -114.5t-114.5 -47.5t-114 48q-26 25 -38 57h-344q-12 -32 -37 -57q-48 -48 -115 -48
t-114.5 47.5t-47.5 114.5t47.5 114.5t114.5 47.5t115 -47q25 -26 37 -58h344q12 32 38 58q47 47 114 47q37 0 68 -14l176 176l-267 267h-473q-12 -32 -37 -57q-48 -48 -115 -48t-114.5 47.5t-47.5 114.5t47.5 114.5t114.5 47.5q37 0 68 -14l176 176l-176 176
q-31 -14 -68 -14q-67 0 -114.5 47.5t-47.5 114.5t47.5 114.5t114.5 47.5t114.5 -47.5t47.5 -114.5q0 -37 -14 -68l176 -176l176 176q-14 31 -14 68q0 67 47.5 114.5t114.5 47.5t115 -47q25 -26 37 -58h344q12 32 38 58q47 47 114 47t114.5 -47.5t47.5 -114.5t-47.5 -114.5
t-114.5 -47.5t-114 48q-26 25 -38 57h-344q-12 -32 -37 -57q-48 -48 -115 -48q-37 0 -68 14l-176 -176l268 -267h472q12 32 38 58q47 47 114 47t114.5 -47.5t47.5 -114.5t-47.5 -114.5t-114.5 -47.5q-37 0 -68 14l-176 -176l176 -176q31 14 68 14q67 0 114.5 -47.5
t47.5 -114.5t-47.5 -114.5t-114.5 -47.5z" />
    <glyph glyph-name="percent" unicode="%" 
d="M310 230q14 -31 14 -68q0 -67 -47 -114q-48 -48 -115 -48t-114 48q-48 47 -48 114t48 115q47 47 114 47q37 0 68 -14l1080 1080q-14 31 -14 68q0 67 48 115q47 47 114 47t115 -47q47 -48 47 -115t-47 -114q-48 -48 -115 -48q-37 0 -68 14zM162 1620q67 0 114.5 -47.5
t47.5 -114.5t-47.5 -114.5t-114.5 -47.5t-114.5 47.5t-47.5 114.5t47.5 114.5t114.5 47.5zM1458 324q67 0 114.5 -47.5t47.5 -114.5t-47.5 -114.5t-114.5 -47.5t-114.5 47.5t-47.5 114.5t47.5 114.5t114.5 47.5z" />
    <glyph glyph-name="ampersand" unicode="&#x26;" 
d="M810 890l500 500l-4 11h-992l-4 -11zM658 219q12 32 38 58q47 47 114 47q37 0 68 -14l176 176l-244 244l-500 -500l4 -11h344zM1458 0q-67 0 -114.5 47.5t-47.5 114.5q0 37 14 68l-176 176l-176 -176q14 -31 14 -68q0 -67 -47.5 -114.5t-114.5 -47.5t-114 48
q-26 25 -38 57h-344q-12 -32 -37 -57q-48 -48 -115 -48t-114.5 47.5t-47.5 114.5t47.5 114.5t114.5 47.5q37 0 68 -14l500 500l-500 500q-31 -14 -68 -14q-67 0 -114.5 47.5t-47.5 114.5t47.5 114.5t114.5 47.5t115 -47q25 -26 37 -58h992q12 32 38 58q47 47 114 47
t114.5 -47.5t47.5 -114.5t-47.5 -114.5t-114.5 -47.5q-37 0 -68 14l-500 -500l244 -244l176 176q-14 31 -14 68q0 67 47.5 114.5t114.5 47.5t114.5 -47.5t47.5 -114.5t-47.5 -114.5t-114.5 -47.5q-37 0 -68 14l-176 -176l176 -176q31 14 68 14q67 0 114.5 -47.5t47.5 -114.5
t-47.5 -114.5t-114.5 -47.5z" />
    <glyph glyph-name="quotesingle" unicode="'" horiz-adv-x="486" 
d="M105 1306q-31 12 -57 38q-48 47 -48 114t48 115q47 47 114 47t115 -47q47 -48 47 -115t-47 -114q-26 -26 -58 -38v-344q32 -11 58 -37q47 -48 47 -115t-47 -114q-48 -48 -115 -48t-114 48q-48 47 -48 114t48 115q26 26 57 37v344z" />
    <glyph glyph-name="parenleft" unicode="(" horiz-adv-x="1134" 
d="M662 1390q-14 31 -14 68q0 67 48 115q47 47 114 47t115 -47q47 -48 47 -115t-47 -114q-48 -48 -115 -48q-37 0 -68 14l-432 -432q14 -31 14 -68t-14 -68l432 -432q31 14 68 14q67 0 115 -47q47 -48 47 -115t-47 -114q-48 -48 -115 -48t-114 48q-48 47 -48 114q0 37 14 68
l-432 432q-31 -14 -68 -14q-67 0 -114 48q-48 47 -48 114t48 115q47 47 114 47q37 0 68 -14z" />
    <glyph glyph-name="parenright" unicode=")" horiz-adv-x="1134" 
d="M310 1390l432 -432q31 14 68 14q67 0 114 -47q48 -48 48 -115t-48 -114q-47 -48 -114 -48q-37 0 -68 14l-432 -432q14 -31 14 -68q0 -67 -48 -114q-47 -48 -114 -48t-115 48q-47 47 -47 114t47 115q48 47 115 47q37 0 68 -14l432 432q-14 31 -14 68t14 68l-432 432
q-31 -14 -68 -14q-67 0 -115 48q-47 47 -47 114t47 115q48 47 115 47t114 -47q48 -48 48 -115q0 -37 -14 -68z" />
    <glyph glyph-name="asterisk" unicode="*" horiz-adv-x="1134" 
d="M662 1390q-14 31 -14 68q0 67 48 115q47 47 114 47t115 -47q47 -48 47 -115t-47 -114q-48 -48 -115 -48q-37 0 -68 14l-176 -176l176 -176q31 14 68 14q67 0 115 -47q47 -48 47 -115t-47 -114q-48 -48 -115 -48t-114 48q-48 47 -48 114q0 37 14 68l-176 176l-176 -176
q14 -31 14 -68q0 -67 -47 -114q-48 -48 -115 -48t-114 48q-48 47 -48 114t48 115q47 47 114 47q37 0 68 -14l176 176l-176 176q-31 -14 -68 -14q-67 0 -114 48q-48 47 -48 114t48 115q47 47 114 47t115 -47q47 -48 47 -115q0 -37 -14 -68l176 -176z" />
    <glyph glyph-name="plus" unicode="+" 
d="M810 0q-67 0 -114.5 47.5t-47.5 114.5t48 115q25 25 57 37v439h-439q-12 -32 -37 -57q-48 -48 -115 -48t-114.5 47.5t-47.5 114.5t47.5 114.5t114.5 47.5t115 -47q25 -26 37 -58h439v439q-32 12 -57 38q-48 47 -48 114t47.5 114.5t114.5 47.5t114.5 -47.5t47.5 -114.5
t-47 -114q-26 -26 -58 -38v-439h439q12 32 38 58q47 47 114 47t114.5 -47.5t47.5 -114.5t-47.5 -114.5t-114.5 -47.5t-114 48q-26 25 -38 57h-439v-439q32 -12 58 -37q47 -48 47 -115t-47.5 -114.5t-114.5 -47.5z" />
    <glyph glyph-name="comma" unicode="," horiz-adv-x="486" 
d="M162 324q67 0 114.5 -47.5t47.5 -114.5t-47.5 -114.5t-114.5 -47.5t-114.5 47.5t-47.5 114.5t47.5 114.5t114.5 47.5z" />
    <glyph glyph-name="hyphen" unicode="-" horiz-adv-x="1134" 
d="M658 867q12 32 38 58q47 47 114 47t115 -47q47 -48 47 -115t-47 -114q-48 -48 -115 -48t-114 48q-26 26 -38 57h-344q-11 -31 -37 -57q-48 -48 -115 -48t-114 48q-48 47 -48 114t48 115q47 47 114 47t115 -47q26 -26 37 -58h344z" />
    <glyph glyph-name="period" unicode="." horiz-adv-x="486" 
d="M162 324q67 0 114.5 -47.5t47.5 -114.5t-47.5 -114.5t-114.5 -47.5t-114.5 47.5t-47.5 114.5t47.5 114.5t114.5 47.5z" />
    <glyph glyph-name="slash" unicode="/" 
d="M310 230q14 -31 14 -68q0 -67 -47 -114q-48 -48 -115 -48t-114 48q-48 47 -48 114t48 115q47 47 114 47q37 0 68 -14l1080 1080q-14 31 -14 68q0 67 48 115q47 47 114 47t115 -47q47 -48 47 -115t-47 -114q-48 -48 -115 -48q-37 0 -68 14z" />
    <glyph glyph-name="zero" unicode="0" 
d="M219 314q32 -11 58 -37t37 -58h992q12 32 38 58t57 37v992q-31 12 -57 38t-38 57h-992q-11 -31 -37 -57t-58 -38v-992zM314 105q-11 -31 -37 -57q-48 -48 -115 -48t-114 48q-48 47 -48 114t48 115q26 26 57 37v992q-31 12 -57 38q-48 47 -48 114t48 115q47 47 114 47
t115 -47q26 -26 37 -58h992q12 32 38 58q47 47 114 47t115 -47q47 -48 47 -115t-47 -114q-26 -26 -58 -38v-992q32 -11 58 -37q47 -48 47 -115t-47 -114q-48 -48 -115 -48t-114 48q-26 26 -38 57h-992z" />
    <glyph glyph-name="one" unicode="1" 
d="M314 105q-11 -31 -37 -57q-48 -48 -115 -48t-114 48q-48 47 -48 114t48 115q47 47 114 47t115 -47q26 -26 37 -58h344q12 32 38 58t57 37v992q-31 12 -57 38t-38 57h-344q-11 -31 -37 -57q-48 -48 -115 -48t-114 48q-48 47 -48 114t48 115q47 47 114 47t115 -47
q26 -26 37 -58h344q12 32 38 58q47 47 114 47t115 -47q47 -48 47 -115t-47 -114q-26 -26 -58 -38v-992q32 -11 58 -37t37 -58h344q12 32 38 58q47 47 114 47t115 -47q47 -48 47 -115t-47 -114q-48 -48 -115 -48t-114 48q-26 26 -38 57h-344q-11 -31 -37 -57
q-48 -48 -115 -48t-114 48q-26 26 -38 57h-344z" />
    <glyph glyph-name="two" unicode="2" 
d="M314 105q-11 -31 -37 -57q-48 -48 -115 -48t-114 48q-48 47 -48 114t48 115q47 47 114 47q64 0 111 -43l1024 512q-1 9 -1 17q0 37 14 68l-432 432q-31 -14 -68 -14t-68 14l-432 -432q14 -31 14 -68q0 -67 -47 -114q-48 -48 -115 -48t-114 48q-48 47 -48 114t48 115
q47 47 114 47q37 0 68 -14l432 432q-14 31 -14 68q0 67 48 115q47 47 114 47t115 -47q47 -48 47 -115q0 -37 -14 -68l432 -432q31 14 68 14q67 0 115 -47q47 -48 47 -115t-47 -114q-48 -48 -115 -48q-64 0 -110 44l-946 -473h904q12 32 38 58q47 47 114 47t115 -47
q47 -48 47 -115t-47 -114q-48 -48 -115 -48t-114 48q-26 26 -38 57h-992z" />
    <glyph glyph-name="three" unicode="3" 
d="M1458 0q-67 0 -114 48q-26 25 -38 57h-992q-12 -32 -37 -57q-48 -48 -115 -48t-114.5 47.5t-47.5 114.5t47.5 114.5t114.5 47.5t115 -47q25 -26 37 -58h992q12 32 37.5 57.5t57.5 37.5v344q-32 12 -57.5 37.5t-37.5 57.5h-344q-12 -32 -37 -57q-48 -48 -115 -48
t-114.5 47.5t-47.5 114.5t47.5 114.5t114.5 47.5q37 0 68 -14l432 432l-4 11h-992q-12 -32 -37 -57q-48 -48 -115 -48t-114.5 47.5t-47.5 114.5t47.5 114.5t114.5 47.5t115 -47q25 -26 37 -58h992q12 32 38 58q47 47 114 47t114.5 -47.5t47.5 -114.5t-47.5 -114.5
t-114.5 -47.5q-37 0 -68 14l-432 -432l4 -11h344q12 32 38 58q47 47 114 47t114.5 -47.5t47.5 -114.5t-47 -114q-26 -26 -58 -38v-344q32 -12 58 -37q47 -48 47 -115t-47.5 -114.5t-114.5 -47.5z" />
    <glyph glyph-name="four" unicode="4" 
d="M1401 1306q-31 12 -57 38q-48 47 -48 114t48 115q47 47 114 47t115 -47q47 -48 47 -115t-47 -114q-26 -26 -58 -38v-344q32 -11 58 -37q47 -48 47 -115t-47 -114q-26 -26 -58 -38v-344q32 -11 58 -37q47 -48 47 -115t-47 -114q-48 -48 -115 -48t-114 48q-48 47 -48 114
t48 115q26 26 57 37v344q-31 12 -57 38t-38 57h-992q-11 -31 -37 -57q-48 -48 -115 -48t-114 48q-48 47 -48 114t48 115q47 47 114 47q37 0 68 -14l432 432q-14 31 -14 68q0 67 48 115q47 47 114 47t115 -47q47 -48 47 -115t-47 -114q-48 -48 -115 -48q-37 0 -68 14
l-432 -432q2 -5 4 -11h992q12 32 38 58t57 37v344z" />
    <glyph glyph-name="five" unicode="5" 
d="M314 105q-11 -31 -37 -57q-48 -48 -115 -48t-114 48q-48 47 -48 114t48 115q47 47 114 47t115 -47q26 -26 37 -58h992q12 32 38 58t57 37v344q-31 12 -57 38t-38 57h-992q-11 -31 -37 -57q-48 -48 -115 -48t-114 48q-48 47 -48 114t48 115q47 47 114 47q37 0 68 -14
l432 432q-14 31 -14 68q0 67 48 115q47 47 114 47t115 -47q26 -26 37 -58h344q12 32 38 58q47 47 114 47t115 -47q47 -48 47 -115t-47 -114q-48 -48 -115 -48t-114 48q-26 26 -38 57h-344q-11 -31 -37 -57q-48 -48 -115 -48q-37 0 -68 14l-432 -432q2 -5 4 -11h992
q12 32 38 58q47 47 114 47t115 -47q47 -48 47 -115t-47 -114q-26 -26 -58 -38v-344q32 -11 58 -37q47 -48 47 -115t-47 -114q-48 -48 -115 -48t-114 48q-26 26 -38 57h-992z" />
    <glyph glyph-name="six" unicode="6" 
d="M314 105q-11 -31 -37 -57q-48 -48 -115 -48t-114 48q-48 47 -48 114t48 115q26 26 57 37v344q-31 12 -57 38q-48 47 -48 114t48 115q47 47 114 47q37 0 68 -14l432 432q-14 31 -14 68q0 67 48 115q47 47 114 47t115 -47q26 -26 37 -58h344q12 32 38 58q47 47 114 47
t115 -47q47 -48 47 -115t-47 -114q-48 -48 -115 -48t-114 48q-26 26 -38 57h-344q-11 -31 -37 -57q-48 -48 -115 -48q-36 0 -67 14l-433 -432q2 -6 4 -11h992q12 32 38 58q47 47 114 47t115 -47q47 -48 47 -115t-47 -114q-26 -26 -58 -38v-344q32 -11 58 -37q47 -48 47 -115
t-47 -114q-48 -48 -115 -48t-114 48q-26 26 -38 57h-992zM219 314q32 -11 58 -37t37 -58h992q12 32 38 58t57 37v344q-31 12 -57 38t-38 57h-992q-11 -31 -37 -57t-58 -38v-344z" />
    <glyph glyph-name="seven" unicode="7" 
d="M1306 1515q12 32 38 58q47 47 114 47t115 -47q47 -48 47 -115t-47 -114q-48 -48 -115 -48q-9 0 -17 1l-512 -1024q43 -47 43 -111q0 -67 -47 -114q-48 -48 -115 -48t-114 48q-48 47 -48 114t48 115q47 47 114 47q9 0 17 -1l513 1025q-23 24 -34 53h-992q-11 -31 -37 -57
q-48 -48 -115 -48t-114 48q-48 47 -48 114t48 115q47 47 114 47t115 -47q26 -26 37 -58h992z" />
    <glyph glyph-name="eight" unicode="8" 
d="M810 890l500 500l-4 11h-992l-4 -11zM1306 219l4 11l-500 500l-500 -500l4 -11h992zM1458 0q-67 0 -114 48q-26 25 -38 57h-992q-12 -32 -37 -57q-48 -48 -115 -48t-114.5 47.5t-47.5 114.5t47.5 114.5t114.5 47.5q37 0 68 -14l500 500l-500 500q-31 -14 -68 -14
q-67 0 -114.5 47.5t-47.5 114.5t47.5 114.5t114.5 47.5t115 -47q25 -26 37 -58h992q12 32 38 58q47 47 114 47t114.5 -47.5t47.5 -114.5t-47.5 -114.5t-114.5 -47.5q-37 0 -68 14l-500 -500l500 -500q31 14 68 14q67 0 114.5 -47.5t47.5 -114.5t-47.5 -114.5t-114.5 -47.5z
" />
    <glyph glyph-name="nine" unicode="9" 
d="M1306 1515q11 31 37 57q48 48 115 48t114 -48q48 -47 48 -114t-48 -115q-26 -26 -57 -37v-344q31 -12 57 -38q48 -47 48 -114t-48 -115q-47 -47 -114 -47q-37 0 -68 14l-432 -432q14 -31 14 -68q0 -67 -48 -115q-47 -47 -114 -47t-115 47q-26 26 -37 58h-344
q-12 -32 -38 -58q-47 -47 -114 -47t-115 47q-47 48 -47 115t47 114q48 48 115 48t114 -48q26 -26 38 -57h344q11 31 37 57q48 48 115 48q36 0 67 -14l433 432q-2 6 -4 11h-992q-12 -32 -38 -58q-47 -47 -114 -47t-115 47q-47 48 -47 115t47 114q26 26 58 38v344
q-32 11 -58 37q-47 48 -47 115t47 114q48 48 115 48t114 -48q26 -26 38 -57h992zM1401 1306q-32 11 -58 37t-37 58h-992q-12 -32 -38 -58t-57 -37v-344q31 -12 57 -38t38 -57h992q11 31 37 57t58 38v344z" />
    <glyph glyph-name="colon" unicode=":" horiz-adv-x="486" 
d="M162 324q67 0 114.5 -47.5t47.5 -114.5t-47.5 -114.5t-114.5 -47.5t-114.5 47.5t-47.5 114.5t47.5 114.5t114.5 47.5zM162 972q67 0 114.5 -47.5t47.5 -114.5t-47.5 -114.5t-114.5 -47.5t-114.5 47.5t-47.5 114.5t47.5 114.5t114.5 47.5z" />
    <glyph glyph-name="semicolon" unicode=";" horiz-adv-x="486" 
d="M162 324q67 0 114.5 -47.5t47.5 -114.5t-47.5 -114.5t-114.5 -47.5t-114.5 47.5t-47.5 114.5t47.5 114.5t114.5 47.5zM162 972q67 0 114.5 -47.5t47.5 -114.5t-47.5 -114.5t-114.5 -47.5t-114.5 47.5t-47.5 114.5t47.5 114.5t114.5 47.5z" />
    <glyph glyph-name="less" unicode="&#x3c;" 
d="M1297 1441q-1 8 -1 17q0 67 48 115q47 47 114 47t115 -47q47 -48 47 -115t-47 -114q-48 -48 -115 -48q-64 0 -110 44l-1025 -513q1 -8 1 -17t-1 -17l1025 -512q46 43 110 43q67 0 115 -47q47 -48 47 -115t-47 -114q-48 -48 -115 -48t-114 48q-48 47 -48 114q0 9 1 17
l-1025 512q-46 -43 -110 -43q-67 0 -114 48q-48 47 -48 114t48 115q47 47 114 47q64 0 111 -43z" />
    <glyph glyph-name="equal" unicode="=" horiz-adv-x="1134" 
d="M658 867q12 32 38 58q47 47 114 47t115 -47q47 -48 47 -115t-47 -114q-48 -48 -115 -48t-114 48q-26 26 -38 57h-344q-11 -31 -37 -57q-48 -48 -115 -48t-114 48q-48 47 -48 114t48 115q47 47 114 47t115 -47q26 -26 37 -58h344zM658 219q12 32 38 58q47 47 114 47
t115 -47q47 -48 47 -115t-47 -114q-48 -48 -115 -48t-114 48q-26 26 -38 57h-344q-11 -31 -37 -57q-48 -48 -115 -48t-114 48q-48 47 -48 114t48 115q47 47 114 47t115 -47q26 -26 37 -58h344z" />
    <glyph glyph-name="greater" unicode="&#x3e;" 
d="M323 1441l1024 -512q47 43 111 43q67 0 114 -47q48 -48 48 -115t-48 -114q-47 -48 -114 -48q-64 0 -110 43l-1025 -512q1 -8 1 -17q0 -67 -48 -114q-47 -48 -114 -48t-115 48q-47 47 -47 114t47 115q48 47 115 47q64 0 110 -43l1025 512q-1 8 -1 17t1 17l-1025 513
q-46 -44 -110 -44q-67 0 -115 48q-47 47 -47 114t47 115q48 47 115 47t114 -47q48 -48 48 -115q0 -9 -1 -17z" />
    <glyph glyph-name="question" unicode="?" 
d="M810 324q67 0 115 -47q47 -48 47 -115t-47 -114q-48 -48 -115 -48t-114 48q-48 47 -48 114t48 115q47 47 114 47zM1306 1515q12 32 38 58q47 47 114 47t115 -47q47 -48 47 -115t-47 -114q-26 -26 -58 -38v-344q32 -11 58 -37q47 -48 47 -115t-47 -114q-48 -48 -115 -48
t-114 48q-26 26 -38 57h-344q-11 -31 -37 -57q-48 -48 -115 -48t-114 48q-48 47 -48 114t48 115q47 47 114 47t115 -47q26 -26 37 -58h344q12 32 38 58t57 37v344q-31 12 -57 38t-38 57h-992q-11 -31 -37 -57q-48 -48 -115 -48t-114 48q-48 47 -48 114t48 115q47 47 114 47
t115 -47q26 -26 37 -58h992z" />
    <glyph glyph-name="at" unicode="@" 
d="M314 105q-11 -31 -37 -57q-48 -48 -115 -48t-114 48q-48 47 -48 114t48 115q26 26 57 37v992q-31 12 -57 38q-48 47 -48 114t48 115q47 47 114 47t115 -47q26 -26 37 -58h992q12 32 38 58q47 47 114 47t115 -47q47 -48 47 -115t-47 -114q-26 -26 -58 -38v-344
q32 -11 58 -37q47 -48 47 -115t-47 -114q-48 -48 -115 -48t-114 48q-26 26 -38 57h-344q-11 -31 -37 -57q-48 -48 -115 -48t-114 48q-48 47 -48 114t48 115q47 47 114 47t115 -47q26 -26 37 -58h344q12 32 38 58t57 37v344q-31 12 -57 38t-38 57h-992q-11 -31 -37 -57
t-58 -38v-992q32 -11 58 -37t37 -58h992q12 32 38 58q47 47 114 47t115 -47q47 -48 47 -115t-47 -114q-48 -48 -115 -48t-114 48q-26 26 -38 57h-992z" />
    <glyph glyph-name="A" unicode="A" 
d="M219 314q32 -11 58 -37q47 -48 47 -115t-47 -114q-48 -48 -115 -48t-114 48q-48 47 -48 114t48 115q26 26 57 37v344q-31 12 -57 38q-48 47 -48 114t48 115q47 47 114 47q37 0 68 -14l432 432q-14 31 -14 68q0 67 48 115q47 47 114 47t115 -47q47 -48 47 -115
q0 -37 -14 -68l432 -432q31 14 68 14q67 0 115 -47q47 -48 47 -115t-47 -114q-26 -26 -58 -38v-344q32 -11 58 -37q47 -48 47 -115t-47 -114q-48 -48 -115 -48t-114 48q-48 47 -48 114t48 115q26 26 57 37v344q-31 12 -57 38t-38 57h-992q-11 -31 -37 -57t-58 -38v-344z
M878 1310q-31 -14 -68 -14t-68 14l-432 -432q2 -5 4 -11h992q2 5 4 11z" />
    <glyph glyph-name="B" unicode="B" 
d="M658 867q12 32 38 58q47 47 114 47q48 0 86 -24l416 439l-6 14h-992q-11 -31 -37 -57t-58 -38v-344q32 -12 58 -37q25 -26 37 -58h344zM105 962v344q-31 12 -57 38q-48 47 -48 114t48 115q47 47 114 47t115 -47q26 -26 37 -58h992q12 32 38 58q47 47 114 47t115 -47
q47 -48 47 -115t-47 -114q-48 -48 -115 -48q-34 0 -64 13l-428 -452q6 -22 6 -47q0 -49 -25 -87l439 -415q33 16 72 16q67 0 115 -47q47 -48 47 -115t-47 -114q-48 -48 -115 -48t-114 48q-26 26 -38 57h-992q-11 -31 -37 -57q-48 -48 -115 -48t-114 48q-48 47 -48 114
t48 115q26 26 57 37v344q-32 12 -57 38q-48 47 -48 114t48 115q25 25 57 37zM219 658v-344q32 -11 58 -37t37 -58h992q1 3 3 7l-453 428q-22 -6 -46 -6q-67 0 -114 48q-26 25 -38 57h-344q-12 -32 -37 -57q-26 -26 -58 -38z" />
    <glyph glyph-name="C" unicode="C" 
d="M1306 1515q12 32 38 58q47 47 114 47t115 -47q47 -48 47 -115t-47 -114q-48 -48 -115 -48t-114 48q-26 26 -38 57h-344q-11 -31 -37 -57q-48 -48 -115 -48q-36 0 -67 14l-433 -432q14 -31 14 -68t-14 -68l433 -432q30 14 67 14q67 0 115 -47q26 -26 37 -58h344
q12 32 38 58q47 47 114 47t115 -47q47 -48 47 -115t-47 -114q-48 -48 -115 -48t-114 48q-26 26 -38 57h-344q-11 -31 -37 -57q-48 -48 -115 -48t-114 48q-48 47 -48 114q0 37 14 68l-432 432q-31 -14 -68 -14q-67 0 -114 48q-48 47 -48 114t48 115q47 47 114 47q37 0 68 -14
l432 432q-14 31 -14 68q0 67 48 115q47 47 114 47t115 -47q26 -26 37 -58h344z" />
    <glyph glyph-name="D" unicode="D" 
d="M314 105q-11 -31 -37 -57q-48 -48 -115 -48t-114 48q-48 47 -48 114t48 115q26 26 57 37v992q-31 12 -57 38q-48 47 -48 114t48 115q47 47 114 47t115 -47q26 -26 37 -58h344q12 32 38 58q47 47 114 47t115 -47q47 -48 47 -115q0 -37 -14 -68l432 -432q31 14 68 14
q67 0 115 -47q47 -48 47 -115t-47 -114q-48 -48 -115 -48q-37 0 -68 14l-432 -432q14 -31 14 -68q0 -67 -47 -114q-48 -48 -115 -48t-114 48q-26 26 -38 57h-344zM219 314q32 -11 58 -37t37 -58h344q12 32 38 58q47 47 114 47q37 0 68 -14l432 432q-14 31 -14 68t14 68
l-432 432q-31 -14 -68 -14q-67 0 -114 48q-26 26 -38 57h-344q-11 -31 -37 -57t-58 -38v-992z" />
    <glyph glyph-name="E" unicode="E" 
d="M314 105q-11 -31 -37 -57q-48 -48 -115 -48t-114 48q-48 47 -48 114t48 115q26 26 57 37v344q-31 12 -57 38q-48 47 -48 114t48 115q26 26 57 37v344q-31 12 -57 38q-48 47 -48 114t48 115q47 47 114 47t115 -47q26 -26 37 -58h992q12 32 38 58q47 47 114 47t115 -47
q47 -48 47 -115t-47 -114q-48 -48 -115 -48t-114 48q-26 26 -38 57h-992q-11 -31 -37 -57t-58 -38v-344q32 -11 58 -37q26 -27 38 -59l343 1q12 32 38 58q47 47 114 47t115 -47q47 -48 47 -115t-47 -114q-48 -48 -115 -48t-114 48q-26 26 -38 57h-344q-11 -31 -37 -57
t-58 -38v-344q32 -11 58 -37t37 -58h992q12 32 38 58q47 47 114 47t115 -47q47 -48 47 -115t-47 -114q-48 -48 -115 -48t-114 48q-26 26 -38 57h-992z" />
    <glyph glyph-name="F" unicode="F" 
d="M219 314q32 -11 58 -37q47 -48 47 -115t-47 -114q-48 -48 -115 -48t-114 48q-48 47 -48 114t48 115q26 26 57 37v344q-31 12 -57 38q-48 47 -48 114t48 115q26 26 57 37v344q-31 12 -57 38q-48 47 -48 114t48 115q47 47 114 47t115 -47q26 -26 37 -58h992q12 32 38 58
q47 47 114 47t115 -47q47 -48 47 -115t-47 -114q-48 -48 -115 -48t-114 48q-26 26 -38 57h-992q-11 -31 -37 -57t-58 -38v-344q32 -11 58 -37q26 -27 38 -59l343 1q12 32 38 58q47 47 114 47t115 -47q47 -48 47 -115t-47 -114q-48 -48 -115 -48t-114 48q-26 26 -38 57h-344
q-11 -31 -37 -57t-58 -38v-344z" />
    <glyph glyph-name="G" unicode="G" 
d="M314 105q-11 -31 -37 -57q-48 -48 -115 -48t-114 48q-48 47 -48 114t48 115q26 26 57 37v992q-31 12 -57 38q-48 47 -48 114t48 115q47 47 114 47t115 -47q26 -26 37 -58h992q12 32 38 58q47 47 114 47t115 -47q47 -48 47 -115t-47 -114q-48 -48 -115 -48t-114 48
q-26 26 -38 57h-992q-11 -31 -37 -57t-58 -38v-992q32 -11 58 -37t37 -58h344q12 32 38 58q47 47 114 47q37 0 68 -14l432 432q-2 6 -4 11h-344q-11 -31 -37 -57q-48 -48 -115 -48t-114 48q-48 47 -48 114t48 115q47 47 114 47t115 -47q26 -26 37 -58h344q12 32 38 58
q47 47 114 47t115 -47q47 -48 47 -115t-47 -114q-48 -48 -115 -48q-37 0 -68 14l-432 -432q14 -31 14 -68q0 -67 -47 -114q-48 -48 -115 -48t-114 48q-26 26 -38 57h-344z" />
    <glyph glyph-name="H" unicode="H" 
d="M219 314q32 -11 58 -37q47 -48 47 -115t-47 -114q-48 -48 -115 -48t-114 48q-48 47 -48 114t48 115q26 26 57 37v344q-31 12 -57 38q-48 47 -48 114t48 115q26 26 57 37v344q-31 12 -57 38q-48 47 -48 114t48 115q47 47 114 47t115 -47q47 -48 47 -115t-47 -114
q-26 -26 -58 -38v-344q32 -11 58 -37t37 -58h992q12 32 38 58t57 37v344q-31 12 -57 38q-48 47 -48 114t48 115q47 47 114 47t115 -47q47 -48 47 -115t-47 -114q-26 -26 -58 -38v-344q32 -11 58 -37q47 -48 47 -115t-47 -114q-26 -26 -58 -38v-344q32 -11 58 -37
q47 -48 47 -115t-47 -114q-48 -48 -115 -48t-114 48q-48 47 -48 114t48 115q26 26 57 37v344q-31 12 -57 38t-38 57h-992q-11 -31 -37 -57t-58 -38v-344z" />
    <glyph glyph-name="I" unicode="I" horiz-adv-x="486" 
d="M219 314q32 -11 58 -37q47 -48 47 -115t-47 -114q-48 -48 -115 -48t-114 48q-48 47 -48 114t48 115q26 26 57 37v992q-31 12 -57 38q-48 47 -48 114t48 115q47 47 114 47t115 -47q47 -48 47 -115t-47 -114q-26 -26 -58 -38v-992z" />
    <glyph glyph-name="J" unicode="J" 
d="M1401 1306q-31 12 -57 38q-48 47 -48 114t48 115q47 47 114 47t115 -47q47 -48 47 -115t-47 -114q-26 -26 -58 -38v-992q32 -11 58 -37q47 -48 47 -115t-47 -114q-48 -48 -115 -48t-114 48q-26 26 -38 57h-344q-11 -31 -37 -57q-48 -48 -115 -48t-114 48q-48 47 -48 114
q0 37 14 68l-432 432q-31 -14 -68 -14q-67 0 -114 48q-48 47 -48 114t48 115q47 47 114 47t115 -47q47 -48 47 -115q0 -37 -14 -68l432 -432q31 14 68 14q67 0 115 -47q26 -26 37 -58h344q12 32 38 58t57 37v992z" />
    <glyph glyph-name="K" unicode="K" 
d="M219 314q32 -11 58 -37q47 -48 47 -115t-47 -114q-48 -48 -115 -48t-114 48q-48 47 -48 114t48 115q26 26 57 37v344q-31 12 -57 38q-48 47 -48 114t48 115q26 26 57 37v344q-31 12 -57 38q-48 47 -48 114t48 115q47 47 114 47t115 -47q47 -48 47 -115t-47 -114
q-26 -26 -58 -38v-344q32 -11 58 -37t37 -58h344q12 32 38 58q47 47 114 47q37 0 68 -14l432 432q-14 31 -14 68q0 67 48 115q47 47 114 47t115 -47q47 -48 47 -115t-47 -114q-48 -48 -115 -48q-37 0 -68 14l-432 -432q14 -31 14 -68t-14 -68l432 -432q31 14 68 14
q67 0 115 -47q47 -48 47 -115t-47 -114q-48 -48 -115 -48t-114 48q-48 47 -48 114q0 37 14 68l-432 432q-31 -14 -68 -14q-67 0 -114 48q-26 26 -38 57h-344q-11 -31 -37 -57t-58 -38v-344z" />
    <glyph glyph-name="L" unicode="L" 
d="M314 105q-11 -31 -37 -57q-48 -48 -115 -48t-114 48q-48 47 -48 114t48 115q26 26 57 37v992q-31 12 -57 38q-48 47 -48 114t48 115q47 47 114 47t115 -47q47 -48 47 -115t-47 -114q-26 -26 -58 -38v-992q32 -11 58 -37t37 -58h992q12 32 38 58q47 47 114 47t115 -47
q47 -48 47 -115t-47 -114q-48 -48 -115 -48t-114 48q-26 26 -38 57h-992z" />
    <glyph glyph-name="M" unicode="M" 
d="M219 314q32 -11 58 -37q47 -48 47 -115t-47 -114q-48 -48 -115 -48t-114 48q-48 47 -48 114t48 115q26 26 57 37v992q-31 12 -57 38q-48 47 -48 114t48 115q47 47 114 47t115 -47q47 -48 47 -115q0 -64 -43 -110l512 -1025q8 1 17 1t17 -1l513 1025q-44 46 -44 110
q0 67 48 115q47 47 114 47t115 -47q47 -48 47 -115t-47 -114q-26 -26 -58 -38v-992q32 -11 58 -37q47 -48 47 -115t-47 -114q-48 -48 -115 -48t-114 48q-48 47 -48 114t48 115q26 26 57 37v904l-472 -945q43 -47 43 -111q0 -67 -47 -114q-48 -48 -115 -48t-114 48
q-48 47 -48 114q0 64 43 110l-472 946v-904z" />
    <glyph glyph-name="N" unicode="N" 
d="M219 314q32 -11 58 -37q47 -48 47 -115t-47 -114q-48 -48 -115 -48t-114 48q-48 47 -48 114t48 115q26 26 57 37v992q-31 12 -57 38q-48 47 -48 114t48 115q47 47 114 47t115 -47q47 -48 47 -115q0 -37 -14 -68l1080 -1080q6 2 11 4v992q-31 12 -57 38q-48 47 -48 114
t48 115q47 47 114 47t115 -47q47 -48 47 -115t-47 -114q-26 -26 -58 -38v-992q32 -11 58 -37q47 -48 47 -115t-47 -114q-48 -48 -115 -48t-114 48q-48 47 -48 114q0 37 14 68l-1080 1080q-6 -2 -11 -4v-992z" />
    <glyph glyph-name="O" unicode="O" 
d="M662 1390q-14 31 -14 68q0 67 48 115q47 47 114 47t115 -47q47 -48 47 -115q0 -37 -14 -68l432 -432q31 14 68 14q67 0 115 -47q47 -48 47 -115t-47 -114q-48 -48 -115 -48q-37 0 -68 14l-432 -432q14 -31 14 -68q0 -67 -47 -114q-48 -48 -115 -48t-114 48
q-48 47 -48 114q0 37 14 68l-432 432q-31 -14 -68 -14q-67 0 -114 48q-48 47 -48 114t48 115q47 47 114 47q37 0 68 -14zM878 1310q-31 -14 -68 -14t-68 14l-432 -432q14 -31 14 -68t-14 -68l432 -432q31 14 68 14t68 -14l432 432q-14 31 -14 68t14 68z" />
    <glyph glyph-name="P" unicode="P" 
d="M219 314q32 -11 58 -37q47 -48 47 -115t-47 -114q-48 -48 -115 -48t-114 48q-48 47 -48 114t48 115q26 26 57 37v344q-31 12 -57 38q-48 47 -48 114t48 115q26 26 57 37v344q-31 12 -57 38q-48 47 -48 114t48 115q47 47 114 47t115 -47q26 -26 37 -58h992q12 32 38 58
q47 47 114 47t115 -47q47 -48 47 -115t-47 -114q-26 -26 -58 -38v-344q32 -11 58 -37q47 -48 47 -115t-47 -114q-48 -48 -115 -48t-114 48q-26 26 -38 57h-992q-11 -31 -37 -57t-58 -38v-344zM1401 1306q-31 12 -57 38t-38 57h-992q-11 -31 -37 -57t-58 -38v-344
q32 -11 58 -37t37 -58h992q12 32 38 58t57 37v344z" />
    <glyph glyph-name="Q" unicode="Q" 
d="M662 1390q-14 31 -14 68q0 67 48 115q47 47 114 47t115 -47q47 -48 47 -115q0 -37 -14 -68l432 -432q31 14 68 14q67 0 115 -47q47 -48 47 -115t-47 -114q-48 -48 -115 -48q-37 0 -68 14l-176 -176l176 -176q31 14 68 14q67 0 115 -47q47 -48 47 -115t-47 -114
q-48 -48 -115 -48t-114 48q-48 47 -48 114q0 37 14 68l-176 176l-176 -176q14 -31 14 -68q0 -67 -47 -114q-48 -48 -115 -48t-114 48q-48 47 -48 114q0 37 14 68l-432 432q-31 -14 -68 -14q-67 0 -114 48q-48 47 -48 114t48 115q47 47 114 47q37 0 68 -14zM878 1310
q-31 -14 -68 -14t-68 14l-432 -432q14 -31 14 -68t-14 -68l432 -432q31 14 68 14t68 -14l176 176l-176 176q-31 -14 -68 -14q-67 0 -114 48q-48 47 -48 114t48 115q47 47 114 47t115 -47q47 -48 47 -115q0 -37 -14 -68l176 -176l176 176q-14 31 -14 68t14 68z" />
    <glyph glyph-name="R" unicode="R" 
d="M219 314q32 -11 58 -37q47 -48 47 -115t-47 -114q-48 -48 -115 -48t-114 48q-48 47 -48 114t48 115q26 26 57 37v344q-31 12 -57 38q-48 47 -48 114t48 115q26 26 57 37v344q-31 12 -57 38q-48 47 -48 114t48 115q47 47 114 47t115 -47q26 -26 37 -58h992q12 32 38 58
q47 47 114 47t115 -47q47 -48 47 -115t-47 -114q-48 -48 -115 -48q-37 0 -68 14l-432 -432q14 -31 14 -68t-14 -68l432 -432q31 14 68 14q67 0 115 -47q47 -48 47 -115t-47 -114q-48 -48 -115 -48t-114 48q-48 47 -48 114q0 37 14 68l-432 432q-31 -14 -68 -14
q-67 0 -114 48q-26 26 -38 57h-344q-11 -31 -37 -57t-58 -38v-344zM1310 1390q-2 6 -4 11h-992q-11 -31 -37 -57t-58 -38v-344q32 -11 58 -37t37 -58h344q12 32 38 58q47 47 114 47q37 0 68 -14z" />
    <glyph glyph-name="S" unicode="S" 
d="M314 105q-11 -31 -37 -57q-48 -48 -115 -48t-114 48q-48 47 -48 114t48 115q47 47 114 47t115 -47q26 -26 37 -58h344q12 32 38 58q47 47 114 47q37 0 68 -14l432 432q-2 6 -4 11h-992q-11 -31 -37 -57q-48 -48 -115 -48t-114 48q-48 47 -48 114t48 115q47 47 114 47
q37 0 68 -14l432 432q-14 31 -14 68q0 67 48 115q47 47 114 47t115 -47q26 -26 37 -58h344q12 32 38 58q47 47 114 47t115 -47q47 -48 47 -115t-47 -114q-48 -48 -115 -48t-114 48q-26 26 -38 57h-344q-11 -31 -37 -57q-48 -48 -115 -48q-37 0 -68 14l-432 -432q2 -5 4 -11
h992q12 32 38 58q47 47 114 47t115 -47q47 -48 47 -115t-47 -114q-48 -48 -115 -48q-37 0 -68 14l-432 -432q14 -31 14 -68q0 -67 -47 -114q-48 -48 -115 -48t-114 48q-26 26 -38 57h-344z" />
    <glyph glyph-name="T" unicode="T" 
d="M1306 1515q12 32 38 58q47 47 114 47t115 -47q47 -48 47 -115t-47 -114q-48 -48 -115 -48t-114 48q-26 26 -38 57h-344q-11 -31 -37 -57t-58 -38v-992q32 -11 58 -37q47 -48 47 -115t-47 -114q-48 -48 -115 -48t-114 48q-48 47 -48 114t48 115q26 26 57 37v992
q-31 12 -57 38t-38 57h-344q-11 -31 -37 -57q-48 -48 -115 -48t-114 48q-48 47 -48 114t48 115q47 47 114 47t115 -47q26 -26 37 -58h344q12 32 38 58q47 47 114 47t115 -47q26 -26 37 -58h344z" />
    <glyph glyph-name="U" unicode="U" 
d="M1401 1306q-31 12 -57 38q-48 47 -48 114t48 115q47 47 114 47t115 -47q47 -48 47 -115t-47 -114q-26 -26 -58 -38v-992q32 -11 58 -37q47 -48 47 -115t-47 -114q-48 -48 -115 -48t-114 48q-26 26 -38 57h-344q-11 -31 -37 -57q-48 -48 -115 -48t-114 48q-48 47 -48 114
q0 37 14 68l-432 432q-31 -14 -68 -14q-67 0 -114 48q-48 47 -48 114t48 115q26 26 57 37v344q-31 12 -57 38q-48 47 -48 114t48 115q47 47 114 47t115 -47q47 -48 47 -115t-47 -114q-26 -26 -58 -38v-344q32 -11 58 -37q47 -48 47 -115q0 -37 -14 -68l432 -432q31 14 68 14
q67 0 115 -47q26 -26 37 -58h344q12 32 38 58t57 37v992z" />
    <glyph glyph-name="V" unicode="V" 
d="M1340 1348q-44 46 -44 110q0 67 48 115q47 47 114 47t115 -47q47 -48 47 -115t-47 -114q-48 -48 -115 -48q-9 0 -17 1l-512 -1024q43 -47 43 -111q0 -67 -47 -114q-48 -48 -115 -48t-114 48q-48 47 -48 114q0 64 43 110l-512 1025q-8 -1 -17 -1q-67 0 -114 48
q-48 47 -48 114t48 115q47 47 114 47t115 -47q47 -48 47 -115q0 -64 -43 -110l512 -1025q8 1 17 1t17 -1z" />
    <glyph glyph-name="W" unicode="W" 
d="M281 273q43 -47 43 -111q0 -67 -47 -114q-48 -48 -115 -48t-114 48q-48 47 -48 114t48 115q26 26 57 37v992q-31 12 -57 38q-48 47 -48 114t48 115q47 47 114 47t115 -47q47 -48 47 -115t-47 -114q-26 -26 -58 -38v-904l473 946q-44 46 -44 110q0 67 48 115q47 47 114 47
t115 -47q47 -48 47 -115q0 -64 -43 -110l472 -946v904q-31 12 -57 38q-48 47 -48 114t48 115q47 47 114 47t115 -47q47 -48 47 -115t-47 -114q-26 -26 -58 -38v-992q32 -11 58 -37q47 -48 47 -115t-47 -114q-48 -48 -115 -48t-114 48q-48 47 -48 114q0 64 43 110l-512 1025
q-8 -1 -17 -1t-17 1z" />
    <glyph glyph-name="X" unicode="X" 
d="M1458 0q-67 0 -114.5 47.5t-47.5 114.5q0 37 14 68l-500 500l-500 -500q14 -31 14 -68q0 -67 -47.5 -114.5t-114.5 -47.5t-114.5 47.5t-47.5 114.5t47.5 114.5t114.5 47.5q37 0 68 -14l500 500l-500 500q-31 -14 -68 -14q-67 0 -114.5 47.5t-47.5 114.5t47.5 114.5
t114.5 47.5t114.5 -47.5t47.5 -114.5q0 -37 -14 -68l500 -500l500 500q-14 31 -14 68q0 67 47.5 114.5t114.5 47.5t114.5 -47.5t47.5 -114.5t-47.5 -114.5t-114.5 -47.5q-37 0 -68 14l-500 -500l500 -500q31 14 68 14q67 0 114.5 -47.5t47.5 -114.5t-47.5 -114.5
t-114.5 -47.5z" />
    <glyph glyph-name="Y" unicode="Y" 
d="M1310 1390q-14 31 -14 68q0 67 48 115q47 47 114 47t115 -47q47 -48 47 -115t-47 -114q-48 -48 -115 -48q-37 0 -68 14l-432 -432q14 -31 14 -68q0 -67 -47 -114q-26 -26 -58 -38v-344q32 -11 58 -37q47 -48 47 -115t-47 -114q-48 -48 -115 -48t-114 48q-48 47 -48 114
t48 115q26 26 57 37v344q-31 12 -57 38q-48 47 -48 114q0 37 14 68l-432 432q-31 -14 -68 -14q-67 0 -114 48q-48 47 -48 114t48 115q47 47 114 47t115 -47q47 -48 47 -115q0 -37 -14 -68l432 -432q31 14 68 14t68 -14z" />
    <glyph glyph-name="Z" unicode="Z" 
d="M314 105q-11 -31 -37 -57q-48 -48 -115 -48t-114 48q-48 47 -48 114t48 115q47 47 114 47q37 0 68 -14l1080 1080q-2 6 -4 11h-992q-11 -31 -37 -57q-48 -48 -115 -48t-114 48q-48 47 -48 114t48 115q47 47 114 47t115 -47q26 -26 37 -58h992q12 32 38 58q47 47 114 47
t115 -47q47 -48 47 -115t-47 -114q-48 -48 -115 -48q-37 0 -68 14l-1080 -1080q2 -5 4 -11h992q12 32 38 58q47 47 114 47t115 -47q47 -48 47 -115t-47 -114q-48 -48 -115 -48t-114 48q-26 26 -38 57h-992z" />
    <glyph glyph-name="bracketleft" unicode="[" horiz-adv-x="1134" 
d="M314 105q-11 -31 -37 -57q-48 -48 -115 -48t-114 48q-48 47 -48 114t48 115q26 26 57 37v992q-31 12 -57 38q-48 47 -48 114t48 115q47 47 114 47t115 -47q26 -26 37 -58h344q12 32 38 58q47 47 114 47t115 -47q47 -48 47 -115t-47 -114q-48 -48 -115 -48t-114 48
q-26 26 -38 57h-344q-11 -31 -37 -57t-58 -38v-992q32 -11 58 -37t37 -58h344q12 32 38 58q47 47 114 47t115 -47q47 -48 47 -115t-47 -114q-48 -48 -115 -48t-114 48q-26 26 -38 57h-344z" />
    <glyph glyph-name="backslash" unicode="\" 
d="M1310 230l-1080 1080q-31 -14 -68 -14q-67 0 -115 48q-47 47 -47 114t47 115q48 47 115 47t114 -47q48 -48 48 -115q0 -37 -14 -68l1080 -1080q31 14 68 14q67 0 114 -47q48 -48 48 -115t-48 -114q-47 -48 -114 -48t-115 48q-47 47 -47 114q0 37 14 68z" />
    <glyph glyph-name="bracketright" unicode="]" horiz-adv-x="1134" 
d="M658 105h-344q-12 -31 -38 -57q-47 -48 -114 -48t-115 48q-47 47 -47 114t47 115q48 47 115 47t114 -47q26 -26 38 -58h344q11 32 37 58t58 37v992q-32 12 -58 38t-37 57h-344q-12 -31 -38 -57q-47 -48 -114 -48t-115 48q-47 47 -47 114t47 115q48 47 115 47t114 -47
q26 -26 38 -58h344q11 32 37 58q48 47 115 47t114 -47q48 -48 48 -115t-48 -114q-26 -26 -57 -38v-992q31 -11 57 -37q48 -48 48 -115t-48 -114q-47 -48 -114 -48t-115 48q-26 26 -37 57z" />
    <glyph glyph-name="asciicircum" unicode="^" 
d="M662 1390q-14 31 -14 68q0 67 48 115q47 47 114 47t115 -47q47 -48 47 -115q0 -37 -14 -68l432 -432q31 14 68 14q67 0 115 -47q47 -48 47 -115t-47 -114q-48 -48 -115 -48t-114 48q-48 47 -48 114q0 37 14 68l-432 432q-31 -14 -68 -14t-68 14l-432 -432q14 -31 14 -68
q0 -67 -47 -114q-48 -48 -115 -48t-114 48q-48 47 -48 114t48 115q47 47 114 47q37 0 68 -14z" />
    <glyph glyph-name="underscore" unicode="_" 
d="M314 105q-11 -31 -37 -57q-48 -48 -115 -48t-114 48q-48 47 -48 114t48 115q47 47 114 47t115 -47q26 -26 37 -58h992q12 32 38 58q47 47 114 47t115 -47q47 -48 47 -115t-47 -114q-48 -48 -115 -48t-114 48q-26 26 -38 57h-992z" />
    <glyph glyph-name="grave" unicode="`" horiz-adv-x="486" 
d="M162 1620q67 0 114.5 -47.5t47.5 -114.5t-47.5 -114.5t-114.5 -47.5t-114.5 47.5t-47.5 114.5t47.5 114.5t114.5 47.5z" />
    <glyph glyph-name="a" unicode="a" 
d="M219 314q32 -11 58 -37q47 -48 47 -115t-47 -114q-48 -48 -115 -48t-114 48q-48 47 -48 114t48 115q26 26 57 37v344q-31 12 -57 38q-48 47 -48 114t48 115q47 47 114 47q37 0 68 -14l432 432q-14 31 -14 68q0 67 48 115q47 47 114 47t115 -47q47 -48 47 -115
q0 -37 -14 -68l432 -432q31 14 68 14q67 0 115 -47q47 -48 47 -115t-47 -114q-26 -26 -58 -38v-344q32 -11 58 -37q47 -48 47 -115t-47 -114q-48 -48 -115 -48t-114 48q-48 47 -48 114t48 115q26 26 57 37v344q-31 12 -57 38t-38 57h-992q-11 -31 -37 -57t-58 -38v-344z
M878 1310q-31 -14 -68 -14t-68 14l-432 -432q2 -5 4 -11h992q2 5 4 11z" />
    <glyph glyph-name="b" unicode="b" 
d="M658 867q12 32 38 58q47 47 114 47q48 0 86 -24l416 439l-6 14h-992q-11 -31 -37 -57t-58 -38v-344q32 -12 58 -37q25 -26 37 -58h344zM105 962v344q-31 12 -57 38q-48 47 -48 114t48 115q47 47 114 47t115 -47q26 -26 37 -58h992q12 32 38 58q47 47 114 47t115 -47
q47 -48 47 -115t-47 -114q-48 -48 -115 -48q-34 0 -64 13l-428 -452q6 -22 6 -47q0 -49 -25 -87l439 -415q33 16 72 16q67 0 115 -47q47 -48 47 -115t-47 -114q-48 -48 -115 -48t-114 48q-26 26 -38 57h-992q-11 -31 -37 -57q-48 -48 -115 -48t-114 48q-48 47 -48 114
t48 115q26 26 57 37v344q-32 12 -57 38q-48 47 -48 114t48 115q25 25 57 37zM219 658v-344q32 -11 58 -37t37 -58h992q1 3 3 7l-453 428q-22 -6 -46 -6q-67 0 -114 48q-26 25 -38 57h-344q-12 -32 -37 -57q-26 -26 -58 -38z" />
    <glyph glyph-name="c" unicode="c" 
d="M1306 1515q12 32 38 58q47 47 114 47t115 -47q47 -48 47 -115t-47 -114q-48 -48 -115 -48t-114 48q-26 26 -38 57h-344q-11 -31 -37 -57q-48 -48 -115 -48q-36 0 -67 14l-433 -432q14 -31 14 -68t-14 -68l433 -432q30 14 67 14q67 0 115 -47q26 -26 37 -58h344
q12 32 38 58q47 47 114 47t115 -47q47 -48 47 -115t-47 -114q-48 -48 -115 -48t-114 48q-26 26 -38 57h-344q-11 -31 -37 -57q-48 -48 -115 -48t-114 48q-48 47 -48 114q0 37 14 68l-432 432q-31 -14 -68 -14q-67 0 -114 48q-48 47 -48 114t48 115q47 47 114 47q37 0 68 -14
l432 432q-14 31 -14 68q0 67 48 115q47 47 114 47t115 -47q26 -26 37 -58h344z" />
    <glyph glyph-name="d" unicode="d" 
d="M314 105q-11 -31 -37 -57q-48 -48 -115 -48t-114 48q-48 47 -48 114t48 115q26 26 57 37v992q-31 12 -57 38q-48 47 -48 114t48 115q47 47 114 47t115 -47q26 -26 37 -58h344q12 32 38 58q47 47 114 47t115 -47q47 -48 47 -115q0 -37 -14 -68l432 -432q31 14 68 14
q67 0 115 -47q47 -48 47 -115t-47 -114q-48 -48 -115 -48q-37 0 -68 14l-432 -432q14 -31 14 -68q0 -67 -47 -114q-48 -48 -115 -48t-114 48q-26 26 -38 57h-344zM219 314q32 -11 58 -37t37 -58h344q12 32 38 58q47 47 114 47q37 0 68 -14l432 432q-14 31 -14 68t14 68
l-432 432q-31 -14 -68 -14q-67 0 -114 48q-26 26 -38 57h-344q-11 -31 -37 -57t-58 -38v-992z" />
    <glyph glyph-name="e" unicode="e" 
d="M314 105q-11 -31 -37 -57q-48 -48 -115 -48t-114 48q-48 47 -48 114t48 115q26 26 57 37v344q-31 12 -57 38q-48 47 -48 114t48 115q26 26 57 37v344q-31 12 -57 38q-48 47 -48 114t48 115q47 47 114 47t115 -47q26 -26 37 -58h992q12 32 38 58q47 47 114 47t115 -47
q47 -48 47 -115t-47 -114q-48 -48 -115 -48t-114 48q-26 26 -38 57h-992q-11 -31 -37 -57t-58 -38v-344q32 -11 58 -37q26 -27 38 -59l343 1q12 32 38 58q47 47 114 47t115 -47q47 -48 47 -115t-47 -114q-48 -48 -115 -48t-114 48q-26 26 -38 57h-344q-11 -31 -37 -57
t-58 -38v-344q32 -11 58 -37t37 -58h992q12 32 38 58q47 47 114 47t115 -47q47 -48 47 -115t-47 -114q-48 -48 -115 -48t-114 48q-26 26 -38 57h-992z" />
    <glyph glyph-name="f" unicode="f" 
d="M219 314q32 -11 58 -37q47 -48 47 -115t-47 -114q-48 -48 -115 -48t-114 48q-48 47 -48 114t48 115q26 26 57 37v344q-31 12 -57 38q-48 47 -48 114t48 115q26 26 57 37v344q-31 12 -57 38q-48 47 -48 114t48 115q47 47 114 47t115 -47q26 -26 37 -58h992q12 32 38 58
q47 47 114 47t115 -47q47 -48 47 -115t-47 -114q-48 -48 -115 -48t-114 48q-26 26 -38 57h-992q-11 -31 -37 -57t-58 -38v-344q32 -11 58 -37q26 -27 38 -59l343 1q12 32 38 58q47 47 114 47t115 -47q47 -48 47 -115t-47 -114q-48 -48 -115 -48t-114 48q-26 26 -38 57h-344
q-11 -31 -37 -57t-58 -38v-344z" />
    <glyph glyph-name="g" unicode="g" 
d="M314 105q-11 -31 -37 -57q-48 -48 -115 -48t-114 48q-48 47 -48 114t48 115q26 26 57 37v992q-31 12 -57 38q-48 47 -48 114t48 115q47 47 114 47t115 -47q26 -26 37 -58h992q12 32 38 58q47 47 114 47t115 -47q47 -48 47 -115t-47 -114q-48 -48 -115 -48t-114 48
q-26 26 -38 57h-992q-11 -31 -37 -57t-58 -38v-992q32 -11 58 -37t37 -58h344q12 32 38 58q47 47 114 47q37 0 68 -14l432 432q-2 6 -4 11h-344q-11 -31 -37 -57q-48 -48 -115 -48t-114 48q-48 47 -48 114t48 115q47 47 114 47t115 -47q26 -26 37 -58h344q12 32 38 58
q47 47 114 47t115 -47q47 -48 47 -115t-47 -114q-48 -48 -115 -48q-37 0 -68 14l-432 -432q14 -31 14 -68q0 -67 -47 -114q-48 -48 -115 -48t-114 48q-26 26 -38 57h-344z" />
    <glyph glyph-name="h" unicode="h" 
d="M219 314q32 -11 58 -37q47 -48 47 -115t-47 -114q-48 -48 -115 -48t-114 48q-48 47 -48 114t48 115q26 26 57 37v344q-31 12 -57 38q-48 47 -48 114t48 115q26 26 57 37v344q-31 12 -57 38q-48 47 -48 114t48 115q47 47 114 47t115 -47q47 -48 47 -115t-47 -114
q-26 -26 -58 -38v-344q32 -11 58 -37t37 -58h992q12 32 38 58t57 37v344q-31 12 -57 38q-48 47 -48 114t48 115q47 47 114 47t115 -47q47 -48 47 -115t-47 -114q-26 -26 -58 -38v-344q32 -11 58 -37q47 -48 47 -115t-47 -114q-26 -26 -58 -38v-344q32 -11 58 -37
q47 -48 47 -115t-47 -114q-48 -48 -115 -48t-114 48q-48 47 -48 114t48 115q26 26 57 37v344q-31 12 -57 38t-38 57h-992q-11 -31 -37 -57t-58 -38v-344z" />
    <glyph glyph-name="i" unicode="i" horiz-adv-x="486" 
d="M219 314q32 -11 58 -37q47 -48 47 -115t-47 -114q-48 -48 -115 -48t-114 48q-48 47 -48 114t48 115q26 26 57 37v992q-31 12 -57 38q-48 47 -48 114t48 115q47 47 114 47t115 -47q47 -48 47 -115t-47 -114q-26 -26 -58 -38v-992z" />
    <glyph glyph-name="j" unicode="j" 
d="M1401 1306q-31 12 -57 38q-48 47 -48 114t48 115q47 47 114 47t115 -47q47 -48 47 -115t-47 -114q-26 -26 -58 -38v-992q32 -11 58 -37q47 -48 47 -115t-47 -114q-48 -48 -115 -48t-114 48q-26 26 -38 57h-344q-11 -31 -37 -57q-48 -48 -115 -48t-114 48q-48 47 -48 114
q0 37 14 68l-432 432q-31 -14 -68 -14q-67 0 -114 48q-48 47 -48 114t48 115q47 47 114 47t115 -47q47 -48 47 -115q0 -37 -14 -68l432 -432q31 14 68 14q67 0 115 -47q26 -26 37 -58h344q12 32 38 58t57 37v992z" />
    <glyph glyph-name="k" unicode="k" 
d="M219 314q32 -11 58 -37q47 -48 47 -115t-47 -114q-48 -48 -115 -48t-114 48q-48 47 -48 114t48 115q26 26 57 37v344q-31 12 -57 38q-48 47 -48 114t48 115q26 26 57 37v344q-31 12 -57 38q-48 47 -48 114t48 115q47 47 114 47t115 -47q47 -48 47 -115t-47 -114
q-26 -26 -58 -38v-344q32 -11 58 -37t37 -58h344q12 32 38 58q47 47 114 47q37 0 68 -14l432 432q-14 31 -14 68q0 67 48 115q47 47 114 47t115 -47q47 -48 47 -115t-47 -114q-48 -48 -115 -48q-37 0 -68 14l-432 -432q14 -31 14 -68t-14 -68l432 -432q31 14 68 14
q67 0 115 -47q47 -48 47 -115t-47 -114q-48 -48 -115 -48t-114 48q-48 47 -48 114q0 37 14 68l-432 432q-31 -14 -68 -14q-67 0 -114 48q-26 26 -38 57h-344q-11 -31 -37 -57t-58 -38v-344z" />
    <glyph glyph-name="l" unicode="l" 
d="M314 105q-11 -31 -37 -57q-48 -48 -115 -48t-114 48q-48 47 -48 114t48 115q26 26 57 37v992q-31 12 -57 38q-48 47 -48 114t48 115q47 47 114 47t115 -47q47 -48 47 -115t-47 -114q-26 -26 -58 -38v-992q32 -11 58 -37t37 -58h992q12 32 38 58q47 47 114 47t115 -47
q47 -48 47 -115t-47 -114q-48 -48 -115 -48t-114 48q-26 26 -38 57h-992z" />
    <glyph glyph-name="m" unicode="m" 
d="M219 314q32 -11 58 -37q47 -48 47 -115t-47 -114q-48 -48 -115 -48t-114 48q-48 47 -48 114t48 115q26 26 57 37v992q-31 12 -57 38q-48 47 -48 114t48 115q47 47 114 47t115 -47q47 -48 47 -115q0 -64 -43 -110l512 -1025q8 1 17 1t17 -1l513 1025q-44 46 -44 110
q0 67 48 115q47 47 114 47t115 -47q47 -48 47 -115t-47 -114q-26 -26 -58 -38v-992q32 -11 58 -37q47 -48 47 -115t-47 -114q-48 -48 -115 -48t-114 48q-48 47 -48 114t48 115q26 26 57 37v904l-472 -945q43 -47 43 -111q0 -67 -47 -114q-48 -48 -115 -48t-114 48
q-48 47 -48 114q0 64 43 110l-472 946v-904z" />
    <glyph glyph-name="n" unicode="n" 
d="M219 314q32 -11 58 -37q47 -48 47 -115t-47 -114q-48 -48 -115 -48t-114 48q-48 47 -48 114t48 115q26 26 57 37v992q-31 12 -57 38q-48 47 -48 114t48 115q47 47 114 47t115 -47q47 -48 47 -115q0 -37 -14 -68l1080 -1080q6 2 11 4v992q-31 12 -57 38q-48 47 -48 114
t48 115q47 47 114 47t115 -47q47 -48 47 -115t-47 -114q-26 -26 -58 -38v-992q32 -11 58 -37q47 -48 47 -115t-47 -114q-48 -48 -115 -48t-114 48q-48 47 -48 114q0 37 14 68l-1080 1080q-6 -2 -11 -4v-992z" />
    <glyph glyph-name="o" unicode="o" 
d="M662 1390q-14 31 -14 68q0 67 48 115q47 47 114 47t115 -47q47 -48 47 -115q0 -37 -14 -68l432 -432q31 14 68 14q67 0 115 -47q47 -48 47 -115t-47 -114q-48 -48 -115 -48q-37 0 -68 14l-432 -432q14 -31 14 -68q0 -67 -47 -114q-48 -48 -115 -48t-114 48
q-48 47 -48 114q0 37 14 68l-432 432q-31 -14 -68 -14q-67 0 -114 48q-48 47 -48 114t48 115q47 47 114 47q37 0 68 -14zM878 1310q-31 -14 -68 -14t-68 14l-432 -432q14 -31 14 -68t-14 -68l432 -432q31 14 68 14t68 -14l432 432q-14 31 -14 68t14 68z" />
    <glyph glyph-name="p" unicode="p" 
d="M219 314q32 -11 58 -37q47 -48 47 -115t-47 -114q-48 -48 -115 -48t-114 48q-48 47 -48 114t48 115q26 26 57 37v344q-31 12 -57 38q-48 47 -48 114t48 115q26 26 57 37v344q-31 12 -57 38q-48 47 -48 114t48 115q47 47 114 47t115 -47q26 -26 37 -58h992q12 32 38 58
q47 47 114 47t115 -47q47 -48 47 -115t-47 -114q-26 -26 -58 -38v-344q32 -11 58 -37q47 -48 47 -115t-47 -114q-48 -48 -115 -48t-114 48q-26 26 -38 57h-992q-11 -31 -37 -57t-58 -38v-344zM1401 1306q-31 12 -57 38t-38 57h-992q-11 -31 -37 -57t-58 -38v-344
q32 -11 58 -37t37 -58h992q12 32 38 58t57 37v344z" />
    <glyph glyph-name="q" unicode="q" 
d="M662 1390q-14 31 -14 68q0 67 48 115q47 47 114 47t115 -47q47 -48 47 -115q0 -37 -14 -68l432 -432q31 14 68 14q67 0 115 -47q47 -48 47 -115t-47 -114q-48 -48 -115 -48q-37 0 -68 14l-176 -176l176 -176q31 14 68 14q67 0 115 -47q47 -48 47 -115t-47 -114
q-48 -48 -115 -48t-114 48q-48 47 -48 114q0 37 14 68l-176 176l-176 -176q14 -31 14 -68q0 -67 -47 -114q-48 -48 -115 -48t-114 48q-48 47 -48 114q0 37 14 68l-432 432q-31 -14 -68 -14q-67 0 -114 48q-48 47 -48 114t48 115q47 47 114 47q37 0 68 -14zM878 1310
q-31 -14 -68 -14t-68 14l-432 -432q14 -31 14 -68t-14 -68l432 -432q31 14 68 14t68 -14l176 176l-176 176q-31 -14 -68 -14q-67 0 -114 48q-48 47 -48 114t48 115q47 47 114 47t115 -47q47 -48 47 -115q0 -37 -14 -68l176 -176l176 176q-14 31 -14 68t14 68z" />
    <glyph glyph-name="r" unicode="r" 
d="M219 314q32 -11 58 -37q47 -48 47 -115t-47 -114q-48 -48 -115 -48t-114 48q-48 47 -48 114t48 115q26 26 57 37v344q-31 12 -57 38q-48 47 -48 114t48 115q26 26 57 37v344q-31 12 -57 38q-48 47 -48 114t48 115q47 47 114 47t115 -47q26 -26 37 -58h992q12 32 38 58
q47 47 114 47t115 -47q47 -48 47 -115t-47 -114q-48 -48 -115 -48q-37 0 -68 14l-432 -432q14 -31 14 -68t-14 -68l432 -432q31 14 68 14q67 0 115 -47q47 -48 47 -115t-47 -114q-48 -48 -115 -48t-114 48q-48 47 -48 114q0 37 14 68l-432 432q-31 -14 -68 -14
q-67 0 -114 48q-26 26 -38 57h-344q-11 -31 -37 -57t-58 -38v-344zM1310 1390q-2 6 -4 11h-992q-11 -31 -37 -57t-58 -38v-344q32 -11 58 -37t37 -58h344q12 32 38 58q47 47 114 47q37 0 68 -14z" />
    <glyph glyph-name="s" unicode="s" 
d="M314 105q-11 -31 -37 -57q-48 -48 -115 -48t-114 48q-48 47 -48 114t48 115q47 47 114 47t115 -47q26 -26 37 -58h344q12 32 38 58q47 47 114 47q37 0 68 -14l432 432q-2 6 -4 11h-992q-11 -31 -37 -57q-48 -48 -115 -48t-114 48q-48 47 -48 114t48 115q47 47 114 47
q37 0 68 -14l432 432q-14 31 -14 68q0 67 48 115q47 47 114 47t115 -47q26 -26 37 -58h344q12 32 38 58q47 47 114 47t115 -47q47 -48 47 -115t-47 -114q-48 -48 -115 -48t-114 48q-26 26 -38 57h-344q-11 -31 -37 -57q-48 -48 -115 -48q-37 0 -68 14l-432 -432q2 -5 4 -11
h992q12 32 38 58q47 47 114 47t115 -47q47 -48 47 -115t-47 -114q-48 -48 -115 -48q-37 0 -68 14l-432 -432q14 -31 14 -68q0 -67 -47 -114q-48 -48 -115 -48t-114 48q-26 26 -38 57h-344z" />
    <glyph glyph-name="t" unicode="t" 
d="M1306 1515q12 32 38 58q47 47 114 47t115 -47q47 -48 47 -115t-47 -114q-48 -48 -115 -48t-114 48q-26 26 -38 57h-344q-11 -31 -37 -57t-58 -38v-992q32 -11 58 -37q47 -48 47 -115t-47 -114q-48 -48 -115 -48t-114 48q-48 47 -48 114t48 115q26 26 57 37v992
q-31 12 -57 38t-38 57h-344q-11 -31 -37 -57q-48 -48 -115 -48t-114 48q-48 47 -48 114t48 115q47 47 114 47t115 -47q26 -26 37 -58h344q12 32 38 58q47 47 114 47t115 -47q26 -26 37 -58h344z" />
    <glyph glyph-name="u" unicode="u" 
d="M1401 1306q-31 12 -57 38q-48 47 -48 114t48 115q47 47 114 47t115 -47q47 -48 47 -115t-47 -114q-26 -26 -58 -38v-992q32 -11 58 -37q47 -48 47 -115t-47 -114q-48 -48 -115 -48t-114 48q-26 26 -38 57h-344q-11 -31 -37 -57q-48 -48 -115 -48t-114 48q-48 47 -48 114
q0 37 14 68l-432 432q-31 -14 -68 -14q-67 0 -114 48q-48 47 -48 114t48 115q26 26 57 37v344q-31 12 -57 38q-48 47 -48 114t48 115q47 47 114 47t115 -47q47 -48 47 -115t-47 -114q-26 -26 -58 -38v-344q32 -11 58 -37q47 -48 47 -115q0 -37 -14 -68l432 -432q31 14 68 14
q67 0 115 -47q26 -26 37 -58h344q12 32 38 58t57 37v992z" />
    <glyph glyph-name="v" unicode="v" 
d="M1340 1348q-44 46 -44 110q0 67 48 115q47 47 114 47t115 -47q47 -48 47 -115t-47 -114q-48 -48 -115 -48q-9 0 -17 1l-512 -1024q43 -47 43 -111q0 -67 -47 -114q-48 -48 -115 -48t-114 48q-48 47 -48 114q0 64 43 110l-512 1025q-8 -1 -17 -1q-67 0 -114 48
q-48 47 -48 114t48 115q47 47 114 47t115 -47q47 -48 47 -115q0 -64 -43 -110l512 -1025q8 1 17 1t17 -1z" />
    <glyph glyph-name="w" unicode="w" 
d="M281 273q43 -47 43 -111q0 -67 -47 -114q-48 -48 -115 -48t-114 48q-48 47 -48 114t48 115q26 26 57 37v992q-31 12 -57 38q-48 47 -48 114t48 115q47 47 114 47t115 -47q47 -48 47 -115t-47 -114q-26 -26 -58 -38v-904l473 946q-44 46 -44 110q0 67 48 115q47 47 114 47
t115 -47q47 -48 47 -115q0 -64 -43 -110l472 -946v904q-31 12 -57 38q-48 47 -48 114t48 115q47 47 114 47t115 -47q47 -48 47 -115t-47 -114q-26 -26 -58 -38v-992q32 -11 58 -37q47 -48 47 -115t-47 -114q-48 -48 -115 -48t-114 48q-48 47 -48 114q0 64 43 110l-512 1025
q-8 -1 -17 -1t-17 1z" />
    <glyph glyph-name="x" unicode="x" 
d="M1458 0q-67 0 -114.5 47.5t-47.5 114.5q0 37 14 68l-500 500l-500 -500q14 -31 14 -68q0 -67 -47.5 -114.5t-114.5 -47.5t-114.5 47.5t-47.5 114.5t47.5 114.5t114.5 47.5q37 0 68 -14l500 500l-500 500q-31 -14 -68 -14q-67 0 -114.5 47.5t-47.5 114.5t47.5 114.5
t114.5 47.5t114.5 -47.5t47.5 -114.5q0 -37 -14 -68l500 -500l500 500q-14 31 -14 68q0 67 47.5 114.5t114.5 47.5t114.5 -47.5t47.5 -114.5t-47.5 -114.5t-114.5 -47.5q-37 0 -68 14l-500 -500l500 -500q31 14 68 14q67 0 114.5 -47.5t47.5 -114.5t-47.5 -114.5
t-114.5 -47.5z" />
    <glyph glyph-name="y" unicode="y" 
d="M1310 1390q-14 31 -14 68q0 67 48 115q47 47 114 47t115 -47q47 -48 47 -115t-47 -114q-48 -48 -115 -48q-37 0 -68 14l-432 -432q14 -31 14 -68q0 -67 -47 -114q-26 -26 -58 -38v-344q32 -11 58 -37q47 -48 47 -115t-47 -114q-48 -48 -115 -48t-114 48q-48 47 -48 114
t48 115q26 26 57 37v344q-31 12 -57 38q-48 47 -48 114q0 37 14 68l-432 432q-31 -14 -68 -14q-67 0 -114 48q-48 47 -48 114t48 115q47 47 114 47t115 -47q47 -48 47 -115q0 -37 -14 -68l432 -432q31 14 68 14t68 -14z" />
    <glyph glyph-name="z" unicode="z" 
d="M314 105q-11 -31 -37 -57q-48 -48 -115 -48t-114 48q-48 47 -48 114t48 115q47 47 114 47q37 0 68 -14l1080 1080q-2 6 -4 11h-992q-11 -31 -37 -57q-48 -48 -115 -48t-114 48q-48 47 -48 114t48 115q47 47 114 47t115 -47q26 -26 37 -58h992q12 32 38 58q47 47 114 47
t115 -47q47 -48 47 -115t-47 -114q-48 -48 -115 -48q-37 0 -68 14l-1080 -1080q2 -5 4 -11h992q12 32 38 58q47 47 114 47t115 -47q47 -48 47 -115t-47 -114q-48 -48 -115 -48t-114 48q-26 26 -38 57h-992z" />
    <glyph glyph-name="braceleft" unicode="{" 
d="M1458 0q-67 0 -114 48q-26 25 -38 57h-344q-12 -32 -37 -57q-48 -48 -115 -48t-114.5 47.5t-47.5 114.5t48 115q25 25 57 37v344q-32 12 -57.5 37.5t-37.5 57.5h-344q-12 -32 -37 -57q-48 -48 -115 -48t-114.5 47.5t-47.5 114.5t47.5 114.5t114.5 47.5t115 -47
q25 -26 37 -58h344q12 32 37.5 57.5t57.5 37.5v344q-32 12 -57 38q-48 47 -48 114t47.5 114.5t114.5 47.5t115 -47q25 -26 37 -58h344q12 32 38 58q47 47 114 47t114.5 -47.5t47.5 -114.5t-47.5 -114.5t-114.5 -47.5t-114 48q-26 25 -38 57h-344q-12 -32 -37.5 -57.5
t-57.5 -37.5v-344q32 -12 58 -37q47 -48 47 -115t-47 -114q-26 -26 -58 -38v-344q32 -12 57.5 -37.5t37.5 -57.5h344q12 32 38 58q47 47 114 47t114.5 -47.5t47.5 -114.5t-47.5 -114.5t-114.5 -47.5z" />
    <glyph glyph-name="bar" unicode="|" 
d="M753 1306q-31 12 -57 38q-48 47 -48 114t48 115q47 47 114 47t115 -47q47 -48 47 -115t-47 -114q-26 -26 -58 -38v-992q32 -11 58 -37q47 -48 47 -115t-47 -114q-48 -48 -115 -48t-114 48q-48 47 -48 114t48 115q26 26 57 37v992z" />
    <glyph glyph-name="braceright" unicode="}" 
d="M162 0q-67 0 -114.5 47.5t-47.5 114.5t47.5 114.5t114.5 47.5t114 -47q26 -26 38 -58h344q12 32 37.5 57.5t57.5 37.5v344q-32 12 -58 38q-47 47 -47 114t47 115q26 25 58 37v344q-32 12 -57.5 37.5t-37.5 57.5h-344q-12 -32 -38 -57q-47 -48 -114 -48t-114.5 47.5
t-47.5 114.5t47.5 114.5t114.5 47.5t114 -47q26 -26 38 -58h344q12 32 37 58q48 47 115 47t114.5 -47.5t47.5 -114.5t-48 -114q-25 -26 -57 -38v-344q32 -12 57.5 -37.5t37.5 -57.5h344q12 32 37 58q48 47 115 47t114.5 -47.5t47.5 -114.5t-47.5 -114.5t-114.5 -47.5
t-115 48q-25 25 -37 57h-344q-12 -32 -37.5 -57.5t-57.5 -37.5v-344q32 -12 57 -37q48 -48 48 -115t-47.5 -114.5t-114.5 -47.5t-115 48q-25 25 -37 57h-344q-12 -32 -38 -57q-47 -48 -114 -48z" />
    <glyph glyph-name="asciitilde" unicode="~" 
d="M1310 1390q-14 31 -14 68q0 67 48 115q47 47 114 47t115 -47q47 -48 47 -115t-47 -114q-48 -48 -115 -48q-37 0 -68 14l-432 -432q14 -31 14 -68q0 -67 -47 -114q-48 -48 -115 -48t-114 48q-48 47 -48 114t48 115q26 26 57 37v344q-5 2 -11 4l-432 -432q14 -31 14 -68
q0 -67 -47 -114q-48 -48 -115 -48t-114 48q-48 47 -48 114t48 115q47 47 114 47q37 0 68 -14l432 432q-14 31 -14 68q0 67 48 115q47 47 114 47t115 -47q47 -48 47 -115t-47 -114q-26 -26 -58 -38v-344q6 -2 11 -4z" />
    <glyph glyph-name="exclamdown" unicode="&#xa1;" 
d="M810 1296q-67 0 -115 47q-47 48 -47 115t47 114q48 48 115 48t114 -48q48 -47 48 -114t-48 -115q-47 -47 -114 -47zM310 230q2 -6 4 -11h992q2 5 4 11l-432 432q-31 -14 -68 -14t-68 14zM314 105q-12 -32 -38 -58q-47 -47 -114 -47t-115 47q-47 48 -47 115t47 114
q48 48 115 48q37 0 68 -14l432 432q-14 31 -14 68q0 67 47 114q48 48 115 48t114 -48q48 -47 48 -114q0 -37 -14 -68l432 -432q31 14 68 14q67 0 114 -48q48 -47 48 -114t-48 -115q-47 -47 -114 -47t-115 47q-26 26 -37 58h-992z" />
    <glyph glyph-name="cent" unicode="&#xa2;" 
d="M1458 0q-67 0 -114 48q-26 25 -38 57h-344q-12 -32 -37 -57q-48 -48 -115 -48t-114.5 47.5t-47.5 114.5q0 37 14 68l-176 176l-176 -176q14 -31 14 -68q0 -67 -47.5 -114.5t-114.5 -47.5t-114.5 47.5t-47.5 114.5t47.5 114.5t114.5 47.5q37 0 68 -14l176 176l-176 176
q-31 -14 -68 -14q-67 0 -114.5 47.5t-47.5 114.5t47.5 114.5t114.5 47.5q37 0 68 -14l432 432q-14 31 -14 68q0 67 47.5 114.5t114.5 47.5t115 -47q25 -26 37 -58h344q12 32 38 58q47 47 114 47t114.5 -47.5t47.5 -114.5t-47.5 -114.5t-114.5 -47.5t-114 48q-26 25 -38 57
h-344q-12 -32 -37 -57q-48 -48 -115 -48q-37 0 -68 14l-432 -432q14 -31 14 -68t-14 -68l176 -176l176 176q-14 31 -14 68q0 67 47.5 114.5t114.5 47.5t114.5 -47.5t47.5 -114.5t-47.5 -114.5t-114.5 -47.5q-37 0 -68 14l-176 -176l176 -176q31 14 68 14q67 0 115 -47
q25 -26 37 -58h344q12 32 38 58q47 47 114 47t114.5 -47.5t47.5 -114.5t-47.5 -114.5t-114.5 -47.5z" />
    <glyph glyph-name="sterling" unicode="&#xa3;" 
d="M1458 0q-67 0 -114 48q-26 25 -38 57h-344q-12 -32 -37 -57q-48 -48 -115 -48t-114 48q-26 25 -38 57h-344q-12 -32 -37 -57q-48 -48 -115 -48t-114.5 47.5t-47.5 114.5t47.5 114.5t114.5 47.5t115 -47q25 -26 37 -58h344q12 32 37.5 57.5t57.5 37.5v992q-32 12 -57 38
q-48 47 -48 114t47.5 114.5t114.5 47.5t115 -47q25 -26 37 -58h344q12 32 38 58q47 47 114 47t114.5 -47.5t47.5 -114.5t-47 -114q-26 -26 -58 -38v-344q32 -12 58 -37q47 -48 47 -115t-47.5 -114.5t-114.5 -47.5t-114.5 47.5t-47.5 114.5t48 115q25 25 57 37v344
q-32 12 -57.5 37.5t-37.5 57.5h-344q-12 -32 -37.5 -57.5t-57.5 -37.5v-992q32 -12 57.5 -37.5t37.5 -57.5h344q12 32 38 58q47 47 114 47t114.5 -47.5t47.5 -114.5t-47.5 -114.5t-114.5 -47.5z" />
    <glyph glyph-name="currency" unicode="&#xa4;" 
d="M219 314q32 -11 58 -37q47 -48 47 -115t-47 -114q-48 -48 -115 -48t-114 48q-48 47 -48 114t48 115q26 26 57 37v344q-31 12 -57 38q-48 47 -48 114t48 115q26 26 57 37v344q-31 12 -57 38q-48 47 -48 114t48 115q47 47 114 47t115 -47q47 -48 47 -115t-47 -114
q-26 -26 -58 -38v-344q6 -2 11 -4l432 432q-14 31 -14 68q0 67 48 115q47 47 114 47t115 -47q47 -48 47 -115q0 -37 -14 -68l432 -432q6 2 11 4v344q-31 12 -57 38q-48 47 -48 114t48 115q47 47 114 47t115 -47q47 -48 47 -115t-47 -114q-26 -26 -58 -38v-344q32 -11 58 -37
q47 -48 47 -115t-47 -114q-26 -26 -58 -38v-344q32 -11 58 -37q47 -48 47 -115t-47 -114q-48 -48 -115 -48t-114 48q-48 47 -48 114t48 115q26 26 57 37v344q-5 2 -11 4l-432 -432q14 -31 14 -68q0 -67 -47 -114q-48 -48 -115 -48t-114 48q-48 47 -48 114q0 37 14 68
l-432 432q-6 -2 -11 -4v-344zM878 1310q-31 -14 -68 -14t-68 14l-432 -432q14 -31 14 -68t-14 -68l432 -432q31 14 68 14t68 -14l432 432q-14 31 -14 68t14 68z" />
    <glyph glyph-name="yen" unicode="&#xa5;" 
d="M1310 1390q-14 31 -14 68q0 67 48 115q47 47 114 47t115 -47q47 -48 47 -115t-47 -114q-48 -48 -115 -48q-37 0 -68 14l-432 -432q2 -5 4 -11h344q12 32 38 58q47 47 114 47t115 -47q47 -48 47 -115t-47 -114q-48 -48 -115 -48t-114 48q-26 26 -38 57h-344
q-11 -31 -37 -57t-58 -38v-344q32 -11 58 -37q47 -48 47 -115t-47 -114q-48 -48 -115 -48t-114 48q-48 47 -48 114t48 115q26 26 57 37v344q-31 12 -57 38t-38 57h-344q-11 -31 -37 -57q-48 -48 -115 -48t-114 48q-48 47 -48 114t48 115q47 47 114 47t115 -47q26 -26 37 -58
h344q2 5 4 11l-432 432q-31 -14 -68 -14q-67 0 -114 48q-48 47 -48 114t48 115q47 47 114 47t115 -47q47 -48 47 -115q0 -37 -14 -68l432 -432q31 14 68 14t68 -14z" />
    <glyph glyph-name="brokenbar" unicode="&#xa6;" horiz-adv-x="1134" 
d="M162 0q-67 0 -114.5 47.5t-47.5 114.5t47.5 114.5t114.5 47.5q37 0 68 -14l432 432q-14 31 -14 68q0 67 47.5 114.5t114.5 47.5t114.5 -47.5t47.5 -114.5t-47.5 -114.5t-114.5 -47.5q-37 0 -68 14l-432 -432q14 -31 14 -68q0 -67 -47.5 -114.5t-114.5 -47.5zM162 648
q-67 0 -114.5 47.5t-47.5 114.5t47.5 114.5t114.5 47.5q37 0 68 -14l432 432q-14 31 -14 68q0 67 47.5 114.5t114.5 47.5t114.5 -47.5t47.5 -114.5t-47.5 -114.5t-114.5 -47.5q-37 0 -68 14l-432 -432q14 -31 14 -68q0 -67 -47.5 -114.5t-114.5 -47.5z" />
    <glyph glyph-name="section" unicode="&#xa7;" 
d="M1458 0q-67 0 -114 48q-26 25 -38 57h-992q-12 -32 -37 -57q-48 -48 -115 -48t-114.5 47.5t-47.5 114.5t47.5 114.5t114.5 47.5t115 -47q25 -26 37 -58h992q12 32 37.5 57.5t57.5 37.5v344q-32 12 -57.5 37.5t-37.5 57.5h-992q-12 -32 -37 -57q-48 -48 -115 -48
t-114.5 47.5t-47.5 114.5t48 115q25 25 57 37v344q-32 12 -57 38q-48 47 -48 114t47.5 114.5t114.5 47.5t115 -47q25 -26 37 -58h992q12 32 38 58q47 47 114 47t114.5 -47.5t47.5 -114.5t-47.5 -114.5t-114.5 -47.5t-114 48q-26 25 -38 57h-992q-12 -32 -37.5 -57.5
t-57.5 -37.5v-344q32 -12 57.5 -37.5t37.5 -57.5h992q12 32 38 58q47 47 114 47t114.5 -47.5t47.5 -114.5t-47 -114q-26 -26 -58 -38v-344q32 -12 58 -37q47 -48 47 -115t-47.5 -114.5t-114.5 -47.5z" />
    <glyph glyph-name="dieresis" unicode="&#xa8;" 
d="M1458 1296q-67 0 -114.5 47.5t-47.5 114.5t47.5 114.5t114.5 47.5t114.5 -47.5t47.5 -114.5t-47.5 -114.5t-114.5 -47.5zM162 1296q-67 0 -114.5 47.5t-47.5 114.5t47.5 114.5t114.5 47.5t114.5 -47.5t47.5 -114.5t-47.5 -114.5t-114.5 -47.5z" />
    <glyph glyph-name="copyright" unicode="&#xa9;" 
d="M1306 1515q12 32 38 58q47 47 114 47t115 -47q47 -48 47 -115t-47 -114q-48 -48 -115 -48t-114 48q-26 26 -38 57h-344q-11 -31 -37 -57q-48 -48 -115 -48q-36 0 -67 14l-433 -432q14 -31 14 -68t-14 -68l433 -432q30 14 67 14q67 0 115 -47q26 -26 37 -58h344
q12 32 38 58q47 47 114 47t115 -47q47 -48 47 -115t-47 -114q-48 -48 -115 -48t-114 48q-26 26 -38 57h-344q-11 -31 -37 -57q-48 -48 -115 -48t-114 48q-48 47 -48 114q0 37 14 68l-432 432q-31 -14 -68 -14q-67 0 -114 48q-48 47 -48 114t48 115q47 47 114 47q37 0 68 -14
l432 432q-14 31 -14 68q0 67 48 115q47 47 114 47t115 -47q26 -26 37 -58h344z" />
    <glyph glyph-name="guillemotleft" unicode="&#xab;" 
d="M662 1390q-14 31 -14 68q0 67 48 115q47 47 114 47t115 -47q47 -48 47 -115t-47 -114q-48 -48 -115 -48q-37 0 -68 14l-432 -432q14 -31 14 -68t-14 -68l432 -432q31 14 68 14q67 0 115 -47q47 -48 47 -115t-47 -114q-48 -48 -115 -48t-114 48q-48 47 -48 114q0 37 14 68
l-432 432q-31 -14 -68 -14q-67 0 -114 48q-48 47 -48 114t48 115q47 47 114 47q37 0 68 -14zM1310 1390q-14 31 -14 68q0 67 48 115q47 47 114 47t115 -47q47 -48 47 -115t-47 -114q-48 -48 -115 -48q-37 0 -68 14l-432 -432q14 -31 14 -68t-14 -68l432 -432q31 14 68 14
q67 0 115 -47q47 -48 47 -115t-47 -114q-48 -48 -115 -48t-114 48q-48 47 -48 114q0 37 14 68l-432 432q-31 -14 -68 -14q-67 0 -114 48q-48 47 -48 114t48 115q47 47 114 47q37 0 68 -14z" />
    <glyph glyph-name="logicalnot" unicode="&#xac;" horiz-adv-x="1134" 
d="M658 867q12 32 38 58q47 47 114 47t115 -47q47 -48 47 -115t-47 -114q-26 -26 -58 -38v-344q32 -11 58 -37q47 -48 47 -115t-47 -114q-48 -48 -115 -48t-114 48q-48 47 -48 114t48 115q26 26 57 37v344q-31 12 -57 38t-38 57h-344q-11 -31 -37 -57q-48 -48 -115 -48
t-114 48q-48 47 -48 114t48 115q47 47 114 47t115 -47q26 -26 37 -58h344z" />
    <glyph glyph-name="uni00AD" unicode="&#xad;" horiz-adv-x="1134" 
d="M658 867q12 32 38 58q47 47 114 47t115 -47q47 -48 47 -115t-47 -114q-48 -48 -115 -48t-114 48q-26 26 -38 57h-344q-11 -31 -37 -57q-48 -48 -115 -48t-114 48q-48 47 -48 114t48 115q47 47 114 47t115 -47q26 -26 37 -58h344z" />
    <glyph glyph-name="registered" unicode="&#xae;" 
d="M219 314q32 -11 58 -37q47 -48 47 -115t-47 -114q-48 -48 -115 -48t-114 48q-48 47 -48 114t48 115q26 26 57 37v344q-31 12 -57 38q-48 47 -48 114t48 115q26 26 57 37v344q-31 12 -57 38q-48 47 -48 114t48 115q47 47 114 47t115 -47q26 -26 37 -58h992q12 32 38 58
q47 47 114 47t115 -47q47 -48 47 -115t-47 -114q-48 -48 -115 -48q-37 0 -68 14l-432 -432q14 -31 14 -68t-14 -68l432 -432q31 14 68 14q67 0 115 -47q47 -48 47 -115t-47 -114q-48 -48 -115 -48t-114 48q-48 47 -48 114q0 37 14 68l-432 432q-31 -14 -68 -14
q-67 0 -114 48q-26 26 -38 57h-344q-11 -31 -37 -57t-58 -38v-344zM1310 1390q-2 6 -4 11h-992q-11 -31 -37 -57t-58 -38v-344q32 -11 58 -37t37 -58h344q12 32 38 58q47 47 114 47q37 0 68 -14z" />
    <glyph glyph-name="degree" unicode="&#xb0;" horiz-adv-x="1134" 
d="M658 1515q12 32 38 58q47 47 114 47t115 -47q47 -48 47 -115t-47 -114q-26 -26 -58 -38v-344q32 -11 58 -37q47 -48 47 -115t-47 -114q-48 -48 -115 -48t-114 48q-26 26 -38 57h-344q-11 -31 -37 -57q-48 -48 -115 -48t-114 48q-48 47 -48 114t48 115q26 26 57 37v344
q-31 12 -57 38q-48 47 -48 114t48 115q47 47 114 47t115 -47q26 -26 37 -58h344zM753 1306q-31 12 -57 38t-38 57h-344q-11 -31 -37 -57t-58 -38v-344q32 -11 58 -37t37 -58h344q12 32 38 58t57 37v344z" />
    <glyph glyph-name="plusminus" unicode="&#xb1;" 
d="M1458 0q-67 0 -114 48q-26 25 -38 57h-344q-12 -32 -37 -57q-48 -48 -115 -48t-114 48q-26 25 -38 57h-344q-12 -32 -37 -57q-48 -48 -115 -48t-114.5 47.5t-47.5 114.5t47.5 114.5t114.5 47.5t115 -47q25 -26 37 -58h344q12 32 37.5 57.5t57.5 37.5v439h-439
q-12 -32 -37 -57q-48 -48 -115 -48t-114.5 47.5t-47.5 114.5t47.5 114.5t114.5 47.5t115 -47q25 -26 37 -58h439v439q-32 12 -57 38q-48 47 -48 114t47.5 114.5t114.5 47.5t114.5 -47.5t47.5 -114.5t-47 -114q-26 -26 -58 -38v-439h439q12 32 38 58q47 47 114 47
t114.5 -47.5t47.5 -114.5t-47.5 -114.5t-114.5 -47.5t-114 48q-26 25 -38 57h-439v-439q32 -12 57.5 -37.5t37.5 -57.5h344q12 32 38 58q47 47 114 47t114.5 -47.5t47.5 -114.5t-47.5 -114.5t-114.5 -47.5z" />
    <glyph glyph-name="acute" unicode="&#xb4;" horiz-adv-x="486" 
d="M162 1620q67 0 114.5 -47.5t47.5 -114.5t-47.5 -114.5t-114.5 -47.5t-114.5 47.5t-47.5 114.5t47.5 114.5t114.5 47.5z" />
    <glyph glyph-name="mu" unicode="&#xb5;" 
d="M105 658q-32 12 -57 38q-48 47 -48 114t48 115q26 26 57 37v344q-31 12 -57 38q-48 47 -48 114t48 115q47 47 114 47t115 -47q47 -48 47 -115t-47 -114q-26 -26 -58 -38v-344q32 -11 58 -37q47 -48 47 -115q0 -37 -14 -68l432 -432q31 14 68 14q67 0 115 -47
q26 -26 37 -58h344q12 32 38 58t57 37v992q-31 12 -57 38q-48 47 -48 114t48 115q47 47 114 47t115 -47q47 -48 47 -115t-47 -114q-26 -26 -58 -38v-992q32 -11 58 -37q47 -48 47 -115t-47 -114q-48 -48 -115 -48t-114 48q-26 26 -38 57h-344q-11 -31 -37 -57
q-48 -48 -115 -48t-114 48q-48 47 -48 114q0 37 14 68l-432 432q-5 -2 -11 -4v-344q32 -11 58 -37q47 -48 47 -115t-47 -114q-48 -48 -115 -48t-114 48q-48 47 -48 114t48 115q26 26 57 37v344z" />
    <glyph glyph-name="paragraph" unicode="&#xb6;" 
d="M742 958l11 4v344q-32 12 -57.5 37.5t-37.5 57.5h-344l-4 -11zM1458 0q-67 0 -114.5 47.5t-47.5 114.5t48 115q25 25 57 37v344q-32 12 -57 38q-48 47 -48 114t48 115q25 25 57 37v344q-32 12 -57.5 37.5t-37.5 57.5h-344q-12 -32 -37.5 -57.5t-57.5 -37.5v-344
q32 -12 58 -37q47 -48 47 -115t-47 -114q-26 -26 -58 -38v-344q32 -12 58 -37q47 -48 47 -115t-47.5 -114.5t-114.5 -47.5t-114.5 47.5t-47.5 114.5t48 115q25 25 57 37v344q-32 12 -57 38q-48 47 -48 114q0 37 14 68l-432 432q-31 -14 -68 -14q-67 0 -114.5 47.5
t-47.5 114.5t47.5 114.5t114.5 47.5t115 -47q25 -26 37 -58h344q12 32 38 58q47 47 114 47t115 -47q25 -26 37 -58h344q12 32 38 58q47 47 114 47t114.5 -47.5t47.5 -114.5t-47 -114q-26 -26 -58 -38v-344q32 -12 58 -37q47 -48 47 -115t-47 -114q-26 -26 -58 -38v-344
q32 -12 58 -37q47 -48 47 -115t-47.5 -114.5t-114.5 -47.5z" />
    <glyph glyph-name="periodcentered" unicode="&#xb7;" horiz-adv-x="486" 
d="M162 972q67 0 114.5 -47.5t47.5 -114.5t-47.5 -114.5t-114.5 -47.5t-114.5 47.5t-47.5 114.5t47.5 114.5t114.5 47.5z" />
    <glyph glyph-name="uni00B9" unicode="&#xb9;" horiz-adv-x="1134" 
d="M810 648q-67 0 -114.5 47.5t-47.5 114.5q0 52 29 92.5t76 58.5v345q-68 27 -95 95h-344q-18 -47 -59 -76.5t-93 -29.5q-67 0 -114.5 47.5t-47.5 114.5t47.5 114.5t114.5 47.5q52 0 93 -29t59 -76h344q18 47 59 76t93 29q67 0 114.5 -47.5t47.5 -114.5q0 -52 -29.5 -92.5
t-76.5 -58.5v-345q47 -18 76.5 -58.5t29.5 -92.5q0 -67 -47.5 -114.5t-114.5 -47.5z" />
    <glyph glyph-name="ordmasculine" unicode="&#xba;" horiz-adv-x="1134" 
d="M658 1515q12 32 38 58q47 47 114 47t115 -47q47 -48 47 -115t-47 -114q-26 -26 -58 -38v-344q32 -11 58 -37q47 -48 47 -115t-47 -114q-48 -48 -115 -48t-114 48q-26 26 -38 57h-344q-11 -31 -37 -57q-48 -48 -115 -48t-114 48q-48 47 -48 114t48 115q26 26 57 37v344
q-31 12 -57 38q-48 47 -48 114t48 115q47 47 114 47t115 -47q26 -26 37 -58h344zM753 1306q-31 12 -57 38t-38 57h-344q-11 -31 -37 -57t-58 -38v-344q32 -11 58 -37t37 -58h344q12 32 38 58t57 37v344z" />
    <glyph glyph-name="guillemotright" unicode="&#xbb;" 
d="M958 1390l432 -432q31 14 68 14q67 0 114 -47q48 -48 48 -115t-48 -114q-47 -48 -114 -48q-37 0 -68 14l-432 -432q14 -31 14 -68q0 -67 -48 -114q-47 -48 -114 -48t-115 48q-47 47 -47 114t47 115q48 47 115 47q37 0 68 -14l432 432q-14 31 -14 68t14 68l-432 432
q-31 -14 -68 -14q-67 0 -115 48q-47 47 -47 114t47 115q48 47 115 47t114 -47q48 -48 48 -115q0 -37 -14 -68zM310 1390l432 -432q31 14 68 14q67 0 114 -47q48 -48 48 -115t-48 -114q-47 -48 -114 -48q-37 0 -68 14l-432 -432q14 -31 14 -68q0 -67 -48 -114
q-47 -48 -114 -48t-115 48q-47 47 -47 114t47 115q48 47 115 47q37 0 68 -14l432 432q-14 31 -14 68t14 68l-432 432q-31 -14 -68 -14q-67 0 -115 48q-47 47 -47 114t47 115q48 47 115 47t114 -47q48 -48 48 -115q0 -37 -14 -68z" />
    <glyph glyph-name="questiondown" unicode="&#xbf;" 
d="M810 1296q-67 0 -115 47q-47 48 -47 115t47 114q48 48 115 48t114 -48q48 -47 48 -114t-48 -115q-47 -47 -114 -47zM314 105q-12 -32 -38 -58q-47 -47 -114 -47t-115 47q-47 48 -47 115t47 114q26 26 58 38v344q-32 11 -58 37q-47 48 -47 115t47 114q48 48 115 48
t114 -48q26 -26 38 -57h344q11 31 37 57q48 48 115 48t114 -48q48 -47 48 -114t-48 -115q-47 -47 -114 -47t-115 47q-26 26 -37 58h-344q-12 -32 -38 -58t-57 -37v-344q31 -12 57 -38t38 -57h992q11 31 37 57q48 48 115 48t114 -48q48 -47 48 -114t-48 -115
q-47 -47 -114 -47t-115 47q-26 26 -37 58h-992z" />
    <glyph glyph-name="Agrave" unicode="&#xc0;" 
d="M219 314q32 -11 58 -37q47 -48 47 -115t-47 -114q-48 -48 -115 -48t-114 48q-48 47 -48 114t48 115q26 26 57 37v344q-31 12 -57 38q-48 47 -48 114t48 115q47 47 114 47q37 0 68 -14l432 432q-14 31 -14 68q0 67 48 115q47 47 114 47t115 -47q47 -48 47 -115
q0 -37 -14 -68l432 -432q31 14 68 14q67 0 115 -47q47 -48 47 -115t-47 -114q-26 -26 -58 -38v-344q32 -11 58 -37q47 -48 47 -115t-47 -114q-48 -48 -115 -48t-114 48q-48 47 -48 114t48 115q26 26 57 37v344q-31 12 -57 38t-38 57h-992q-11 -31 -37 -57t-58 -38v-344z
M878 1310q-31 -14 -68 -14t-68 14l-432 -432q2 -5 4 -11h992q2 5 4 11zM162 1620q67 0 114.5 -47.5t47.5 -114.5t-47.5 -114.5t-114.5 -47.5t-114.5 47.5t-47.5 114.5t47.5 114.5t114.5 47.5z" />
    <glyph glyph-name="Aacute" unicode="&#xc1;" 
d="M1401 314v344q-32 12 -58 38t-37 57h-992q-12 -31 -38 -57t-57 -38v-344q31 -11 57 -37q48 -48 48 -115t-48 -114q-47 -48 -114 -48t-115 48q-47 47 -47 114t47 115q26 26 58 37v344q-32 12 -58 38q-47 47 -47 114t47 115q48 47 115 47q37 0 68 -14l432 432
q-14 31 -14 68q0 67 47 115q48 47 115 47t114 -47q48 -48 48 -115q0 -37 -14 -68l432 -432q31 14 68 14q67 0 114 -47q48 -48 48 -115t-48 -114q-26 -26 -57 -38v-344q31 -11 57 -37q48 -48 48 -115t-48 -114q-47 -48 -114 -48t-115 48q-47 47 -47 114t47 115q26 26 58 37z
M742 1310l-432 -432q2 -6 4 -11h992q2 6 4 11l-432 432q-31 -14 -68 -14t-68 14zM1458 1620q67 0 114.5 -47.5t47.5 -114.5t-47.5 -114.5t-114.5 -47.5t-114.5 47.5t-47.5 114.5t47.5 114.5t114.5 47.5z" />
    <glyph glyph-name="Adieresis" unicode="&#xc4;" 
d="M219 314q32 -11 58 -37q47 -48 47 -115t-47 -114q-48 -48 -115 -48t-114 48q-48 47 -48 114t48 115q26 26 57 37v344q-31 12 -57 38q-48 47 -48 114t48 115q47 47 114 47q37 0 68 -14l432 432q-14 31 -14 68q0 67 48 115q47 47 114 47t115 -47q47 -48 47 -115
q0 -37 -14 -68l432 -432q31 14 68 14q67 0 115 -47q47 -48 47 -115t-47 -114q-26 -26 -58 -38v-344q32 -11 58 -37q47 -48 47 -115t-47 -114q-48 -48 -115 -48t-114 48q-48 47 -48 114t48 115q26 26 57 37v344q-31 12 -57 38t-38 57h-992q-11 -31 -37 -57t-58 -38v-344z
M878 1310q-31 -14 -68 -14t-68 14l-432 -432q2 -5 4 -11h992q2 5 4 11zM1458 1296q-67 0 -114.5 47.5t-47.5 114.5t47.5 114.5t114.5 47.5t114.5 -47.5t47.5 -114.5t-47.5 -114.5t-114.5 -47.5zM162 1620q67 0 114.5 -47.5t47.5 -114.5t-47.5 -114.5t-114.5 -47.5
t-114.5 47.5t-47.5 114.5t47.5 114.5t114.5 47.5z" />
    <glyph glyph-name="Aring" unicode="&#xc5;" 
d="M230 958l432 432l-4 11h-344q-12 -32 -37.5 -57.5t-57.5 -37.5v-344zM962 867h344q12 32 37.5 57.5t57.5 37.5v344l-11 4l-432 -432zM162 648q-67 0 -114.5 47.5t-47.5 114.5t48 115q25 25 57 37v344q-32 12 -57 38q-48 47 -48 114t47.5 114.5t114.5 47.5t115 -47
q25 -26 37 -58h344q12 32 38 58q47 47 114 47t114.5 -47.5t47.5 -114.5t-47.5 -114.5t-114.5 -47.5q-37 0 -68 14l-432 -432q14 -31 14 -68q0 -67 -47.5 -114.5t-114.5 -47.5zM162 0q-67 0 -114.5 47.5t-47.5 114.5t47.5 114.5t114.5 47.5q37 0 68 -14l432 432
q-14 31 -14 68q0 67 47.5 114.5t114.5 47.5q37 0 68 -14l432 432q-14 31 -14 68q0 67 47.5 114.5t114.5 47.5t114.5 -47.5t47.5 -114.5t-47 -114q-26 -26 -58 -38v-344q32 -12 58 -37q47 -48 47 -115t-47 -114q-26 -26 -58 -38v-344q32 -12 58 -37q47 -48 47 -115
t-47.5 -114.5t-114.5 -47.5t-114.5 47.5t-47.5 114.5t48 115q25 25 57 37v344q-32 12 -57.5 37.5t-37.5 57.5h-344q-12 -32 -37 -57q-48 -48 -115 -48q-37 0 -68 14l-432 -432q14 -31 14 -68q0 -67 -47.5 -114.5t-114.5 -47.5z" />
    <glyph glyph-name="AE" unicode="&#xc6;" 
d="M753 867v439l-11 4l-432 -432l4 -11h439zM1458 0q-67 0 -114 48q-26 25 -38 57h-344q-12 -32 -37 -57q-48 -48 -115 -48t-114.5 47.5t-47.5 114.5t48 115q25 25 57 37v439h-439q-12 -32 -37.5 -57.5t-57.5 -37.5v-344q32 -12 58 -37q47 -48 47 -115t-47.5 -114.5
t-114.5 -47.5t-114.5 47.5t-47.5 114.5t48 115q25 25 57 37v344q-32 12 -57 38q-48 47 -48 114t47.5 114.5t114.5 47.5q37 0 68 -14l432 432q-14 31 -14 68q0 67 47.5 114.5t114.5 47.5t115 -47q25 -26 37 -58h344q12 32 38 58q47 47 114 47t114.5 -47.5t47.5 -114.5
t-47.5 -114.5t-114.5 -47.5t-114 48q-26 25 -38 57h-344q-12 -32 -37.5 -57.5t-57.5 -37.5v-439h439q12 32 38 58q47 47 114 47t114.5 -47.5t47.5 -114.5t-47.5 -114.5t-114.5 -47.5t-114 48q-26 25 -38 57h-439v-439q32 -12 57.5 -37.5t37.5 -57.5h344q12 32 38 58
q47 47 114 47t114.5 -47.5t47.5 -114.5t-47.5 -114.5t-114.5 -47.5z" />
    <glyph glyph-name="Ccedilla" unicode="&#xc7;" 
d="M1306 1515q12 32 38 58q47 47 114 47t115 -47q47 -48 47 -115t-47 -114q-48 -48 -115 -48t-114 48q-26 26 -38 57h-344q-11 -31 -37 -57q-48 -48 -115 -48q-36 0 -67 14l-433 -432q14 -31 14 -68t-14 -68l433 -432q30 14 67 14q67 0 115 -47q26 -26 37 -58h344
q12 32 38 58q47 47 114 47t115 -47q47 -48 47 -115t-47 -114q-48 -48 -115 -48t-114 48q-26 26 -38 57h-344q-11 -31 -37 -57q-48 -48 -115 -48t-114 48q-48 47 -48 114q0 37 14 68l-432 432q-31 -14 -68 -14q-67 0 -114 48q-48 47 -48 114t48 115q47 47 114 47q37 0 68 -14
l432 432q-14 31 -14 68q0 67 48 115q47 47 114 47t115 -47q26 -26 37 -58h344zM162 324q67 0 114.5 -47.5t47.5 -114.5t-47.5 -114.5t-114.5 -47.5t-114.5 47.5t-47.5 114.5t47.5 114.5t114.5 47.5z" />
    <glyph glyph-name="Eacute" unicode="&#xc9;" 
d="M314 1401q-11 -31 -37 -57t-58 -38v-344q32 -11 58 -37q26 -27 38 -59l343 1q12 32 38 58q47 47 114 47t115 -47q47 -48 47 -115t-47 -114q-48 -48 -115 -48t-114 48q-26 26 -38 57h-344q-11 -31 -37 -57t-58 -38v-344q32 -11 58 -37t37 -58h992q12 32 38 58
q47 47 114 47t115 -47q47 -48 47 -115t-47 -114q-48 -48 -115 -48t-114 48q-26 26 -38 57h-992q-11 -31 -37 -57q-48 -48 -115 -48t-114 48q-48 47 -48 114t48 115q26 26 57 37v344q-31 12 -57 38q-48 47 -48 114t48 115q26 26 57 37v344q-31 12 -57 38q-48 47 -48 114
t48 115q47 47 114 47t115 -47q26 -26 37 -58h344q12 32 38 58q47 47 114 47t115 -47q47 -48 47 -115t-47 -114q-48 -48 -115 -48t-114 48q-26 26 -38 57h-344zM1458 1296q-67 0 -114.5 47.5t-47.5 114.5t47.5 114.5t114.5 47.5t114.5 -47.5t47.5 -114.5t-47.5 -114.5
t-114.5 -47.5z" />
    <glyph glyph-name="Igrave" unicode="&#xcc;" horiz-adv-x="1134" 
d="M162 1620q67 0 114.5 -47.5t47.5 -114.5t-47.5 -114.5t-114.5 -47.5t-114.5 47.5t-47.5 114.5t47.5 114.5t114.5 47.5zM753 1306q-31 12 -57 38q-48 47 -48 114t48 115q47 47 114 47t115 -47q47 -48 47 -115t-47 -114q-26 -26 -58 -38v-992q32 -11 58 -37q47 -48 47 -115
t-47 -114q-48 -48 -115 -48t-114 48q-48 47 -48 114t48 115q26 26 57 37v992z" />
    <glyph glyph-name="Iacute" unicode="&#xcd;" horiz-adv-x="1134" 
d="M810 1296q-67 0 -114.5 47.5t-47.5 114.5t47.5 114.5t114.5 47.5t114.5 -47.5t47.5 -114.5t-47.5 -114.5t-114.5 -47.5zM105 1306q-31 12 -57 38q-48 47 -48 114t48 115q47 47 114 47t115 -47q47 -48 47 -115t-47 -114q-26 -26 -58 -38v-992q32 -11 58 -37
q47 -48 47 -115t-47 -114q-48 -48 -115 -48t-114 48q-48 47 -48 114t48 115q26 26 57 37v992z" />
    <glyph glyph-name="Idieresis" unicode="&#xcf;" 
d="M1458 1296q-67 0 -114.5 47.5t-47.5 114.5t47.5 114.5t114.5 47.5t114.5 -47.5t47.5 -114.5t-47.5 -114.5t-114.5 -47.5zM162 1620q67 0 114.5 -47.5t47.5 -114.5t-47.5 -114.5t-114.5 -47.5t-114.5 47.5t-47.5 114.5t47.5 114.5t114.5 47.5zM753 1306q-31 12 -57 38
q-48 47 -48 114t48 115q47 47 114 47t115 -47q47 -48 47 -115t-47 -114q-26 -26 -58 -38v-992q32 -11 58 -37q47 -48 47 -115t-47 -114q-48 -48 -115 -48t-114 48q-48 47 -48 114t48 115q26 26 57 37v992z" />
    <glyph glyph-name="Eth" unicode="&#xd0;" 
d="M219 658v-344q32 -11 58 -37t37 -58h344q12 32 38 58q47 47 114 47q37 0 68 -14l432 432q-14 31 -14 68t14 68l-432 432q-31 -14 -68 -14q-67 0 -114 48q-26 26 -38 57h-344q-11 -31 -37 -57t-58 -38v-344q32 -11 58 -37t37 -58h344q12 32 38 58q47 47 114 47t115 -47
q47 -48 47 -115t-47 -114q-48 -48 -115 -48t-114 48q-26 26 -38 57h-344q-11 -31 -37 -57t-58 -38zM105 962v344q-31 12 -57 38q-48 47 -48 114t48 115q47 47 114 47t115 -47q26 -26 37 -58h344q12 32 38 58q47 47 114 47t115 -47q47 -48 47 -115q0 -37 -14 -68l432 -432
q31 14 68 14q67 0 115 -47q47 -48 47 -115t-47 -114q-48 -48 -115 -48q-37 0 -68 14l-432 -432q14 -31 14 -68q0 -67 -47 -114q-48 -48 -115 -48t-114 48q-26 26 -38 57h-344q-11 -31 -37 -57q-48 -48 -115 -48t-114 48q-48 47 -48 114t48 115q26 26 57 37v344
q-31 12 -57 38q-48 47 -48 114t48 115q26 26 57 37z" />
    <glyph glyph-name="Ograve" unicode="&#xd2;" 
d="M662 1390q-14 31 -14 68q0 67 48 115q47 47 114 47t115 -47q47 -48 47 -115q0 -37 -14 -68l432 -432q31 14 68 14q67 0 115 -47q47 -48 47 -115t-47 -114q-48 -48 -115 -48q-37 0 -68 14l-432 -432q14 -31 14 -68q0 -67 -47 -114q-48 -48 -115 -48t-114 48
q-48 47 -48 114q0 37 14 68l-432 432q-31 -14 -68 -14q-67 0 -114 48q-48 47 -48 114t48 115q47 47 114 47q37 0 68 -14zM878 1310q-31 -14 -68 -14t-68 14l-432 -432q14 -31 14 -68t-14 -68l432 -432q31 14 68 14t68 -14l432 432q-14 31 -14 68t14 68zM162 1620
q67 0 114.5 -47.5t47.5 -114.5t-47.5 -114.5t-114.5 -47.5t-114.5 47.5t-47.5 114.5t47.5 114.5t114.5 47.5z" />
    <glyph glyph-name="Oacute" unicode="&#xd3;" 
d="M662 1390q-14 31 -14 68q0 67 48 115q47 47 114 47t115 -47q47 -48 47 -115q0 -37 -14 -68l432 -432q31 14 68 14q67 0 115 -47q47 -48 47 -115t-47 -114q-48 -48 -115 -48q-37 0 -68 14l-432 -432q14 -31 14 -68q0 -67 -47 -114q-48 -48 -115 -48t-114 48
q-48 47 -48 114q0 37 14 68l-432 432q-31 -14 -68 -14q-67 0 -114 48q-48 47 -48 114t48 115q47 47 114 47q37 0 68 -14zM878 1310q-31 -14 -68 -14t-68 14l-432 -432q14 -31 14 -68t-14 -68l432 -432q31 14 68 14t68 -14l432 432q-14 31 -14 68t14 68zM1458 1620
q67 0 114.5 -47.5t47.5 -114.5t-47.5 -114.5t-114.5 -47.5t-114.5 47.5t-47.5 114.5t47.5 114.5t114.5 47.5z" />
    <glyph glyph-name="Odieresis" unicode="&#xd6;" 
d="M662 1390q-14 31 -14 68q0 67 48 115q47 47 114 47t115 -47q47 -48 47 -115q0 -37 -14 -68l432 -432q31 14 68 14q67 0 115 -47q47 -48 47 -115t-47 -114q-48 -48 -115 -48q-37 0 -68 14l-432 -432q14 -31 14 -68q0 -67 -47 -114q-48 -48 -115 -48t-114 48
q-48 47 -48 114q0 37 14 68l-432 432q-31 -14 -68 -14q-67 0 -114 48q-48 47 -48 114t48 115q47 47 114 47q37 0 68 -14zM878 1310q-31 -14 -68 -14t-68 14l-432 -432q14 -31 14 -68t-14 -68l432 -432q31 14 68 14t68 -14l432 432q-14 31 -14 68t14 68zM1458 1296
q-67 0 -114.5 47.5t-47.5 114.5t47.5 114.5t114.5 47.5t114.5 -47.5t47.5 -114.5t-47.5 -114.5t-114.5 -47.5zM162 1620q67 0 114.5 -47.5t47.5 -114.5t-47.5 -114.5t-114.5 -47.5t-114.5 47.5t-47.5 114.5t47.5 114.5t114.5 47.5z" />
    <glyph glyph-name="multiply" unicode="&#xd7;" horiz-adv-x="1134" 
d="M662 742q-14 31 -14 68q0 67 48 115q47 47 114 47t115 -47q47 -48 47 -115t-47 -114q-48 -48 -115 -48q-37 0 -68 14l-176 -176l176 -176q31 14 68 14q67 0 115 -47q47 -48 47 -115t-47 -114q-48 -48 -115 -48t-114 48q-48 47 -48 114q0 37 14 68l-176 176l-176 -176
q14 -31 14 -68q0 -67 -47 -114q-48 -48 -115 -48t-114 48q-48 47 -48 114t48 115q47 47 114 47q37 0 68 -14l176 176l-176 176q-31 -14 -68 -14q-67 0 -114 48q-48 47 -48 114t48 115q47 47 114 47t115 -47q47 -48 47 -115q0 -37 -14 -68l176 -176z" />
    <glyph glyph-name="Oslash" unicode="&#xd8;" 
d="M486 566l568 568l-176 176q-31 -14 -68 -14t-68 14l-432 -432q14 -31 14 -68t-14 -68zM878 310l432 432q-14 31 -14 68t14 68l-176 176l-568 -568l176 -176q31 14 68 14t68 -14zM810 0q-67 0 -114.5 47.5t-47.5 114.5q0 37 14 68l-176 176l-176 -176q14 -31 14 -68
q0 -67 -47.5 -114.5t-114.5 -47.5t-114.5 47.5t-47.5 114.5t47.5 114.5t114.5 47.5q37 0 68 -14l176 176l-176 176q-31 -14 -68 -14q-67 0 -114.5 47.5t-47.5 114.5t47.5 114.5t114.5 47.5q37 0 68 -14l432 432q-14 31 -14 68q0 67 47.5 114.5t114.5 47.5t114.5 -47.5
t47.5 -114.5q0 -37 -14 -68l176 -176l176 176q-14 31 -14 68q0 67 47.5 114.5t114.5 47.5t114.5 -47.5t47.5 -114.5t-47.5 -114.5t-114.5 -47.5q-37 0 -68 14l-176 -176l176 -176q31 14 68 14q67 0 114.5 -47.5t47.5 -114.5t-47.5 -114.5t-114.5 -47.5q-37 0 -68 14
l-432 -432q14 -31 14 -68q0 -67 -47.5 -114.5t-114.5 -47.5z" />
    <glyph glyph-name="Uacute" unicode="&#xda;" 
d="M1401 1306q-31 12 -57 38q-48 47 -48 114t48 115q47 47 114 47t115 -47q47 -48 47 -115t-47 -114q-26 -26 -58 -38v-992q32 -11 58 -37q47 -48 47 -115t-47 -114q-48 -48 -115 -48t-114 48q-26 26 -38 57h-344q-11 -31 -37 -57q-48 -48 -115 -48t-114 48q-48 47 -48 114
q0 37 14 68l-432 432q-31 -14 -68 -14q-67 0 -114 48q-48 47 -48 114t48 115q26 26 57 37v344q-31 12 -57 38q-48 47 -48 114t48 115q47 47 114 47t115 -47q47 -48 47 -115t-47 -114q-26 -26 -58 -38v-344q32 -11 58 -37q47 -48 47 -115q0 -37 -14 -68l432 -432q31 14 68 14
q67 0 115 -47q26 -26 37 -58h344q12 32 38 58t57 37v992zM810 1620q67 0 114.5 -47.5t47.5 -114.5t-47.5 -114.5t-114.5 -47.5t-114.5 47.5t-47.5 114.5t47.5 114.5t114.5 47.5z" />
    <glyph glyph-name="Udieresis" unicode="&#xdc;" 
d="M314 105q-11 -31 -37 -57q-48 -48 -115 -48t-114 48q-48 47 -48 114t48 115q26 26 57 37v344q-31 12 -57 38q-48 47 -48 114t48 115q47 47 114 47t115 -47q47 -48 47 -115t-47 -114q-26 -26 -58 -38v-344q32 -11 58 -37t37 -58h992q12 32 38 58t57 37v344q-31 12 -57 38
q-48 47 -48 114t48 115q47 47 114 47t115 -47q47 -48 47 -115t-47 -114q-26 -26 -58 -38v-344q32 -11 58 -37q47 -48 47 -115t-47 -114q-48 -48 -115 -48t-114 48q-26 26 -38 57h-992zM1458 1296q-67 0 -114.5 47.5t-47.5 114.5t47.5 114.5t114.5 47.5t114.5 -47.5
t47.5 -114.5t-47.5 -114.5t-114.5 -47.5zM162 1620q67 0 114.5 -47.5t47.5 -114.5t-47.5 -114.5t-114.5 -47.5t-114.5 47.5t-47.5 114.5t47.5 114.5t114.5 47.5z" />
    <glyph glyph-name="Yacute" unicode="&#xdd;" 
d="M1310 1390q-14 31 -14 68q0 67 48 115q47 47 114 47t115 -47q47 -48 47 -115t-47 -114q-48 -48 -115 -48q-37 0 -68 14l-432 -432q14 -31 14 -68q0 -67 -47 -114q-26 -26 -58 -38v-344q32 -11 58 -37q47 -48 47 -115t-47 -114q-48 -48 -115 -48t-114 48q-48 47 -48 114
t48 115q26 26 57 37v344q-31 12 -57 38q-48 47 -48 114q0 37 14 68l-432 432q-31 -14 -68 -14q-67 0 -114 48q-48 47 -48 114t48 115q47 47 114 47t115 -47q47 -48 47 -115q0 -37 -14 -68l432 -432q31 14 68 14t68 -14zM810 1620q67 0 114.5 -47.5t47.5 -114.5t-47.5 -114.5
t-114.5 -47.5t-114.5 47.5t-47.5 114.5t47.5 114.5t114.5 47.5z" />
    <glyph glyph-name="Thorn" unicode="&#xde;" horiz-adv-x="1781" 
d="M810 0q-67 0 -114.5 47.5t-47.5 114.5q0 36 14 67l-433 433l-10 -4v-344q47 -18 76 -59t29 -93q0 -67 -47.5 -114.5t-114.5 -47.5t-114.5 47.5t-47.5 114.5q0 52 29 93t76 59v344q-47 18 -76 59t-29 93t29 92.5t76 58.5v345q-47 18 -76 58.5t-29 92.5q0 67 47.5 114.5
t114.5 47.5t114.5 -47.5t47.5 -114.5q0 -52 -29 -92.5t-76 -58.5v-345l10 -4l433 433q-14 31 -14 67q0 67 47.5 114.5t114.5 47.5t114.5 -47.5t47.5 -114.5q0 -36 -15 -67l433 -433q31 15 67 15q67 0 114.5 -47.5t47.5 -114.5t-47.5 -114.5t-114.5 -47.5q-36 0 -67 14
l-433 -433q15 -31 15 -67q0 -67 -47.5 -114.5t-114.5 -47.5zM877 309l433 433q-15 32 -15 68t15 67l-433 433q-31 -15 -67 -15t-67 15l-434 -433q15 -31 15 -67t-15 -68q217 -216 433 -433q32 15 68 15t67 -15z" />
    <glyph glyph-name="germandbls" unicode="&#xdf;" 
d="M219 314q32 -11 58 -37q47 -48 47 -115t-47 -114q-48 -48 -115 -48t-114 48q-48 47 -48 114t48 115q26 26 57 37v992q-31 12 -57 38q-48 47 -48 114t48 115q47 47 114 47t115 -47q26 -26 37 -58h992q12 32 38 58q47 47 114 47t115 -47q47 -48 47 -115t-47 -114
q-48 -48 -115 -48q-37 0 -68 14l-432 -432q14 -31 14 -68t-14 -68l432 -432q31 14 68 14q67 0 115 -47q47 -48 47 -115t-47 -114q-48 -48 -115 -48t-114 48q-26 26 -38 57h-344q-11 -31 -37 -57q-48 -48 -115 -48t-114 48q-48 47 -48 114t48 115q47 47 114 47t115 -47
q26 -26 37 -58h344q2 5 4 11l-432 432q-31 -14 -68 -14q-67 0 -114 48q-48 47 -48 114t48 115q47 47 114 47q37 0 68 -14l432 432q-2 6 -4 11h-992q-11 -31 -37 -57t-58 -38v-992z" />
    <glyph glyph-name="agrave" unicode="&#xe0;" 
d="M219 314q32 -11 58 -37q47 -48 47 -115t-47 -114q-48 -48 -115 -48t-114 48q-48 47 -48 114t48 115q26 26 57 37v344q-31 12 -57 38q-48 47 -48 114t48 115q47 47 114 47q37 0 68 -14l432 432q-14 31 -14 68q0 67 48 115q47 47 114 47t115 -47q47 -48 47 -115
q0 -37 -14 -68l432 -432q31 14 68 14q67 0 115 -47q47 -48 47 -115t-47 -114q-26 -26 -58 -38v-344q32 -11 58 -37q47 -48 47 -115t-47 -114q-48 -48 -115 -48t-114 48q-48 47 -48 114t48 115q26 26 57 37v344q-31 12 -57 38t-38 57h-992q-11 -31 -37 -57t-58 -38v-344z
M878 1310q-31 -14 -68 -14t-68 14l-432 -432q2 -5 4 -11h992q2 5 4 11zM162 1620q67 0 114.5 -47.5t47.5 -114.5t-47.5 -114.5t-114.5 -47.5t-114.5 47.5t-47.5 114.5t47.5 114.5t114.5 47.5z" />
    <glyph glyph-name="aacute" unicode="&#xe1;" 
d="M1401 314v344q-32 12 -58 38t-37 57h-992q-12 -31 -38 -57t-57 -38v-344q31 -11 57 -37q48 -48 48 -115t-48 -114q-47 -48 -114 -48t-115 48q-47 47 -47 114t47 115q26 26 58 37v344q-32 12 -58 38q-47 47 -47 114t47 115q48 47 115 47q37 0 68 -14l432 432
q-14 31 -14 68q0 67 47 115q48 47 115 47t114 -47q48 -48 48 -115q0 -37 -14 -68l432 -432q31 14 68 14q67 0 114 -47q48 -48 48 -115t-48 -114q-26 -26 -57 -38v-344q31 -11 57 -37q48 -48 48 -115t-48 -114q-47 -48 -114 -48t-115 48q-47 47 -47 114t47 115q26 26 58 37z
M742 1310l-432 -432q2 -6 4 -11h992q2 6 4 11l-432 432q-31 -14 -68 -14t-68 14zM1458 1620q67 0 114.5 -47.5t47.5 -114.5t-47.5 -114.5t-114.5 -47.5t-114.5 47.5t-47.5 114.5t47.5 114.5t114.5 47.5z" />
    <glyph glyph-name="adieresis" unicode="&#xe4;" 
d="M219 314q32 -11 58 -37q47 -48 47 -115t-47 -114q-48 -48 -115 -48t-114 48q-48 47 -48 114t48 115q26 26 57 37v344q-31 12 -57 38q-48 47 -48 114t48 115q47 47 114 47q37 0 68 -14l432 432q-14 31 -14 68q0 67 48 115q47 47 114 47t115 -47q47 -48 47 -115
q0 -37 -14 -68l432 -432q31 14 68 14q67 0 115 -47q47 -48 47 -115t-47 -114q-26 -26 -58 -38v-344q32 -11 58 -37q47 -48 47 -115t-47 -114q-48 -48 -115 -48t-114 48q-48 47 -48 114t48 115q26 26 57 37v344q-31 12 -57 38t-38 57h-992q-11 -31 -37 -57t-58 -38v-344z
M878 1310q-31 -14 -68 -14t-68 14l-432 -432q2 -5 4 -11h992q2 5 4 11zM1458 1296q-67 0 -114.5 47.5t-47.5 114.5t47.5 114.5t114.5 47.5t114.5 -47.5t47.5 -114.5t-47.5 -114.5t-114.5 -47.5zM162 1620q67 0 114.5 -47.5t47.5 -114.5t-47.5 -114.5t-114.5 -47.5
t-114.5 47.5t-47.5 114.5t47.5 114.5t114.5 47.5z" />
    <glyph glyph-name="aring" unicode="&#xe5;" 
d="M230 958l432 432l-4 11h-344q-12 -32 -37.5 -57.5t-57.5 -37.5v-344zM962 867h344q12 32 37.5 57.5t57.5 37.5v344l-11 4l-432 -432zM162 648q-67 0 -114.5 47.5t-47.5 114.5t48 115q25 25 57 37v344q-32 12 -57 38q-48 47 -48 114t47.5 114.5t114.5 47.5t115 -47
q25 -26 37 -58h344q12 32 38 58q47 47 114 47t114.5 -47.5t47.5 -114.5t-47.5 -114.5t-114.5 -47.5q-37 0 -68 14l-432 -432q14 -31 14 -68q0 -67 -47.5 -114.5t-114.5 -47.5zM162 0q-67 0 -114.5 47.5t-47.5 114.5t47.5 114.5t114.5 47.5q37 0 68 -14l432 432
q-14 31 -14 68q0 67 47.5 114.5t114.5 47.5q37 0 68 -14l432 432q-14 31 -14 68q0 67 47.5 114.5t114.5 47.5t114.5 -47.5t47.5 -114.5t-47 -114q-26 -26 -58 -38v-344q32 -12 58 -37q47 -48 47 -115t-47 -114q-26 -26 -58 -38v-344q32 -12 58 -37q47 -48 47 -115
t-47.5 -114.5t-114.5 -47.5t-114.5 47.5t-47.5 114.5t48 115q25 25 57 37v344q-32 12 -57.5 37.5t-37.5 57.5h-344q-12 -32 -37 -57q-48 -48 -115 -48q-37 0 -68 14l-432 -432q14 -31 14 -68q0 -67 -47.5 -114.5t-114.5 -47.5z" />
    <glyph glyph-name="ae" unicode="&#xe6;" 
d="M753 867v439l-11 4l-432 -432l4 -11h439zM1458 0q-67 0 -114 48q-26 25 -38 57h-344q-12 -32 -37 -57q-48 -48 -115 -48t-114.5 47.5t-47.5 114.5t48 115q25 25 57 37v439h-439q-12 -32 -37.5 -57.5t-57.5 -37.5v-344q32 -12 58 -37q47 -48 47 -115t-47.5 -114.5
t-114.5 -47.5t-114.5 47.5t-47.5 114.5t48 115q25 25 57 37v344q-32 12 -57 38q-48 47 -48 114t47.5 114.5t114.5 47.5q37 0 68 -14l432 432q-14 31 -14 68q0 67 47.5 114.5t114.5 47.5t115 -47q25 -26 37 -58h344q12 32 38 58q47 47 114 47t114.5 -47.5t47.5 -114.5
t-47.5 -114.5t-114.5 -47.5t-114 48q-26 25 -38 57h-344q-12 -32 -37.5 -57.5t-57.5 -37.5v-439h439q12 32 38 58q47 47 114 47t114.5 -47.5t47.5 -114.5t-47.5 -114.5t-114.5 -47.5t-114 48q-26 25 -38 57h-439v-439q32 -12 57.5 -37.5t37.5 -57.5h344q12 32 38 58
q47 47 114 47t114.5 -47.5t47.5 -114.5t-47.5 -114.5t-114.5 -47.5z" />
    <glyph glyph-name="ccedilla" unicode="&#xe7;" 
d="M1306 1515q12 32 38 58q47 47 114 47t115 -47q47 -48 47 -115t-47 -114q-48 -48 -115 -48t-114 48q-26 26 -38 57h-344q-11 -31 -37 -57q-48 -48 -115 -48q-36 0 -67 14l-433 -432q14 -31 14 -68t-14 -68l433 -432q30 14 67 14q67 0 115 -47q26 -26 37 -58h344
q12 32 38 58q47 47 114 47t115 -47q47 -48 47 -115t-47 -114q-48 -48 -115 -48t-114 48q-26 26 -38 57h-344q-11 -31 -37 -57q-48 -48 -115 -48t-114 48q-48 47 -48 114q0 37 14 68l-432 432q-31 -14 -68 -14q-67 0 -114 48q-48 47 -48 114t48 115q47 47 114 47q37 0 68 -14
l432 432q-14 31 -14 68q0 67 48 115q47 47 114 47t115 -47q26 -26 37 -58h344zM162 324q67 0 114.5 -47.5t47.5 -114.5t-47.5 -114.5t-114.5 -47.5t-114.5 47.5t-47.5 114.5t47.5 114.5t114.5 47.5z" />
    <glyph glyph-name="eacute" unicode="&#xe9;" 
d="M314 1401q-11 -31 -37 -57t-58 -38v-344q32 -11 58 -37q26 -27 38 -59l343 1q12 32 38 58q47 47 114 47t115 -47q47 -48 47 -115t-47 -114q-48 -48 -115 -48t-114 48q-26 26 -38 57h-344q-11 -31 -37 -57t-58 -38v-344q32 -11 58 -37t37 -58h992q12 32 38 58
q47 47 114 47t115 -47q47 -48 47 -115t-47 -114q-48 -48 -115 -48t-114 48q-26 26 -38 57h-992q-11 -31 -37 -57q-48 -48 -115 -48t-114 48q-48 47 -48 114t48 115q26 26 57 37v344q-31 12 -57 38q-48 47 -48 114t48 115q26 26 57 37v344q-31 12 -57 38q-48 47 -48 114
t48 115q47 47 114 47t115 -47q26 -26 37 -58h344q12 32 38 58q47 47 114 47t115 -47q47 -48 47 -115t-47 -114q-48 -48 -115 -48t-114 48q-26 26 -38 57h-344zM1458 1296q-67 0 -114.5 47.5t-47.5 114.5t47.5 114.5t114.5 47.5t114.5 -47.5t47.5 -114.5t-47.5 -114.5
t-114.5 -47.5z" />
    <glyph glyph-name="igrave" unicode="&#xec;" horiz-adv-x="1134" 
d="M162 1620q67 0 114.5 -47.5t47.5 -114.5t-47.5 -114.5t-114.5 -47.5t-114.5 47.5t-47.5 114.5t47.5 114.5t114.5 47.5zM753 1306q-31 12 -57 38q-48 47 -48 114t48 115q47 47 114 47t115 -47q47 -48 47 -115t-47 -114q-26 -26 -58 -38v-992q32 -11 58 -37q47 -48 47 -115
t-47 -114q-48 -48 -115 -48t-114 48q-48 47 -48 114t48 115q26 26 57 37v992z" />
    <glyph glyph-name="iacute" unicode="&#xed;" horiz-adv-x="1134" 
d="M810 1296q-67 0 -114.5 47.5t-47.5 114.5t47.5 114.5t114.5 47.5t114.5 -47.5t47.5 -114.5t-47.5 -114.5t-114.5 -47.5zM105 1306q-31 12 -57 38q-48 47 -48 114t48 115q47 47 114 47t115 -47q47 -48 47 -115t-47 -114q-26 -26 -58 -38v-992q32 -11 58 -37
q47 -48 47 -115t-47 -114q-48 -48 -115 -48t-114 48q-48 47 -48 114t48 115q26 26 57 37v992z" />
    <glyph glyph-name="idieresis" unicode="&#xef;" 
d="M1458 1296q-67 0 -114.5 47.5t-47.5 114.5t47.5 114.5t114.5 47.5t114.5 -47.5t47.5 -114.5t-47.5 -114.5t-114.5 -47.5zM162 1620q67 0 114.5 -47.5t47.5 -114.5t-47.5 -114.5t-114.5 -47.5t-114.5 47.5t-47.5 114.5t47.5 114.5t114.5 47.5zM753 1306q-31 12 -57 38
q-48 47 -48 114t48 115q47 47 114 47t115 -47q47 -48 47 -115t-47 -114q-26 -26 -58 -38v-992q32 -11 58 -37q47 -48 47 -115t-47 -114q-48 -48 -115 -48t-114 48q-48 47 -48 114t48 115q26 26 57 37v992z" />
    <glyph glyph-name="eth" unicode="&#xf0;" 
d="M219 658v-344q32 -11 58 -37t37 -58h344q12 32 38 58q47 47 114 47q37 0 68 -14l432 432q-14 31 -14 68t14 68l-432 432q-31 -14 -68 -14q-67 0 -114 48q-26 26 -38 57h-344q-11 -31 -37 -57t-58 -38v-344q32 -11 58 -37t37 -58h344q12 32 38 58q47 47 114 47t115 -47
q47 -48 47 -115t-47 -114q-48 -48 -115 -48t-114 48q-26 26 -38 57h-344q-11 -31 -37 -57t-58 -38zM105 962v344q-31 12 -57 38q-48 47 -48 114t48 115q47 47 114 47t115 -47q26 -26 37 -58h344q12 32 38 58q47 47 114 47t115 -47q47 -48 47 -115q0 -37 -14 -68l432 -432
q31 14 68 14q67 0 115 -47q47 -48 47 -115t-47 -114q-48 -48 -115 -48q-37 0 -68 14l-432 -432q14 -31 14 -68q0 -67 -47 -114q-48 -48 -115 -48t-114 48q-26 26 -38 57h-344q-11 -31 -37 -57q-48 -48 -115 -48t-114 48q-48 47 -48 114t48 115q26 26 57 37v344
q-31 12 -57 38q-48 47 -48 114t48 115q26 26 57 37z" />
    <glyph glyph-name="ograve" unicode="&#xf2;" 
d="M662 1390q-14 31 -14 68q0 67 48 115q47 47 114 47t115 -47q47 -48 47 -115q0 -37 -14 -68l432 -432q31 14 68 14q67 0 115 -47q47 -48 47 -115t-47 -114q-48 -48 -115 -48q-37 0 -68 14l-432 -432q14 -31 14 -68q0 -67 -47 -114q-48 -48 -115 -48t-114 48
q-48 47 -48 114q0 37 14 68l-432 432q-31 -14 -68 -14q-67 0 -114 48q-48 47 -48 114t48 115q47 47 114 47q37 0 68 -14zM878 1310q-31 -14 -68 -14t-68 14l-432 -432q14 -31 14 -68t-14 -68l432 -432q31 14 68 14t68 -14l432 432q-14 31 -14 68t14 68zM162 1620
q67 0 114.5 -47.5t47.5 -114.5t-47.5 -114.5t-114.5 -47.5t-114.5 47.5t-47.5 114.5t47.5 114.5t114.5 47.5z" />
    <glyph glyph-name="oacute" unicode="&#xf3;" 
d="M662 1390q-14 31 -14 68q0 67 48 115q47 47 114 47t115 -47q47 -48 47 -115q0 -37 -14 -68l432 -432q31 14 68 14q67 0 115 -47q47 -48 47 -115t-47 -114q-48 -48 -115 -48q-37 0 -68 14l-432 -432q14 -31 14 -68q0 -67 -47 -114q-48 -48 -115 -48t-114 48
q-48 47 -48 114q0 37 14 68l-432 432q-31 -14 -68 -14q-67 0 -114 48q-48 47 -48 114t48 115q47 47 114 47q37 0 68 -14zM878 1310q-31 -14 -68 -14t-68 14l-432 -432q14 -31 14 -68t-14 -68l432 -432q31 14 68 14t68 -14l432 432q-14 31 -14 68t14 68zM1458 1620
q67 0 114.5 -47.5t47.5 -114.5t-47.5 -114.5t-114.5 -47.5t-114.5 47.5t-47.5 114.5t47.5 114.5t114.5 47.5z" />
    <glyph glyph-name="odieresis" unicode="&#xf6;" 
d="M662 1390q-14 31 -14 68q0 67 48 115q47 47 114 47t115 -47q47 -48 47 -115q0 -37 -14 -68l432 -432q31 14 68 14q67 0 115 -47q47 -48 47 -115t-47 -114q-48 -48 -115 -48q-37 0 -68 14l-432 -432q14 -31 14 -68q0 -67 -47 -114q-48 -48 -115 -48t-114 48
q-48 47 -48 114q0 37 14 68l-432 432q-31 -14 -68 -14q-67 0 -114 48q-48 47 -48 114t48 115q47 47 114 47q37 0 68 -14zM878 1310q-31 -14 -68 -14t-68 14l-432 -432q14 -31 14 -68t-14 -68l432 -432q31 14 68 14t68 -14l432 432q-14 31 -14 68t14 68zM1458 1296
q-67 0 -114.5 47.5t-47.5 114.5t47.5 114.5t114.5 47.5t114.5 -47.5t47.5 -114.5t-47.5 -114.5t-114.5 -47.5zM162 1620q67 0 114.5 -47.5t47.5 -114.5t-47.5 -114.5t-114.5 -47.5t-114.5 47.5t-47.5 114.5t47.5 114.5t114.5 47.5z" />
    <glyph glyph-name="divide" unicode="&#xf7;" 
d="M1306 867q12 32 38 58q47 47 114 47t115 -47q47 -48 47 -115t-47 -114q-48 -48 -115 -48t-114 48q-26 26 -38 57h-992q-11 -31 -37 -57q-48 -48 -115 -48t-114 48q-48 47 -48 114t48 115q47 47 114 47t115 -47q26 -26 37 -58h992zM810 1620q67 0 114.5 -47.5t47.5 -114.5
t-47.5 -114.5t-114.5 -47.5t-114.5 47.5t-47.5 114.5t47.5 114.5t114.5 47.5zM810 324q67 0 114.5 -47.5t47.5 -114.5t-47.5 -114.5t-114.5 -47.5t-114.5 47.5t-47.5 114.5t47.5 114.5t114.5 47.5z" />
    <glyph glyph-name="oslash" unicode="&#xf8;" 
d="M486 566l568 568l-176 176q-31 -14 -68 -14t-68 14l-432 -432q14 -31 14 -68t-14 -68zM878 310l432 432q-14 31 -14 68t14 68l-176 176l-568 -568l176 -176q31 14 68 14t68 -14zM810 0q-67 0 -114.5 47.5t-47.5 114.5q0 37 14 68l-176 176l-176 -176q14 -31 14 -68
q0 -67 -47.5 -114.5t-114.5 -47.5t-114.5 47.5t-47.5 114.5t47.5 114.5t114.5 47.5q37 0 68 -14l176 176l-176 176q-31 -14 -68 -14q-67 0 -114.5 47.5t-47.5 114.5t47.5 114.5t114.5 47.5q37 0 68 -14l432 432q-14 31 -14 68q0 67 47.5 114.5t114.5 47.5t114.5 -47.5
t47.5 -114.5q0 -37 -14 -68l176 -176l176 176q-14 31 -14 68q0 67 47.5 114.5t114.5 47.5t114.5 -47.5t47.5 -114.5t-47.5 -114.5t-114.5 -47.5q-37 0 -68 14l-176 -176l176 -176q31 14 68 14q67 0 114.5 -47.5t47.5 -114.5t-47.5 -114.5t-114.5 -47.5q-37 0 -68 14
l-432 -432q14 -31 14 -68q0 -67 -47.5 -114.5t-114.5 -47.5z" />
    <glyph glyph-name="uacute" unicode="&#xfa;" 
d="M1401 1306q-31 12 -57 38q-48 47 -48 114t48 115q47 47 114 47t115 -47q47 -48 47 -115t-47 -114q-26 -26 -58 -38v-992q32 -11 58 -37q47 -48 47 -115t-47 -114q-48 -48 -115 -48t-114 48q-26 26 -38 57h-344q-11 -31 -37 -57q-48 -48 -115 -48t-114 48q-48 47 -48 114
q0 37 14 68l-432 432q-31 -14 -68 -14q-67 0 -114 48q-48 47 -48 114t48 115q26 26 57 37v344q-31 12 -57 38q-48 47 -48 114t48 115q47 47 114 47t115 -47q47 -48 47 -115t-47 -114q-26 -26 -58 -38v-344q32 -11 58 -37q47 -48 47 -115q0 -37 -14 -68l432 -432q31 14 68 14
q67 0 115 -47q26 -26 37 -58h344q12 32 38 58t57 37v992zM810 1620q67 0 114.5 -47.5t47.5 -114.5t-47.5 -114.5t-114.5 -47.5t-114.5 47.5t-47.5 114.5t47.5 114.5t114.5 47.5z" />
    <glyph glyph-name="udieresis" unicode="&#xfc;" 
d="M314 105q-11 -31 -37 -57q-48 -48 -115 -48t-114 48q-48 47 -48 114t48 115q26 26 57 37v344q-31 12 -57 38q-48 47 -48 114t48 115q47 47 114 47t115 -47q47 -48 47 -115t-47 -114q-26 -26 -58 -38v-344q32 -11 58 -37t37 -58h992q12 32 38 58t57 37v344q-31 12 -57 38
q-48 47 -48 114t48 115q47 47 114 47t115 -47q47 -48 47 -115t-47 -114q-26 -26 -58 -38v-344q32 -11 58 -37q47 -48 47 -115t-47 -114q-48 -48 -115 -48t-114 48q-26 26 -38 57h-992zM1458 1296q-67 0 -114.5 47.5t-47.5 114.5t47.5 114.5t114.5 47.5t114.5 -47.5
t47.5 -114.5t-47.5 -114.5t-114.5 -47.5zM162 1620q67 0 114.5 -47.5t47.5 -114.5t-47.5 -114.5t-114.5 -47.5t-114.5 47.5t-47.5 114.5t47.5 114.5t114.5 47.5z" />
    <glyph glyph-name="yacute" unicode="&#xfd;" 
d="M1310 1390q-14 31 -14 68q0 67 48 115q47 47 114 47t115 -47q47 -48 47 -115t-47 -114q-48 -48 -115 -48q-37 0 -68 14l-432 -432q14 -31 14 -68q0 -67 -47 -114q-26 -26 -58 -38v-344q32 -11 58 -37q47 -48 47 -115t-47 -114q-48 -48 -115 -48t-114 48q-48 47 -48 114
t48 115q26 26 57 37v344q-31 12 -57 38q-48 47 -48 114q0 37 14 68l-432 432q-31 -14 -68 -14q-67 0 -114 48q-48 47 -48 114t48 115q47 47 114 47t115 -47q47 -48 47 -115q0 -37 -14 -68l432 -432q31 14 68 14t68 -14zM810 1620q67 0 114.5 -47.5t47.5 -114.5t-47.5 -114.5
t-114.5 -47.5t-114.5 47.5t-47.5 114.5t47.5 114.5t114.5 47.5z" />
    <glyph glyph-name="thorn" unicode="&#xfe;" horiz-adv-x="1781" 
d="M810 0q-67 0 -114.5 47.5t-47.5 114.5q0 36 14 67l-433 433l-10 -4v-344q47 -18 76 -59t29 -93q0 -67 -47.5 -114.5t-114.5 -47.5t-114.5 47.5t-47.5 114.5q0 52 29 93t76 59v344q-47 18 -76 59t-29 93t29 92.5t76 58.5v345q-47 18 -76 58.5t-29 92.5q0 67 47.5 114.5
t114.5 47.5t114.5 -47.5t47.5 -114.5q0 -52 -29 -92.5t-76 -58.5v-345l10 -4l433 433q-14 31 -14 67q0 67 47.5 114.5t114.5 47.5t114.5 -47.5t47.5 -114.5q0 -36 -15 -67l433 -433q31 15 67 15q67 0 114.5 -47.5t47.5 -114.5t-47.5 -114.5t-114.5 -47.5q-36 0 -67 14
l-433 -433q15 -31 15 -67q0 -67 -47.5 -114.5t-114.5 -47.5zM877 309l433 433q-15 32 -15 68t15 67l-433 433q-31 -15 -67 -15t-67 15l-434 -433q15 -31 15 -67t-15 -68q217 -216 433 -433q32 15 68 15t67 -15z" />
    <glyph glyph-name="Amacron" unicode="&#x100;" 
d="M1401 1306q-31 12 -57 38t-38 57h-344q-11 -31 -37 -57t-58 -38v-344q32 -11 58 -37t37 -58h344q12 32 38 58t57 37v344zM1306 1515q12 32 38 58q47 47 114 47t115 -47q47 -48 47 -115t-47 -114q-26 -26 -58 -38v-344q32 -11 58 -37q47 -48 47 -115t-47 -114
q-26 -26 -58 -38v-344q32 -11 58 -37q47 -48 47 -115t-47 -114q-48 -48 -115 -48t-114 48q-48 47 -48 114t48 115q26 26 57 37v344q-31 12 -57 38t-38 57h-344q-11 -31 -37 -57t-58 -38v-344q32 -11 58 -37q47 -48 47 -115t-47 -114q-48 -48 -115 -48t-114 48
q-48 47 -48 114t48 115q26 26 57 37v344q-31 12 -57 38q-48 47 -48 114t48 115q26 26 57 37v344q-31 12 -57 38t-38 57h-344q-11 -31 -37 -57q-48 -48 -115 -48t-114 48q-48 47 -48 114t48 115q47 47 114 47t115 -47q26 -26 37 -58h344q12 32 38 58q47 47 114 47t115 -47
q26 -26 37 -58h344z" />
    <glyph glyph-name="amacron" unicode="&#x101;" 
d="M1401 1306q-31 12 -57 38t-38 57h-344q-11 -31 -37 -57t-58 -38v-344q32 -11 58 -37t37 -58h344q12 32 38 58t57 37v344zM1306 1515q12 32 38 58q47 47 114 47t115 -47q47 -48 47 -115t-47 -114q-26 -26 -58 -38v-344q32 -11 58 -37q47 -48 47 -115t-47 -114
q-26 -26 -58 -38v-344q32 -11 58 -37q47 -48 47 -115t-47 -114q-48 -48 -115 -48t-114 48q-48 47 -48 114t48 115q26 26 57 37v344q-31 12 -57 38t-38 57h-344q-11 -31 -37 -57t-58 -38v-344q32 -11 58 -37q47 -48 47 -115t-47 -114q-48 -48 -115 -48t-114 48
q-48 47 -48 114t48 115q26 26 57 37v344q-31 12 -57 38q-48 47 -48 114t48 115q26 26 57 37v344q-31 12 -57 38t-38 57h-344q-11 -31 -37 -57q-48 -48 -115 -48t-114 48q-48 47 -48 114t48 115q47 47 114 47t115 -47q26 -26 37 -58h344q12 32 38 58q47 47 114 47t115 -47
q26 -26 37 -58h344z" />
    <glyph glyph-name="Aogonek" unicode="&#x104;" 
d="M878 1310q-31 -14 -68 -14t-68 14l-432 -432q2 -5 4 -11h992q2 5 4 11zM1306 219q12 32 38 58t57 37v344q-31 12 -57 38t-38 57h-992q-11 -31 -37 -57t-58 -38v-344q32 -11 58 -37q47 -48 47 -115t-47 -114q-48 -48 -115 -48t-114 48q-48 47 -48 114t48 115q26 26 57 37
v344q-31 12 -57 38q-48 47 -48 114t48 115q47 47 114 47q37 0 68 -14l432 432q-14 31 -14 68q0 67 48 115q47 47 114 47t115 -47q47 -48 47 -115q0 -37 -14 -68l432 -432q31 14 68 14q67 0 115 -47q47 -48 47 -115t-47 -114q-26 -26 -58 -38v-344q32 -11 58 -37
q47 -48 47 -115t-47 -114q-48 -48 -115 -48t-114 48q-26 25 -38 57h-344q-11 -31 -37 -57q-48 -48 -115 -48t-114 48q-48 47 -48 114t48 115q47 47 114 47t115 -47q26 -26 37 -58h344z" />
    <glyph glyph-name="aogonek" unicode="&#x105;" 
d="M878 1310q-31 -14 -68 -14t-68 14l-432 -432q2 -5 4 -11h992q2 5 4 11zM1306 219q12 32 38 58t57 37v344q-31 12 -57 38t-38 57h-992q-11 -31 -37 -57t-58 -38v-344q32 -11 58 -37q47 -48 47 -115t-47 -114q-48 -48 -115 -48t-114 48q-48 47 -48 114t48 115q26 26 57 37
v344q-31 12 -57 38q-48 47 -48 114t48 115q47 47 114 47q37 0 68 -14l432 432q-14 31 -14 68q0 67 48 115q47 47 114 47t115 -47q47 -48 47 -115q0 -37 -14 -68l432 -432q31 14 68 14q67 0 115 -47q47 -48 47 -115t-47 -114q-26 -26 -58 -38v-344q32 -11 58 -37
q47 -48 47 -115t-47 -114q-48 -48 -115 -48t-114 48q-26 25 -38 57h-344q-11 -31 -37 -57q-48 -48 -115 -48t-114 48q-48 47 -48 114t48 115q47 47 114 47t115 -47q26 -26 37 -58h344z" />
    <glyph glyph-name="Cacute" unicode="&#x106;" 
d="M1306 1515q12 32 38 58q47 47 114 47t115 -47q47 -48 47 -115t-47 -114q-48 -48 -115 -48t-114 48q-26 26 -38 57h-344q-11 -31 -37 -57q-48 -48 -115 -48q-36 0 -67 14l-433 -432q14 -31 14 -68t-14 -68l433 -432q30 14 67 14q67 0 115 -47q26 -26 37 -58h344
q12 32 38 58q47 47 114 47t115 -47q47 -48 47 -115t-47 -114q-48 -48 -115 -48t-114 48q-26 26 -38 57h-344q-11 -31 -37 -57q-48 -48 -115 -48t-114 48q-48 47 -48 114q0 37 14 68l-432 432q-31 -14 -68 -14q-67 0 -114 48q-48 47 -48 114t48 115q47 47 114 47q37 0 68 -14
l432 432q-14 31 -14 68q0 67 48 115q47 47 114 47t115 -47q26 -26 37 -58h344zM162 1620q67 0 114.5 -47.5t47.5 -114.5t-47.5 -114.5t-114.5 -47.5t-114.5 47.5t-47.5 114.5t47.5 114.5t114.5 47.5z" />
    <glyph glyph-name="cacute" unicode="&#x107;" 
d="M1306 1515q12 32 38 58q47 47 114 47t115 -47q47 -48 47 -115t-47 -114q-48 -48 -115 -48t-114 48q-26 26 -38 57h-344q-11 -31 -37 -57q-48 -48 -115 -48q-36 0 -67 14l-433 -432q14 -31 14 -68t-14 -68l433 -432q30 14 67 14q67 0 115 -47q26 -26 37 -58h344
q12 32 38 58q47 47 114 47t115 -47q47 -48 47 -115t-47 -114q-48 -48 -115 -48t-114 48q-26 26 -38 57h-344q-11 -31 -37 -57q-48 -48 -115 -48t-114 48q-48 47 -48 114q0 37 14 68l-432 432q-31 -14 -68 -14q-67 0 -114 48q-48 47 -48 114t48 115q47 47 114 47q37 0 68 -14
l432 432q-14 31 -14 68q0 67 48 115q47 47 114 47t115 -47q26 -26 37 -58h344zM162 1620q67 0 114.5 -47.5t47.5 -114.5t-47.5 -114.5t-114.5 -47.5t-114.5 47.5t-47.5 114.5t47.5 114.5t114.5 47.5z" />
    <glyph glyph-name="Ccaron" unicode="&#x10c;" 
d="M314 105q-11 -31 -37 -57q-48 -48 -115 -48t-114 48q-48 47 -48 114t48 115q26 26 57 37v344q-31 12 -57 38q-48 47 -48 114t48 115q47 47 114 47t115 -47q26 -26 37 -58h344q2 5 4 11l-432 432q-31 -14 -68 -14q-67 0 -114 48q-48 47 -48 114t48 115q47 47 114 47
t115 -47q47 -48 47 -115q0 -37 -14 -68l432 -432q31 14 68 14t68 -14l432 432q-14 31 -14 68q0 67 48 115q47 47 114 47t115 -47q47 -48 47 -115t-47 -114q-48 -48 -115 -48q-37 0 -68 14l-432 -432q2 -5 4 -11h344q12 32 38 58q47 47 114 47t115 -47q47 -48 47 -115
t-47 -114q-48 -48 -115 -48t-114 48q-26 26 -38 57h-344q-11 -31 -37 -57q-48 -48 -115 -48t-114 48q-26 26 -38 57h-344q-11 -31 -37 -57t-58 -38v-344q32 -11 58 -37t37 -58h992q12 32 38 58q47 47 114 47t115 -47q47 -48 47 -115t-47 -114q-48 -48 -115 -48t-114 48
q-26 26 -38 57h-992z" />
    <glyph glyph-name="ccaron" unicode="&#x10d;" 
d="M314 105q-11 -31 -37 -57q-48 -48 -115 -48t-114 48q-48 47 -48 114t48 115q26 26 57 37v344q-31 12 -57 38q-48 47 -48 114t48 115q47 47 114 47t115 -47q26 -26 37 -58h344q2 5 4 11l-432 432q-31 -14 -68 -14q-67 0 -114 48q-48 47 -48 114t48 115q47 47 114 47
t115 -47q47 -48 47 -115q0 -37 -14 -68l432 -432q31 14 68 14t68 -14l432 432q-14 31 -14 68q0 67 48 115q47 47 114 47t115 -47q47 -48 47 -115t-47 -114q-48 -48 -115 -48q-37 0 -68 14l-432 -432q2 -5 4 -11h344q12 32 38 58q47 47 114 47t115 -47q47 -48 47 -115
t-47 -114q-48 -48 -115 -48t-114 48q-26 26 -38 57h-344q-11 -31 -37 -57q-48 -48 -115 -48t-114 48q-26 26 -38 57h-344q-11 -31 -37 -57t-58 -38v-344q32 -11 58 -37t37 -58h992q12 32 38 58q47 47 114 47t115 -47q47 -48 47 -115t-47 -114q-48 -48 -115 -48t-114 48
q-26 26 -38 57h-992z" />
    <glyph glyph-name="Dcroat" unicode="&#x110;" 
d="M219 658v-344q32 -11 58 -37t37 -58h344q12 32 38 58q47 47 114 47q37 0 68 -14l432 432q-14 31 -14 68t14 68l-432 432q-31 -14 -68 -14q-67 0 -114 48q-26 26 -38 57h-344q-11 -31 -37 -57t-58 -38v-344q32 -11 58 -37t37 -58h344q12 32 38 58q47 47 114 47t115 -47
q47 -48 47 -115t-47 -114q-48 -48 -115 -48t-114 48q-26 26 -38 57h-344q-11 -31 -37 -57t-58 -38zM105 962v344q-31 12 -57 38q-48 47 -48 114t48 115q47 47 114 47t115 -47q26 -26 37 -58h344q12 32 38 58q47 47 114 47t115 -47q47 -48 47 -115q0 -37 -14 -68l432 -432
q31 14 68 14q67 0 115 -47q47 -48 47 -115t-47 -114q-48 -48 -115 -48q-37 0 -68 14l-432 -432q14 -31 14 -68q0 -67 -47 -114q-48 -48 -115 -48t-114 48q-26 26 -38 57h-344q-11 -31 -37 -57q-48 -48 -115 -48t-114 48q-48 47 -48 114t48 115q26 26 57 37v344
q-31 12 -57 38q-48 47 -48 114t48 115q26 26 57 37z" />
    <glyph glyph-name="dcroat" unicode="&#x111;" 
d="M219 658v-344q32 -11 58 -37t37 -58h344q12 32 38 58q47 47 114 47q37 0 68 -14l432 432q-14 31 -14 68t14 68l-432 432q-31 -14 -68 -14q-67 0 -114 48q-26 26 -38 57h-344q-11 -31 -37 -57t-58 -38v-344q32 -11 58 -37t37 -58h344q12 32 38 58q47 47 114 47t115 -47
q47 -48 47 -115t-47 -114q-48 -48 -115 -48t-114 48q-26 26 -38 57h-344q-11 -31 -37 -57t-58 -38zM105 962v344q-31 12 -57 38q-48 47 -48 114t48 115q47 47 114 47t115 -47q26 -26 37 -58h344q12 32 38 58q47 47 114 47t115 -47q47 -48 47 -115q0 -37 -14 -68l432 -432
q31 14 68 14q67 0 115 -47q47 -48 47 -115t-47 -114q-48 -48 -115 -48q-37 0 -68 14l-432 -432q14 -31 14 -68q0 -67 -47 -114q-48 -48 -115 -48t-114 48q-26 26 -38 57h-344q-11 -31 -37 -57q-48 -48 -115 -48t-114 48q-48 47 -48 114t48 115q26 26 57 37v344
q-31 12 -57 38q-48 47 -48 114t48 115q26 26 57 37z" />
    <glyph glyph-name="Emacron" unicode="&#x112;" 
d="M1306 1515q12 32 38 58q47 47 114 47t115 -47q47 -48 47 -115t-47 -114q-48 -48 -115 -48t-114 48q-26 26 -38 57h-344q-11 -31 -37 -57t-58 -38v-344q32 -11 58 -37t37 -58h344q12 32 38 58q47 47 114 47t115 -47q47 -48 47 -115t-47 -114q-48 -48 -115 -48t-114 48
q-26 26 -38 57h-344q-11 -31 -37 -57t-58 -38v-344q32 -11 58 -37t37 -58h344q12 32 38 58q47 47 114 47t115 -47q47 -48 47 -115t-47 -114q-48 -48 -115 -48t-114 48q-26 26 -38 57h-344q-11 -31 -37 -57q-48 -48 -115 -48t-114 48q-48 47 -48 114t48 115q26 26 57 37v344
q-31 12 -57 38q-48 47 -48 114t48 115q26 26 57 37v344q-31 12 -57 38t-38 57h-344q-11 -31 -37 -57q-48 -48 -115 -48t-114 48q-48 47 -48 114t48 115q47 47 114 47t115 -47q26 -26 37 -58h344q12 32 38 58q47 47 114 47t115 -47q26 -26 37 -58h344z" />
    <glyph glyph-name="emacron" unicode="&#x113;" 
d="M1306 1515q12 32 38 58q47 47 114 47t115 -47q47 -48 47 -115t-47 -114q-48 -48 -115 -48t-114 48q-26 26 -38 57h-344q-11 -31 -37 -57t-58 -38v-344q32 -11 58 -37t37 -58h344q12 32 38 58q47 47 114 47t115 -47q47 -48 47 -115t-47 -114q-48 -48 -115 -48t-114 48
q-26 26 -38 57h-344q-11 -31 -37 -57t-58 -38v-344q32 -11 58 -37t37 -58h344q12 32 38 58q47 47 114 47t115 -47q47 -48 47 -115t-47 -114q-48 -48 -115 -48t-114 48q-26 26 -38 57h-344q-11 -31 -37 -57q-48 -48 -115 -48t-114 48q-48 47 -48 114t48 115q26 26 57 37v344
q-31 12 -57 38q-48 47 -48 114t48 115q26 26 57 37v344q-31 12 -57 38t-38 57h-344q-11 -31 -37 -57q-48 -48 -115 -48t-114 48q-48 47 -48 114t48 115q47 47 114 47t115 -47q26 -26 37 -58h344q12 32 38 58q47 47 114 47t115 -47q26 -26 37 -58h344z" />
    <glyph glyph-name="Edotaccent" unicode="&#x116;" 
d="M658 1401h-344q-11 -31 -37 -57t-58 -38v-344q32 -11 58 -37q26 -27 38 -59l343 1q12 32 38 58q47 47 114 47t115 -47q47 -48 47 -115t-47 -114q-48 -48 -115 -48t-114 48q-26 26 -38 57h-344q-11 -31 -37 -57t-58 -38v-344q32 -11 58 -37t37 -58h992q12 32 38 58
q47 47 114 47t115 -47q47 -48 47 -115t-47 -114q-48 -48 -115 -48t-114 48q-26 26 -38 57h-992q-11 -31 -37 -57q-48 -48 -115 -48t-114 48q-48 47 -48 114t48 115q26 26 57 37v344q-31 12 -57 38q-48 47 -48 114t48 115q26 26 57 37v344q-31 12 -57 38q-48 47 -48 114
t48 115q47 47 114 47t115 -47q26 -26 37 -58h344q12 32 38 58q47 47 114 47t115 -47q25 -26 37 -58h344q12 32 38 58q47 47 114 47t115 -47q47 -48 47 -115t-47 -114q-48 -48 -115 -48t-114 48q-26 26 -38 57h-344q-12 -32 -37 -57q-48 -48 -115 -48t-114 48q-26 25 -38 57z
" />
    <glyph glyph-name="edotaccent" unicode="&#x117;" 
d="M658 1401h-344q-11 -31 -37 -57t-58 -38v-344q32 -11 58 -37q26 -27 38 -59l343 1q12 32 38 58q47 47 114 47t115 -47q47 -48 47 -115t-47 -114q-48 -48 -115 -48t-114 48q-26 26 -38 57h-344q-11 -31 -37 -57t-58 -38v-344q32 -11 58 -37t37 -58h992q12 32 38 58
q47 47 114 47t115 -47q47 -48 47 -115t-47 -114q-48 -48 -115 -48t-114 48q-26 26 -38 57h-992q-11 -31 -37 -57q-48 -48 -115 -48t-114 48q-48 47 -48 114t48 115q26 26 57 37v344q-31 12 -57 38q-48 47 -48 114t48 115q26 26 57 37v344q-31 12 -57 38q-48 47 -48 114
t48 115q47 47 114 47t115 -47q26 -26 37 -58h344q12 32 38 58q47 47 114 47t115 -47q25 -26 37 -58h344q12 32 38 58q47 47 114 47t115 -47q47 -48 47 -115t-47 -114q-48 -48 -115 -48t-114 48q-26 26 -38 57h-344q-12 -32 -37 -57q-48 -48 -115 -48t-114 48q-26 25 -38 57z
" />
    <glyph glyph-name="Eogonek" unicode="&#x118;" 
d="M1458 0q-67 0 -114.5 47.5t-47.5 114.5t48 115q25 25 57 37v344l-11 4l-432 -432q14 -31 14 -68q0 -67 -47.5 -114.5t-114.5 -47.5t-114 48q-26 25 -38 57h-344q-12 -32 -37 -57q-48 -48 -115 -48t-114.5 47.5t-47.5 114.5t48 115q25 25 57 37v344q-32 12 -57 38
q-48 47 -48 114t48 115q25 25 57 37v344q-32 12 -57 38q-48 47 -48 114t47.5 114.5t114.5 47.5t115 -47q25 -26 37 -58h992q12 32 38 58q47 47 114 47t114.5 -47.5t47.5 -114.5t-47.5 -114.5t-114.5 -47.5t-114 48q-26 25 -38 57h-992q-12 -32 -37.5 -57.5t-57.5 -37.5v-344
q32 -12 57.5 -37.5t37.5 -57.5h344q12 32 38 58q47 47 114 47t114.5 -47.5t47.5 -114.5t-47.5 -114.5t-114.5 -47.5t-114 48q-26 25 -38 57h-344q-12 -32 -37.5 -57.5t-57.5 -37.5v-344q32 -12 57.5 -37.5t37.5 -57.5h344q12 32 38 58q47 47 114 47q37 0 68 -14l432 432
q-14 31 -14 68q0 67 47.5 114.5t114.5 47.5t114.5 -47.5t47.5 -114.5t-47 -114q-26 -26 -58 -38v-344q32 -12 58 -37q47 -48 47 -115t-47.5 -114.5t-114.5 -47.5z" />
    <glyph glyph-name="eogonek" unicode="&#x119;" 
d="M1458 0q-67 0 -114.5 47.5t-47.5 114.5t48 115q25 25 57 37v344l-11 4l-432 -432q14 -31 14 -68q0 -67 -47.5 -114.5t-114.5 -47.5t-114 48q-26 25 -38 57h-344q-12 -32 -37 -57q-48 -48 -115 -48t-114.5 47.5t-47.5 114.5t48 115q25 25 57 37v344q-32 12 -57 38
q-48 47 -48 114t48 115q25 25 57 37v344q-32 12 -57 38q-48 47 -48 114t47.5 114.5t114.5 47.5t115 -47q25 -26 37 -58h992q12 32 38 58q47 47 114 47t114.5 -47.5t47.5 -114.5t-47.5 -114.5t-114.5 -47.5t-114 48q-26 25 -38 57h-992q-12 -32 -37.5 -57.5t-57.5 -37.5v-344
q32 -12 57.5 -37.5t37.5 -57.5h344q12 32 38 58q47 47 114 47t114.5 -47.5t47.5 -114.5t-47.5 -114.5t-114.5 -47.5t-114 48q-26 25 -38 57h-344q-12 -32 -37.5 -57.5t-57.5 -37.5v-344q32 -12 57.5 -37.5t37.5 -57.5h344q12 32 38 58q47 47 114 47q37 0 68 -14l432 432
q-14 31 -14 68q0 67 47.5 114.5t114.5 47.5t114.5 -47.5t47.5 -114.5t-47 -114q-26 -26 -58 -38v-344q32 -12 58 -37q47 -48 47 -115t-47.5 -114.5t-114.5 -47.5z" />
    <glyph glyph-name="uni0122" unicode="&#x122;" 
d="M314 105q-11 -31 -37 -57q-48 -48 -115 -48t-114 48q-48 47 -48 114t48 115q26 26 57 37v992q-31 12 -57 38q-48 47 -48 114t48 115q47 47 114 47t115 -47q26 -26 37 -58h992q12 32 38 58q47 47 114 47t115 -47q47 -48 47 -115t-47 -114q-48 -48 -115 -48t-114 48
q-26 26 -38 57h-992q-11 -31 -37 -57t-58 -38v-992q32 -11 58 -37t37 -58h344q12 32 38 58q47 47 114 47q37 0 68 -14l432 432q-2 6 -4 11h-344q-11 -31 -37 -57q-48 -48 -115 -48t-114 48q-48 47 -48 114t48 115q47 47 114 47t115 -47q26 -26 37 -58h344q12 32 38 58
q47 47 114 47t115 -47q47 -48 47 -115t-47 -114q-48 -48 -115 -48q-37 0 -68 14l-432 -432q14 -31 14 -68q0 -67 -47 -114q-48 -48 -115 -48t-114 48q-26 26 -38 57h-344zM1458 324q67 0 114.5 -47.5t47.5 -114.5t-47.5 -114.5t-114.5 -47.5t-114.5 47.5t-47.5 114.5
t47.5 114.5t114.5 47.5z" />
    <glyph glyph-name="uni0123" unicode="&#x123;" 
d="M314 105q-11 -31 -37 -57q-48 -48 -115 -48t-114 48q-48 47 -48 114t48 115q26 26 57 37v992q-31 12 -57 38q-48 47 -48 114t48 115q47 47 114 47t115 -47q26 -26 37 -58h992q12 32 38 58q47 47 114 47t115 -47q47 -48 47 -115t-47 -114q-48 -48 -115 -48t-114 48
q-26 26 -38 57h-992q-11 -31 -37 -57t-58 -38v-992q32 -11 58 -37t37 -58h344q12 32 38 58q47 47 114 47q37 0 68 -14l432 432q-2 6 -4 11h-344q-11 -31 -37 -57q-48 -48 -115 -48t-114 48q-48 47 -48 114t48 115q47 47 114 47t115 -47q26 -26 37 -58h344q12 32 38 58
q47 47 114 47t115 -47q47 -48 47 -115t-47 -114q-48 -48 -115 -48q-37 0 -68 14l-432 -432q14 -31 14 -68q0 -67 -47 -114q-48 -48 -115 -48t-114 48q-26 26 -38 57h-344zM1458 324q67 0 114.5 -47.5t47.5 -114.5t-47.5 -114.5t-114.5 -47.5t-114.5 47.5t-47.5 114.5
t47.5 114.5t114.5 47.5z" />
    <glyph glyph-name="Imacron" unicode="&#x12a;" 
d="M1306 1515q12 32 38 58q47 47 114 47t115 -47q47 -48 47 -115t-47 -114q-48 -48 -115 -48t-114 48q-26 26 -38 57h-992q-11 -31 -37 -57q-48 -48 -115 -48t-114 48q-48 47 -48 114t48 115q47 47 114 47t115 -47q26 -26 37 -58h992zM867 658v-344q32 -11 58 -37
q47 -48 47 -115t-47 -114q-48 -48 -115 -48t-114 48q-48 47 -48 114t48 115q26 26 57 37v344q-32 12 -57 38q-48 47 -48 114t47.5 114.5t114.5 47.5t114.5 -47.5t47.5 -114.5t-47 -114q-26 -26 -58 -38z" />
    <glyph glyph-name="imacron" unicode="&#x12b;" 
d="M1306 1515q12 32 38 58q47 47 114 47t115 -47q47 -48 47 -115t-47 -114q-48 -48 -115 -48t-114 48q-26 26 -38 57h-992q-11 -31 -37 -57q-48 -48 -115 -48t-114 48q-48 47 -48 114t48 115q47 47 114 47t115 -47q26 -26 37 -58h992zM867 658v-344q32 -11 58 -37
q47 -48 47 -115t-47 -114q-48 -48 -115 -48t-114 48q-48 47 -48 114t48 115q26 26 57 37v344q-32 12 -57 38q-48 47 -48 114t47.5 114.5t114.5 47.5t114.5 -47.5t47.5 -114.5t-47 -114q-26 -26 -58 -38z" />
    <glyph glyph-name="Iogonek" unicode="&#x12e;" horiz-adv-x="1134" 
d="M810 0q-67 0 -114.5 47.5t-47.5 114.5t48 115q25 25 57 37v344l-11 4l-432 -432q14 -31 14 -68q0 -67 -47.5 -114.5t-114.5 -47.5t-114.5 47.5t-47.5 114.5t48 115q25 25 57 37v992q-32 12 -57 38q-48 47 -48 114t47.5 114.5t114.5 47.5t114.5 -47.5t47.5 -114.5
t-47 -114q-26 -26 -58 -38v-992l11 -4l432 432q-14 31 -14 68q0 67 47.5 114.5t114.5 47.5t114.5 -47.5t47.5 -114.5t-47 -114q-26 -26 -58 -38v-344q32 -12 58 -37q47 -48 47 -115t-47.5 -114.5t-114.5 -47.5z" />
    <glyph glyph-name="iogonek" unicode="&#x12f;" horiz-adv-x="1134" 
d="M810 0q-67 0 -114.5 47.5t-47.5 114.5t48 115q25 25 57 37v344l-11 4l-432 -432q14 -31 14 -68q0 -67 -47.5 -114.5t-114.5 -47.5t-114.5 47.5t-47.5 114.5t48 115q25 25 57 37v992q-32 12 -57 38q-48 47 -48 114t47.5 114.5t114.5 47.5t114.5 -47.5t47.5 -114.5
t-47 -114q-26 -26 -58 -38v-992l11 -4l432 432q-14 31 -14 68q0 67 47.5 114.5t114.5 47.5t114.5 -47.5t47.5 -114.5t-47 -114q-26 -26 -58 -38v-344q32 -12 58 -37q47 -48 47 -115t-47.5 -114.5t-114.5 -47.5z" />
    <glyph glyph-name="uni0136" unicode="&#x136;" 
d="M219 314q32 -11 58 -37q47 -48 47 -115t-47 -114q-48 -48 -115 -48t-114 48q-48 47 -48 114t48 115q26 26 57 37v344q-31 12 -57 38q-48 47 -48 114t48 115q26 26 57 37v344q-31 12 -57 38q-48 47 -48 114t48 115q47 47 114 47t115 -47q47 -48 47 -115t-47 -114
q-26 -26 -58 -38v-344q32 -11 58 -37t37 -58h344q12 32 38 58q47 47 114 47q37 0 68 -14l432 432q-14 31 -14 68q0 67 48 115q47 47 114 47t115 -47q47 -48 47 -115t-47 -114q-48 -48 -115 -48q-37 0 -68 14l-432 -432q14 -31 14 -68t-14 -68l432 -432q31 14 68 14
q67 0 115 -47q47 -48 47 -115t-47 -114q-48 -48 -115 -48t-114 48q-48 47 -48 114q0 37 14 68l-432 432q-31 -14 -68 -14q-67 0 -114 48q-26 26 -38 57h-344q-11 -31 -37 -57t-58 -38v-344zM810 324q67 0 114.5 -47.5t47.5 -114.5t-47.5 -114.5t-114.5 -47.5t-114.5 47.5
t-47.5 114.5t47.5 114.5t114.5 47.5z" />
    <glyph glyph-name="uni0137" unicode="&#x137;" 
d="M219 314q32 -11 58 -37q47 -48 47 -115t-47 -114q-48 -48 -115 -48t-114 48q-48 47 -48 114t48 115q26 26 57 37v344q-31 12 -57 38q-48 47 -48 114t48 115q26 26 57 37v344q-31 12 -57 38q-48 47 -48 114t48 115q47 47 114 47t115 -47q47 -48 47 -115t-47 -114
q-26 -26 -58 -38v-344q32 -11 58 -37t37 -58h344q12 32 38 58q47 47 114 47q37 0 68 -14l432 432q-14 31 -14 68q0 67 48 115q47 47 114 47t115 -47q47 -48 47 -115t-47 -114q-48 -48 -115 -48q-37 0 -68 14l-432 -432q14 -31 14 -68t-14 -68l432 -432q31 14 68 14
q67 0 115 -47q47 -48 47 -115t-47 -114q-48 -48 -115 -48t-114 48q-48 47 -48 114q0 37 14 68l-432 432q-31 -14 -68 -14q-67 0 -114 48q-26 26 -38 57h-344q-11 -31 -37 -57t-58 -38v-344zM810 324q67 0 114.5 -47.5t47.5 -114.5t-47.5 -114.5t-114.5 -47.5t-114.5 47.5
t-47.5 114.5t47.5 114.5t114.5 47.5z" />
    <glyph glyph-name="kgreenlandic" unicode="&#x138;" 
d="M219 314q32 -11 58 -37q47 -48 47 -115t-47 -114q-48 -48 -115 -48t-114 48q-48 47 -48 114t48 115q26 26 57 37v344q-31 12 -57 38q-48 47 -48 114t48 115q26 26 57 37v344q-31 12 -57 38q-48 47 -48 114t48 115q47 47 114 47t115 -47q47 -48 47 -115t-47 -114
q-26 -26 -58 -38v-344q32 -11 58 -37t37 -58h344q12 32 38 58q47 47 114 47q37 0 68 -14l432 432q-14 31 -14 68q0 67 48 115q47 47 114 47t115 -47q47 -48 47 -115t-47 -114q-48 -48 -115 -48q-37 0 -68 14l-432 -432q14 -31 14 -68t-14 -68l432 -432q31 14 68 14
q67 0 115 -47q47 -48 47 -115t-47 -114q-48 -48 -115 -48t-114 48q-48 47 -48 114q0 37 14 68l-432 432q-31 -14 -68 -14q-67 0 -114 48q-26 26 -38 57h-344q-11 -31 -37 -57t-58 -38v-344z" />
    <glyph glyph-name="Lacute" unicode="&#x139;" 
d="M314 105q-11 -31 -37 -57q-48 -48 -115 -48t-114 48q-48 47 -48 114t48 115q26 26 57 37v992q-31 12 -57 38q-48 47 -48 114t48 115q47 47 114 47t115 -47q47 -48 47 -115t-47 -114q-26 -26 -58 -38v-992q32 -11 58 -37t37 -58h992q12 32 38 58q47 47 114 47t115 -47
q47 -48 47 -115t-47 -114q-48 -48 -115 -48t-114 48q-26 26 -38 57h-992zM810 1620q67 0 114.5 -47.5t47.5 -114.5t-47.5 -114.5t-114.5 -47.5t-114.5 47.5t-47.5 114.5t47.5 114.5t114.5 47.5z" />
    <glyph glyph-name="lacute" unicode="&#x13a;" 
d="M314 105q-11 -31 -37 -57q-48 -48 -115 -48t-114 48q-48 47 -48 114t48 115q26 26 57 37v992q-31 12 -57 38q-48 47 -48 114t48 115q47 47 114 47t115 -47q47 -48 47 -115t-47 -114q-26 -26 -58 -38v-992q32 -11 58 -37t37 -58h992q12 32 38 58q47 47 114 47t115 -47
q47 -48 47 -115t-47 -114q-48 -48 -115 -48t-114 48q-26 26 -38 57h-992zM810 1620q67 0 114.5 -47.5t47.5 -114.5t-47.5 -114.5t-114.5 -47.5t-114.5 47.5t-47.5 114.5t47.5 114.5t114.5 47.5z" />
    <glyph glyph-name="uni013B" unicode="&#x13b;" 
d="M658 105h-344q-11 -31 -37 -57q-48 -48 -115 -48t-114 48q-48 47 -48 114t48 115q26 26 57 37v992q-31 12 -57 38q-48 47 -48 114t48 115q47 47 114 47t115 -47q47 -48 47 -115t-47 -114q-26 -26 -58 -38v-992q32 -11 58 -37t37 -58h344q12 32 38 58q47 47 114 47
t115 -47q25 -26 37 -58h344q12 32 38 58q47 47 114 47t115 -47q47 -48 47 -115t-47 -114q-48 -48 -115 -48t-114 48q-26 26 -38 57h-344q-12 -32 -37 -57q-48 -48 -115 -48t-114 48q-26 25 -38 57z" />
    <glyph glyph-name="uni013C" unicode="&#x13c;" 
d="M658 105h-344q-11 -31 -37 -57q-48 -48 -115 -48t-114 48q-48 47 -48 114t48 115q26 26 57 37v992q-31 12 -57 38q-48 47 -48 114t48 115q47 47 114 47t115 -47q47 -48 47 -115t-47 -114q-26 -26 -58 -38v-992q32 -11 58 -37t37 -58h344q12 32 38 58q47 47 114 47
t115 -47q25 -26 37 -58h344q12 32 38 58q47 47 114 47t115 -47q47 -48 47 -115t-47 -114q-48 -48 -115 -48t-114 48q-26 26 -38 57h-344q-12 -32 -37 -57q-48 -48 -115 -48t-114 48q-26 25 -38 57z" />
    <glyph glyph-name="Lcaron" unicode="&#x13d;" 
d="M314 105q-11 -31 -37 -57q-48 -48 -115 -48t-114 48q-48 47 -48 114t48 115q26 26 57 37v992q-31 12 -57 38q-48 47 -48 114t48 115q47 47 114 47t115 -47q47 -48 47 -115t-47 -114q-26 -26 -58 -38v-992q32 -11 58 -37t37 -58h992q12 32 38 58q47 47 114 47t115 -47
q47 -48 47 -115t-47 -114q-48 -48 -115 -48t-114 48q-26 26 -38 57h-992zM1401 1306q-31 12 -57 38q-48 47 -48 114t48 115q47 47 114 47t115 -47q47 -48 47 -115t-47 -114q-26 -26 -58 -38v-344q32 -11 58 -37q47 -48 47 -115t-47 -114q-48 -48 -115 -48t-114 48
q-48 47 -48 114t48 115q26 26 57 37v344z" />
    <glyph glyph-name="lcaron" unicode="&#x13e;" 
d="M314 105q-11 -31 -37 -57q-48 -48 -115 -48t-114 48q-48 47 -48 114t48 115q26 26 57 37v992q-31 12 -57 38q-48 47 -48 114t48 115q47 47 114 47t115 -47q47 -48 47 -115t-47 -114q-26 -26 -58 -38v-992q32 -11 58 -37t37 -58h992q12 32 38 58q47 47 114 47t115 -47
q47 -48 47 -115t-47 -114q-48 -48 -115 -48t-114 48q-26 26 -38 57h-992zM1401 1306q-31 12 -57 38q-48 47 -48 114t48 115q47 47 114 47t115 -47q47 -48 47 -115t-47 -114q-26 -26 -58 -38v-344q32 -11 58 -37q47 -48 47 -115t-47 -114q-48 -48 -115 -48t-114 48
q-48 47 -48 114t48 115q26 26 57 37v344z" />
    <glyph glyph-name="Ldot" unicode="&#x13f;" 
d="M314 105q-11 -31 -37 -57q-48 -48 -115 -48t-114 48q-48 47 -48 114t48 115q26 26 57 37v992q-31 12 -57 38q-48 47 -48 114t48 115q47 47 114 47t115 -47q47 -48 47 -115t-47 -114q-26 -26 -58 -38v-992q32 -11 58 -37t37 -58h992q12 32 38 58q47 47 114 47t115 -47
q47 -48 47 -115t-47 -114q-48 -48 -115 -48t-114 48q-26 26 -38 57h-992zM810 972q67 0 114.5 -47.5t47.5 -114.5t-47.5 -114.5t-114.5 -47.5t-114.5 47.5t-47.5 114.5t47.5 114.5t114.5 47.5z" />
    <glyph glyph-name="ldot" unicode="&#x140;" 
d="M314 105q-11 -31 -37 -57q-48 -48 -115 -48t-114 48q-48 47 -48 114t48 115q26 26 57 37v992q-31 12 -57 38q-48 47 -48 114t48 115q47 47 114 47t115 -47q47 -48 47 -115t-47 -114q-26 -26 -58 -38v-992q32 -11 58 -37t37 -58h992q12 32 38 58q47 47 114 47t115 -47
q47 -48 47 -115t-47 -114q-48 -48 -115 -48t-114 48q-26 26 -38 57h-992zM810 972q67 0 114.5 -47.5t47.5 -114.5t-47.5 -114.5t-114.5 -47.5t-114.5 47.5t-47.5 114.5t47.5 114.5t114.5 47.5z" />
    <glyph glyph-name="Lslash" unicode="&#x141;" 
d="M314 105q-11 -31 -37 -57q-48 -48 -115 -48t-114 48q-48 47 -48 114t48 115q26 26 57 37v344q-31 12 -57 38q-48 47 -48 114t48 115q26 26 57 37v344q-31 12 -57 38q-48 47 -48 114t48 115q47 47 114 47t115 -47q47 -48 47 -115t-47 -114q-26 -26 -58 -38v-344
q6 -2 11 -4l432 432q-14 31 -14 68q0 67 48 115q47 47 114 47t115 -47q47 -48 47 -115t-47 -114q-48 -48 -115 -48q-37 0 -68 14l-432 -432q14 -31 14 -68q0 -67 -47 -114q-26 -26 -58 -38v-344q32 -11 58 -37t37 -58h992q12 32 38 58q47 47 114 47t115 -47q47 -48 47 -115
t-47 -114q-48 -48 -115 -48t-114 48q-26 26 -38 57h-992z" />
    <glyph glyph-name="lslash" unicode="&#x142;" 
d="M314 105q-11 -31 -37 -57q-48 -48 -115 -48t-114 48q-48 47 -48 114t48 115q26 26 57 37v344q-31 12 -57 38q-48 47 -48 114t48 115q26 26 57 37v344q-31 12 -57 38q-48 47 -48 114t48 115q47 47 114 47t115 -47q47 -48 47 -115t-47 -114q-26 -26 -58 -38v-344
q6 -2 11 -4l432 432q-14 31 -14 68q0 67 48 115q47 47 114 47t115 -47q47 -48 47 -115t-47 -114q-48 -48 -115 -48q-37 0 -68 14l-432 -432q14 -31 14 -68q0 -67 -47 -114q-26 -26 -58 -38v-344q32 -11 58 -37t37 -58h992q12 32 38 58q47 47 114 47t115 -47q47 -48 47 -115
t-47 -114q-48 -48 -115 -48t-114 48q-26 26 -38 57h-992z" />
    <glyph glyph-name="Nacute" unicode="&#x143;" 
d="M219 314q32 -11 58 -37q47 -48 47 -115t-47 -114q-48 -48 -115 -48t-114 48q-48 47 -48 114t48 115q26 26 57 37v992q-31 12 -57 38q-48 47 -48 114t48 115q47 47 114 47t115 -47q47 -48 47 -115q0 -37 -14 -68l1080 -1080q6 2 11 4v992q-31 12 -57 38q-48 47 -48 114
t48 115q47 47 114 47t115 -47q47 -48 47 -115t-47 -114q-26 -26 -58 -38v-992q32 -11 58 -37q47 -48 47 -115t-47 -114q-48 -48 -115 -48t-114 48q-48 47 -48 114q0 37 14 68l-1080 1080q-6 -2 -11 -4v-992zM810 1620q67 0 114.5 -47.5t47.5 -114.5t-47.5 -114.5
t-114.5 -47.5t-114.5 47.5t-47.5 114.5t47.5 114.5t114.5 47.5z" />
    <glyph glyph-name="nacute" unicode="&#x144;" 
d="M219 314q32 -11 58 -37q47 -48 47 -115t-47 -114q-48 -48 -115 -48t-114 48q-48 47 -48 114t48 115q26 26 57 37v992q-31 12 -57 38q-48 47 -48 114t48 115q47 47 114 47t115 -47q47 -48 47 -115q0 -37 -14 -68l1080 -1080q6 2 11 4v992q-31 12 -57 38q-48 47 -48 114
t48 115q47 47 114 47t115 -47q47 -48 47 -115t-47 -114q-26 -26 -58 -38v-992q32 -11 58 -37q47 -48 47 -115t-47 -114q-48 -48 -115 -48t-114 48q-48 47 -48 114q0 37 14 68l-1080 1080q-6 -2 -11 -4v-992zM810 1620q67 0 114.5 -47.5t47.5 -114.5t-47.5 -114.5
t-114.5 -47.5t-114.5 47.5t-47.5 114.5t47.5 114.5t114.5 47.5z" />
    <glyph glyph-name="uni0145" unicode="&#x145;" 
d="M219 314q32 -11 58 -37q47 -48 47 -115t-47 -114q-48 -48 -115 -48t-114 48q-48 47 -48 114t48 115q26 26 57 37v992q-31 12 -57 38q-48 47 -48 114t48 115q47 47 114 47t115 -47q47 -48 47 -115q0 -37 -14 -68l1080 -1080q6 2 11 4v992q-31 12 -57 38q-48 47 -48 114
t48 115q47 47 114 47t115 -47q47 -48 47 -115t-47 -114q-26 -26 -58 -38v-992q32 -11 58 -37q47 -48 47 -115t-47 -114q-48 -48 -115 -48t-114 48q-48 47 -48 114q0 37 14 68l-1080 1080q-6 -2 -11 -4v-992zM810 324q67 0 114.5 -47.5t47.5 -114.5t-47.5 -114.5
t-114.5 -47.5t-114.5 47.5t-47.5 114.5t47.5 114.5t114.5 47.5z" />
    <glyph glyph-name="uni0146" unicode="&#x146;" 
d="M219 314q32 -11 58 -37q47 -48 47 -115t-47 -114q-48 -48 -115 -48t-114 48q-48 47 -48 114t48 115q26 26 57 37v992q-31 12 -57 38q-48 47 -48 114t48 115q47 47 114 47t115 -47q47 -48 47 -115q0 -37 -14 -68l1080 -1080q6 2 11 4v992q-31 12 -57 38q-48 47 -48 114
t48 115q47 47 114 47t115 -47q47 -48 47 -115t-47 -114q-26 -26 -58 -38v-992q32 -11 58 -37q47 -48 47 -115t-47 -114q-48 -48 -115 -48t-114 48q-48 47 -48 114q0 37 14 68l-1080 1080q-6 -2 -11 -4v-992zM810 324q67 0 114.5 -47.5t47.5 -114.5t-47.5 -114.5
t-114.5 -47.5t-114.5 47.5t-47.5 114.5t47.5 114.5t114.5 47.5z" />
    <glyph glyph-name="Eng" unicode="&#x14a;" 
d="M219 314q32 -11 58 -37q47 -48 47 -115t-47 -114q-48 -48 -115 -48t-114 48q-48 47 -48 114t48 115q26 26 57 37v344q-31 12 -57 38q-48 47 -48 114t48 115q26 26 57 37v344q-31 12 -57 38q-48 47 -48 114t48 115q47 47 114 47t115 -47q47 -48 47 -115t-47 -114
q-26 -26 -58 -38v-344q6 -2 11 -4l432 432q-14 31 -14 68q0 67 48 115q47 47 114 47t115 -47q47 -48 47 -115q0 -37 -14 -68l432 -432q31 14 68 14q67 0 115 -47q47 -48 47 -115t-47 -114q-26 -26 -58 -38v-344q32 -11 58 -37q47 -48 47 -115t-47 -114q-48 -48 -115 -48
t-114 48q-26 26 -38 57h-344q-11 -31 -37 -57q-48 -48 -115 -48t-114 48q-48 47 -48 114t48 115q47 47 114 47t115 -47q26 -26 37 -58h344q12 32 38 58t57 37v344q-31 12 -57 38q-48 47 -48 114q0 37 14 68l-432 432q-31 -14 -68 -14t-68 14l-432 -432q14 -31 14 -68
q0 -67 -47 -114q-26 -26 -58 -38v-344z" />
    <glyph glyph-name="eng" unicode="&#x14b;" 
d="M219 314q32 -11 58 -37q47 -48 47 -115t-47 -114q-48 -48 -115 -48t-114 48q-48 47 -48 114t48 115q26 26 57 37v344q-31 12 -57 38q-48 47 -48 114t48 115q26 26 57 37v344q-31 12 -57 38q-48 47 -48 114t48 115q47 47 114 47t115 -47q47 -48 47 -115t-47 -114
q-26 -26 -58 -38v-344q6 -2 11 -4l432 432q-14 31 -14 68q0 67 48 115q47 47 114 47t115 -47q47 -48 47 -115q0 -37 -14 -68l432 -432q31 14 68 14q67 0 115 -47q47 -48 47 -115t-47 -114q-26 -26 -58 -38v-344q32 -11 58 -37q47 -48 47 -115t-47 -114q-48 -48 -115 -48
t-114 48q-26 26 -38 57h-344q-11 -31 -37 -57q-48 -48 -115 -48t-114 48q-48 47 -48 114t48 115q47 47 114 47t115 -47q26 -26 37 -58h344q12 32 38 58t57 37v344q-31 12 -57 38q-48 47 -48 114q0 37 14 68l-432 432q-31 -14 -68 -14t-68 14l-432 -432q14 -31 14 -68
q0 -67 -47 -114q-26 -26 -58 -38v-344z" />
    <glyph glyph-name="OE" unicode="&#x152;" 
d="M314 105q-11 -31 -37 -57q-48 -48 -115 -48t-114 48q-48 47 -48 114t48 115q26 26 57 37v992q-31 12 -57 38q-48 47 -48 114t48 115q47 47 114 47t115 -47q26 -26 37 -58h344q12 32 38 58q47 47 114 47t115 -47q26 -26 37 -58h344q12 32 38 58q47 47 114 47t115 -47
q47 -48 47 -115t-47 -114q-48 -48 -115 -48t-114 48q-26 26 -38 57h-344q-11 -31 -37 -57t-58 -38v-344q32 -11 58 -37t37 -58h344q12 32 38 58q47 47 114 47t115 -47q47 -48 47 -115t-47 -114q-48 -48 -115 -48t-114 48q-26 26 -38 57h-344q-11 -31 -37 -57t-58 -38v-344
q32 -11 58 -37t37 -58h344q12 32 38 58q47 47 114 47t115 -47q47 -48 47 -115t-47 -114q-48 -48 -115 -48t-114 48q-26 26 -38 57h-344q-11 -31 -37 -57q-48 -48 -115 -48t-114 48q-26 26 -38 57h-344zM219 314q32 -11 58 -37t37 -58h344q12 32 38 58t57 37v344
q-31 12 -57 38q-48 47 -48 114t48 115q26 26 57 37v344q-31 12 -57 38t-38 57h-344q-11 -31 -37 -57t-58 -38v-992z" />
    <glyph glyph-name="oe" unicode="&#x153;" 
d="M314 105q-11 -31 -37 -57q-48 -48 -115 -48t-114 48q-48 47 -48 114t48 115q26 26 57 37v992q-31 12 -57 38q-48 47 -48 114t48 115q47 47 114 47t115 -47q26 -26 37 -58h344q12 32 38 58q47 47 114 47t115 -47q26 -26 37 -58h344q12 32 38 58q47 47 114 47t115 -47
q47 -48 47 -115t-47 -114q-48 -48 -115 -48t-114 48q-26 26 -38 57h-344q-11 -31 -37 -57t-58 -38v-344q32 -11 58 -37t37 -58h344q12 32 38 58q47 47 114 47t115 -47q47 -48 47 -115t-47 -114q-48 -48 -115 -48t-114 48q-26 26 -38 57h-344q-11 -31 -37 -57t-58 -38v-344
q32 -11 58 -37t37 -58h344q12 32 38 58q47 47 114 47t115 -47q47 -48 47 -115t-47 -114q-48 -48 -115 -48t-114 48q-26 26 -38 57h-344q-11 -31 -37 -57q-48 -48 -115 -48t-114 48q-26 26 -38 57h-344zM219 314q32 -11 58 -37t37 -58h344q12 32 38 58t57 37v344
q-31 12 -57 38q-48 47 -48 114t48 115q26 26 57 37v344q-31 12 -57 38t-38 57h-344q-11 -31 -37 -57t-58 -38v-992z" />
    <glyph glyph-name="Sacute" unicode="&#x15a;" 
d="M314 105q-11 -31 -37 -57q-48 -48 -115 -48t-114 48q-48 47 -48 114t48 115q47 47 114 47t115 -47q26 -26 37 -58h344q12 32 38 58q47 47 114 47q37 0 68 -14l432 432q-2 6 -4 11h-992q-11 -31 -37 -57q-48 -48 -115 -48t-114 48q-48 47 -48 114t48 115q47 47 114 47
q37 0 68 -14l432 432q-14 31 -14 68q0 67 48 115q47 47 114 47t115 -47q26 -26 37 -58h344q12 32 38 58q47 47 114 47t115 -47q47 -48 47 -115t-47 -114q-48 -48 -115 -48t-114 48q-26 26 -38 57h-344q-11 -31 -37 -57q-48 -48 -115 -48q-37 0 -68 14l-432 -432q2 -5 4 -11
h992q12 32 38 58q47 47 114 47t115 -47q47 -48 47 -115t-47 -114q-48 -48 -115 -48q-37 0 -68 14l-432 -432q14 -31 14 -68q0 -67 -47 -114q-48 -48 -115 -48t-114 48q-26 26 -38 57h-344zM162 1620q67 0 114.5 -47.5t47.5 -114.5t-47.5 -114.5t-114.5 -47.5t-114.5 47.5
t-47.5 114.5t47.5 114.5t114.5 47.5z" />
    <glyph glyph-name="sacute" unicode="&#x15b;" 
d="M314 105q-11 -31 -37 -57q-48 -48 -115 -48t-114 48q-48 47 -48 114t48 115q47 47 114 47t115 -47q26 -26 37 -58h344q12 32 38 58q47 47 114 47q37 0 68 -14l432 432q-2 6 -4 11h-992q-11 -31 -37 -57q-48 -48 -115 -48t-114 48q-48 47 -48 114t48 115q47 47 114 47
q37 0 68 -14l432 432q-14 31 -14 68q0 67 48 115q47 47 114 47t115 -47q26 -26 37 -58h344q12 32 38 58q47 47 114 47t115 -47q47 -48 47 -115t-47 -114q-48 -48 -115 -48t-114 48q-26 26 -38 57h-344q-11 -31 -37 -57q-48 -48 -115 -48q-37 0 -68 14l-432 -432q2 -5 4 -11
h992q12 32 38 58q47 47 114 47t115 -47q47 -48 47 -115t-47 -114q-48 -48 -115 -48q-37 0 -68 14l-432 -432q14 -31 14 -68q0 -67 -47 -114q-48 -48 -115 -48t-114 48q-26 26 -38 57h-344zM162 1620q67 0 114.5 -47.5t47.5 -114.5t-47.5 -114.5t-114.5 -47.5t-114.5 47.5
t-47.5 114.5t47.5 114.5t114.5 47.5z" />
    <glyph glyph-name="Scaron" unicode="&#x160;" 
d="M1306 105h-992q-12 -31 -38 -57q-47 -48 -114 -48t-115 48q-47 47 -47 114t47 115q48 47 115 47t114 -47q26 -26 38 -58h904l-946 473q-46 -44 -110 -44q-67 0 -115 48q-47 47 -47 114t47 115q48 47 115 47t114 -47q26 -26 38 -58h344l4 10l-433 433q-31 -14 -67 -14
q-67 0 -115 48q-47 47 -47 114t47 115q48 47 115 47t114 -47q48 -48 48 -115q0 -37 -15 -68l432 -432q32 14 69 14t67 -14l433 432q-14 31 -14 68q0 67 47 115q48 47 115 47t114 -47q48 -48 48 -115t-48 -114q-47 -48 -114 -48q-37 0 -68 14l-433 -432q3 -5 5 -11h344
q11 32 37 58q48 47 115 47t114 -47q48 -48 48 -115t-48 -114q-47 -48 -114 -48t-115 48q-26 26 -37 57h-344q-12 -31 -38 -57q-47 -48 -114 -48t-115 48q-26 26 -37 57h-256l945 -472q47 43 111 43q67 0 114 -47q48 -48 48 -115t-48 -114q-47 -48 -114 -48t-115 48
q-26 26 -37 57z" />
    <glyph glyph-name="scaron" unicode="&#x161;" 
d="M1306 105h-992q-12 -31 -38 -57q-47 -48 -114 -48t-115 48q-47 47 -47 114t47 115q48 47 115 47t114 -47q26 -26 38 -58h904l-946 473q-46 -44 -110 -44q-67 0 -115 48q-47 47 -47 114t47 115q48 47 115 47t114 -47q26 -26 38 -58h344l4 10l-433 433q-31 -14 -67 -14
q-67 0 -115 48q-47 47 -47 114t47 115q48 47 115 47t114 -47q48 -48 48 -115q0 -37 -15 -68l432 -432q32 14 69 14t67 -14l433 432q-14 31 -14 68q0 67 47 115q48 47 115 47t114 -47q48 -48 48 -115t-48 -114q-47 -48 -114 -48q-37 0 -68 14l-433 -432q3 -5 5 -11h344
q11 32 37 58q48 47 115 47t114 -47q48 -48 48 -115t-48 -114q-47 -48 -114 -48t-115 48q-26 26 -37 57h-344q-12 -31 -38 -57q-47 -48 -114 -48t-115 48q-26 26 -37 57h-256l945 -472q47 43 111 43q67 0 114 -47q48 -48 48 -115t-48 -114q-47 -48 -114 -48t-115 48
q-26 26 -37 57z" />
    <glyph glyph-name="Umacron" unicode="&#x16a;" 
d="M314 105q-11 -31 -37 -57q-48 -48 -115 -48t-114 48q-48 47 -48 114t48 115q26 26 57 37v344q-31 12 -57 38q-48 47 -48 114t48 115q47 47 114 47t115 -47q47 -48 47 -115t-47 -114q-26 -26 -58 -38v-344q32 -11 58 -37t37 -58h992q12 32 38 58t57 37v344q-31 12 -57 38
q-48 47 -48 114t48 115q47 47 114 47t115 -47q47 -48 47 -115t-47 -114q-26 -26 -58 -38v-344q32 -11 58 -37q47 -48 47 -115t-47 -114q-48 -48 -115 -48t-114 48q-26 26 -38 57h-992zM1306 1515q12 32 38 58q47 47 114 47t115 -47q47 -48 47 -115t-47 -114
q-48 -48 -115 -48t-114 48q-26 26 -38 57h-992q-11 -31 -37 -57q-48 -48 -115 -48t-114 48q-48 47 -48 114t48 115q47 47 114 47t115 -47q26 -26 37 -58h992z" />
    <glyph glyph-name="umacron" unicode="&#x16b;" 
d="M314 105q-11 -31 -37 -57q-48 -48 -115 -48t-114 48q-48 47 -48 114t48 115q26 26 57 37v344q-31 12 -57 38q-48 47 -48 114t48 115q47 47 114 47t115 -47q47 -48 47 -115t-47 -114q-26 -26 -58 -38v-344q32 -11 58 -37t37 -58h992q12 32 38 58t57 37v344q-31 12 -57 38
q-48 47 -48 114t48 115q47 47 114 47t115 -47q47 -48 47 -115t-47 -114q-26 -26 -58 -38v-344q32 -11 58 -37q47 -48 47 -115t-47 -114q-48 -48 -115 -48t-114 48q-26 26 -38 57h-992zM1306 1515q12 32 38 58q47 47 114 47t115 -47q47 -48 47 -115t-47 -114
q-48 -48 -115 -48t-114 48q-26 26 -38 57h-992q-11 -31 -37 -57q-48 -48 -115 -48t-114 48q-48 47 -48 114t48 115q47 47 114 47t115 -47q26 -26 37 -58h992z" />
    <glyph glyph-name="Uring" unicode="&#x16e;" 
d="M1458 0q-67 0 -114 48q-26 25 -38 57h-992q-12 -32 -37 -57q-48 -48 -115 -48t-114.5 47.5t-47.5 114.5t47.5 114.5t114.5 47.5q37 0 68 -14l432 432q-14 31 -14 68q0 67 47.5 114.5t114.5 47.5t114.5 -47.5t47.5 -114.5t-47.5 -114.5t-114.5 -47.5q-37 0 -68 14
l-432 -432l4 -11h992q12 32 37.5 57.5t57.5 37.5v344q-32 12 -57 38q-48 47 -48 114t47.5 114.5t114.5 47.5t114.5 -47.5t47.5 -114.5t-47 -114q-26 -26 -58 -38v-344q32 -12 58 -37q47 -48 47 -115t-47.5 -114.5t-114.5 -47.5zM162 648q-67 0 -114.5 47.5t-47.5 114.5
t48 115q25 25 57 37v344q-32 12 -57 38q-48 47 -48 114t47.5 114.5t114.5 47.5t115 -47q25 -26 37 -58h344q12 32 38 58q47 47 114 47t114.5 -47.5t47.5 -114.5t-47.5 -114.5t-114.5 -47.5q-37 0 -68 14l-432 -432q14 -31 14 -68q0 -67 -47.5 -114.5t-114.5 -47.5zM230 958
l432 432l-4 11h-344q-12 -32 -37.5 -57.5t-57.5 -37.5v-344z" />
    <glyph glyph-name="uring" unicode="&#x16f;" 
d="M1458 0q-67 0 -114 48q-26 25 -38 57h-992q-12 -32 -37 -57q-48 -48 -115 -48t-114.5 47.5t-47.5 114.5t47.5 114.5t114.5 47.5q37 0 68 -14l432 432q-14 31 -14 68q0 67 47.5 114.5t114.5 47.5t114.5 -47.5t47.5 -114.5t-47.5 -114.5t-114.5 -47.5q-37 0 -68 14
l-432 -432l4 -11h992q12 32 37.5 57.5t57.5 37.5v344q-32 12 -57 38q-48 47 -48 114t47.5 114.5t114.5 47.5t114.5 -47.5t47.5 -114.5t-47 -114q-26 -26 -58 -38v-344q32 -12 58 -37q47 -48 47 -115t-47.5 -114.5t-114.5 -47.5zM162 648q-67 0 -114.5 47.5t-47.5 114.5
t48 115q25 25 57 37v344q-32 12 -57 38q-48 47 -48 114t47.5 114.5t114.5 47.5t115 -47q25 -26 37 -58h344q12 32 38 58q47 47 114 47t114.5 -47.5t47.5 -114.5t-47.5 -114.5t-114.5 -47.5q-37 0 -68 14l-432 -432q14 -31 14 -68q0 -67 -47.5 -114.5t-114.5 -47.5zM230 958
l432 432l-4 11h-344q-12 -32 -37.5 -57.5t-57.5 -37.5v-344z" />
    <glyph glyph-name="Uogonek" unicode="&#x172;" 
d="M962 105q-12 -32 -38 -57q-47 -48 -114 -48t-115 48q-26 26 -37 57h-344q-12 -31 -38 -57q-47 -48 -114 -48t-115 48q-47 47 -47 114t47 115q26 26 58 37v992q-32 12 -58 38q-47 47 -47 114t47 115q48 47 115 47t114 -47q48 -48 48 -115t-48 -114q-26 -26 -57 -38v-992
q31 -11 57 -37t38 -58h344q11 32 37 58q48 47 115 47q37 0 68 -14l432 432q-14 31 -14 68q0 67 47 115q26 26 58 37v344q-32 12 -58 38q-47 47 -47 114t47 115q48 47 115 47t114 -47q48 -48 48 -115t-48 -114q-26 -26 -57 -38v-344q31 -11 57 -37q48 -48 48 -115t-48 -114
q-47 -48 -114 -48q-37 0 -68 14l-432 -432q2 -5 4 -11h344q11 32 37 58q48 47 115 47t114 -47q48 -48 48 -115t-48 -114q-47 -48 -114 -48t-115 48q-26 26 -37 57h-344z" />
    <glyph glyph-name="uogonek" unicode="&#x173;" 
d="M962 105q-12 -32 -38 -57q-47 -48 -114 -48t-115 48q-26 26 -37 57h-344q-12 -31 -38 -57q-47 -48 -114 -48t-115 48q-47 47 -47 114t47 115q26 26 58 37v992q-32 12 -58 38q-47 47 -47 114t47 115q48 47 115 47t114 -47q48 -48 48 -115t-48 -114q-26 -26 -57 -38v-992
q31 -11 57 -37t38 -58h344q11 32 37 58q48 47 115 47q37 0 68 -14l432 432q-14 31 -14 68q0 67 47 115q26 26 58 37v344q-32 12 -58 38q-47 47 -47 114t47 115q48 47 115 47t114 -47q48 -48 48 -115t-48 -114q-26 -26 -57 -38v-344q31 -11 57 -37q48 -48 48 -115t-48 -114
q-47 -48 -114 -48q-37 0 -68 14l-432 -432q2 -5 4 -11h344q11 32 37 58q48 47 115 47t114 -47q48 -48 48 -115t-48 -114q-47 -48 -114 -48t-115 48q-26 26 -37 57h-344z" />
    <glyph glyph-name="Zacute" unicode="&#x179;" 
d="M1458 1296q-67 0 -114.5 47.5t-47.5 114.5t47.5 114.5t114.5 47.5t114.5 -47.5t47.5 -114.5t-47.5 -114.5t-114.5 -47.5zM1458 0q-67 0 -114 48q-26 25 -38 57h-992q-12 -32 -37 -57q-48 -48 -115 -48t-114.5 47.5t-47.5 114.5t47.5 114.5t114.5 47.5q9 0 17 -1l512 1025
q-22 24 -33 53h-344q-12 -32 -37 -57q-48 -48 -115 -48t-114.5 47.5t-47.5 114.5t47.5 114.5t114.5 47.5t115 -47q25 -26 37 -58h344q12 32 38 58q47 47 114 47t114.5 -47.5t47.5 -114.5t-47.5 -114.5t-114.5 -47.5q-9 0 -17 1l-512 -1025q22 -24 33 -53h992q12 32 38 58
q47 47 114 47t114.5 -47.5t47.5 -114.5t-47.5 -114.5t-114.5 -47.5z" />
    <glyph glyph-name="zacute" unicode="&#x17a;" 
d="M1458 1296q-67 0 -114.5 47.5t-47.5 114.5t47.5 114.5t114.5 47.5t114.5 -47.5t47.5 -114.5t-47.5 -114.5t-114.5 -47.5zM1458 0q-67 0 -114 48q-26 25 -38 57h-992q-12 -32 -37 -57q-48 -48 -115 -48t-114.5 47.5t-47.5 114.5t47.5 114.5t114.5 47.5q9 0 17 -1l512 1025
q-22 24 -33 53h-344q-12 -32 -37 -57q-48 -48 -115 -48t-114.5 47.5t-47.5 114.5t47.5 114.5t114.5 47.5t115 -47q25 -26 37 -58h344q12 32 38 58q47 47 114 47t114.5 -47.5t47.5 -114.5t-47.5 -114.5t-114.5 -47.5q-9 0 -17 1l-512 -1025q22 -24 33 -53h992q12 32 38 58
q47 47 114 47t114.5 -47.5t47.5 -114.5t-47.5 -114.5t-114.5 -47.5z" />
    <glyph glyph-name="Zdotaccent" unicode="&#x17b;" 
d="M962 1515h344q12 32 38 58q47 47 114 47t115 -47q47 -48 47 -115t-47 -114q-48 -48 -115 -48q-37 0 -68 14l-1080 -1080q2 -5 4 -11h992q12 32 38 58q47 47 114 47t115 -47q47 -48 47 -115t-47 -114q-48 -48 -115 -48t-114 48q-26 26 -38 57h-992q-11 -31 -37 -57
q-48 -48 -115 -48t-114 48q-48 47 -48 114t48 115q47 47 114 47q37 0 68 -14l1080 1080q-2 6 -4 11h-344q-12 -32 -37 -57q-48 -48 -115 -48t-114 48q-26 25 -38 57h-344q-11 -31 -37 -57q-48 -48 -115 -48t-114 48q-48 47 -48 114t48 115q47 47 114 47t115 -47
q26 -26 37 -58h344q12 32 38 58q47 47 114 47t115 -47q25 -26 37 -58z" />
    <glyph glyph-name="zdotaccent" unicode="&#x17c;" 
d="M962 1515h344q12 32 38 58q47 47 114 47t115 -47q47 -48 47 -115t-47 -114q-48 -48 -115 -48q-37 0 -68 14l-1080 -1080q2 -5 4 -11h992q12 32 38 58q47 47 114 47t115 -47q47 -48 47 -115t-47 -114q-48 -48 -115 -48t-114 48q-26 26 -38 57h-992q-11 -31 -37 -57
q-48 -48 -115 -48t-114 48q-48 47 -48 114t48 115q47 47 114 47q37 0 68 -14l1080 1080q-2 6 -4 11h-344q-12 -32 -37 -57q-48 -48 -115 -48t-114 48q-26 25 -38 57h-344q-11 -31 -37 -57q-48 -48 -115 -48t-114 48q-48 47 -48 114t48 115q47 47 114 47t115 -47
q26 -26 37 -58h344q12 32 38 58q47 47 114 47t115 -47q25 -26 37 -58z" />
    <glyph glyph-name="Zcaron" unicode="&#x17d;" 
d="M314 105q-11 -31 -37 -57q-48 -48 -115 -48t-114 48q-48 47 -48 114t48 115q47 47 114 47q64 0 111 -43l945 472h-256q-11 -31 -37 -57q-48 -48 -115 -48t-114 48q-26 26 -38 57h-344q-11 -31 -37 -57q-48 -48 -115 -48t-114 48q-48 47 -48 114t48 115q47 47 114 47
t115 -47q26 -26 37 -58h344q2 6 5 11l-433 432q-31 -14 -68 -14q-67 0 -114 48q-48 47 -48 114t48 115q47 47 114 47t115 -47q47 -48 47 -115q0 -37 -14 -68l433 -432q30 14 67 14t69 -14l432 432q-15 31 -15 68q0 67 48 115q47 47 114 47t115 -47q47 -48 47 -115t-47 -114
q-48 -48 -115 -48q-36 0 -67 14l-433 -433l4 -10h344q12 32 38 58q47 47 114 47t115 -47q47 -48 47 -115t-47 -114q-48 -48 -115 -48q-64 0 -110 44l-946 -473h904q12 32 38 58q47 47 114 47t115 -47q47 -48 47 -115t-47 -114q-48 -48 -115 -48t-114 48q-26 26 -38 57h-992z
" />
    <glyph glyph-name="zcaron" unicode="&#x17e;" 
d="M314 105q-11 -31 -37 -57q-48 -48 -115 -48t-114 48q-48 47 -48 114t48 115q47 47 114 47q64 0 111 -43l945 472h-256q-11 -31 -37 -57q-48 -48 -115 -48t-114 48q-26 26 -38 57h-344q-11 -31 -37 -57q-48 -48 -115 -48t-114 48q-48 47 -48 114t48 115q47 47 114 47
t115 -47q26 -26 37 -58h344q2 6 5 11l-433 432q-31 -14 -68 -14q-67 0 -114 48q-48 47 -48 114t48 115q47 47 114 47t115 -47q47 -48 47 -115q0 -37 -14 -68l433 -432q30 14 67 14t69 -14l432 432q-15 31 -15 68q0 67 48 115q47 47 114 47t115 -47q47 -48 47 -115t-47 -114
q-48 -48 -115 -48q-36 0 -67 14l-433 -433l4 -10h344q12 32 38 58q47 47 114 47t115 -47q47 -48 47 -115t-47 -114q-48 -48 -115 -48q-64 0 -110 44l-946 -473h904q12 32 38 58q47 47 114 47t115 -47q47 -48 47 -115t-47 -114q-48 -48 -115 -48t-114 48q-26 26 -38 57h-992z
" />
    <glyph glyph-name="longs" unicode="&#x17f;" horiz-adv-x="1134" 
d="M162 0q-67 0 -114.5 47.5t-47.5 114.5t48 115q25 25 57 37v992q-32 12 -57 38q-48 47 -48 114t47.5 114.5t114.5 47.5t115 -47q25 -26 37 -58h344q12 32 38 58q47 47 114 47t114.5 -47.5t47.5 -114.5t-47.5 -114.5t-114.5 -47.5t-114 48q-26 25 -38 57h-344
q-12 -32 -37.5 -57.5t-57.5 -37.5v-992q32 -12 58 -37q47 -48 47 -115t-47.5 -114.5t-114.5 -47.5z" />
    <glyph glyph-name="uni0186" unicode="&#x186;" 
d="M314 1515h344q11 32 37 58q48 47 115 47t114 -47q48 -48 48 -115q0 -37 -14 -68l432 -432q31 14 68 14q67 0 114 -47q48 -48 48 -115t-48 -114q-47 -48 -114 -48q-37 0 -68 14l-432 -432q14 -31 14 -68q0 -67 -48 -114q-47 -48 -114 -48t-115 48q-26 26 -37 57h-344
q-12 -31 -38 -57q-47 -48 -114 -48t-115 48q-47 47 -47 114t47 115q48 47 115 47t114 -47q26 -26 38 -58h344q11 32 37 58q48 47 115 47q37 0 67 -14l433 432q-14 31 -14 68t14 68l-433 432q-31 -14 -67 -14q-67 0 -115 48q-26 26 -37 57h-344q-12 -31 -38 -57
q-47 -48 -114 -48t-115 48q-47 47 -47 114t47 115q48 47 115 47t114 -47q26 -26 38 -58z" />
    <glyph glyph-name="uni0189" unicode="&#x189;" 
d="M219 658v-344q32 -11 58 -37t37 -58h344q12 32 38 58q47 47 114 47q37 0 68 -14l432 432q-14 31 -14 68t14 68l-432 432q-31 -14 -68 -14q-67 0 -114 48q-26 26 -38 57h-344q-11 -31 -37 -57t-58 -38v-344q32 -11 58 -37t37 -58h344q12 32 38 58q47 47 114 47t115 -47
q47 -48 47 -115t-47 -114q-48 -48 -115 -48t-114 48q-26 26 -38 57h-344q-11 -31 -37 -57t-58 -38zM105 962v344q-31 12 -57 38q-48 47 -48 114t48 115q47 47 114 47t115 -47q26 -26 37 -58h344q12 32 38 58q47 47 114 47t115 -47q47 -48 47 -115q0 -37 -14 -68l432 -432
q31 14 68 14q67 0 115 -47q47 -48 47 -115t-47 -114q-48 -48 -115 -48q-37 0 -68 14l-432 -432q14 -31 14 -68q0 -67 -47 -114q-48 -48 -115 -48t-114 48q-26 26 -38 57h-344q-11 -31 -37 -57q-48 -48 -115 -48t-114 48q-48 47 -48 114t48 115q26 26 57 37v344
q-31 12 -57 38q-48 47 -48 114t48 115q26 26 57 37z" />
    <glyph glyph-name="uni018F" unicode="&#x18f;" 
d="M958 230q14 -31 14 -68q0 -67 -48 -115q-47 -47 -114 -47t-115 47q-47 48 -47 115q0 37 14 68l-432 432q-31 -14 -68 -14q-67 0 -115 47q-47 48 -47 115t47 114q48 48 115 48t114 -48q26 -26 38 -57h992q2 5 4 11l-432 432q-31 -14 -68 -14q-67 0 -115 47q-26 26 -37 58
h-344q-12 -32 -38 -58q-47 -47 -114 -47t-115 47q-47 48 -47 115t47 114q48 48 115 48t114 -48q26 -26 38 -57h344q11 31 37 57q48 48 115 48t114 -48q48 -47 48 -114q0 -37 -14 -68l432 -432q31 14 68 14q67 0 114 -48q48 -47 48 -114t-48 -115q-47 -47 -114 -47
q-37 0 -68 14zM742 310q31 14 68 14t68 -14l432 432q-2 5 -4 11h-992q-2 -5 -4 -11z" />
    <glyph glyph-name="uni0190" unicode="&#x190;" 
d="M1306 105h-992q-12 -31 -38 -57q-47 -48 -114 -48t-115 48q-47 47 -47 114t47 115q48 47 115 47q37 0 68 -14l432 432q-14 31 -14 68t14 68l-432 432q-31 -14 -68 -14q-67 0 -115 48q-47 47 -47 114t47 115q48 47 115 47t114 -47q26 -26 38 -58h992q11 32 37 58
q48 47 115 47t114 -47q48 -48 48 -115t-48 -114q-47 -48 -114 -48t-115 48q-26 26 -37 57h-992q-2 -5 -4 -11l432 -432q31 14 68 14q67 0 114 -47q48 -48 48 -115t-48 -114q-47 -48 -114 -48q-37 0 -68 14l-432 -432q2 -6 4 -11h992q11 32 37 58q48 47 115 47t114 -47
q48 -48 48 -115t-48 -114q-47 -48 -114 -48t-115 48q-26 26 -37 57z" />
    <glyph glyph-name="uni0194" unicode="&#x194;" 
d="M878 310l432 432l-4 11h-344q-12 -32 -37 -57q-48 -48 -115 -48t-114 48q-26 25 -38 57h-344l-4 -11l432 -432q31 14 68 14t68 -14zM810 0q-67 0 -114.5 47.5t-47.5 114.5q0 37 14 68l-432 432q-31 -14 -68 -14q-67 0 -114.5 47.5t-47.5 114.5t47.5 114.5t114.5 47.5
t115 -47q25 -26 37 -58h344l4 11l-432 432q-31 -14 -68 -14q-67 0 -114.5 47.5t-47.5 114.5t47.5 114.5t114.5 47.5t114.5 -47.5t47.5 -114.5q0 -37 -14 -68l432 -432q31 14 68 14t68 -14l432 432q-14 31 -14 68q0 67 47.5 114.5t114.5 47.5t114.5 -47.5t47.5 -114.5
t-47.5 -114.5t-114.5 -47.5q-37 0 -68 14l-432 -432l4 -11h344q12 32 38 58q47 47 114 47t114.5 -47.5t47.5 -114.5t-47.5 -114.5t-114.5 -47.5q-37 0 -68 14l-432 -432q14 -31 14 -68q0 -67 -47.5 -114.5t-114.5 -47.5z" />
    <glyph glyph-name="uni0197" unicode="&#x197;" 
d="M810 0q-67 0 -114.5 47.5t-47.5 114.5t48 115q25 25 57 37v439h-439q-12 -32 -37 -57q-48 -48 -115 -48t-114.5 47.5t-47.5 114.5t47.5 114.5t114.5 47.5t115 -47q25 -26 37 -58h439v439q-32 12 -57 38q-48 47 -48 114t47.5 114.5t114.5 47.5t114.5 -47.5t47.5 -114.5
t-47 -114q-26 -26 -58 -38v-439h439q12 32 38 58q47 47 114 47t114.5 -47.5t47.5 -114.5t-47.5 -114.5t-114.5 -47.5t-114 48q-26 25 -38 57h-439v-439q32 -12 58 -37q47 -48 47 -115t-47.5 -114.5t-114.5 -47.5z" />
    <glyph glyph-name="uni019D" unicode="&#x19d;" 
d="M1458 0q-67 0 -114.5 47.5t-47.5 114.5q0 64 43 110l-472 946v-904q32 -12 58 -37q47 -48 47 -115t-47.5 -114.5t-114.5 -47.5t-114 48q-26 25 -38 57h-344q-12 -32 -37 -57q-48 -48 -115 -48t-114.5 47.5t-47.5 114.5t47.5 114.5t114.5 47.5t115 -47q25 -26 37 -58h344
q12 32 37.5 57.5t57.5 37.5v992q-32 12 -57 38q-48 47 -48 114t47.5 114.5t114.5 47.5t114.5 -47.5t47.5 -114.5q0 -64 -43 -110l472 -946v904q-32 12 -57 38q-48 47 -48 114t47.5 114.5t114.5 47.5t114.5 -47.5t47.5 -114.5t-47 -114q-26 -26 -58 -38v-992q32 -12 58 -37
q47 -48 47 -115t-47.5 -114.5t-114.5 -47.5z" />
    <glyph glyph-name="uni01B1" unicode="&#x1b1;" 
d="M742 1310l-432 -432q14 -31 14 -68t-14 -68l432 -432q31 14 68 14t68 -14l432 432q-14 31 -14 68t14 68l-432 432q-31 -14 -68 -14t-68 14zM162 1620q67 0 114 -48q26 -25 38 -57h344q12 32 37 57q48 48 115 48t114 -48q26 -25 38 -57h344q12 32 37 57q48 48 115 48
t114.5 -47.5t47.5 -114.5t-47.5 -114.5t-114.5 -47.5t-115 47q-25 26 -37 58h-344l-4 -11l432 -432q31 14 68 14q67 0 114.5 -47.5t47.5 -114.5t-47.5 -114.5t-114.5 -47.5q-37 0 -68 14l-432 -432q14 -31 14 -68q0 -67 -47.5 -114.5t-114.5 -47.5t-114.5 47.5t-47.5 114.5
q0 37 14 68l-432 432q-31 -14 -68 -14q-67 0 -114.5 47.5t-47.5 114.5t47.5 114.5t114.5 47.5q37 0 68 -14l432 432l-4 11h-344q-12 -32 -38 -58q-47 -47 -114 -47t-114.5 47.5t-47.5 114.5t47.5 114.5t114.5 47.5z" />
    <glyph glyph-name="uni01B2" unicode="&#x1b2;" 
d="M1306 1515q12 32 38 58q47 47 114 47t115 -47q47 -48 47 -115t-47 -114q-26 -26 -58 -38v-992q32 -11 58 -37q47 -48 47 -115t-47 -114q-48 -48 -115 -48t-114 48q-26 26 -38 57h-344q-11 -31 -37 -57q-48 -48 -115 -48t-114 48q-48 47 -48 114q0 37 14 68l-432 432
q-31 -14 -68 -14q-67 0 -114 48q-48 47 -48 114t48 115q26 26 57 37v344q-31 12 -57 38q-48 47 -48 114t48 115q47 47 114 47t115 -47q47 -48 47 -115t-47 -114q-26 -26 -58 -38v-344q32 -11 58 -37q47 -48 47 -115q0 -37 -14 -68l432 -432q31 14 68 14q67 0 115 -47
q26 -26 37 -58h344q12 32 38 58t57 37v992q-31 12 -57 38t-38 57h-344q-12 -32 -38 -58q-47 -47 -114 -47t-115 47q-47 48 -47 115t47 114q48 48 115 48t114 -48q26 -26 38 -57h344z" />
    <glyph glyph-name="uni01B3" unicode="&#x1b3;" 
d="M810 0q-67 0 -114.5 47.5t-47.5 114.5t48 115q25 25 57 37v344q-32 12 -57 38q-48 47 -48 114q0 37 14 68l-432 432q-31 -14 -68 -14q-67 0 -114.5 47.5t-47.5 114.5t47.5 114.5t114.5 47.5t114.5 -47.5t47.5 -114.5q0 -37 -14 -68l432 -432q31 14 68 14t68 -14l432 432
q-14 31 -14 68q0 67 47.5 114.5t114.5 47.5t114.5 -47.5t47.5 -114.5t-47 -114q-26 -26 -58 -38v-344q32 -12 58 -37q47 -48 47 -115t-47.5 -114.5t-114.5 -47.5t-114.5 47.5t-47.5 114.5t48 115q26 25 57 37v344l-11 4l-432 -432q14 -31 14 -68q0 -67 -47 -114
q-26 -26 -58 -38v-344q32 -12 58 -37q47 -48 47 -115t-47.5 -114.5t-114.5 -47.5z" />
    <glyph glyph-name="uni01B4" unicode="&#x1b4;" 
d="M810 0q-67 0 -114.5 47.5t-47.5 114.5t48 115q25 25 57 37v344q-32 12 -57 38q-48 47 -48 114q0 37 14 68l-432 432q-31 -14 -68 -14q-67 0 -114.5 47.5t-47.5 114.5t47.5 114.5t114.5 47.5t114.5 -47.5t47.5 -114.5q0 -37 -14 -68l432 -432q31 14 68 14t68 -14l432 432
q-14 31 -14 68q0 67 47.5 114.5t114.5 47.5t114.5 -47.5t47.5 -114.5t-47 -114q-26 -26 -58 -38v-344q32 -12 58 -37q47 -48 47 -115t-47.5 -114.5t-114.5 -47.5t-114.5 47.5t-47.5 114.5t48 115q26 25 57 37v344l-11 4l-432 -432q14 -31 14 -68q0 -67 -47 -114
q-26 -26 -58 -38v-344q32 -12 58 -37q47 -48 47 -115t-47.5 -114.5t-114.5 -47.5z" />
    <glyph glyph-name="uni01B5" unicode="&#x1b5;" 
d="M833 753l-523 -523q2 -5 4 -11h992q12 32 38 58q47 47 114 47t115 -47q47 -48 47 -115t-47 -114q-48 -48 -115 -48t-114 48q-26 26 -38 57h-992q-11 -31 -37 -57q-48 -48 -115 -48t-114 48q-48 47 -48 114t48 115q47 47 114 47q37 0 68 -14l443 443h-359q-11 -31 -37 -57
q-48 -48 -115 -48t-114 48q-48 47 -48 114t48 115q47 47 114 47t115 -47q26 -26 37 -58h473l523 523q-2 6 -4 11h-992q-11 -31 -37 -57q-48 -48 -115 -48t-114 48q-48 47 -48 114t48 115q47 47 114 47t115 -47q26 -26 37 -58h992q12 32 38 58q47 47 114 47t115 -47
q47 -48 47 -115t-47 -114q-48 -48 -115 -48q-37 0 -68 14l-443 -443h359q12 32 38 58q47 47 114 47t115 -47q47 -48 47 -115t-47 -114q-48 -48 -115 -48t-114 48q-26 26 -38 57h-473z" />
    <glyph glyph-name="uni01B6" unicode="&#x1b6;" 
d="M833 753l-523 -523q2 -5 4 -11h992q12 32 38 58q47 47 114 47t115 -47q47 -48 47 -115t-47 -114q-48 -48 -115 -48t-114 48q-26 26 -38 57h-992q-11 -31 -37 -57q-48 -48 -115 -48t-114 48q-48 47 -48 114t48 115q47 47 114 47q37 0 68 -14l443 443h-359q-11 -31 -37 -57
q-48 -48 -115 -48t-114 48q-48 47 -48 114t48 115q47 47 114 47t115 -47q26 -26 37 -58h473l523 523q-2 6 -4 11h-992q-11 -31 -37 -57q-48 -48 -115 -48t-114 48q-48 47 -48 114t48 115q47 47 114 47t115 -47q26 -26 37 -58h992q12 32 38 58q47 47 114 47t115 -47
q47 -48 47 -115t-47 -114q-48 -48 -115 -48q-37 0 -68 14l-443 -443h359q12 32 38 58q47 47 114 47t115 -47q47 -48 47 -115t-47 -114q-48 -48 -115 -48t-114 48q-26 26 -38 57h-473z" />
    <glyph glyph-name="uni01B7" unicode="&#x1b7;" 
d="M1458 0q-67 0 -114 48q-26 25 -38 57h-992q-12 -32 -37 -57q-48 -48 -115 -48t-114.5 47.5t-47.5 114.5t47.5 114.5t114.5 47.5t115 -47q25 -26 37 -58h992q12 32 37.5 57.5t57.5 37.5v344q-32 12 -57.5 37.5t-37.5 57.5h-344q-12 -32 -37 -57q-48 -48 -115 -48
t-114.5 47.5t-47.5 114.5t47.5 114.5t114.5 47.5q37 0 68 -14l432 432l-4 11h-992q-12 -32 -37 -57q-48 -48 -115 -48t-114.5 47.5t-47.5 114.5t47.5 114.5t114.5 47.5t115 -47q25 -26 37 -58h992q12 32 38 58q47 47 114 47t114.5 -47.5t47.5 -114.5t-47.5 -114.5
t-114.5 -47.5q-37 0 -68 14l-432 -432l4 -11h344q12 32 38 58q47 47 114 47t114.5 -47.5t47.5 -114.5t-47 -114q-26 -26 -58 -38v-344q32 -12 58 -37q47 -48 47 -115t-47.5 -114.5t-114.5 -47.5z" />
    <glyph glyph-name="uni01C0" unicode="&#x1c0;" horiz-adv-x="486" 
d="M219 314q32 -11 58 -37q47 -48 47 -115t-47 -114q-48 -48 -115 -48t-114 48q-48 47 -48 114t48 115q26 26 57 37v992q-31 12 -57 38q-48 47 -48 114t48 115q47 47 114 47t115 -47q47 -48 47 -115t-47 -114q-26 -26 -58 -38v-992z" />
    <glyph glyph-name="uni01C1" unicode="&#x1c1;" horiz-adv-x="1134" 
d="M219 314q32 -11 58 -37q47 -48 47 -115t-47 -114q-48 -48 -115 -48t-114 48q-48 47 -48 114t48 115q26 26 57 37v992q-31 12 -57 38q-48 47 -48 114t48 115q47 47 114 47t115 -47q47 -48 47 -115t-47 -114q-26 -26 -58 -38v-992zM867 314q32 -11 58 -37q47 -48 47 -115
t-47 -114q-48 -48 -115 -48t-114 48q-48 47 -48 114t48 115q26 26 57 37v992q-31 12 -57 38q-48 47 -48 114t48 115q47 47 114 47t115 -47q47 -48 47 -115t-47 -114q-26 -26 -58 -38v-992z" />
    <glyph glyph-name="uni01C2" unicode="&#x1c2;" 
d="M810 0q-67 0 -114.5 47.5t-47.5 114.5t48 115q25 25 57 37v439h-439q-12 -32 -37 -57q-48 -48 -115 -48t-114.5 47.5t-47.5 114.5t47.5 114.5t114.5 47.5t115 -47q25 -26 37 -58h439v439q-32 12 -57 38q-48 47 -48 114t47.5 114.5t114.5 47.5t114.5 -47.5t47.5 -114.5
t-47 -114q-26 -26 -58 -38v-439h439q12 32 38 58q47 47 114 47t114.5 -47.5t47.5 -114.5t-47.5 -114.5t-114.5 -47.5t-114 48q-26 25 -38 57h-439v-439q32 -12 58 -37q47 -48 47 -115t-47.5 -114.5t-114.5 -47.5z" />
    <glyph glyph-name="uni01C3" unicode="&#x1c3;" horiz-adv-x="486" 
d="M105 1306q-31 12 -57 38q-48 47 -48 114t48 115q47 47 114 47t115 -47q47 -48 47 -115t-47 -114q-26 -26 -58 -38v-344q32 -11 58 -37q47 -48 47 -115t-47 -114q-48 -48 -115 -48t-114 48q-48 47 -48 114t48 115q26 26 57 37v344zM162 324q67 0 114.5 -47.5t47.5 -114.5
t-47.5 -114.5t-114.5 -47.5t-114.5 47.5t-47.5 114.5t47.5 114.5t114.5 47.5z" />
    <glyph glyph-name="uni01EA" unicode="&#x1ea;" 
d="M878 1310q-31 -14 -68 -14t-68 14l-432 -432q14 -31 14 -68t-14 -68l432 -432q31 14 68 14t68 -14l432 432q-14 31 -14 68t14 68zM962 105q-11 -31 -37 -57q-48 -48 -115 -48t-114 48q-48 47 -48 114q0 37 14 68l-432 432q-31 -14 -68 -14q-67 0 -114 48q-48 47 -48 114
t48 115q47 47 114 47q37 0 68 -14l432 432q-14 31 -14 68q0 67 48 115q47 47 114 47t115 -47q47 -48 47 -115q0 -37 -14 -68l432 -432q31 14 68 14q67 0 115 -47q47 -48 47 -115t-47 -114q-48 -48 -115 -48q-37 0 -68 14l-432 -432q2 -5 4 -11h344q11 32 37 58q48 47 115 47
t114 -47q48 -48 48 -115t-48 -114q-47 -48 -114 -48t-115 48q-26 26 -37 57h-344z" />
    <glyph glyph-name="uni01EB" unicode="&#x1eb;" 
d="M878 1310q-31 -14 -68 -14t-68 14l-432 -432q14 -31 14 -68t-14 -68l432 -432q31 14 68 14t68 -14l432 432q-14 31 -14 68t14 68zM962 105q-11 -31 -37 -57q-48 -48 -115 -48t-114 48q-48 47 -48 114q0 37 14 68l-432 432q-31 -14 -68 -14q-67 0 -114 48q-48 47 -48 114
t48 115q47 47 114 47q37 0 68 -14l432 432q-14 31 -14 68q0 67 48 115q47 47 114 47t115 -47q47 -48 47 -115q0 -37 -14 -68l432 -432q31 14 68 14q67 0 115 -47q47 -48 47 -115t-47 -114q-48 -48 -115 -48q-37 0 -68 14l-432 -432q2 -5 4 -11h344q11 32 37 58q48 47 115 47
t114 -47q48 -48 48 -115t-48 -114q-47 -48 -114 -48t-115 48q-26 26 -37 57h-344z" />
    <glyph glyph-name="uni0218" unicode="&#x218;" 
d="M314 105q-11 -31 -37 -57q-48 -48 -115 -48t-114 48q-48 47 -48 114t48 115q47 47 114 47t115 -47q26 -26 37 -58h344q12 32 38 58q47 47 114 47q37 0 68 -14l432 432q-2 6 -4 11h-992q-11 -31 -37 -57q-48 -48 -115 -48t-114 48q-48 47 -48 114t48 115q47 47 114 47
q37 0 68 -14l432 432q-14 31 -14 68q0 67 48 115q47 47 114 47t115 -47q26 -26 37 -58h344q12 32 38 58q47 47 114 47t115 -47q47 -48 47 -115t-47 -114q-48 -48 -115 -48t-114 48q-26 26 -38 57h-344q-11 -31 -37 -57q-48 -48 -115 -48q-37 0 -68 14l-432 -432q2 -5 4 -11
h992q12 32 38 58q47 47 114 47t115 -47q47 -48 47 -115t-47 -114q-48 -48 -115 -48q-37 0 -68 14l-432 -432q14 -31 14 -68q0 -67 -47 -114q-48 -48 -115 -48t-114 48q-26 26 -38 57h-344zM1458 324q67 0 114.5 -47.5t47.5 -114.5t-47.5 -114.5t-114.5 -47.5t-114.5 47.5
t-47.5 114.5t47.5 114.5t114.5 47.5z" />
    <glyph glyph-name="uni0219" unicode="&#x219;" 
d="M314 105q-11 -31 -37 -57q-48 -48 -115 -48t-114 48q-48 47 -48 114t48 115q47 47 114 47t115 -47q26 -26 37 -58h344q12 32 38 58q47 47 114 47q37 0 68 -14l432 432q-2 6 -4 11h-992q-11 -31 -37 -57q-48 -48 -115 -48t-114 48q-48 47 -48 114t48 115q47 47 114 47
q37 0 68 -14l432 432q-14 31 -14 68q0 67 48 115q47 47 114 47t115 -47q26 -26 37 -58h344q12 32 38 58q47 47 114 47t115 -47q47 -48 47 -115t-47 -114q-48 -48 -115 -48t-114 48q-26 26 -38 57h-344q-11 -31 -37 -57q-48 -48 -115 -48q-37 0 -68 14l-432 -432q2 -5 4 -11
h992q12 32 38 58q47 47 114 47t115 -47q47 -48 47 -115t-47 -114q-48 -48 -115 -48q-37 0 -68 14l-432 -432q14 -31 14 -68q0 -67 -47 -114q-48 -48 -115 -48t-114 48q-26 26 -38 57h-344zM1458 324q67 0 114.5 -47.5t47.5 -114.5t-47.5 -114.5t-114.5 -47.5t-114.5 47.5
t-47.5 114.5t47.5 114.5t114.5 47.5z" />
    <glyph glyph-name="uni021A" unicode="&#x21a;" 
d="M314 1515h344q11 32 37 58q48 47 115 47t114 -47q26 -26 38 -58h344q11 32 37 58q48 47 115 47t114 -47q48 -48 48 -115t-48 -114q-47 -48 -114 -48t-115 48q-26 26 -37 57h-344q-12 -31 -38 -57t-57 -38v-992q31 -11 57 -37q48 -48 48 -115t-48 -114q-47 -48 -114 -48
t-115 48q-47 47 -47 114t47 115q26 26 58 37v992q-32 12 -58 38t-37 57h-344q-12 -31 -38 -57q-47 -48 -114 -48t-115 48q-47 47 -47 114t47 115q48 47 115 47t114 -47q26 -26 38 -58zM162 324q67 0 114.5 -47.5t47.5 -114.5t-47.5 -114.5t-114.5 -47.5t-114.5 47.5
t-47.5 114.5t47.5 114.5t114.5 47.5z" />
    <glyph glyph-name="uni021B" unicode="&#x21b;" 
d="M314 1515h344q11 32 37 58q48 47 115 47t114 -47q26 -26 38 -58h344q11 32 37 58q48 47 115 47t114 -47q48 -48 48 -115t-48 -114q-47 -48 -114 -48t-115 48q-26 26 -37 57h-344q-12 -31 -38 -57t-57 -38v-992q31 -11 57 -37q48 -48 48 -115t-48 -114q-47 -48 -114 -48
t-115 48q-47 47 -47 114t47 115q26 26 58 37v992q-32 12 -58 38t-37 57h-344q-12 -31 -38 -57q-47 -48 -114 -48t-115 48q-47 47 -47 114t47 115q48 47 115 47t114 -47q26 -26 38 -58zM162 324q67 0 114.5 -47.5t47.5 -114.5t-47.5 -114.5t-114.5 -47.5t-114.5 47.5
t-47.5 114.5t47.5 114.5t114.5 47.5z" />
    <glyph glyph-name="uni0241" unicode="&#x241;" 
d="M867 314q32 -11 58 -37q47 -48 47 -115t-47 -114q-48 -48 -115 -48t-114 48q-48 47 -48 114t48 115q26 26 57 37v344q-31 12 -57 38q-48 47 -48 114t48 115q47 47 114 47t115 -47q26 -26 37 -58h344q12 32 38 58t57 37v344q-31 12 -57 38t-38 57h-992q-11 -31 -37 -57
q-48 -48 -115 -48t-114 48q-48 47 -48 114t48 115q47 47 114 47t115 -47q26 -26 37 -58h992q12 32 38 58q47 47 114 47t115 -47q47 -48 47 -115t-47 -114q-26 -26 -58 -38v-344q32 -11 58 -37q47 -48 47 -115t-47 -114q-48 -48 -115 -48t-114 48q-26 26 -38 57h-344
q-11 -31 -37 -57t-58 -38v-344z" />
    <glyph glyph-name="uni0242" unicode="&#x242;" 
d="M867 314q32 -11 58 -37q47 -48 47 -115t-47 -114q-48 -48 -115 -48t-114 48q-48 47 -48 114t48 115q26 26 57 37v344q-31 12 -57 38q-48 47 -48 114t48 115q47 47 114 47t115 -47q26 -26 37 -58h344q12 32 38 58t57 37v344q-31 12 -57 38t-38 57h-992q-11 -31 -37 -57
q-48 -48 -115 -48t-114 48q-48 47 -48 114t48 115q47 47 114 47t115 -47q26 -26 37 -58h992q12 32 38 58q47 47 114 47t115 -47q47 -48 47 -115t-47 -114q-26 -26 -58 -38v-344q32 -11 58 -37q47 -48 47 -115t-47 -114q-48 -48 -115 -48t-114 48q-26 26 -38 57h-344
q-11 -31 -37 -57t-58 -38v-344z" />
    <glyph glyph-name="uni0244" unicode="&#x244;" 
d="M314 753q-2 -6 -4 -11l432 -432q31 14 68 14q67 0 115 -47q26 -26 37 -58h344q12 32 38 58t57 37v344q-31 12 -57 38t-38 57h-992zM1401 962v344q-31 12 -57 38q-48 47 -48 114t48 115q47 47 114 47t115 -47q47 -48 47 -115t-47 -114q-26 -26 -58 -38v-344q32 -11 58 -37
q47 -48 47 -115t-47 -114q-26 -26 -58 -38v-344q32 -11 58 -37q47 -48 47 -115t-47 -114q-48 -48 -115 -48t-114 48q-26 26 -38 57h-344q-11 -31 -37 -57q-48 -48 -115 -48t-114 48q-48 47 -48 114q0 37 14 68l-432 432q-31 -14 -68 -14q-67 0 -114 48q-48 47 -48 114
t48 115q26 26 57 37v344q-31 12 -57 38q-48 47 -48 114t48 115q47 47 114 47t115 -47q47 -48 47 -115t-47 -114q-26 -26 -58 -38v-344q32 -11 58 -37t37 -58h992q12 32 38 58t57 37z" />
    <glyph glyph-name="uni0254" unicode="&#x254;" 
d="M314 1515h344q11 32 37 58q48 47 115 47t114 -47q48 -48 48 -115q0 -37 -14 -68l432 -432q31 14 68 14q67 0 114 -47q48 -48 48 -115t-48 -114q-47 -48 -114 -48q-37 0 -68 14l-432 -432q14 -31 14 -68q0 -67 -48 -114q-47 -48 -114 -48t-115 48q-26 26 -37 57h-344
q-12 -31 -38 -57q-47 -48 -114 -48t-115 48q-47 47 -47 114t47 115q48 47 115 47t114 -47q26 -26 38 -58h344q11 32 37 58q48 47 115 47q37 0 67 -14l433 432q-14 31 -14 68t14 68l-433 432q-31 -14 -67 -14q-67 0 -115 48q-26 26 -37 57h-344q-12 -31 -38 -57
q-47 -48 -114 -48t-115 48q-47 47 -47 114t47 115q48 47 115 47t114 -47q26 -26 38 -58z" />
    <glyph glyph-name="uni0256" unicode="&#x256;" 
d="M219 658v-344q32 -11 58 -37t37 -58h344q12 32 38 58q47 47 114 47q37 0 68 -14l432 432q-14 31 -14 68t14 68l-432 432q-31 -14 -68 -14q-67 0 -114 48q-26 26 -38 57h-344q-11 -31 -37 -57t-58 -38v-344q32 -11 58 -37t37 -58h344q12 32 38 58q47 47 114 47t115 -47
q47 -48 47 -115t-47 -114q-48 -48 -115 -48t-114 48q-26 26 -38 57h-344q-11 -31 -37 -57t-58 -38zM105 962v344q-31 12 -57 38q-48 47 -48 114t48 115q47 47 114 47t115 -47q26 -26 37 -58h344q12 32 38 58q47 47 114 47t115 -47q47 -48 47 -115q0 -37 -14 -68l432 -432
q31 14 68 14q67 0 115 -47q47 -48 47 -115t-47 -114q-48 -48 -115 -48q-37 0 -68 14l-432 -432q14 -31 14 -68q0 -67 -47 -114q-48 -48 -115 -48t-114 48q-26 26 -38 57h-344q-11 -31 -37 -57q-48 -48 -115 -48t-114 48q-48 47 -48 114t48 115q26 26 57 37v344
q-31 12 -57 38q-48 47 -48 114t48 115q26 26 57 37z" />
    <glyph glyph-name="uni0259" unicode="&#x259;" 
d="M958 230q14 -31 14 -68q0 -67 -48 -115q-47 -47 -114 -47t-115 47q-47 48 -47 115q0 37 14 68l-432 432q-31 -14 -68 -14q-67 0 -115 47q-47 48 -47 115t47 114q48 48 115 48t114 -48q26 -26 38 -57h992q2 5 4 11l-432 432q-31 -14 -68 -14q-67 0 -115 47q-26 26 -37 58
h-344q-12 -32 -38 -58q-47 -47 -114 -47t-115 47q-47 48 -47 115t47 114q48 48 115 48t114 -48q26 -26 38 -57h344q11 31 37 57q48 48 115 48t114 -48q48 -47 48 -114q0 -37 -14 -68l432 -432q31 14 68 14q67 0 114 -48q48 -47 48 -114t-48 -115q-47 -47 -114 -47
q-37 0 -68 14zM742 310q31 14 68 14t68 -14l432 432q-2 5 -4 11h-992q-2 -5 -4 -11z" />
    <glyph glyph-name="uni025B" unicode="&#x25b;" 
d="M1306 105h-992q-12 -31 -38 -57q-47 -48 -114 -48t-115 48q-47 47 -47 114t47 115q48 47 115 47q37 0 68 -14l432 432q-14 31 -14 68t14 68l-432 432q-31 -14 -68 -14q-67 0 -115 48q-47 47 -47 114t47 115q48 47 115 47t114 -47q26 -26 38 -58h992q11 32 37 58
q48 47 115 47t114 -47q48 -48 48 -115t-48 -114q-47 -48 -114 -48t-115 48q-26 26 -37 57h-992q-2 -5 -4 -11l432 -432q31 14 68 14q67 0 114 -47q48 -48 48 -115t-48 -114q-47 -48 -114 -48q-37 0 -68 14l-432 -432q2 -6 4 -11h992q11 32 37 58q48 47 115 47t114 -47
q48 -48 48 -115t-48 -114q-47 -48 -114 -48t-115 48q-26 26 -37 57z" />
    <glyph glyph-name="uni0263" unicode="&#x263;" 
d="M878 310l432 432l-4 11h-344q-12 -32 -37 -57q-48 -48 -115 -48t-114 48q-26 25 -38 57h-344l-4 -11l432 -432q31 14 68 14t68 -14zM810 0q-67 0 -114.5 47.5t-47.5 114.5q0 37 14 68l-432 432q-31 -14 -68 -14q-67 0 -114.5 47.5t-47.5 114.5t47.5 114.5t114.5 47.5
t115 -47q25 -26 37 -58h344l4 11l-432 432q-31 -14 -68 -14q-67 0 -114.5 47.5t-47.5 114.5t47.5 114.5t114.5 47.5t114.5 -47.5t47.5 -114.5q0 -37 -14 -68l432 -432q31 14 68 14t68 -14l432 432q-14 31 -14 68q0 67 47.5 114.5t114.5 47.5t114.5 -47.5t47.5 -114.5
t-47.5 -114.5t-114.5 -47.5q-37 0 -68 14l-432 -432l4 -11h344q12 32 38 58q47 47 114 47t114.5 -47.5t47.5 -114.5t-47.5 -114.5t-114.5 -47.5q-37 0 -68 14l-432 -432q14 -31 14 -68q0 -67 -47.5 -114.5t-114.5 -47.5z" />
    <glyph glyph-name="uni0268" unicode="&#x268;" 
d="M810 0q-67 0 -114.5 47.5t-47.5 114.5t48 115q25 25 57 37v439h-439q-12 -32 -37 -57q-48 -48 -115 -48t-114.5 47.5t-47.5 114.5t47.5 114.5t114.5 47.5t115 -47q25 -26 37 -58h439v439q-32 12 -57 38q-48 47 -48 114t47.5 114.5t114.5 47.5t114.5 -47.5t47.5 -114.5
t-47 -114q-26 -26 -58 -38v-439h439q12 32 38 58q47 47 114 47t114.5 -47.5t47.5 -114.5t-47.5 -114.5t-114.5 -47.5t-114 48q-26 25 -38 57h-439v-439q32 -12 58 -37q47 -48 47 -115t-47.5 -114.5t-114.5 -47.5z" />
    <glyph glyph-name="uni0272" unicode="&#x272;" 
d="M1458 0q-67 0 -114.5 47.5t-47.5 114.5q0 64 43 110l-472 946v-904q32 -12 58 -37q47 -48 47 -115t-47.5 -114.5t-114.5 -47.5t-114 48q-26 25 -38 57h-344q-12 -32 -37 -57q-48 -48 -115 -48t-114.5 47.5t-47.5 114.5t47.5 114.5t114.5 47.5t115 -47q25 -26 37 -58h344
q12 32 37.5 57.5t57.5 37.5v992q-32 12 -57 38q-48 47 -48 114t47.5 114.5t114.5 47.5t114.5 -47.5t47.5 -114.5q0 -64 -43 -110l472 -946v904q-32 12 -57 38q-48 47 -48 114t47.5 114.5t114.5 47.5t114.5 -47.5t47.5 -114.5t-47 -114q-26 -26 -58 -38v-992q32 -12 58 -37
q47 -48 47 -115t-47.5 -114.5t-114.5 -47.5z" />
    <glyph glyph-name="uni0289" unicode="&#x289;" 
d="M314 753q-2 -6 -4 -11l432 -432q31 14 68 14q67 0 115 -47q26 -26 37 -58h344q12 32 38 58t57 37v344q-31 12 -57 38t-38 57h-992zM1401 962v344q-31 12 -57 38q-48 47 -48 114t48 115q47 47 114 47t115 -47q47 -48 47 -115t-47 -114q-26 -26 -58 -38v-344q32 -11 58 -37
q47 -48 47 -115t-47 -114q-26 -26 -58 -38v-344q32 -11 58 -37q47 -48 47 -115t-47 -114q-48 -48 -115 -48t-114 48q-26 26 -38 57h-344q-11 -31 -37 -57q-48 -48 -115 -48t-114 48q-48 47 -48 114q0 37 14 68l-432 432q-31 -14 -68 -14q-67 0 -114 48q-48 47 -48 114
t48 115q26 26 57 37v344q-31 12 -57 38q-48 47 -48 114t48 115q47 47 114 47t115 -47q47 -48 47 -115t-47 -114q-26 -26 -58 -38v-344q32 -11 58 -37t37 -58h992q12 32 38 58t57 37z" />
    <glyph glyph-name="uni028B" unicode="&#x28b;" 
d="M1306 1515q12 32 38 58q47 47 114 47t115 -47q47 -48 47 -115t-47 -114q-26 -26 -58 -38v-992q32 -11 58 -37q47 -48 47 -115t-47 -114q-48 -48 -115 -48t-114 48q-26 26 -38 57h-344q-11 -31 -37 -57q-48 -48 -115 -48t-114 48q-48 47 -48 114q0 37 14 68l-432 432
q-31 -14 -68 -14q-67 0 -114 48q-48 47 -48 114t48 115q26 26 57 37v344q-31 12 -57 38q-48 47 -48 114t48 115q47 47 114 47t115 -47q47 -48 47 -115t-47 -114q-26 -26 -58 -38v-344q32 -11 58 -37q47 -48 47 -115q0 -37 -14 -68l432 -432q31 14 68 14q67 0 115 -47
q26 -26 37 -58h344q12 32 38 58t57 37v992q-31 12 -57 38t-38 57h-344q-12 -32 -38 -58q-47 -47 -114 -47t-115 47q-47 48 -47 115t47 114q48 48 115 48t114 -48q26 -26 38 -57h344z" />
    <glyph glyph-name="uni0292" unicode="&#x292;" 
d="M1458 0q-67 0 -114 48q-26 25 -38 57h-992q-12 -32 -37 -57q-48 -48 -115 -48t-114.5 47.5t-47.5 114.5t47.5 114.5t114.5 47.5t115 -47q25 -26 37 -58h992q12 32 37.5 57.5t57.5 37.5v344q-32 12 -57.5 37.5t-37.5 57.5h-344q-12 -32 -37 -57q-48 -48 -115 -48
t-114.5 47.5t-47.5 114.5t47.5 114.5t114.5 47.5q37 0 68 -14l432 432l-4 11h-992q-12 -32 -37 -57q-48 -48 -115 -48t-114.5 47.5t-47.5 114.5t47.5 114.5t114.5 47.5t115 -47q25 -26 37 -58h992q12 32 38 58q47 47 114 47t114.5 -47.5t47.5 -114.5t-47.5 -114.5
t-114.5 -47.5q-37 0 -68 14l-432 -432l4 -11h344q12 32 38 58q47 47 114 47t114.5 -47.5t47.5 -114.5t-47 -114q-26 -26 -58 -38v-344q32 -12 58 -37q47 -48 47 -115t-47.5 -114.5t-114.5 -47.5z" />
    <glyph glyph-name="uni0294" unicode="&#x294;" 
d="M867 314q32 -11 58 -37q47 -48 47 -115t-47 -114q-48 -48 -115 -48t-114 48q-48 47 -48 114t48 115q26 26 57 37v344q-31 12 -57 38q-48 47 -48 114t48 115q47 47 114 47t115 -47q26 -26 37 -58h344q12 32 38 58t57 37v344q-31 12 -57 38t-38 57h-992q-11 -31 -37 -57
q-48 -48 -115 -48t-114 48q-48 47 -48 114t48 115q47 47 114 47t115 -47q26 -26 37 -58h992q12 32 38 58q47 47 114 47t115 -47q47 -48 47 -115t-47 -114q-26 -26 -58 -38v-344q32 -11 58 -37q47 -48 47 -115t-47 -114q-48 -48 -115 -48t-114 48q-26 26 -38 57h-344
q-11 -31 -37 -57t-58 -38v-344z" />
    <glyph glyph-name="uni0295" unicode="&#x295;" 
d="M867 314q32 -11 58 -37q47 -48 47 -115t-47 -114q-48 -48 -115 -48t-114 48q-48 47 -48 114t48 115q26 26 57 37v344q-31 12 -57 38q-48 47 -48 114t48 115q47 47 114 47t115 -47q26 -26 37 -58h344q12 32 38 58t57 37v344q-31 12 -57 38t-38 57h-992q-11 -31 -37 -57
q-48 -48 -115 -48t-114 48q-48 47 -48 114t48 115q47 47 114 47t115 -47q26 -26 37 -58h992q12 32 38 58q47 47 114 47t115 -47q47 -48 47 -115t-47 -114q-26 -26 -58 -38v-344q32 -11 58 -37q47 -48 47 -115t-47 -114q-48 -48 -115 -48t-114 48q-26 26 -38 57h-344
q-11 -31 -37 -57t-58 -38v-344z" />
    <glyph glyph-name="uni02B9" unicode="&#x2b9;" horiz-adv-x="486" 
d="M105 1306q-31 12 -57 38q-48 47 -48 114t48 115q47 47 114 47t115 -47q47 -48 47 -115t-47 -114q-26 -26 -58 -38v-344q32 -11 58 -37q47 -48 47 -115t-47 -114q-48 -48 -115 -48t-114 48q-48 47 -48 114t48 115q26 26 57 37v344z" />
    <glyph glyph-name="uni02BA" unicode="&#x2ba;" horiz-adv-x="1134" 
d="M753 1306q-31 12 -57 38q-48 47 -48 114t48 115q47 47 114 47t115 -47q47 -48 47 -115t-47 -114q-26 -26 -58 -38v-344q32 -11 58 -37q47 -48 47 -115t-47 -114q-48 -48 -115 -48t-114 48q-48 47 -48 114t48 115q26 26 57 37v344zM105 1306q-31 12 -57 38q-48 47 -48 114
t48 115q47 47 114 47t115 -47q47 -48 47 -115t-47 -114q-26 -26 -58 -38v-344q32 -11 58 -37q47 -48 47 -115t-47 -114q-48 -48 -115 -48t-114 48q-48 47 -48 114t48 115q26 26 57 37v344z" />
    <glyph glyph-name="uni02BB" unicode="&#x2bb;" horiz-adv-x="486" 
d="M105 1306q-31 12 -57 38q-48 47 -48 114t48 115q47 47 114 47t115 -47q47 -48 47 -115t-47 -114q-26 -26 -58 -38v-344q32 -11 58 -37q47 -48 47 -115t-47 -114q-48 -48 -115 -48t-114 48q-48 47 -48 114t48 115q26 26 57 37v344z" />
    <glyph glyph-name="uni02BC" unicode="&#x2bc;" horiz-adv-x="486" 
d="M105 1306q-31 12 -57 38q-48 47 -48 114t48 115q47 47 114 47t115 -47q47 -48 47 -115t-47 -114q-26 -26 -58 -38v-344q32 -11 58 -37q47 -48 47 -115t-47 -114q-48 -48 -115 -48t-114 48q-48 47 -48 114t48 115q26 26 57 37v344z" />
    <glyph glyph-name="uni02BD" unicode="&#x2bd;" horiz-adv-x="486" 
d="M105 1306q-31 12 -57 38q-48 47 -48 114t48 115q47 47 114 47t115 -47q47 -48 47 -115t-47 -114q-26 -26 -58 -38v-344q32 -11 58 -37q47 -48 47 -115t-47 -114q-48 -48 -115 -48t-114 48q-48 47 -48 114t48 115q26 26 57 37v344z" />
    <glyph glyph-name="uni0372" unicode="&#x372;" 
d="M810 0q-67 0 -114.5 47.5t-47.5 114.5t48 115q25 25 57 37v992q-32 12 -57.5 37.5t-37.5 57.5h-344q-12 -32 -37.5 -57.5t-57.5 -37.5v-344q32 -12 58 -37q47 -48 47 -115t-47.5 -114.5t-114.5 -47.5t-114.5 47.5t-47.5 114.5t48 115q25 25 57 37v344q-32 12 -57 38
q-48 47 -48 114t47.5 114.5t114.5 47.5t115 -47q25 -26 37 -58h344q12 32 38 58q47 47 114 47t115 -47q25 -26 37 -58h344q12 32 38 58q47 47 114 47t114.5 -47.5t47.5 -114.5t-47 -114q-26 -26 -58 -38v-344q32 -12 58 -37q47 -48 47 -115t-47.5 -114.5t-114.5 -47.5
t-114.5 47.5t-47.5 114.5t48 115q25 25 57 37v344q-32 12 -57.5 37.5t-37.5 57.5h-344q-12 -32 -37.5 -57.5t-57.5 -37.5v-992q32 -12 58 -37q47 -48 47 -115t-47.5 -114.5t-114.5 -47.5z" />
    <glyph glyph-name="uni0373" unicode="&#x373;" 
d="M810 0q-67 0 -114.5 47.5t-47.5 114.5t48 115q25 25 57 37v992q-32 12 -57.5 37.5t-37.5 57.5h-344q-12 -32 -37.5 -57.5t-57.5 -37.5v-344q32 -12 58 -37q47 -48 47 -115t-47.5 -114.5t-114.5 -47.5t-114.5 47.5t-47.5 114.5t48 115q25 25 57 37v344q-32 12 -57 38
q-48 47 -48 114t47.5 114.5t114.5 47.5t115 -47q25 -26 37 -58h344q12 32 38 58q47 47 114 47t115 -47q25 -26 37 -58h344q12 32 38 58q47 47 114 47t114.5 -47.5t47.5 -114.5t-47 -114q-26 -26 -58 -38v-344q32 -12 58 -37q47 -48 47 -115t-47.5 -114.5t-114.5 -47.5
t-114.5 47.5t-47.5 114.5t48 115q25 25 57 37v344q-32 12 -57.5 37.5t-37.5 57.5h-344q-12 -32 -37.5 -57.5t-57.5 -37.5v-992q32 -12 58 -37q47 -48 47 -115t-47.5 -114.5t-114.5 -47.5z" />
    <glyph glyph-name="uni0374" unicode="&#x374;" horiz-adv-x="486" 
d="M162 1620q67 0 114.5 -47.5t47.5 -114.5t-47.5 -114.5t-114.5 -47.5t-114.5 47.5t-47.5 114.5t47.5 114.5t114.5 47.5z" />
    <glyph glyph-name="uni0375" unicode="&#x375;" horiz-adv-x="486" 
d="M162 324q67 0 114.5 -47.5t47.5 -114.5t-47.5 -114.5t-114.5 -47.5t-114.5 47.5t-47.5 114.5t47.5 114.5t114.5 47.5z" />
    <glyph glyph-name="uni037A" unicode="&#x37a;" horiz-adv-x="486" 
d="M162 324q67 0 114.5 -47.5t47.5 -114.5t-47.5 -114.5t-114.5 -47.5t-114.5 47.5t-47.5 114.5t47.5 114.5t114.5 47.5z" />
    <glyph glyph-name="uni037B" unicode="&#x37b;" 
d="M314 1515h344q11 32 37 58q48 47 115 47t114 -47q48 -48 48 -115q0 -37 -14 -68l432 -432q31 14 68 14q67 0 114 -47q48 -48 48 -115t-48 -114q-47 -48 -114 -48q-37 0 -68 14l-432 -432q14 -31 14 -68q0 -67 -48 -114q-47 -48 -114 -48t-115 48q-26 26 -37 57h-344
q-12 -31 -38 -57q-47 -48 -114 -48t-115 48q-47 47 -47 114t47 115q48 47 115 47t114 -47q26 -26 38 -58h344q11 32 37 58q48 47 115 47q37 0 67 -14l433 432q-14 31 -14 68t14 68l-433 432q-31 -14 -67 -14q-67 0 -115 48q-26 26 -37 57h-344q-12 -31 -38 -57
q-47 -48 -114 -48t-115 48q-47 47 -47 114t47 115q48 47 115 47t114 -47q26 -26 38 -58z" />
    <glyph glyph-name="uni037C" unicode="&#x37c;" 
d="M1306 1515q12 32 38 58q47 47 114 47t115 -47q47 -48 47 -115t-47 -114q-48 -48 -115 -48t-114 48q-26 26 -38 57h-344q-11 -31 -37 -57q-48 -48 -115 -48q-36 0 -67 14l-433 -432q14 -31 14 -68t-14 -68l433 -432q30 14 67 14q67 0 115 -47q26 -26 37 -58h344
q12 32 38 58q47 47 114 47t115 -47q47 -48 47 -115t-47 -114q-48 -48 -115 -48t-114 48q-26 26 -38 57h-344q-11 -31 -37 -57q-48 -48 -115 -48t-114 48q-48 47 -48 114q0 37 14 68l-432 432q-31 -14 -68 -14q-67 0 -114 48q-48 47 -48 114t48 115q47 47 114 47q37 0 68 -14
l432 432q-14 31 -14 68q0 67 48 115q47 47 114 47t115 -47q26 -26 37 -58h344zM810 972q67 0 114.5 -47.5t47.5 -114.5t-47.5 -114.5t-114.5 -47.5t-114.5 47.5t-47.5 114.5t47.5 114.5t114.5 47.5z" />
    <glyph glyph-name="uni037D" unicode="&#x37d;" 
d="M314 1515h344q11 32 37 58q48 47 115 47t114 -47q48 -48 48 -115q0 -37 -14 -68l432 -432q31 14 68 14q67 0 114 -47q48 -48 48 -115t-48 -114q-47 -48 -114 -48q-37 0 -68 14l-432 -432q14 -31 14 -68q0 -67 -48 -114q-47 -48 -114 -48t-115 48q-26 26 -37 57h-344
q-12 -31 -38 -57q-47 -48 -114 -48t-115 48q-47 47 -47 114t47 115q48 47 115 47t114 -47q26 -26 38 -58h344q11 32 37 58q48 47 115 47q37 0 67 -14l433 432q-14 31 -14 68t14 68l-433 432q-31 -14 -67 -14q-67 0 -115 48q-26 26 -37 57h-344q-12 -31 -38 -57
q-47 -48 -114 -48t-115 48q-47 47 -47 114t47 115q48 47 115 47t114 -47q26 -26 38 -58zM810 972q67 0 114.5 -47.5t47.5 -114.5t-47.5 -114.5t-114.5 -47.5t-114.5 47.5t-47.5 114.5t47.5 114.5t114.5 47.5z" />
    <glyph glyph-name="uni037E" unicode="&#x37e;" horiz-adv-x="486" 
d="M162 324q67 0 114.5 -47.5t47.5 -114.5t-47.5 -114.5t-114.5 -47.5t-114.5 47.5t-47.5 114.5t47.5 114.5t114.5 47.5zM162 972q67 0 114.5 -47.5t47.5 -114.5t-47.5 -114.5t-114.5 -47.5t-114.5 47.5t-47.5 114.5t47.5 114.5t114.5 47.5z" />
    <glyph glyph-name="uni037F" unicode="&#x37f;" 
d="M1401 1306q-31 12 -57 38q-48 47 -48 114t48 115q47 47 114 47t115 -47q47 -48 47 -115t-47 -114q-26 -26 -58 -38v-992q32 -11 58 -37q47 -48 47 -115t-47 -114q-48 -48 -115 -48t-114 48q-26 26 -38 57h-344q-11 -31 -37 -57q-48 -48 -115 -48t-114 48q-48 47 -48 114
q0 37 14 68l-432 432q-31 -14 -68 -14q-67 0 -114 48q-48 47 -48 114t48 115q47 47 114 47t115 -47q47 -48 47 -115q0 -37 -14 -68l432 -432q31 14 68 14q67 0 115 -47q26 -26 37 -58h344q12 32 38 58t57 37v992z" />
    <glyph glyph-name="tonos" unicode="&#x384;" horiz-adv-x="486" 
d="M162 1620q67 0 114.5 -47.5t47.5 -114.5t-47.5 -114.5t-114.5 -47.5t-114.5 47.5t-47.5 114.5t47.5 114.5t114.5 47.5z" />
    <glyph glyph-name="Alphatonos" unicode="&#x386;" 
d="M219 314q32 -11 58 -37q47 -48 47 -115t-47 -114q-48 -48 -115 -48t-114 48q-48 47 -48 114t48 115q26 26 57 37v344q-31 12 -57 38q-48 47 -48 114t48 115q47 47 114 47q37 0 68 -14l432 432q-14 31 -14 68q0 67 48 115q47 47 114 47t115 -47q47 -48 47 -115
q0 -37 -14 -68l432 -432q31 14 68 14q67 0 115 -47q47 -48 47 -115t-47 -114q-26 -26 -58 -38v-344q32 -11 58 -37q47 -48 47 -115t-47 -114q-48 -48 -115 -48t-114 48q-48 47 -48 114t48 115q26 26 57 37v344q-31 12 -57 38t-38 57h-992q-11 -31 -37 -57t-58 -38v-344z
M878 1310q-31 -14 -68 -14t-68 14l-432 -432q2 -5 4 -11h992q2 5 4 11zM162 1620q67 0 114.5 -47.5t47.5 -114.5t-47.5 -114.5t-114.5 -47.5t-114.5 47.5t-47.5 114.5t47.5 114.5t114.5 47.5z" />
    <glyph glyph-name="anoteleia" unicode="&#x387;" horiz-adv-x="486" 
d="M162 972q67 0 114.5 -47.5t47.5 -114.5t-47.5 -114.5t-114.5 -47.5t-114.5 47.5t-47.5 114.5t47.5 114.5t114.5 47.5z" />
    <glyph glyph-name="Epsilontonos" unicode="&#x388;" 
d="M162 1296q-67 0 -114.5 47.5t-47.5 114.5t47.5 114.5t114.5 47.5t114.5 -47.5t47.5 -114.5t-47.5 -114.5t-114.5 -47.5zM1458 0q-67 0 -114 48q-26 25 -38 57h-344q-12 -32 -37 -57q-48 -48 -115 -48t-114.5 47.5t-47.5 114.5t48 115q25 25 57 37v344q-32 12 -57 38
q-48 47 -48 114t48 115q25 25 57 37v344q-32 12 -57 38q-48 47 -48 114t47.5 114.5t114.5 47.5t115 -47q25 -26 37 -58h344q12 32 38 58q47 47 114 47t114.5 -47.5t47.5 -114.5t-47.5 -114.5t-114.5 -47.5t-114 48q-26 25 -38 57h-344q-12 -32 -37.5 -57.5t-57.5 -37.5v-344
q32 -12 57.5 -37.5t37.5 -57.5h344q12 32 38 58q47 47 114 47t114.5 -47.5t47.5 -114.5t-47.5 -114.5t-114.5 -47.5t-114 48q-26 25 -38 57h-344q-12 -32 -37.5 -57.5t-57.5 -37.5v-344q32 -12 57.5 -37.5t37.5 -57.5h344q12 32 38 58q47 47 114 47t114.5 -47.5t47.5 -114.5
t-47.5 -114.5t-114.5 -47.5z" />
    <glyph glyph-name="Etatonos" unicode="&#x389;" 
d="M162 1296q-67 0 -114.5 47.5t-47.5 114.5t47.5 114.5t114.5 47.5t114.5 -47.5t47.5 -114.5t-47.5 -114.5t-114.5 -47.5zM1458 0q-67 0 -114.5 47.5t-47.5 114.5t48 115q25 25 57 37v344q-32 12 -57.5 37.5t-37.5 57.5h-344q-12 -32 -37.5 -57.5t-57.5 -37.5v-344
q32 -12 58 -37q47 -48 47 -115t-47.5 -114.5t-114.5 -47.5t-114.5 47.5t-47.5 114.5t48 115q25 25 57 37v344q-32 12 -57 38q-48 47 -48 114t48 115q25 25 57 37v344q-32 12 -57 38q-48 47 -48 114t47.5 114.5t114.5 47.5t114.5 -47.5t47.5 -114.5t-47 -114q-26 -26 -58 -38
v-344q32 -12 57.5 -37.5t37.5 -57.5h344q12 32 37.5 57.5t57.5 37.5v344q-32 12 -57 38q-48 47 -48 114t47.5 114.5t114.5 47.5t114.5 -47.5t47.5 -114.5t-47 -114q-26 -26 -58 -38v-344q32 -12 58 -37q47 -48 47 -115t-47 -114q-26 -26 -58 -38v-344q32 -12 58 -37
q47 -48 47 -115t-47.5 -114.5t-114.5 -47.5z" />
    <glyph glyph-name="Iotatonos" unicode="&#x38a;" horiz-adv-x="1134" 
d="M867 314q32 -11 58 -37q47 -48 47 -115t-47 -114q-48 -48 -115 -48t-114 48q-48 47 -48 114t48 115q26 26 57 37v992q-31 12 -57 38q-48 47 -48 114t48 115q47 47 114 47t115 -47q47 -48 47 -115t-47 -114q-26 -26 -58 -38v-992zM162 1620q67 0 114.5 -47.5t47.5 -114.5
t-47.5 -114.5t-114.5 -47.5t-114.5 47.5t-47.5 114.5t47.5 114.5t114.5 47.5z" />
    <glyph glyph-name="Omicrontonos" unicode="&#x38c;" 
d="M662 1390q-14 31 -14 68q0 67 48 115q47 47 114 47t115 -47q47 -48 47 -115q0 -37 -14 -68l432 -432q31 14 68 14q67 0 115 -47q47 -48 47 -115t-47 -114q-48 -48 -115 -48q-37 0 -68 14l-432 -432q14 -31 14 -68q0 -67 -47 -114q-48 -48 -115 -48t-114 48
q-48 47 -48 114q0 37 14 68l-432 432q-31 -14 -68 -14q-67 0 -114 48q-48 47 -48 114t48 115q47 47 114 47q37 0 68 -14zM878 1310q-31 -14 -68 -14t-68 14l-432 -432q14 -31 14 -68t-14 -68l432 -432q31 14 68 14t68 -14l432 432q-14 31 -14 68t14 68zM162 1620
q67 0 114.5 -47.5t47.5 -114.5t-47.5 -114.5t-114.5 -47.5t-114.5 47.5t-47.5 114.5t47.5 114.5t114.5 47.5z" />
    <glyph glyph-name="Upsilontonos" unicode="&#x38e;" 
d="M1310 1390q-14 31 -14 68q0 67 48 115q47 47 114 47t115 -47q47 -48 47 -115t-47 -114q-48 -48 -115 -48q-37 0 -68 14l-432 -432q14 -31 14 -68q0 -67 -47 -114q-26 -26 -58 -38v-344q32 -11 58 -37q47 -48 47 -115t-47 -114q-48 -48 -115 -48t-114 48q-48 47 -48 114
t48 115q26 26 57 37v344q-31 12 -57 38q-48 47 -48 114q0 37 14 68l-432 432q-31 -14 -68 -14q-67 0 -114 48q-48 47 -48 114t48 115q47 47 114 47t115 -47q47 -48 47 -115q0 -37 -14 -68l432 -432q31 14 68 14t68 -14zM162 972q67 0 114.5 -47.5t47.5 -114.5t-47.5 -114.5
t-114.5 -47.5t-114.5 47.5t-47.5 114.5t47.5 114.5t114.5 47.5z" />
    <glyph glyph-name="Omegatonos" unicode="&#x38f;" 
d="M878 310l432 432q-14 31 -14 68t14 68l-432 432q-31 -14 -68 -14t-68 14l-432 -432q14 -31 14 -68t-14 -68l432 -432q31 14 68 14t68 -14zM1458 0q-67 0 -114 48q-26 25 -38 57h-344q-12 -32 -37 -57q-48 -48 -115 -48t-114 48q-26 25 -38 57h-344q-12 -32 -37 -57
q-48 -48 -115 -48t-114.5 47.5t-47.5 114.5t47.5 114.5t114.5 47.5t115 -47q25 -26 37 -58h344l4 11l-432 432q-31 -14 -68 -14q-67 0 -114.5 47.5t-47.5 114.5t47.5 114.5t114.5 47.5q37 0 68 -14l432 432q-14 31 -14 68q0 67 47.5 114.5t114.5 47.5t114.5 -47.5
t47.5 -114.5q0 -37 -14 -68l432 -432q31 14 68 14q67 0 114.5 -47.5t47.5 -114.5t-47.5 -114.5t-114.5 -47.5q-37 0 -68 14l-432 -432l4 -11h344q12 32 38 58q47 47 114 47t114.5 -47.5t47.5 -114.5t-47.5 -114.5t-114.5 -47.5zM162 1620q67 0 114.5 -47.5t47.5 -114.5
t-47.5 -114.5t-114.5 -47.5t-114.5 47.5t-47.5 114.5t47.5 114.5t114.5 47.5z" />
    <glyph glyph-name="iotadieresistonos" unicode="&#x390;" 
d="M1458 1296q-67 0 -114.5 47.5t-47.5 114.5t47.5 114.5t114.5 47.5t114.5 -47.5t47.5 -114.5t-47.5 -114.5t-114.5 -47.5zM162 1296q-67 0 -114.5 47.5t-47.5 114.5t47.5 114.5t114.5 47.5t114.5 -47.5t47.5 -114.5t-47.5 -114.5t-114.5 -47.5zM867 658v-344
q32 -11 58 -37q47 -48 47 -115t-47 -114q-48 -48 -115 -48t-114 48q-48 47 -48 114t48 115q26 26 57 37v344q-32 12 -57 38q-48 47 -48 114t47.5 114.5t114.5 47.5t114.5 -47.5t47.5 -114.5t-47 -114q-26 -26 -58 -38zM810 1620q67 0 114.5 -47.5t47.5 -114.5t-47.5 -114.5
t-114.5 -47.5t-114.5 47.5t-47.5 114.5t47.5 114.5t114.5 47.5z" />
    <glyph glyph-name="Alpha" unicode="&#x391;" 
d="M219 314q32 -11 58 -37q47 -48 47 -115t-47 -114q-48 -48 -115 -48t-114 48q-48 47 -48 114t48 115q26 26 57 37v344q-31 12 -57 38q-48 47 -48 114t48 115q47 47 114 47q37 0 68 -14l432 432q-14 31 -14 68q0 67 48 115q47 47 114 47t115 -47q47 -48 47 -115
q0 -37 -14 -68l432 -432q31 14 68 14q67 0 115 -47q47 -48 47 -115t-47 -114q-26 -26 -58 -38v-344q32 -11 58 -37q47 -48 47 -115t-47 -114q-48 -48 -115 -48t-114 48q-48 47 -48 114t48 115q26 26 57 37v344q-31 12 -57 38t-38 57h-992q-11 -31 -37 -57t-58 -38v-344z
M878 1310q-31 -14 -68 -14t-68 14l-432 -432q2 -5 4 -11h992q2 5 4 11z" />
    <glyph glyph-name="Beta" unicode="&#x392;" 
d="M658 867q12 32 38 58q47 47 114 47q48 0 86 -24l416 439l-6 14h-992q-11 -31 -37 -57t-58 -38v-344q32 -12 58 -37q25 -26 37 -58h344zM105 962v344q-31 12 -57 38q-48 47 -48 114t48 115q47 47 114 47t115 -47q26 -26 37 -58h992q12 32 38 58q47 47 114 47t115 -47
q47 -48 47 -115t-47 -114q-48 -48 -115 -48q-34 0 -64 13l-428 -452q6 -22 6 -47q0 -49 -25 -87l439 -415q33 16 72 16q67 0 115 -47q47 -48 47 -115t-47 -114q-48 -48 -115 -48t-114 48q-26 26 -38 57h-992q-11 -31 -37 -57q-48 -48 -115 -48t-114 48q-48 47 -48 114
t48 115q26 26 57 37v344q-32 12 -57 38q-48 47 -48 114t48 115q25 25 57 37zM219 658v-344q32 -11 58 -37t37 -58h992q1 3 3 7l-453 428q-22 -6 -46 -6q-67 0 -114 48q-26 25 -38 57h-344q-12 -32 -37 -57q-26 -26 -58 -38z" />
    <glyph glyph-name="Gamma" unicode="&#x393;" 
d="M219 314q32 -11 58 -37q47 -48 47 -115t-47 -114q-48 -48 -115 -48t-114 48q-48 47 -48 114t48 115q26 26 57 37v992q-31 12 -57 38q-48 47 -48 114t48 115q47 47 114 47t115 -47q26 -26 37 -58h992q12 32 38 58q47 47 114 47t115 -47q47 -48 47 -115t-47 -114
q-48 -48 -115 -48t-114 48q-26 26 -38 57h-992q-11 -31 -37 -57t-58 -38v-992z" />
    <glyph glyph-name="uni0394" unicode="&#x394;" 
d="M1306 219q11 29 33 53l-512 1025q-8 -1 -17 -1t-17 1l-512 -1025q22 -24 33 -53h992zM1458 0q-67 0 -114 48q-26 25 -38 57h-992q-12 -32 -37 -57q-48 -48 -115 -48t-114.5 47.5t-47.5 114.5t47.5 114.5t114.5 47.5q9 0 17 -1l512 1025q-43 46 -43 110q0 67 47.5 114.5
t114.5 47.5t114.5 -47.5t47.5 -114.5q0 -64 -43 -110l512 -1025q8 1 17 1q67 0 114.5 -47.5t47.5 -114.5t-47.5 -114.5t-114.5 -47.5z" />
    <glyph glyph-name="Epsilon" unicode="&#x395;" 
d="M314 105q-11 -31 -37 -57q-48 -48 -115 -48t-114 48q-48 47 -48 114t48 115q26 26 57 37v344q-31 12 -57 38q-48 47 -48 114t48 115q26 26 57 37v344q-31 12 -57 38q-48 47 -48 114t48 115q47 47 114 47t115 -47q26 -26 37 -58h992q12 32 38 58q47 47 114 47t115 -47
q47 -48 47 -115t-47 -114q-48 -48 -115 -48t-114 48q-26 26 -38 57h-992q-11 -31 -37 -57t-58 -38v-344q32 -11 58 -37q26 -27 38 -59l343 1q12 32 38 58q47 47 114 47t115 -47q47 -48 47 -115t-47 -114q-48 -48 -115 -48t-114 48q-26 26 -38 57h-344q-11 -31 -37 -57
t-58 -38v-344q32 -11 58 -37t37 -58h992q12 32 38 58q47 47 114 47t115 -47q47 -48 47 -115t-47 -114q-48 -48 -115 -48t-114 48q-26 26 -38 57h-992z" />
    <glyph glyph-name="Zeta" unicode="&#x396;" 
d="M314 105q-11 -31 -37 -57q-48 -48 -115 -48t-114 48q-48 47 -48 114t48 115q47 47 114 47q37 0 68 -14l1080 1080q-2 6 -4 11h-992q-11 -31 -37 -57q-48 -48 -115 -48t-114 48q-48 47 -48 114t48 115q47 47 114 47t115 -47q26 -26 37 -58h992q12 32 38 58q47 47 114 47
t115 -47q47 -48 47 -115t-47 -114q-48 -48 -115 -48q-37 0 -68 14l-1080 -1080q2 -5 4 -11h992q12 32 38 58q47 47 114 47t115 -47q47 -48 47 -115t-47 -114q-48 -48 -115 -48t-114 48q-26 26 -38 57h-992z" />
    <glyph glyph-name="Eta" unicode="&#x397;" 
d="M219 314q32 -11 58 -37q47 -48 47 -115t-47 -114q-48 -48 -115 -48t-114 48q-48 47 -48 114t48 115q26 26 57 37v344q-31 12 -57 38q-48 47 -48 114t48 115q26 26 57 37v344q-31 12 -57 38q-48 47 -48 114t48 115q47 47 114 47t115 -47q47 -48 47 -115t-47 -114
q-26 -26 -58 -38v-344q32 -11 58 -37t37 -58h992q12 32 38 58t57 37v344q-31 12 -57 38q-48 47 -48 114t48 115q47 47 114 47t115 -47q47 -48 47 -115t-47 -114q-26 -26 -58 -38v-344q32 -11 58 -37q47 -48 47 -115t-47 -114q-26 -26 -58 -38v-344q32 -11 58 -37
q47 -48 47 -115t-47 -114q-48 -48 -115 -48t-114 48q-48 47 -48 114t48 115q26 26 57 37v344q-31 12 -57 38t-38 57h-992q-11 -31 -37 -57t-58 -38v-344z" />
    <glyph glyph-name="Theta" unicode="&#x398;" 
d="M662 1390q-14 31 -14 68q0 67 48 115q47 47 114 47t115 -47q47 -48 47 -115q0 -37 -14 -68l432 -432q31 14 68 14q67 0 115 -47q47 -48 47 -115t-47 -114q-48 -48 -115 -48q-37 0 -68 14l-432 -432q14 -31 14 -68q0 -67 -47 -114q-48 -48 -115 -48t-114 48
q-48 47 -48 114q0 37 14 68l-432 432q-31 -14 -68 -14q-67 0 -114 48q-48 47 -48 114t48 115q47 47 114 47q37 0 68 -14zM878 1310q-31 -14 -68 -14t-68 14l-432 -432q14 -31 14 -68t-14 -68l432 -432q31 14 68 14t68 -14l432 432q-14 31 -14 68t14 68zM810 972
q67 0 114.5 -47.5t47.5 -114.5t-47.5 -114.5t-114.5 -47.5t-114.5 47.5t-47.5 114.5t47.5 114.5t114.5 47.5z" />
    <glyph glyph-name="Iota" unicode="&#x399;" horiz-adv-x="486" 
d="M219 314q32 -11 58 -37q47 -48 47 -115t-47 -114q-48 -48 -115 -48t-114 48q-48 47 -48 114t48 115q26 26 57 37v992q-31 12 -57 38q-48 47 -48 114t48 115q47 47 114 47t115 -47q47 -48 47 -115t-47 -114q-26 -26 -58 -38v-992z" />
    <glyph glyph-name="Kappa" unicode="&#x39a;" 
d="M219 314q32 -11 58 -37q47 -48 47 -115t-47 -114q-48 -48 -115 -48t-114 48q-48 47 -48 114t48 115q26 26 57 37v344q-31 12 -57 38q-48 47 -48 114t48 115q26 26 57 37v344q-31 12 -57 38q-48 47 -48 114t48 115q47 47 114 47t115 -47q47 -48 47 -115t-47 -114
q-26 -26 -58 -38v-344q32 -11 58 -37t37 -58h344q12 32 38 58q47 47 114 47q37 0 68 -14l432 432q-14 31 -14 68q0 67 48 115q47 47 114 47t115 -47q47 -48 47 -115t-47 -114q-48 -48 -115 -48q-37 0 -68 14l-432 -432q14 -31 14 -68t-14 -68l432 -432q31 14 68 14
q67 0 115 -47q47 -48 47 -115t-47 -114q-48 -48 -115 -48t-114 48q-48 47 -48 114q0 37 14 68l-432 432q-31 -14 -68 -14q-67 0 -114 48q-26 26 -38 57h-344q-11 -31 -37 -57t-58 -38v-344z" />
    <glyph glyph-name="Lambda" unicode="&#x39b;" 
d="M1458 0q-67 0 -114.5 47.5t-47.5 114.5q0 64 43 110l-512 1025q-8 -1 -17 -1t-17 1l-512 -1025q43 -46 43 -110q0 -67 -47.5 -114.5t-114.5 -47.5t-114.5 47.5t-47.5 114.5t47.5 114.5t114.5 47.5q9 0 17 -1l512 1025q-43 46 -43 110q0 67 47.5 114.5t114.5 47.5
t114.5 -47.5t47.5 -114.5q0 -64 -43 -110l512 -1025q8 1 17 1q67 0 114.5 -47.5t47.5 -114.5t-47.5 -114.5t-114.5 -47.5z" />
    <glyph glyph-name="Mu" unicode="&#x39c;" 
d="M219 314q32 -11 58 -37q47 -48 47 -115t-47 -114q-48 -48 -115 -48t-114 48q-48 47 -48 114t48 115q26 26 57 37v992q-31 12 -57 38q-48 47 -48 114t48 115q47 47 114 47t115 -47q47 -48 47 -115q0 -64 -43 -110l512 -1025q8 1 17 1t17 -1l513 1025q-44 46 -44 110
q0 67 48 115q47 47 114 47t115 -47q47 -48 47 -115t-47 -114q-26 -26 -58 -38v-992q32 -11 58 -37q47 -48 47 -115t-47 -114q-48 -48 -115 -48t-114 48q-48 47 -48 114t48 115q26 26 57 37v904l-472 -945q43 -47 43 -111q0 -67 -47 -114q-48 -48 -115 -48t-114 48
q-48 47 -48 114q0 64 43 110l-472 946v-904z" />
    <glyph glyph-name="Nu" unicode="&#x39d;" 
d="M219 314q32 -11 58 -37q47 -48 47 -115t-47 -114q-48 -48 -115 -48t-114 48q-48 47 -48 114t48 115q26 26 57 37v992q-31 12 -57 38q-48 47 -48 114t48 115q47 47 114 47t115 -47q47 -48 47 -115q0 -37 -14 -68l1080 -1080q6 2 11 4v992q-31 12 -57 38q-48 47 -48 114
t48 115q47 47 114 47t115 -47q47 -48 47 -115t-47 -114q-26 -26 -58 -38v-992q32 -11 58 -37q47 -48 47 -115t-47 -114q-48 -48 -115 -48t-114 48q-48 47 -48 114q0 37 14 68l-1080 1080q-6 -2 -11 -4v-992z" />
    <glyph glyph-name="Xi" unicode="&#x39e;" 
d="M1458 0q-67 0 -114 48q-26 25 -38 57h-992q-12 -32 -37 -57q-48 -48 -115 -48t-114.5 47.5t-47.5 114.5t47.5 114.5t114.5 47.5t115 -47q25 -26 37 -58h992q12 32 38 58q47 47 114 47t114.5 -47.5t47.5 -114.5t-47.5 -114.5t-114.5 -47.5zM1458 648q-67 0 -114 48
q-26 25 -38 57h-992q-12 -32 -37 -57q-48 -48 -115 -48t-114.5 47.5t-47.5 114.5t47.5 114.5t114.5 47.5t115 -47q25 -26 37 -58h992q12 32 38 58q47 47 114 47t114.5 -47.5t47.5 -114.5t-47.5 -114.5t-114.5 -47.5zM1458 1296q-67 0 -114 48q-26 25 -38 57h-992
q-12 -32 -37 -57q-48 -48 -115 -48t-114.5 47.5t-47.5 114.5t47.5 114.5t114.5 47.5t115 -47q25 -26 37 -58h992q12 32 38 58q47 47 114 47t114.5 -47.5t47.5 -114.5t-47.5 -114.5t-114.5 -47.5z" />
    <glyph glyph-name="Omicron" unicode="&#x39f;" 
d="M662 1390q-14 31 -14 68q0 67 48 115q47 47 114 47t115 -47q47 -48 47 -115q0 -37 -14 -68l432 -432q31 14 68 14q67 0 115 -47q47 -48 47 -115t-47 -114q-48 -48 -115 -48q-37 0 -68 14l-432 -432q14 -31 14 -68q0 -67 -47 -114q-48 -48 -115 -48t-114 48
q-48 47 -48 114q0 37 14 68l-432 432q-31 -14 -68 -14q-67 0 -114 48q-48 47 -48 114t48 115q47 47 114 47q37 0 68 -14zM878 1310q-31 -14 -68 -14t-68 14l-432 -432q14 -31 14 -68t-14 -68l432 -432q31 14 68 14t68 -14l432 432q-14 31 -14 68t14 68z" />
    <glyph glyph-name="Pi" unicode="&#x3a0;" 
d="M219 314q32 -11 58 -37q47 -48 47 -115t-47 -114q-48 -48 -115 -48t-114 48q-48 47 -48 114t48 115q26 26 57 37v992q-31 12 -57 38q-48 47 -48 114t48 115q47 47 114 47t115 -47q26 -26 37 -58h992q12 32 38 58q47 47 114 47t115 -47q47 -48 47 -115t-47 -114
q-26 -26 -58 -38v-992q32 -11 58 -37q47 -48 47 -115t-47 -114q-48 -48 -115 -48t-114 48q-48 47 -48 114t48 115q26 26 57 37v992q-31 12 -57 38t-38 57h-992q-11 -31 -37 -57t-58 -38v-992z" />
    <glyph glyph-name="Rho" unicode="&#x3a1;" 
d="M219 314q32 -11 58 -37q47 -48 47 -115t-47 -114q-48 -48 -115 -48t-114 48q-48 47 -48 114t48 115q26 26 57 37v344q-31 12 -57 38q-48 47 -48 114t48 115q26 26 57 37v344q-31 12 -57 38q-48 47 -48 114t48 115q47 47 114 47t115 -47q26 -26 37 -58h992q12 32 38 58
q47 47 114 47t115 -47q47 -48 47 -115t-47 -114q-26 -26 -58 -38v-344q32 -11 58 -37q47 -48 47 -115t-47 -114q-48 -48 -115 -48t-114 48q-26 26 -38 57h-992q-11 -31 -37 -57t-58 -38v-344zM1401 1306q-31 12 -57 38t-38 57h-992q-11 -31 -37 -57t-58 -38v-344
q32 -11 58 -37t37 -58h992q12 32 38 58t57 37v344z" />
    <glyph glyph-name="Sigma" unicode="&#x3a3;" 
d="M1458 0q-67 0 -114 48q-26 25 -38 57h-992q-12 -32 -37 -57q-48 -48 -115 -48t-114.5 47.5t-47.5 114.5t47.5 114.5t114.5 47.5q37 0 68 -14l432 432q-14 31 -14 68t14 68l-432 432q-31 -14 -68 -14q-67 0 -114.5 47.5t-47.5 114.5t47.5 114.5t114.5 47.5t115 -47
q25 -26 37 -58h992q12 32 38 58q47 47 114 47t114.5 -47.5t47.5 -114.5t-47.5 -114.5t-114.5 -47.5t-114 48q-26 25 -38 57h-992l-4 -11l432 -432q31 14 68 14q67 0 114.5 -47.5t47.5 -114.5t-47.5 -114.5t-114.5 -47.5q-37 0 -68 14l-432 -432l4 -11h992q12 32 38 58
q47 47 114 47t114.5 -47.5t47.5 -114.5t-47.5 -114.5t-114.5 -47.5z" />
    <glyph glyph-name="Tau" unicode="&#x3a4;" 
d="M1306 1515q12 32 38 58q47 47 114 47t115 -47q47 -48 47 -115t-47 -114q-48 -48 -115 -48t-114 48q-26 26 -38 57h-344q-11 -31 -37 -57t-58 -38v-992q32 -11 58 -37q47 -48 47 -115t-47 -114q-48 -48 -115 -48t-114 48q-48 47 -48 114t48 115q26 26 57 37v992
q-31 12 -57 38t-38 57h-344q-11 -31 -37 -57q-48 -48 -115 -48t-114 48q-48 47 -48 114t48 115q47 47 114 47t115 -47q26 -26 37 -58h344q12 32 38 58q47 47 114 47t115 -47q26 -26 37 -58h344z" />
    <glyph glyph-name="Upsilon" unicode="&#x3a5;" 
d="M1310 1390q-14 31 -14 68q0 67 48 115q47 47 114 47t115 -47q47 -48 47 -115t-47 -114q-48 -48 -115 -48q-37 0 -68 14l-432 -432q14 -31 14 -68q0 -67 -47 -114q-26 -26 -58 -38v-344q32 -11 58 -37q47 -48 47 -115t-47 -114q-48 -48 -115 -48t-114 48q-48 47 -48 114
t48 115q26 26 57 37v344q-31 12 -57 38q-48 47 -48 114q0 37 14 68l-432 432q-31 -14 -68 -14q-67 0 -114 48q-48 47 -48 114t48 115q47 47 114 47t115 -47q47 -48 47 -115q0 -37 -14 -68l432 -432q31 14 68 14t68 -14z" />
    <glyph glyph-name="Phi" unicode="&#x3a6;" 
d="M753 867v439q-32 12 -57.5 37.5t-37.5 57.5h-344q-12 -32 -37.5 -57.5t-57.5 -37.5v-344q32 -12 57.5 -37.5t37.5 -57.5h439zM1306 867q12 32 37.5 57.5t57.5 37.5v344q-32 12 -57.5 37.5t-37.5 57.5h-344q-12 -32 -37.5 -57.5t-57.5 -37.5v-439h439zM810 0
q-67 0 -114.5 47.5t-47.5 114.5t48 115q26 25 57 37v439h-439q-12 -32 -37 -57q-48 -48 -115 -48t-114.5 47.5t-47.5 114.5t48 115q25 25 57 37v344q-32 12 -57 38q-48 47 -48 114t47.5 114.5t114.5 47.5t115 -47q25 -26 37 -58h344q12 32 38 58q47 47 114 47t115 -47
q25 -26 37 -58h344q12 32 38 58q47 47 114 47t114.5 -47.5t47.5 -114.5t-47 -114q-26 -26 -58 -38v-344q32 -12 58 -37q47 -48 47 -115t-47.5 -114.5t-114.5 -47.5t-114 48q-26 25 -38 57h-439v-439q32 -12 58 -37q47 -48 47 -115t-47.5 -114.5t-114.5 -47.5z" />
    <glyph glyph-name="Chi" unicode="&#x3a7;" 
d="M1458 0q-67 0 -114.5 47.5t-47.5 114.5q0 37 14 68l-500 500l-500 -500q14 -31 14 -68q0 -67 -47.5 -114.5t-114.5 -47.5t-114.5 47.5t-47.5 114.5t47.5 114.5t114.5 47.5q37 0 68 -14l500 500l-500 500q-31 -14 -68 -14q-67 0 -114.5 47.5t-47.5 114.5t47.5 114.5
t114.5 47.5t114.5 -47.5t47.5 -114.5q0 -37 -14 -68l500 -500l500 500q-14 31 -14 68q0 67 47.5 114.5t114.5 47.5t114.5 -47.5t47.5 -114.5t-47.5 -114.5t-114.5 -47.5q-37 0 -68 14l-500 -500l500 -500q31 14 68 14q67 0 114.5 -47.5t47.5 -114.5t-47.5 -114.5
t-114.5 -47.5z" />
    <glyph glyph-name="Psi" unicode="&#x3a8;" 
d="M810 0q-67 0 -114.5 47.5t-47.5 114.5t48 115q25 25 57 37v439h-439q-12 -32 -37 -57q-48 -48 -115 -48t-114.5 47.5t-47.5 114.5t48 115q25 25 57 37v344q-32 12 -57 38q-48 47 -48 114t47.5 114.5t114.5 47.5t114.5 -47.5t47.5 -114.5t-47 -114q-26 -26 -58 -38v-344
q32 -12 57.5 -37.5t37.5 -57.5h439v439q-32 12 -57 38q-48 47 -48 114t47.5 114.5t114.5 47.5t114.5 -47.5t47.5 -114.5t-47 -114q-26 -26 -58 -38v-439h439q12 32 37.5 57.5t57.5 37.5v344q-32 12 -57 38q-48 47 -48 114t47.5 114.5t114.5 47.5t114.5 -47.5t47.5 -114.5
t-47 -114q-26 -26 -58 -38v-344q32 -12 58 -37q47 -48 47 -115t-47.5 -114.5t-114.5 -47.5t-114 48q-26 25 -38 57h-439v-439q32 -12 58 -37q47 -48 47 -115t-47.5 -114.5t-114.5 -47.5z" />
    <glyph glyph-name="uni03A9" unicode="&#x3a9;" 
d="M878 310l432 432q-14 31 -14 68t14 68l-432 432q-31 -14 -68 -14t-68 14l-432 -432q14 -31 14 -68t-14 -68l432 -432q31 14 68 14t68 -14zM1458 0q-67 0 -114 48q-26 25 -38 57h-344q-12 -32 -37 -57q-48 -48 -115 -48t-114 48q-26 25 -38 57h-344q-12 -32 -37 -57
q-48 -48 -115 -48t-114.5 47.5t-47.5 114.5t47.5 114.5t114.5 47.5t115 -47q25 -26 37 -58h344l4 11l-432 432q-31 -14 -68 -14q-67 0 -114.5 47.5t-47.5 114.5t47.5 114.5t114.5 47.5q37 0 68 -14l432 432q-14 31 -14 68q0 67 47.5 114.5t114.5 47.5t114.5 -47.5
t47.5 -114.5q0 -37 -14 -68l432 -432q31 14 68 14q67 0 114.5 -47.5t47.5 -114.5t-47.5 -114.5t-114.5 -47.5q-37 0 -68 14l-432 -432l4 -11h344q12 32 38 58q47 47 114 47t114.5 -47.5t47.5 -114.5t-47.5 -114.5t-114.5 -47.5z" />
    <glyph glyph-name="Iotadieresis" unicode="&#x3aa;" 
d="M1458 1296q-67 0 -114.5 47.5t-47.5 114.5t47.5 114.5t114.5 47.5t114.5 -47.5t47.5 -114.5t-47.5 -114.5t-114.5 -47.5zM162 1296q-67 0 -114.5 47.5t-47.5 114.5t47.5 114.5t114.5 47.5t114.5 -47.5t47.5 -114.5t-47.5 -114.5t-114.5 -47.5zM810 0q-67 0 -114.5 47.5
t-47.5 114.5t48 115q25 25 57 37v992q-32 12 -57 38q-48 47 -48 114t47.5 114.5t114.5 47.5t114.5 -47.5t47.5 -114.5t-47 -114q-26 -26 -58 -38v-992q32 -12 58 -37q47 -48 47 -115t-47.5 -114.5t-114.5 -47.5z" />
    <glyph glyph-name="Upsilondieresis" unicode="&#x3ab;" 
d="M1310 1390q-14 31 -14 68q0 67 48 115q47 47 114 47t115 -47q47 -48 47 -115t-47 -114q-48 -48 -115 -48q-37 0 -68 14l-432 -432q14 -31 14 -68q0 -67 -47 -114q-26 -26 -58 -38v-344q32 -11 58 -37q47 -48 47 -115t-47 -114q-48 -48 -115 -48t-114 48q-48 47 -48 114
t48 115q26 26 57 37v344q-31 12 -57 38q-48 47 -48 114q0 37 14 68l-432 432q-31 -14 -68 -14q-67 0 -114 48q-48 47 -48 114t48 115q47 47 114 47t115 -47q47 -48 47 -115q0 -37 -14 -68l432 -432q31 14 68 14t68 -14zM810 1620q67 0 114.5 -47.5t47.5 -114.5t-47.5 -114.5
t-114.5 -47.5t-114.5 47.5t-47.5 114.5t47.5 114.5t114.5 47.5z" />
    <glyph glyph-name="alphatonos" unicode="&#x3ac;" 
d="M219 314q32 -11 58 -37q47 -48 47 -115t-47 -114q-48 -48 -115 -48t-114 48q-48 47 -48 114t48 115q26 26 57 37v344q-31 12 -57 38q-48 47 -48 114t48 115q47 47 114 47q37 0 68 -14l432 432q-14 31 -14 68q0 67 48 115q47 47 114 47t115 -47q47 -48 47 -115
q0 -37 -14 -68l432 -432q31 14 68 14q67 0 115 -47q47 -48 47 -115t-47 -114q-26 -26 -58 -38v-344q32 -11 58 -37q47 -48 47 -115t-47 -114q-48 -48 -115 -48t-114 48q-48 47 -48 114t48 115q26 26 57 37v344q-31 12 -57 38t-38 57h-992q-11 -31 -37 -57t-58 -38v-344z
M878 1310q-31 -14 -68 -14t-68 14l-432 -432q2 -5 4 -11h992q2 5 4 11zM162 1620q67 0 114.5 -47.5t47.5 -114.5t-47.5 -114.5t-114.5 -47.5t-114.5 47.5t-47.5 114.5t47.5 114.5t114.5 47.5z" />
    <glyph glyph-name="epsilontonos" unicode="&#x3ad;" 
d="M162 1296q-67 0 -114.5 47.5t-47.5 114.5t47.5 114.5t114.5 47.5t114.5 -47.5t47.5 -114.5t-47.5 -114.5t-114.5 -47.5zM1458 0q-67 0 -114 48q-26 25 -38 57h-344q-12 -32 -37 -57q-48 -48 -115 -48t-114.5 47.5t-47.5 114.5t48 115q25 25 57 37v344q-32 12 -57 38
q-48 47 -48 114t48 115q25 25 57 37v344q-32 12 -57 38q-48 47 -48 114t47.5 114.5t114.5 47.5t115 -47q25 -26 37 -58h344q12 32 38 58q47 47 114 47t114.5 -47.5t47.5 -114.5t-47.5 -114.5t-114.5 -47.5t-114 48q-26 25 -38 57h-344q-12 -32 -37.5 -57.5t-57.5 -37.5v-344
q32 -12 57.5 -37.5t37.5 -57.5h344q12 32 38 58q47 47 114 47t114.5 -47.5t47.5 -114.5t-47.5 -114.5t-114.5 -47.5t-114 48q-26 25 -38 57h-344q-12 -32 -37.5 -57.5t-57.5 -37.5v-344q32 -12 57.5 -37.5t37.5 -57.5h344q12 32 38 58q47 47 114 47t114.5 -47.5t47.5 -114.5
t-47.5 -114.5t-114.5 -47.5z" />
    <glyph glyph-name="etatonos" unicode="&#x3ae;" 
d="M162 1296q-67 0 -114.5 47.5t-47.5 114.5t47.5 114.5t114.5 47.5t114.5 -47.5t47.5 -114.5t-47.5 -114.5t-114.5 -47.5zM1458 0q-67 0 -114.5 47.5t-47.5 114.5t48 115q25 25 57 37v344q-32 12 -57.5 37.5t-37.5 57.5h-344q-12 -32 -37.5 -57.5t-57.5 -37.5v-344
q32 -12 58 -37q47 -48 47 -115t-47.5 -114.5t-114.5 -47.5t-114.5 47.5t-47.5 114.5t48 115q25 25 57 37v344q-32 12 -57 38q-48 47 -48 114t48 115q25 25 57 37v344q-32 12 -57 38q-48 47 -48 114t47.5 114.5t114.5 47.5t114.5 -47.5t47.5 -114.5t-47 -114q-26 -26 -58 -38
v-344q32 -12 57.5 -37.5t37.5 -57.5h344q12 32 37.5 57.5t57.5 37.5v344q-32 12 -57 38q-48 47 -48 114t47.5 114.5t114.5 47.5t114.5 -47.5t47.5 -114.5t-47 -114q-26 -26 -58 -38v-344q32 -12 58 -37q47 -48 47 -115t-47 -114q-26 -26 -58 -38v-344q32 -12 58 -37
q47 -48 47 -115t-47.5 -114.5t-114.5 -47.5z" />
    <glyph glyph-name="iotatonos" unicode="&#x3af;" horiz-adv-x="1134" 
d="M867 314q32 -11 58 -37q47 -48 47 -115t-47 -114q-48 -48 -115 -48t-114 48q-48 47 -48 114t48 115q26 26 57 37v992q-31 12 -57 38q-48 47 -48 114t48 115q47 47 114 47t115 -47q47 -48 47 -115t-47 -114q-26 -26 -58 -38v-992zM162 1620q67 0 114.5 -47.5t47.5 -114.5
t-47.5 -114.5t-114.5 -47.5t-114.5 47.5t-47.5 114.5t47.5 114.5t114.5 47.5z" />
    <glyph glyph-name="upsilondieresistonos" unicode="&#x3b0;" 
d="M1310 1390q-14 31 -14 68q0 67 48 115q47 47 114 47t115 -47q47 -48 47 -115t-47 -114q-48 -48 -115 -48q-37 0 -68 14l-432 -432q14 -31 14 -68q0 -67 -47 -114q-26 -26 -58 -38v-344q32 -11 58 -37q47 -48 47 -115t-47 -114q-48 -48 -115 -48t-114 48q-48 47 -48 114
t48 115q26 26 57 37v344q-31 12 -57 38q-48 47 -48 114q0 37 14 68l-432 432q-31 -14 -68 -14q-67 0 -114 48q-48 47 -48 114t48 115q47 47 114 47t115 -47q47 -48 47 -115q0 -37 -14 -68l432 -432q31 14 68 14t68 -14zM810 1620q67 0 114.5 -47.5t47.5 -114.5t-47.5 -114.5
t-114.5 -47.5t-114.5 47.5t-47.5 114.5t47.5 114.5t114.5 47.5zM162 972q67 0 114.5 -47.5t47.5 -114.5t-47.5 -114.5t-114.5 -47.5t-114.5 47.5t-47.5 114.5t47.5 114.5t114.5 47.5zM1458 972q67 0 114.5 -47.5t47.5 -114.5t-47.5 -114.5t-114.5 -47.5t-114.5 47.5
t-47.5 114.5t47.5 114.5t114.5 47.5z" />
    <glyph glyph-name="alpha" unicode="&#x3b1;" 
d="M219 314q32 -11 58 -37q47 -48 47 -115t-47 -114q-48 -48 -115 -48t-114 48q-48 47 -48 114t48 115q26 26 57 37v344q-31 12 -57 38q-48 47 -48 114t48 115q47 47 114 47q37 0 68 -14l432 432q-14 31 -14 68q0 67 48 115q47 47 114 47t115 -47q47 -48 47 -115
q0 -37 -14 -68l432 -432q31 14 68 14q67 0 115 -47q47 -48 47 -115t-47 -114q-26 -26 -58 -38v-344q32 -11 58 -37q47 -48 47 -115t-47 -114q-48 -48 -115 -48t-114 48q-48 47 -48 114t48 115q26 26 57 37v344q-31 12 -57 38t-38 57h-992q-11 -31 -37 -57t-58 -38v-344z
M878 1310q-31 -14 -68 -14t-68 14l-432 -432q2 -5 4 -11h992q2 5 4 11z" />
    <glyph glyph-name="beta" unicode="&#x3b2;" 
d="M658 867q12 32 38 58q47 47 114 47q48 0 86 -24l416 439l-6 14h-992q-11 -31 -37 -57t-58 -38v-344q32 -12 58 -37q25 -26 37 -58h344zM105 962v344q-31 12 -57 38q-48 47 -48 114t48 115q47 47 114 47t115 -47q26 -26 37 -58h992q12 32 38 58q47 47 114 47t115 -47
q47 -48 47 -115t-47 -114q-48 -48 -115 -48q-34 0 -64 13l-428 -452q6 -22 6 -47q0 -49 -25 -87l439 -415q33 16 72 16q67 0 115 -47q47 -48 47 -115t-47 -114q-48 -48 -115 -48t-114 48q-26 26 -38 57h-992q-11 -31 -37 -57q-48 -48 -115 -48t-114 48q-48 47 -48 114
t48 115q26 26 57 37v344q-32 12 -57 38q-48 47 -48 114t48 115q25 25 57 37zM219 658v-344q32 -11 58 -37t37 -58h992q1 3 3 7l-453 428q-22 -6 -46 -6q-67 0 -114 48q-26 25 -38 57h-344q-12 -32 -37 -57q-26 -26 -58 -38z" />
    <glyph glyph-name="gamma" unicode="&#x3b3;" 
d="M219 314q32 -11 58 -37q47 -48 47 -115t-47 -114q-48 -48 -115 -48t-114 48q-48 47 -48 114t48 115q26 26 57 37v992q-31 12 -57 38q-48 47 -48 114t48 115q47 47 114 47t115 -47q26 -26 37 -58h992q12 32 38 58q47 47 114 47t115 -47q47 -48 47 -115t-47 -114
q-48 -48 -115 -48t-114 48q-26 26 -38 57h-992q-11 -31 -37 -57t-58 -38v-992z" />
    <glyph glyph-name="delta" unicode="&#x3b4;" 
d="M1306 219q11 29 33 53l-512 1025q-8 -1 -17 -1t-17 1l-512 -1025q22 -24 33 -53h992zM1458 0q-67 0 -114 48q-26 25 -38 57h-992q-12 -32 -37 -57q-48 -48 -115 -48t-114.5 47.5t-47.5 114.5t47.5 114.5t114.5 47.5q9 0 17 -1l512 1025q-43 46 -43 110q0 67 47.5 114.5
t114.5 47.5t114.5 -47.5t47.5 -114.5q0 -64 -43 -110l512 -1025q8 1 17 1q67 0 114.5 -47.5t47.5 -114.5t-47.5 -114.5t-114.5 -47.5z" />
    <glyph glyph-name="epsilon" unicode="&#x3b5;" 
d="M314 105q-11 -31 -37 -57q-48 -48 -115 -48t-114 48q-48 47 -48 114t48 115q26 26 57 37v344q-31 12 -57 38q-48 47 -48 114t48 115q26 26 57 37v344q-31 12 -57 38q-48 47 -48 114t48 115q47 47 114 47t115 -47q26 -26 37 -58h992q12 32 38 58q47 47 114 47t115 -47
q47 -48 47 -115t-47 -114q-48 -48 -115 -48t-114 48q-26 26 -38 57h-992q-11 -31 -37 -57t-58 -38v-344q32 -11 58 -37q26 -27 38 -59l343 1q12 32 38 58q47 47 114 47t115 -47q47 -48 47 -115t-47 -114q-48 -48 -115 -48t-114 48q-26 26 -38 57h-344q-11 -31 -37 -57
t-58 -38v-344q32 -11 58 -37t37 -58h992q12 32 38 58q47 47 114 47t115 -47q47 -48 47 -115t-47 -114q-48 -48 -115 -48t-114 48q-26 26 -38 57h-992z" />
    <glyph glyph-name="zeta" unicode="&#x3b6;" 
d="M314 105q-11 -31 -37 -57q-48 -48 -115 -48t-114 48q-48 47 -48 114t48 115q47 47 114 47q37 0 68 -14l1080 1080q-2 6 -4 11h-992q-11 -31 -37 -57q-48 -48 -115 -48t-114 48q-48 47 -48 114t48 115q47 47 114 47t115 -47q26 -26 37 -58h992q12 32 38 58q47 47 114 47
t115 -47q47 -48 47 -115t-47 -114q-48 -48 -115 -48q-37 0 -68 14l-1080 -1080q2 -5 4 -11h992q12 32 38 58q47 47 114 47t115 -47q47 -48 47 -115t-47 -114q-48 -48 -115 -48t-114 48q-26 26 -38 57h-992z" />
    </font>
</defs>
</svg>
