<?xml version="1.0" standalone="no"?>
<!DOCTYPE svg PUBLIC "-//W3C//DTD SVG 1.1//EN" "http://www.w3.org/Graphics/SVG/1.1/DTD/svg11.dtd" >
<svg xmlns="http://www.w3.org/2000/svg" xmlns:xlink="http://www.w3.org/1999/xlink" version="1.1">
<metadata>
Created by FontForge 20201107 at Mon Aug 21 17:23:06 2023
 By 
No Rights Reserved
</metadata>
<defs>
<font id="OperationNapalm-Italic" horiz-adv-x="1008" >
  <font-face 
    font-family="Operation Napalm"
    font-weight="400"
    font-style="italic"
    font-stretch="normal"
    units-per-em="2048"
    panose-1="2 0 6 0 0 0 0 0 0 0"
    ascent="1638"
    descent="-410"
    x-height="1344"
    cap-height="1404"
    bbox="-208 -419 2254 1913"
    underline-thickness="150"
    underline-position="-292"
    slope="-12"
    unicode-range="U+0021-1F6AC"
  />
<missing-glyph 
d="M393 11q-7 -8 -23 -11h-244q-19 0 -19 22v2l283 1332q2 8 16 16q5 16 28 20h744q19 0 19 -22v-2l-283 -1332q-5 -20 -80 -36q-18 12 -45 12h-60l-123 -12l1 4q0 8 -10 8l-3 -12q-126 9 -201 11z" />
    <glyph glyph-name=".notdef" 
d="M393 11q-7 -8 -23 -11h-244q-19 0 -19 22v2l283 1332q2 8 16 16q5 16 28 20h744q19 0 19 -22v-2l-283 -1332q-5 -20 -80 -36q-18 12 -45 12h-60l-123 -12l1 4q0 8 -10 8l-3 -12q-126 9 -201 11z" />
    <glyph glyph-name=".null" horiz-adv-x="0" 
 />
    <glyph glyph-name="nonmarkingreturn" horiz-adv-x="682" 
 />
    <glyph glyph-name="space" unicode="&#xa0;" horiz-adv-x="714" 
 />
    <glyph glyph-name="space" unicode=" " horiz-adv-x="714" 
 />
    <glyph glyph-name="exclam" unicode="!" horiz-adv-x="360" 
d="M417 1368h96q20 -3 20 -18q0 -3 -1 -6l-169 -792v-60h-12l6 -24l-17 -24l-3 -72q-38 -12 -41 -24l-57 12q-45 -12 -51 -12l-7 24l207 972q9 24 29 24zM154 132h108l-10 -48l-1 -60q-35 -24 -41 -24h-84q-20 0 -20 16q0 4 1 8l18 84q9 24 29 24z" />
    <glyph glyph-name="quotedbl" unicode="&#x22;" horiz-adv-x="714" 
d="M596 1367l-37 -179q-14 -64 -53 -191l-123 -13l3 13l-27 -13h-12q-19 0 -19 17q0 4 1 9l62 293l1 64q24 0 30 25l21 -13l147 13zM894 1327l-48 -228q-11 -49 -78 -102l-95 -10q-26 0 -34 102l42 194q10 49 77 102l113 10q26 -8 26 -42q0 -11 -3 -26z" />
    <glyph glyph-name="numbersign" unicode="#" horiz-adv-x="1298" 
d="M1163 750h-138q-2 2 -2 5v2q1 4 55 119h-396l-54 -118q-78 -4 -153 -6l57 124q-52 0 -127 12q-20 -12 -71 -12q-38 16 -38 33v3l18 84q5 24 28 24q126 0 259 6l64 138q92 204 116 204h96q20 -3 20 -18q0 -3 -1 -6l-144 -316l68 -8h325l66 144q92 204 116 204h96
q20 -3 20 -18q0 -3 -1 -6l-148 -324h119l-26 -120q-9 -24 -28 -24h-132l-54 -120q-1 -5 -10 -6zM832 0h-120q-18 0 -18 20q0 7 2 16q39 93 133 300h-395l-54 -120q-59 -108 -94 -216h-120q-18 0 -18 20q0 7 2 16q39 93 133 300h-87q-18 0 -18 15q0 4 1 9t3 7l-1 5l18 84
q5 24 43 24q26 7 67 12l42 -7l60 129q144 -5 144 -14l-55 -120h395l56 121q3 5 9 5h135q6 -2 7 -6l-55 -120h71l81 12q39 -5 61 -12q34 0 34 -19q0 -2 -1 -5l-18 -84l-3 -5q1 -1 1 -4v-3q-6 -24 -29 -24h-264l-54 -120q-59 -108 -94 -216z" />
    <glyph glyph-name="dollar" unicode="$" horiz-adv-x="888" 
d="M700 1400h84l34 -118q168 -85 168 -210q0 -20 -5 -42q15 0 15 -27q0 -17 -6 -45l-27 -12h-48q-72 0 -92 132q-38 60 -119 60h-72q-165 -41 -187 -144l-7 -36q-3 -15 -3 -29q0 -139 312 -211q130 -63 130 -233q0 -57 -15 -127q-31 -145 -323 -276l-29 -82h-108
q-12 15 -35 118q-161 113 -161 235q0 21 4 41l26 12h96q49 -168 253 -168q151 90 170 180q3 14 3 28q0 140 -324 212q-130 101 -130 252q0 40 9 84q36 170 328 300q30 106 59 106z" />
    <glyph glyph-name="percent" unicode="%" horiz-adv-x="1072" 
d="M941 1368h96q20 -3 20 -18q0 -3 -1 -6l-516 -1128q-59 -108 -94 -216h-120q-18 0 -18 20q0 7 2 16q95 225 515 1128q92 204 116 204zM444 1368h204q40 -8 40 -44q0 -8 -2 -17l-39 -184q-13 -61 -64 -61h-204q-41 0 -41 39q0 10 3 22l39 184q21 61 64 61zM780 306h204
q40 -8 40 -44q0 -8 -2 -17l-39 -184q-13 -61 -64 -61h-204q-41 0 -41 39q0 10 3 22l39 184q21 61 64 61z" />
    <glyph glyph-name="ampersand" unicode="&#x26;" horiz-adv-x="1200" 
d="M962 1392h12q207 -64 207 -240q0 -23 -4 -48q4 -11 4 -24q0 -12 -3 -24q-30 -144 -246 -312l-2 -12q58 -360 151 -360q46 0 71 -120l-8 -36q-24 -13 -96 -168l-106 -48q-19 0 -25 108l-21 12h-12l-225 -96h-24l1 4q0 8 -10 8q31 149 163 204q79 89 103 204q2 8 2 16
q0 72 -126 188l20 96q36 168 132 168q86 68 105 156q3 14 3 27q0 84 -123 141l28 132q9 24 29 24zM693 1368h24q20 -3 20 -18q0 -3 -1 -6l-21 -96q-8 -40 -83 -108q-47 -53 -59 -108q-1 -3 -1 -7q0 -39 47 -173q-38 -123 -53 -192l-2 -12q-189 -96 -209 -192l-23 -108
q-2 -9 -2 -19q0 -74 115 -185l-18 -84q-5 -24 -29 -24h-24q-171 135 -171 205q0 6 1 11l-20 132q43 202 285 384l3 12q-56 140 -56 223q0 23 4 41l8 36q35 164 265 288z" />
    <glyph glyph-name="quotesingle" unicode="'" horiz-adv-x="408" 
d="M596 1367l-37 -179q-14 -64 -53 -191l-123 -13l3 13l-27 -13h-12q-19 0 -19 17q0 4 1 9l62 293l1 64q24 0 30 25l21 -13l147 13z" />
    <glyph glyph-name="parenleft" unicode="(" horiz-adv-x="636" 
d="M839 1602h36l-4 -18q-4 -18 -22 -18l10 -36l-4 -18q-16 -76 -229 -234q-61 -117 -71 -162l-180 -846q-14 -66 -14 -126q0 -188 139 -306l-27 -126q-8 -36 -44 -36q-268 167 -268 449q0 69 16 145l77 360q14 65 16 162l26 36q1 5 1 11q0 17 -8 43q135 627 550 720z" />
    <glyph glyph-name="parenright" unicode=")" horiz-adv-x="636" 
d="M500 1620q263 -146 263 -456q0 -89 -22 -192h-18l10 -36l-126 -594q-106 -498 -520 -666h-36l-10 36l23 108q272 180 329 450l173 810q8 37 8 73q0 164 -162 305l27 126q7 36 61 36z" />
    <glyph glyph-name="asterisk" unicode="*" horiz-adv-x="1368" 
d="M683 765l-219 277q-4 7 -4 13v4q2 9 12 17l71 59q6 5 16 5q16 0 43 -13q37 -30 37 -52v-1q47 -56 76 -92l88 -113l81 383q5 24 29 24h84q18 0 26 -48q0 -25 -4 -42q-4 -20 -13 -30q-16 -82 -26 -132q-19 -85 -37 -170l13 8q-1 2 -1 5q2 10 25 29l158 130l28 9q-2 3 -2 6
v2q1 5 67 60q37 30 63 30q10 0 19 -5l46 -59q5 -5 5 -11l-1 -4q-2 -9 -11 -19l-341 -282l14 -3q3 12 39 12h184l21 -12q3 12 15 12h72q60 0 64 -36l-18 -84q-4 -20 -29 -24h-373l207 -265q4 -7 4 -13q0 -3 -1 -5q-2 -9 -10 -16l-72 -59q-11 -5 -21 -5q-26 0 -49 30l-163 207
q-13 17 -13 27v2q0 3 3 5l-11 8l-85 -398q-9 -24 -29 -24h-84q-25 9 -25 42q0 13 4 30l62 292q8 36 20 36v14l-145 -120q-43 -36 -120 -85q-8 -22 -55 -60q-31 -13 -47 -13q-10 0 -14 5l-47 59q-4 7 -4 13v4q2 9 12 17q154 128 312 271q-72 -1 -144 -1q-50 0 -130 12
q-20 -12 -74 -12q-40 17 -40 33v3l17 84q6 24 30 24q186 0 386 12l-2 -12q7 0 11 5z" />
    <glyph glyph-name="plus" unicode="+" horiz-adv-x="1368" 
d="M749 617q-132 0 -264 -1q-50 0 -130 12q-20 -12 -74 -12q-40 17 -40 33v3l17 84q6 24 30 24q186 0 386 12l-2 -12q12 0 14 12l94 -11l104 491q5 24 29 24h84q18 0 26 -48q0 -25 -4 -42q-4 -20 -13 -30q-16 -82 -26 -132q-29 -132 -57 -264h44l1 2l10 -2h8l-2 -1l41 -9
q3 12 39 12h184l21 -12q3 12 15 12h72q60 0 64 -36l-18 -84q-4 -20 -29 -24q-240 0 -481 -1q-52 -240 -103 -481q-9 -24 -29 -24h-84q-25 9 -25 42q0 13 4 30l62 292q8 36 20 36v43l-1 -1l1 8l1 10l2 1z" />
    <glyph glyph-name="comma" unicode="," horiz-adv-x="408" 
d="M190 204h123q21 0 26 -49q-105 -208 -159 -227q-12 0 -14 -10l-59 10q-18 0 -43 -30q-79 12 -79 28v2q52 0 126 246z" />
    <glyph glyph-name="hyphen" unicode="-" horiz-adv-x="786" 
d="M621 764h4v-2l19 -9q3 13 21 13h92l9 -13q3 13 9 13h36q28 0 28 -33v-5l-19 -89q-5 -21 -18 -26h-224l-220 -2q-25 0 -63 13q-12 -13 -39 -13q-17 16 -17 32q0 3 1 6l19 90q5 25 17 25q93 0 195 13l-3 -13q6 0 9 13l51 -13h88l1 2z" />
    <glyph glyph-name="period" unicode="." horiz-adv-x="408" 
d="M325 204l15 -44l-28 -131q-6 -29 -30 -29h-12q-10 0 -10 10l1 5l-27 -15h-96q-17 0 -27 44l25 116q9 44 189 44z" />
    <glyph glyph-name="slash" unicode="/" horiz-adv-x="672" 
d="M741 1368h96q20 -3 20 -18q0 -3 -1 -6l-516 -1128q-59 -108 -94 -216h-120q-18 0 -18 20q0 7 2 16q95 225 515 1128q92 204 116 204z" />
    <glyph glyph-name="zero" unicode="0" horiz-adv-x="1080" 
d="M970 1374q226 -88 226 -260q0 -31 -7 -64q5 0 5 -14q0 -18 -8 -58l-115 -540q-65 -308 -401 -420h-12l-7 24l23 108q214 102 263 336q-4 11 -4 24q0 12 3 24h12v3q0 9 -10 9l43 144l46 216q10 49 10 93q0 155 -131 243l20 96q4 17 44 36zM704 1362q19 -3 19 -17
q0 -3 -1 -7l-25 -120q-209 -82 -246 -252q-89 -477 -113 -588q-2 -11 -2 -23q0 -92 138 -241l-15 -72q-5 -24 -29 -24h-12q-233 88 -233 315q0 55 13 117l74 348q2 12 14 12l-7 24l10 48q3 12 15 12l-7 24q3 12 15 12q-2 32 -2 43v5q56 262 394 384zM651 774h108
q24 -9 24 -42q0 -13 -4 -30l-13 -60q-3 -17 -43 -36h-108q-17 0 -29 36l6 24q2 12 14 12l-7 24q23 72 52 72z" />
    <glyph glyph-name="one" unicode="1" horiz-adv-x="444" 
d="M556 1404q60 0 60 -80q0 -32 -9 -76l-97 -456q-2 -12 -14 -12l7 -24l-28 -132q-3 -12 -15 -12l7 -24l-120 -564q-5 -24 -29 -24h-120l-21 12q2 12 14 12l14 120l153 720q4 18 4 34q0 58 -51 86l44 204q122 179 127 204q54 0 74 12z" />
    <glyph glyph-name="two" unicode="2" horiz-adv-x="1020" 
d="M758 1392h84q196 0 282 -252q12 -27 12 -70q0 -46 -14 -110l-8 -36q-36 -169 -561 -552l-177 -156q36 -48 146 -48h300l81 -12q3 12 15 12v-14q0 -38 -7 -130l-26 -12h-432q-76 0 -183 -12q-35 12 -141 12q-20 0 -20 16q0 4 1 8l33 156q439 374 779 672l42 84l17 84
q-14 204 -196 204h-36q-218 -66 -240 -168q-55 -96 -80 -96h-96q-19 0 -19 22q0 6 2 14q160 384 442 384z" />
    <glyph glyph-name="three" unicode="3" horiz-adv-x="1044" 
d="M815 1380q293 0 337 -336q-3 -14 -3 -23q0 -13 7 -13q-26 -124 -167 -336q37 -158 37 -211q0 -11 -2 -17h-12l7 -24q-2 -12 -14 -12l7 -24q-3 -12 -15 -12l7 -24q-49 -230 -410 -348h-120q-192 0 -294 252q-2 29 -2 55q0 49 8 89l27 12h12q106 0 125 -144
q86 -108 181 -108h36q261 41 301 228l5 24q2 19 2 36q0 168 -163 168l-7 24l18 84l174 84q92 95 113 192q-23 228 -180 228h-60q-164 0 -266 -180q-56 -84 -126 -84q-40 17 -40 33v3l5 24q49 233 374 348q68 12 98 12z" />
    <glyph glyph-name="four" unicode="4" horiz-adv-x="996" 
d="M806 1392q28 0 28 -29q0 -9 -2 -19q-416 -881 -425 -924l41 -36h96q93 0 132 60l23 108q19 89 57 96h84q20 -3 20 -18q0 -3 -1 -6l-34 -156q-1 -3 -1 -6q0 -44 152 -78l-26 -120q-5 -24 -29 -24l-21 12q-72 -17 -119 -48l-13 -120l-10 -48l-32 -36q-124 9 -124 34v2
l18 84q4 20 4 37q0 95 -132 95l-27 -12q-13 0 -33 12q-126 -12 -195 -12h-60q-18 0 -18 20q0 7 2 16q355 768 537 1116h108z" />
    <glyph glyph-name="five" unicode="5" horiz-adv-x="1032" 
d="M429 1368h720q17 0 28 -36l-18 -84q-5 -24 -29 -24h-516q-96 0 -114 -84q-16 -20 -24 -60q-14 -68 -14 -128q0 -40 6 -76q209 24 233 24h60q247 0 281 -372l-23 -108q-70 -332 -413 -420h-144q-264 0 -266 384l26 12h72q59 -170 98 -216q92 -48 170 -48q286 49 342 312
l3 12v14q0 274 -119 274q-44 12 -93 12h-36q-100 0 -239 -108h-144q-20 0 -20 16q0 4 1 8l64 300q4 20 4 35t-4 25l28 72l51 240q9 24 29 24z" />
    <glyph glyph-name="six" unicode="6" horiz-adv-x="1032" 
d="M858 1356q203 -49 253 -168q34 -95 34 -157q0 -19 -3 -35l-27 -12h-72q-14 0 -75 156q-92 84 -198 84q-287 -52 -329 -252l-26 -120q-1 -8 -1 -16q0 -80 77 -80q23 12 50 12l7 -24l-18 -84q-183 -127 -214 -276q-4 -19 -4 -39q0 -101 104 -225l-21 -96l-17 -24
q-200 97 -200 307q0 53 13 113h12l-7 24l51 240q15 69 53 192q-4 12 -4 27q0 10 2 21q65 306 414 420q87 12 146 12zM817 768q211 -86 211 -269q0 -38 -9 -79l-18 -84q-42 -199 -335 -336l-7 24l21 96q187 149 212 264q5 22 5 44q0 108 -103 232z" />
    <glyph glyph-name="seven" unicode="7" 
d="M434 1392h24q10 0 10 -8l-1 -4l27 12h564q27 0 45 -12q24 12 51 12h12q17 0 28 -36l-28 -132q-77 -93 -908 -1224q-148 9 -148 34v2l822 1104q3 13 20 36q1 6 1 12q0 48 -96 48h-456q-18 0 -29 36l18 84q4 17 44 36z" />
    <glyph glyph-name="eight" unicode="8" horiz-adv-x="1068" 
d="M685 1332l7 -24l-23 -108q-138 -86 -166 -216q-2 -8 -2 -17q0 -64 79 -187l-26 -120q-193 -117 -226 -276q-5 -23 -5 -47q0 -112 114 -229l-18 -84q-5 -24 -29 -24q-127 0 -204 228q-11 50 -11 89q0 24 4 43l2 12q40 187 218 348q-39 176 -39 247q0 18 2 29
q52 245 323 336zM973 1332q165 -81 165 -254q0 -44 -11 -94q-11 -51 -137 -252q63 -143 63 -238q0 -27 -5 -50q-2 -9 -3 -72q-140 -288 -217 -288q-77 -84 -150 -84q-20 0 -20 16q0 4 1 8q3 12 15 12l-7 24l13 60q189 100 226 276l3 12q4 19 4 39q0 106 -119 213l28 132
q141 121 169 228q-4 90 -77 204l18 84q5 24 41 24z" />
    <glyph glyph-name="nine" unicode="9" horiz-adv-x="1044" 
d="M666 1356q11 -27 11 -51q0 -11 -2 -21l-10 -48q-195 -125 -222 -252l-13 -60q-4 -18 -4 -36q0 -97 117 -168q5 -12 5 -26q0 -10 -3 -22l-13 -60q-4 -17 -44 -36q-192 110 -192 296q0 42 10 88l5 24q79 292 355 372zM966 1356q191 -99 191 -295q0 -48 -11 -101
q-35 -106 -40 -132q-3 -12 -3 -22q0 -14 5 -26q-30 -82 -40 -132l-16 -72q-8 -41 -8 -80v-16q-64 -301 -305 -420q-131 -60 -229 -60q-148 16 -262 120q-64 112 -64 192q0 19 4 36l3 12q4 22 115 36q64 -252 235 -252q205 0 302 180q34 47 52 132l5 24q4 21 4 38
q0 70 -77 70q-55 0 -55 20v4l18 84q187 146 207 240l13 60q4 19 4 38q0 100 -109 202l20 96q5 24 41 24z" />
    <glyph glyph-name="colon" unicode=":" horiz-adv-x="408" 
d="M501 1032l15 -44l-28 -131q-6 -29 -30 -29h-12q-10 0 -10 10l1 5l-27 -15h-96q-17 0 -27 44l25 116q9 44 189 44zM169 204h144q12 0 12 -43t-12 -130l-43 -31h-144q-19 0 -19 19q0 5 2 12l30 142q10 31 30 31z" />
    <glyph glyph-name="semicolon" unicode=";" horiz-adv-x="408" 
d="M501 1032l15 -44l-28 -131q-6 -29 -30 -29h-12q-10 0 -10 10l1 5l-27 -15h-96q-17 0 -27 44l25 116q9 44 189 44zM190 204h123q21 0 26 -49q-105 -208 -159 -227q-12 0 -14 -10l-59 10q-18 0 -43 -30q-79 12 -79 28v2q52 0 126 246z" />
    <glyph glyph-name="less" unicode="&#x3c;" horiz-adv-x="960" 
d="M1093 1104l-23 -108q-98 -91 -488 -264q-35 -48 -42 -84q334 -212 397 -276q-32 -108 -59 -108h-12l-576 336q-18 12 -43 82l76 74q112 40 746 348h24z" />
    <glyph glyph-name="equal" unicode="=" horiz-adv-x="1368" 
d="M1229 336l-81 12h-948q-20 3 -20 18q0 3 1 6l18 84q20 36 80 36h72q10 0 10 -8l-1 -4l27 12h684q33 0 33 -10v-2l63 12h180q19 0 19 -15q0 -4 -1 -9q-2 -12 -14 -12l7 -24l-5 -24q-3 -12 -15 -12l7 -24q-5 -22 -116 -36zM1416 876h-876q-50 0 -129 12q-21 -12 -75 -12
q-40 17 -40 33v3l18 84q5 24 29 24q186 0 386 12l-2 -12q12 0 14 12l106 -12h624l-26 -120q-9 -24 -29 -24z" />
    <glyph glyph-name="greater" unicode="&#x3e;" horiz-adv-x="960" 
d="M337 1104h24q502 -308 598 -348l44 -74q-55 -70 -77 -82l-720 -336h-12q-17 0 -17 48q0 24 4 60q90 64 515 276q2 13 2 27q0 26 -8 57q-317 173 -376 264z" />
    <glyph glyph-name="question" unicode="?" horiz-adv-x="840" 
d="M693 1368h12q238 0 270 -252l-30 -144q-4 -19 -336 -504q-37 -120 -61 -120h-96q-20 0 -20 16q0 4 1 8l23 108l367 540l7 36q5 24 5 45q0 123 -185 123q-53 0 -210 -144h-108l2 12q44 207 359 276zM409 144h108q20 -3 20 -18q0 -3 -1 -6l-18 -84q-4 -17 -44 -36h-96
q-20 0 -20 16q0 4 1 8l21 96q8 24 29 24z" />
    <glyph glyph-name="at" unicode="@" horiz-adv-x="1246" 
d="M591 -324l-66 12q-3 -12 -7 -12h-89q-277 153 -277 415q0 57 13 120l69 324q12 58 13 145l25 33q1 4 1 8q0 16 -9 40q121 565 533 648h36l-3 -16q-3 -16 -21 -16l11 -32l-4 -17q-14 -68 -224 -210q-59 -105 -67 -146l-162 -761q-12 -55 -12 -105q0 -171 140 -280l124 -16
l156 -8q18 0 44 -12q10 12 29 12q10 -14 10 -28q0 -4 -1 -8l-13 -64q-5 -24 -13 -24q-67 0 -236 -2zM926 255h-48q-10 0 -10 8l1 4l-27 -12h-36q-120 0 -175 192q-6 21 -6 48q0 36 10 84l23 108q50 235 335 336h84q39 -25 70 -50q12 77 12 134q0 153 -86 153l-70 40l23 109
h31q165 0 298 -199q10 -56 10 -139v-29q-2 -10 -17 -10l1 -69l-19 -89q-2 -10 -17 -10v-2q0 -8 13 -8q-47 -149 -62 -218l-29 -139q-4 -15 -19 -30q-94 -200 -251 -200q-3 -12 -39 -12z" />
    <glyph glyph-name="A" unicode="A" horiz-adv-x="1176" 
d="M832 1404q80 -12 103 -24l-406 -840q-1 -4 -1 -9q0 -31 40 -87l-7 -36l-30 -84h-72q-48 0 -186 -312h-144q-20 0 -20 16q0 4 1 8q454 950 657 1344zM1016 1080h12q51 -628 51 -957q0 -61 -2 -111l-27 -12h-108q-34 0 -56 300q-43 0 -43 20v4l-27 -12q-40 17 -40 33v3
l23 108q68 38 75 72l-11 288q119 264 153 264z" />
    <glyph glyph-name="B" unicode="B" horiz-adv-x="1164" 
d="M451 1416h72q10 0 10 -8l-1 -4l27 12h12q18 0 18 -20q0 -7 -2 -16l-28 -192q-17 -23 -20 -36l-1 -4q0 -8 10 -8l-37 -120l-212 -996l-17 -24l-57 12h-96q-20 0 -20 16q0 4 1 8l283 1332q4 19 58 48zM883 1416q21 -12 33 -12t15 12q285 0 349 -336q-2 -9 -4 -72
q-21 -101 -169 -288l-3 -12q51 -139 51 -237q0 -34 -6 -63q-58 -271 -406 -384q-49 -12 -98 -12h-120q-20 0 -20 42q0 32 12 90l55 36q13 0 34 -12q324 0 375 240q7 32 7 59q0 157 -225 157q-12 0 -15 -12q-112 12 -112 34v2l23 108q9 24 29 24h96l69 -12q204 58 233 192
l3 12q9 45 9 82q0 182 -229 182h-84q-20 0 -20 16q0 4 1 8l25 120q5 24 92 36z" />
    <glyph glyph-name="C" unicode="C" horiz-adv-x="1032" 
d="M854 1392q244 0 306 -312l-11 -48q-5 -24 -29 -24h-108q-12 0 -65 144q-69 72 -153 72h-24q-228 0 -286 -276l-23 -108q-3 -14 -3 -23q0 -13 7 -13l-25 -60l-59 -276q-12 -55 -12 -101q0 -172 162 -211h24q183 0 296 204q35 36 43 36q27 0 46 -12q25 12 38 12
q21 -12 34 -12l-11 -48q-48 -228 -419 -336h-108q-291 79 -291 287q0 35 8 73l81 384q9 43 11 108l17 24l4 72q80 379 514 444h36z" />
    <glyph glyph-name="D" unicode="D" horiz-adv-x="1164" 
d="M451 1416h132l-19 -144l-260 -1224q-7 -33 -130 -48q-52 14 -52 33v3l2 12q3 12 15 12l-7 24l33 156q3 12 3 22q0 14 -5 26q17 21 22 48q2 8 2 13q0 11 -8 11l29 84l54 252q3 14 3 23q0 13 -7 13l24 60l125 588q4 17 44 36zM832 1404h204q239 0 259 -252q-6 -85 -19 -144
h-12v-3q0 -9 10 -9l-25 -60l-71 -336q-15 -69 -29 -192l-17 -24l7 -24q-127 -348 -386 -348q-77 12 -154 12h-12l-62 -12l-7 24l23 108q3 17 43 36h60l123 12l-3 -12q180 0 216 168q-5 12 -5 26q0 10 3 22q9 40 25 60q2 65 11 108l18 84q2 12 14 12q-5 16 -5 27q0 5 1 9
l17 24l1 4q0 8 -10 8l42 144l36 168q8 39 8 71q0 133 -145 133h-192q-20 0 -20 16q0 4 1 8l23 108q9 24 29 24z" />
    <glyph glyph-name="E" unicode="E" 
d="M422 1392h744q20 -3 20 -18q0 -3 -1 -6l-23 -108q-5 -24 -104 -36q-79 12 -129 12h-132l-63 -12l3 12l-27 -12q-43 0 -105 12q-26 -12 -39 -12l1 4q0 8 -10 8q-46 -44 -54 -84l-61 -288q-7 -32 -7 -53q0 -38 22 -43h360q20 -3 20 -18q0 -3 -1 -6l-20 -96q-5 -24 -80 -36
l3 12q-12 0 -15 -12l-57 12q-30 0 -99 -12l-57 12l-27 -12q-18 12 -45 12h-12q-18 0 -44 -36l-66 -312q-4 -17 -4 -32q0 -76 101 -76q79 -12 249 -12h132q27 0 51 12q88 -11 88 -34v-2l-20 -96q-5 -24 -29 -24h-228q-78 0 -243 -12l3 12q-12 0 -15 -12l-117 12h-60
q-27 0 -51 -12q-64 15 -64 33v3l283 1332q9 24 29 24z" />
    <glyph glyph-name="F" unicode="F" horiz-adv-x="984" 
d="M422 1392h396q10 0 10 -8l-1 -4l27 12h300q20 -3 20 -18q0 -3 -1 -6l-21 -96q-3 -17 -43 -36h-552q-19 0 -58 -48l-64 -300q-5 -23 -5 -42q0 -90 109 -90h276l-8 -36l-1 -60h-12l7 -24q-5 -24 -139 -36q-19 12 -46 12h-36l-62 -12l2 12l-26 -12h-84q-42 -83 -55 -144
l-5 -24l-6 -84h-12l7 -24l-25 -60l7 -24l-17 -24q5 -16 5 -27q0 -5 -1 -9l-17 -24l7 -24q-33 -114 -76 -132l-57 12q-45 -12 -51 -12l-7 24l286 1344q9 24 29 24z" />
    <glyph glyph-name="G" unicode="G" horiz-adv-x="1032" 
d="M830 1392q270 0 315 -324l2 -48q-12 0 -15 -12q-153 0 -153 60q0 6 1 12q-53 156 -159 156q-288 0 -357 -324l-102 -480q-5 -37 -5 -69q0 -207 198 -207q264 56 306 252l5 24q2 8 2 15q0 57 -107 57q-101 0 -101 31q0 3 1 5l25 120h48q27 0 51 12q21 -12 33 -12
q24 0 27 12l223 -24l-18 -84q-3 -12 -15 -12v-3q0 -9 10 -9q-90 -424 -398 -516q-107 -24 -125 -24q-273 0 -332 300q27 206 27 240l27 72l31 144q2 11 2 21q0 15 -4 27q16 21 22 48l18 84q3 12 3 22q0 14 -5 26q59 277 396 396q66 12 123 12z" />
    <glyph glyph-name="H" unicode="H" 
d="M434 1392q79 -12 129 -12q-38 -124 -42 -144q-1 -2 -1 -8q0 -12 3 -40l-18 -24q5 -12 5 -26q0 -10 -3 -22q-2 -12 -14 -12l7 -24l-6 -24q-14 -66 -47 -168q5 -16 5 -27q0 -5 -1 -9h-12q-2 -9 -2 -16q0 -56 95 -56h300q62 0 97 60q22 162 39 240l61 288q9 24 29 24l21 -12
l27 12l21 -12q24 12 51 12l16 -36l-237 -1116q-3 -12 -15 -12l7 -24l-12 -60l-28 -72q4 -10 4 -25t-4 -35l-27 -12h-36q-27 0 -45 12q-26 -12 -39 -12l-16 36h12q-5 18 -5 30v6q8 36 20 36l13 120l26 120q9 43 35 108q5 45 5 76q0 80 -32 80h-108q-10 0 -10 8l1 4
q-12 0 -15 -12l-81 12q-216 0 -234 -84l-8 -36v-3q0 -9 10 -9l-25 -60l-13 -60q-3 -14 -3 -23q0 -13 7 -13l-24 -60l-54 -252q-5 -24 -29 -24h-108l-21 12q2 13 19 36l11 108l30 84q2 11 8 96q35 106 40 132v12q0 41 6 72h12l-7 24q3 12 15 12l-7 24l18 84q2 12 14 12l-6 24
l17 24v3q0 9 -10 9q5 24 17 24q31 198 52 300l49 228q22 72 51 72z" />
    <glyph glyph-name="I" unicode="I" horiz-adv-x="372" 
d="M434 1392q10 0 10 -8l-1 -4l27 12h60q24 -9 24 -43q0 -13 -3 -29l-276 -1296q-5 -24 -29 -24h-120q-20 0 -20 16q0 4 1 8l5 24q8 36 20 36l1 60l257 1212q4 17 44 36z" />
    <glyph glyph-name="J" unicode="J" horiz-adv-x="1020" 
d="M1060 1404q6 0 46 -12l86 12v-3q0 -9 10 -9q-35 -222 -57 -324l-13 -60q-7 -36 -19 -36l-1 -60l-107 -504q-67 -316 -447 -408h-60q-277 0 -330 312l8 36l27 12h96q111 -204 220 -204h12q266 67 301 228l211 996z" />
    <glyph glyph-name="K" unicode="K" horiz-adv-x="1116" 
d="M424 1404h108q25 -9 25 -42q0 -13 -4 -30l-71 -336l-28 -72q-8 -62 -8 -97q0 -47 14 -47h48q141 116 547 540q76 72 87 72h132l31 -24l-564 -564l-5 -24q247 -705 247 -754v-2q-5 -24 -29 -24h-120q-15 4 -232 600l-22 12h-24q-182 -123 -202 -216l-79 -372
q-5 -24 -29 -24q-10 0 -10 8l1 4l-27 -12h-84q-20 0 -20 16q0 4 1 8l288 1356q9 24 29 24z" />
    <glyph glyph-name="L" unicode="L" horiz-adv-x="1020" 
d="M424 1404h108q19 0 19 -22q0 -6 -2 -14q-3 -12 -15 -12l-1 -60l-219 -1032q-3 -15 -3 -27q0 -57 69 -57h288q27 0 46 -12q12 0 14 12l58 -12h132q17 0 28 -36l-23 -108q-5 -24 -29 -24q-104 12 -129 12q-26 -12 -39 -12l3 12l-27 -12h-60q-66 0 -165 12l-27 -12
q-10 0 -10 8l1 4l-63 -12h-240l-21 12q114 594 184 924l56 264l27 72q-3 9 -3 23q0 16 4 37l10 48q9 24 29 24z" />
    <glyph glyph-name="M" unicode="M" horiz-adv-x="1212" 
d="M532 1404q57 0 88 -264q39 -76 57 -240q47 -132 68 -132h36q33 0 442 612l27 12q55 -3 55 -21v-3l26 12h36q20 -3 20 -18q0 -3 -1 -6l-35 -168q-3 -14 -3 -23q0 -13 7 -13l-25 -60l-224 -1056q-5 -24 -29 -24h-96q-20 0 -20 16q0 4 1 8l5 24q43 204 87 468q26 63 28 72
q1 62 18 144l15 72v3q0 19 -37 45q-61 -1 -366 -480h-24q-16 0 -101 372q-39 107 -61 108h-48l-42 -84q-3 -14 -3 -23q0 -13 7 -13l-25 -60l-142 -672l-123 -12h-12q-20 0 -20 16q0 4 1 8l23 108q26 120 65 360h12l-7 24l58 276q12 57 38 120q-1 8 -1 16q0 40 12 92l33 156
q3 12 15 12l-7 24l5 24q8 40 24 60l4 72l5 24h84q27 0 50 12z" />
    <glyph glyph-name="N" unicode="N" 
d="M419 1380h108q209 -831 258 -876h60q54 139 60 168v3q0 9 -10 9l25 60l130 612q9 24 29 24h84q18 0 29 -36l-268 -1260q-3 -12 -15 -12l7 -24l-2 -12q-4 -17 -44 -36h-108q-46 110 -177 636q-26 153 -88 204h-36q-36 0 -82 -216l-46 -216q-3 -12 -15 -12l7 -24l-74 -348
q-5 -24 -29 -24h-96q-20 0 -20 16q0 4 1 8l283 1332q9 24 29 24z" />
    <glyph glyph-name="O" unicode="O" horiz-adv-x="1044" 
d="M976 1344q175 -98 175 -304q0 -59 -15 -128h-12l7 -24l-84 -396q-71 -332 -347 -444h-24l-7 24l16 72q181 120 219 300l115 540q5 25 5 49q0 109 -107 203l18 84q5 24 41 24zM649 1332h24l-2 -12q-3 -12 -15 -12l7 -24l-3 -12q-10 -51 -153 -156q-40 -78 -47 -108
l-120 -564q-9 -45 -9 -84q0 -125 92 -204l-18 -84q-5 -24 -29 -24q-179 112 -179 300q0 46 11 96l51 240q10 43 11 108l17 24q1 4 1 9q0 11 -5 27q89 418 366 480z" />
    <glyph glyph-name="P" unicode="P" horiz-adv-x="1092" 
d="M434 1392h12q10 0 10 -8l-1 -4l27 12h24q20 -3 20 -18q0 -3 -1 -6l-10 -48q-3 -12 -15 -12l7 -24l-112 -528q-3 -12 -15 -12l7 -24l-64 -300q-5 -27 -22 -48l7 -24q-40 -131 -60 -228l-21 -96q-5 -24 -29 -24h-72q-20 0 -20 16q0 4 1 8l283 1332q4 17 44 36zM815 1380
q290 0 354 -144q28 -36 48 -168l-20 -96q-141 -396 -469 -396h-84q-16 0 -16 46q0 28 6 74l26 12h60q306 25 359 276q-4 264 -208 264q-26 -12 -38 -12q-69 0 -69 57q0 12 3 27h12l-7 24q3 17 43 36z" />
    <glyph glyph-name="Q" unicode="Q" horiz-adv-x="1152" 
d="M688 1344q3 -2 3 -14q0 -25 -14 -94h-12l-3 -12l7 -24q-188 -96 -229 -288l-97 -456q-7 -34 -7 -83q0 -56 9 -133l-23 -108q-5 -24 -29 -24q-98 43 -98 225q0 105 32 255l71 336q61 286 390 420zM1000 1344q185 -89 185 -306q0 -63 -16 -138q-11 -55 -11 -96v-12
q-22 -46 -32 -96l-28 -132l-1 -60h-12v-3q0 -9 10 -9q-58 -160 -81 -264q9 0 64 -96q-68 -84 -90 -84h-12q-40 48 -86 48h-36q-158 -96 -296 -96q-6 29 -6 57q0 26 5 51q217 68 227 108q2 10 2 20q0 44 -37 100q122 120 170 120q27 26 59 108v3q0 9 -10 9l30 84l49 228
q9 43 9 84q0 145 -118 252l21 96q5 24 41 24z" />
    <glyph glyph-name="R" unicode="R" horiz-adv-x="1116" 
d="M434 1392h84q20 -3 20 -18q0 -3 -1 -6l-89 -420l-4 -72l-17 -24q5 -16 5 -27q0 -5 -1 -9h-12q6 -17 6 -28q0 -4 -1 -8q-3 -15 -38 -120q5 -18 5 -30v-6h-12l-1 -4q0 -8 10 -8l-37 -120l-100 -468l-17 -24l-57 12l-27 -12q-33 5 -33 52q0 19 5 44q3 12 15 12l1 60
l252 1188q4 17 44 36zM791 1380h72q342 0 342 -341q0 -15 -1 -31l-5 -24q-48 -225 -324 -396l144 -564l-53 -24q-21 12 -33 12l-63 -12q-132 564 -180 564l-103 24q40 132 64 132h144q168 0 272 264q1 16 1 32q0 220 -187 220h-108q-18 0 -29 36l18 84q9 24 29 24z" />
    <glyph glyph-name="S" unicode="S" 
d="M830 1392q175 0 273 -240l6 -84l-3 -12q-5 -24 -29 -24h-36q-94 0 -102 84q-52 108 -181 108h-72q-151 0 -236 -264q-2 -8 -2 -16q0 -119 374 -212q182 -98 182 -245q0 -27 -6 -55q-66 -308 -440 -432h-48q-268 0 -327 324l5 24l27 12l57 -12q24 12 51 12
q34 -204 184 -204h72q228 55 262 216l17 24q4 20 4 39q0 171 -356 225q-202 92 -202 258q0 32 7 66q61 287 423 408h96z" />
    <glyph glyph-name="T" unicode="T" horiz-adv-x="996" 
d="M554 1392l-3 -12l27 12h336q268 0 268 -34v-2l-20 -96q-5 -24 -29 -24h-120q-180 0 -196 -72q-21 -156 -41 -252l-5 -24q-3 -12 -15 -12l7 -24q-165 -720 -190 -840l-27 -12h-84q-17 0 -28 36l120 564q2 12 14 12l-7 24l21 96l27 72q-4 9 -4 23q0 16 5 37l2 12
q3 12 15 12q-5 18 -5 30v6q3 13 20 36l3 72l5 24q3 12 15 12l-7 24q3 12 15 12q5 23 5 42q0 90 -109 90h-180q-20 0 -20 16q0 4 1 8l7 36q3 12 15 12l-7 24l5 24q5 24 164 36z" />
    <glyph glyph-name="U" unicode="U" horiz-adv-x="1044" 
d="M1216 1404q-3 -38 -3 -61q0 -35 7 -35l-22 -48q-69 -381 -106 -552l-17 -24v-3q0 -9 10 -9q-3 -13 -20 -36l-11 -108q-92 -434 -421 -516q-44 0 -111 -12q-284 0 -327 324q1 63 13 120l90 420q4 20 4 35t-4 25l28 72l79 372q9 24 29 24h96q17 0 28 -36l-204 -960v-15
q0 -213 192 -213h36q160 0 288 228l-7 24l207 972h60z" />
    <glyph glyph-name="V" unicode="V" horiz-adv-x="1044" 
d="M1204 1404v-3q0 -9 10 -9q2 12 14 12q5 -18 5 -30v-6q-11 -49 -593 -1320q-4 -19 -34 -48l-57 12h-84q-31 0 -70 1368l27 12h96q30 0 47 -624q7 -276 86 -276h12q106 185 443 900q49 0 98 12z" />
    <glyph glyph-name="W" unicode="W" horiz-adv-x="1764" 
d="M436 1404q10 0 10 -9v-3l26 12q84 0 84 -100q0 -9 -1 -20q16 -716 45 -804q109 0 277 456q196 403 243 468l22 -12q68 12 98 12q24 -60 52 -888q17 0 28 -36q94 0 238 384q100 189 256 528h108q21 0 23 -60l-616 -1320l-27 -12h-120q-40 0 -48 792q-10 120 -82 120
q-129 -211 -446 -912h-132q-36 40 -44 696q-16 39 -35 684z" />
    <glyph glyph-name="X" unicode="X" horiz-adv-x="1068" 
d="M472 1404h48q37 0 165 -468q33 0 33 -10v-2q79 0 383 444l41 24h96l21 -12q-13 -61 -449 -648q-17 -20 -25 -60l194 -612l-5 -24q-5 -24 -29 -24h-108q-110 345 -182 444h-36q-83 -63 -373 -456h-12l3 12l-27 -12h-24q-64 0 -74 48q465 605 474 648l10 48
q-157 444 -201 636q45 24 77 24z" />
    <glyph glyph-name="Y" unicode="Y" horiz-adv-x="1044" 
d="M393 1368h108q74 -79 172 -432q43 -24 79 -24q293 380 373 456q100 -9 100 -33v-3l-2 -12l-474 -648q-16 -20 -25 -60l-125 -588q-5 -24 -29 -24h-84q-20 0 -20 42q0 32 12 90l38 180q14 63 35 108q2 63 14 120l28 132q-18 104 -205 672z" />
    <glyph glyph-name="Z" unicode="Z" 
d="M431 1380h612q149 0 149 -33v-3l-28 -132q-7 -30 -680 -828q-111 -97 -152 -204q28 -20 173 -36q23 12 50 12l-2 -12q12 0 14 12q139 -12 202 -12h144q20 -3 20 -18q0 -3 -1 -6l-18 -84q-8 -36 -200 -36h-60q-27 0 -45 12q-12 0 -15 -12q-39 12 -45 12l-87 -12
q-10 0 -10 8l1 4l-87 -12h-108q-148 0 -148 33v3l12 60q3 12 15 12l-7 24l8 36q21 62 407 504q354 394 422 516q-54 48 -194 48h-36l-87 -12l3 12l-27 -12h-228q-17 0 -28 36l18 84q3 17 43 36z" />
    <glyph glyph-name="bracketleft" unicode="[" horiz-adv-x="636" 
d="M437 1578q10 24 30 24h374q17 -3 17 -17q0 -3 -1 -7l-23 -108q-5 -24 -101 -36q-80 12 -132 12q-45 -44 -53 -84l-300 -1410q-4 -19 -4 -34q0 -74 91 -74l21 -12q27 0 51 12q86 -11 86 -34v-2l-20 -96q-5 -24 -27 -24l-111 -12h-12l-107 12h-60q-27 0 -51 -12
q-64 15 -64 34v2z" />
    <glyph glyph-name="backslash" unicode="\" horiz-adv-x="672" 
d="M513 1368q24 0 28 -204q36 -903 37 -1128q-8 -36 -32 -36h-120q5 50 5 99q0 59 -7 117l-36 1128q4 20 29 24h96z" />
    <glyph glyph-name="bracketright" unicode="]" horiz-adv-x="636" 
d="M470 -300q-9 -24 -29 -24h-374q-18 3 -18 18q0 3 1 6l23 108q5 24 102 36q79 -12 131 -12q46 44 54 84l300 1410q4 19 4 34q0 74 -91 74l-22 12q-27 0 -50 -12q-87 11 -87 34v2l21 96q5 24 27 24l111 12h12l107 -12h60q27 0 51 12q64 -15 64 -34v-2z" />
    <glyph glyph-name="asciicircum" unicode="^" horiz-adv-x="1044" 
d="M1072 612h-108q-75 79 -172 432q-43 24 -79 24q-293 -380 -373 -456q-100 9 -100 33v3l2 12l474 648q16 20 95 60l61 -60q18 -104 205 -672z" />
    <glyph glyph-name="underscore" unicode="_" horiz-adv-x="1164" 
d="M413 -172h-8l2 1l-41 9q-3 -12 -39 -12h-184l-21 12q-3 -12 -15 -12h-72q-60 0 -64 36l18 84q4 20 29 24h448l440 2q50 0 129 -12q21 12 75 12q40 -16 40 -33v-3l-17 -84q-6 -24 -30 -24q-186 0 -386 -12l2 12q-12 0 -14 -12l-106 12h-174l-2 -2z" />
    <glyph glyph-name="grave" unicode="`" horiz-adv-x="584" 
d="M739 1500h-54q-197 59 -241 108q9 41 106 132h65q110 -47 196 -194q-32 -46 -72 -46z" />
    <glyph glyph-name="a" unicode="a" horiz-adv-x="1176" 
d="M832 1404q80 -12 103 -24l-406 -840q-1 -4 -1 -9q0 -31 40 -87l-7 -36l-30 -84h-72q-48 0 -186 -312h-144q-20 0 -20 16q0 4 1 8q454 950 657 1344zM1016 1080h12q51 -628 51 -957q0 -61 -2 -111l-27 -12h-108q-34 0 -56 300q-43 0 -43 20v4l-27 -12q-40 17 -40 33v3
l23 108q68 38 75 72l-11 288q119 264 153 264z" />
    <glyph glyph-name="b" unicode="b" horiz-adv-x="1164" 
d="M451 1416h72q10 0 10 -8l-1 -4l27 12h12q18 0 18 -20q0 -7 -2 -16l-28 -192q-17 -23 -20 -36l-1 -4q0 -8 10 -8l-37 -120l-212 -996l-17 -24l-57 12h-96q-20 0 -20 16q0 4 1 8l283 1332q4 19 58 48zM883 1416q21 -12 33 -12t15 12q285 0 349 -336q-2 -9 -4 -72
q-21 -101 -169 -288l-3 -12q51 -139 51 -237q0 -34 -6 -63q-58 -271 -406 -384q-49 -12 -98 -12h-120q-20 0 -20 42q0 32 12 90l55 36q13 0 34 -12q324 0 375 240q7 32 7 59q0 157 -225 157q-12 0 -15 -12q-112 12 -112 34v2l23 108q9 24 29 24h96l69 -12q204 58 233 192
l3 12q9 45 9 82q0 182 -229 182h-84q-20 0 -20 16q0 4 1 8l25 120q5 24 92 36z" />
    <glyph glyph-name="c" unicode="c" horiz-adv-x="1032" 
d="M854 1392q244 0 306 -312l-11 -48q-5 -24 -29 -24h-108q-12 0 -65 144q-69 72 -153 72h-24q-228 0 -286 -276l-23 -108q-3 -14 -3 -23q0 -13 7 -13l-25 -60l-59 -276q-12 -55 -12 -101q0 -172 162 -211h24q183 0 296 204q35 36 43 36q27 0 46 -12q25 12 38 12
q21 -12 34 -12l-11 -48q-48 -228 -419 -336h-108q-291 79 -291 287q0 35 8 73l81 384q9 43 11 108l17 24l4 72q80 379 514 444h36z" />
    <glyph glyph-name="d" unicode="d" horiz-adv-x="1164" 
d="M451 1416h132l-19 -144l-260 -1224q-7 -33 -130 -48q-52 14 -52 33v3l2 12q3 12 15 12l-7 24l33 156q3 12 3 22q0 14 -5 26q17 21 22 48q2 8 2 13q0 11 -8 11l29 84l54 252q3 14 3 23q0 13 -7 13l24 60l125 588q4 17 44 36zM832 1404h204q239 0 259 -252q-6 -85 -19 -144
h-12v-3q0 -9 10 -9l-25 -60l-71 -336q-15 -69 -29 -192l-17 -24l7 -24q-127 -348 -386 -348q-77 12 -154 12h-12l-62 -12l-7 24l23 108q3 17 43 36h60l123 12l-3 -12q180 0 216 168q-5 12 -5 26q0 10 3 22q9 40 25 60q2 65 11 108l18 84q2 12 14 12q-5 16 -5 27q0 5 1 9
l17 24l1 4q0 8 -10 8l42 144l36 168q8 39 8 71q0 133 -145 133h-192q-20 0 -20 16q0 4 1 8l23 108q9 24 29 24z" />
    <glyph glyph-name="e" unicode="e" 
d="M422 1392h744q20 -3 20 -18q0 -3 -1 -6l-23 -108q-5 -24 -104 -36q-79 12 -129 12h-132l-63 -12l3 12l-27 -12q-43 0 -105 12q-26 -12 -39 -12l1 4q0 8 -10 8q-46 -44 -54 -84l-61 -288q-7 -32 -7 -53q0 -38 22 -43h360q20 -3 20 -18q0 -3 -1 -6l-20 -96q-5 -24 -80 -36
l3 12q-12 0 -15 -12l-57 12q-30 0 -99 -12l-57 12l-27 -12q-18 12 -45 12h-12q-18 0 -44 -36l-66 -312q-4 -17 -4 -32q0 -76 101 -76q79 -12 249 -12h132q27 0 51 12q88 -11 88 -34v-2l-20 -96q-5 -24 -29 -24h-228q-78 0 -243 -12l3 12q-12 0 -15 -12l-117 12h-60
q-27 0 -51 -12q-64 15 -64 33v3l283 1332q9 24 29 24z" />
    <glyph glyph-name="f" unicode="f" horiz-adv-x="984" 
d="M422 1392h396q10 0 10 -8l-1 -4l27 12h300q20 -3 20 -18q0 -3 -1 -6l-21 -96q-3 -17 -43 -36h-552q-19 0 -58 -48l-64 -300q-5 -23 -5 -42q0 -90 109 -90h276l-8 -36l-1 -60h-12l7 -24q-5 -24 -139 -36q-19 12 -46 12h-36l-62 -12l2 12l-26 -12h-84q-42 -83 -55 -144
l-5 -24l-6 -84h-12l7 -24l-25 -60l7 -24l-17 -24q5 -16 5 -27q0 -5 -1 -9l-17 -24l7 -24q-33 -114 -76 -132l-57 12q-45 -12 -51 -12l-7 24l286 1344q9 24 29 24z" />
    <glyph glyph-name="g" unicode="g" horiz-adv-x="1032" 
d="M830 1392q270 0 315 -324l2 -48q-12 0 -15 -12q-153 0 -153 60q0 6 1 12q-53 156 -159 156q-288 0 -357 -324l-102 -480q-5 -37 -5 -69q0 -207 198 -207q264 56 306 252l5 24q2 8 2 15q0 57 -107 57q-101 0 -101 31q0 3 1 5l25 120h48q27 0 51 12q21 -12 33 -12
q24 0 27 12l223 -24l-18 -84q-3 -12 -15 -12v-3q0 -9 10 -9q-90 -424 -398 -516q-107 -24 -125 -24q-273 0 -332 300q27 206 27 240l27 72l31 144q2 11 2 21q0 15 -4 27q16 21 22 48l18 84q3 12 3 22q0 14 -5 26q59 277 396 396q66 12 123 12z" />
    <glyph glyph-name="h" unicode="h" 
d="M434 1392q79 -12 129 -12q-38 -124 -42 -144q-1 -2 -1 -8q0 -12 3 -40l-18 -24q5 -12 5 -26q0 -10 -3 -22q-2 -12 -14 -12l7 -24l-6 -24q-14 -66 -47 -168q5 -16 5 -27q0 -5 -1 -9h-12q-2 -9 -2 -16q0 -56 95 -56h300q62 0 97 60q22 162 39 240l61 288q9 24 29 24l21 -12
l27 12l21 -12q24 12 51 12l16 -36l-237 -1116q-3 -12 -15 -12l7 -24l-12 -60l-28 -72q4 -10 4 -25t-4 -35l-27 -12h-36q-27 0 -45 12q-26 -12 -39 -12l-16 36h12q-5 18 -5 30v6q8 36 20 36l13 120l26 120q9 43 35 108q5 45 5 76q0 80 -32 80h-108q-10 0 -10 8l1 4
q-12 0 -15 -12l-81 12q-216 0 -234 -84l-8 -36v-3q0 -9 10 -9l-25 -60l-13 -60q-3 -14 -3 -23q0 -13 7 -13l-24 -60l-54 -252q-5 -24 -29 -24h-108l-21 12q2 13 19 36l11 108l30 84q2 11 8 96q35 106 40 132v12q0 41 6 72h12l-7 24q3 12 15 12l-7 24l18 84q2 12 14 12l-6 24
l17 24v3q0 9 -10 9q5 24 17 24q31 198 52 300l49 228q22 72 51 72z" />
    <glyph glyph-name="i" unicode="i" horiz-adv-x="372" 
d="M434 1392q10 0 10 -8l-1 -4l27 12h60q24 -9 24 -43q0 -13 -3 -29l-276 -1296q-5 -24 -29 -24h-120q-20 0 -20 16q0 4 1 8l5 24q8 36 20 36l1 60l257 1212q4 17 44 36z" />
    <glyph glyph-name="j" unicode="j" horiz-adv-x="1020" 
d="M1060 1404q6 0 46 -12l86 12v-3q0 -9 10 -9q-35 -222 -57 -324l-13 -60q-7 -36 -19 -36l-1 -60l-107 -504q-67 -316 -447 -408h-60q-277 0 -330 312l8 36l27 12h96q111 -204 220 -204h12q266 67 301 228l211 996z" />
    <glyph glyph-name="k" unicode="k" horiz-adv-x="1116" 
d="M424 1404h108q25 -9 25 -42q0 -13 -4 -30l-71 -336l-28 -72q-8 -62 -8 -97q0 -47 14 -47h48q141 116 547 540q76 72 87 72h132l31 -24l-564 -564l-5 -24q247 -705 247 -754v-2q-5 -24 -29 -24h-120q-15 4 -232 600l-22 12h-24q-182 -123 -202 -216l-79 -372
q-5 -24 -29 -24q-10 0 -10 8l1 4l-27 -12h-84q-20 0 -20 16q0 4 1 8l288 1356q9 24 29 24z" />
    <glyph glyph-name="l" unicode="l" horiz-adv-x="1020" 
d="M424 1404h108q19 0 19 -22q0 -6 -2 -14q-3 -12 -15 -12l-1 -60l-219 -1032q-3 -15 -3 -27q0 -57 69 -57h288q27 0 46 -12q12 0 14 12l58 -12h132q17 0 28 -36l-23 -108q-5 -24 -29 -24q-104 12 -129 12q-26 -12 -39 -12l3 12l-27 -12h-60q-66 0 -165 12l-27 -12
q-10 0 -10 8l1 4l-63 -12h-240l-21 12q114 594 184 924l56 264l27 72q-3 9 -3 23q0 16 4 37l10 48q9 24 29 24z" />
    <glyph glyph-name="m" unicode="m" horiz-adv-x="1212" 
d="M532 1404q57 0 88 -264q39 -76 57 -240q47 -132 68 -132h36q33 0 442 612l27 12q55 -3 55 -21v-3l26 12h36q20 -3 20 -18q0 -3 -1 -6l-35 -168q-3 -14 -3 -23q0 -13 7 -13l-25 -60l-224 -1056q-5 -24 -29 -24h-96q-20 0 -20 16q0 4 1 8l5 24q43 204 87 468q26 63 28 72
q1 62 18 144l15 72v3q0 19 -37 45q-61 -1 -366 -480h-24q-16 0 -101 372q-39 107 -61 108h-48l-42 -84q-3 -14 -3 -23q0 -13 7 -13l-25 -60l-142 -672l-123 -12h-12q-20 0 -20 16q0 4 1 8l23 108q26 120 65 360h12l-7 24l58 276q12 57 38 120q-1 8 -1 16q0 40 12 92l33 156
q3 12 15 12l-7 24l5 24q8 40 24 60l4 72l5 24h84q27 0 50 12z" />
    <glyph glyph-name="n" unicode="n" 
d="M419 1380h108q209 -831 258 -876h60q54 139 60 168v3q0 9 -10 9l25 60l130 612q9 24 29 24h84q18 0 29 -36l-268 -1260q-3 -12 -15 -12l7 -24l-2 -12q-4 -17 -44 -36h-108q-46 110 -177 636q-26 153 -88 204h-36q-36 0 -82 -216l-46 -216q-3 -12 -15 -12l7 -24l-74 -348
q-5 -24 -29 -24h-96q-20 0 -20 16q0 4 1 8l283 1332q9 24 29 24z" />
    <glyph glyph-name="o" unicode="o" horiz-adv-x="1044" 
d="M976 1344q175 -98 175 -304q0 -59 -15 -128h-12l7 -24l-84 -396q-71 -332 -347 -444h-24l-7 24l16 72q181 120 219 300l115 540q5 25 5 49q0 109 -107 203l18 84q5 24 41 24zM649 1332h24l-2 -12q-3 -12 -15 -12l7 -24l-3 -12q-10 -51 -153 -156q-40 -78 -47 -108
l-120 -564q-9 -45 -9 -84q0 -125 92 -204l-18 -84q-5 -24 -29 -24q-179 112 -179 300q0 46 11 96l51 240q10 43 11 108l17 24q1 4 1 9q0 11 -5 27q89 418 366 480z" />
    <glyph glyph-name="p" unicode="p" horiz-adv-x="1092" 
d="M434 1392h12q10 0 10 -8l-1 -4l27 12h24q20 -3 20 -18q0 -3 -1 -6l-10 -48q-3 -12 -15 -12l7 -24l-112 -528q-3 -12 -15 -12l7 -24l-64 -300q-5 -27 -22 -48l7 -24q-40 -131 -60 -228l-21 -96q-5 -24 -29 -24h-72q-20 0 -20 16q0 4 1 8l283 1332q4 17 44 36zM815 1380
q290 0 354 -144q28 -36 48 -168l-20 -96q-141 -396 -469 -396h-84q-16 0 -16 46q0 28 6 74l26 12h60q306 25 359 276q-4 264 -208 264q-26 -12 -38 -12q-69 0 -69 57q0 12 3 27h12l-7 24q3 17 43 36z" />
    <glyph glyph-name="q" unicode="q" horiz-adv-x="1152" 
d="M688 1344q3 -2 3 -14q0 -25 -14 -94h-12l-3 -12l7 -24q-188 -96 -229 -288l-97 -456q-7 -34 -7 -83q0 -56 9 -133l-23 -108q-5 -24 -29 -24q-98 43 -98 225q0 105 32 255l71 336q61 286 390 420zM1000 1344q185 -89 185 -306q0 -63 -16 -138q-11 -55 -11 -96v-12
q-22 -46 -32 -96l-28 -132l-1 -60h-12v-3q0 -9 10 -9q-58 -160 -81 -264q9 0 64 -96q-68 -84 -90 -84h-12q-40 48 -86 48h-36q-158 -96 -296 -96q-6 29 -6 57q0 26 5 51q217 68 227 108q2 10 2 20q0 44 -37 100q122 120 170 120q27 26 59 108v3q0 9 -10 9l30 84l49 228
q9 43 9 84q0 145 -118 252l21 96q5 24 41 24z" />
    <glyph glyph-name="r" unicode="r" horiz-adv-x="1116" 
d="M434 1392h84q20 -3 20 -18q0 -3 -1 -6l-89 -420l-4 -72l-17 -24q5 -16 5 -27q0 -5 -1 -9h-12q6 -17 6 -28q0 -4 -1 -8q-3 -15 -38 -120q5 -18 5 -30v-6h-12l-1 -4q0 -8 10 -8l-37 -120l-100 -468l-17 -24l-57 12l-27 -12q-33 5 -33 52q0 19 5 44q3 12 15 12l1 60
l252 1188q4 17 44 36zM791 1380h72q342 0 342 -341q0 -15 -1 -31l-5 -24q-48 -225 -324 -396l144 -564l-53 -24q-21 12 -33 12l-63 -12q-132 564 -180 564l-103 24q40 132 64 132h144q168 0 272 264q1 16 1 32q0 220 -187 220h-108q-18 0 -29 36l18 84q9 24 29 24z" />
    <glyph glyph-name="s" unicode="s" 
d="M830 1392q175 0 273 -240l6 -84l-3 -12q-5 -24 -29 -24h-36q-94 0 -102 84q-52 108 -181 108h-72q-151 0 -236 -264q-2 -8 -2 -16q0 -119 374 -212q182 -98 182 -245q0 -27 -6 -55q-66 -308 -440 -432h-48q-268 0 -327 324l5 24l27 12l57 -12q24 12 51 12
q34 -204 184 -204h72q228 55 262 216l17 24q4 20 4 39q0 171 -356 225q-202 92 -202 258q0 32 7 66q61 287 423 408h96z" />
    <glyph glyph-name="t" unicode="t" horiz-adv-x="996" 
d="M554 1392l-3 -12l27 12h336q268 0 268 -34v-2l-20 -96q-5 -24 -29 -24h-120q-180 0 -196 -72q-21 -156 -41 -252l-5 -24q-3 -12 -15 -12l7 -24q-165 -720 -190 -840l-27 -12h-84q-17 0 -28 36l120 564q2 12 14 12l-7 24l21 96l27 72q-4 9 -4 23q0 16 5 37l2 12
q3 12 15 12q-5 18 -5 30v6q3 13 20 36l3 72l5 24q3 12 15 12l-7 24q3 12 15 12q5 23 5 42q0 90 -109 90h-180q-20 0 -20 16q0 4 1 8l7 36q3 12 15 12l-7 24l5 24q5 24 164 36z" />
    <glyph glyph-name="u" unicode="u" horiz-adv-x="1044" 
d="M1216 1404q-3 -38 -3 -61q0 -35 7 -35l-22 -48q-69 -381 -106 -552l-17 -24v-3q0 -9 10 -9q-3 -13 -20 -36l-11 -108q-92 -434 -421 -516q-44 0 -111 -12q-284 0 -327 324q1 63 13 120l90 420q4 20 4 35t-4 25l28 72l79 372q9 24 29 24h96q17 0 28 -36l-204 -960v-15
q0 -213 192 -213h36q160 0 288 228l-7 24l207 972h60z" />
    <glyph glyph-name="v" unicode="v" horiz-adv-x="1044" 
d="M1204 1404v-3q0 -9 10 -9q2 12 14 12q5 -18 5 -30v-6q-11 -49 -593 -1320q-4 -19 -34 -48l-57 12h-84q-31 0 -70 1368l27 12h96q30 0 47 -624q7 -276 86 -276h12q106 185 443 900q49 0 98 12z" />
    <glyph glyph-name="w" unicode="w" horiz-adv-x="1764" 
d="M436 1404q10 0 10 -9v-3l26 12q84 0 84 -100q0 -9 -1 -20q16 -716 45 -804q109 0 277 456q196 403 243 468l22 -12q68 12 98 12q24 -60 52 -888q17 0 28 -36q94 0 238 384q100 189 256 528h108q21 0 23 -60l-616 -1320l-27 -12h-120q-40 0 -48 792q-10 120 -82 120
q-129 -211 -446 -912h-132q-36 40 -44 696q-16 39 -35 684z" />
    <glyph glyph-name="x" unicode="x" horiz-adv-x="1068" 
d="M472 1404h48q37 0 165 -468q33 0 33 -10v-2q79 0 383 444l41 24h96l21 -12q-13 -61 -449 -648q-17 -20 -25 -60l194 -612l-5 -24q-5 -24 -29 -24h-108q-110 345 -182 444h-36q-83 -63 -373 -456h-12l3 12l-27 -12h-24q-64 0 -74 48q465 605 474 648l10 48
q-157 444 -201 636q45 24 77 24z" />
    <glyph glyph-name="y" unicode="y" horiz-adv-x="1044" 
d="M393 1368h108q74 -79 172 -432q43 -24 79 -24q293 380 373 456q100 -9 100 -33v-3l-2 -12l-474 -648q-16 -20 -25 -60l-125 -588q-5 -24 -29 -24h-84q-20 0 -20 42q0 32 12 90l38 180q14 63 35 108q2 63 14 120l28 132q-18 104 -205 672z" />
    <glyph glyph-name="z" unicode="z" 
d="M431 1380h612q149 0 149 -33v-3l-28 -132q-7 -30 -680 -828q-111 -97 -152 -204q28 -20 173 -36q23 12 50 12l-2 -12q12 0 14 12q139 -12 202 -12h144q20 -3 20 -18q0 -3 -1 -6l-18 -84q-8 -36 -200 -36h-60q-27 0 -45 12q-12 0 -15 -12q-39 12 -45 12l-87 -12
q-10 0 -10 8l1 4l-87 -12h-108q-148 0 -148 33v3l12 60q3 12 15 12l-7 24l8 36q21 62 407 504q354 394 422 516q-54 48 -194 48h-36l-87 -12l3 12l-27 -12h-228q-17 0 -28 36l18 84q3 17 43 36z" />
    <glyph glyph-name="braceleft" unicode="{" horiz-adv-x="774" 
d="M549 -324q-262 146 -262 455q0 90 22 193q-82 48 -82 229q0 20 1 42l23 106q77 202 194 262q107 491 517 657h36l11 -36l-23 -108q-273 -180 -330 -450l-35 -166q-175 -92 -184 -130q-17 -26 -24 -58l-10 -48q-4 -17 -4 -33q0 -13 3 -25v-4q0 -39 129 -126q-2 -10 -8 -13
h5l-44 -207q-8 -37 -8 -74q0 -163 162 -304l-27 -126q-8 -36 -62 -36z" />
    <glyph glyph-name="bar" unicode="|" horiz-adv-x="372" 
d="M604 1740q25 -23 25 -45q0 -5 -1 -9l-386 -1818l-31 -90q6 0 6 -13q0 -14 -6 -41l-7 -36q-8 -36 -32 -36h-120q-18 0 -18 20q0 7 2 16l413 1944q19 90 59 108h60l20 -18q4 18 16 18z" />
    <glyph glyph-name="braceright" unicode="}" horiz-adv-x="774" 
d="M500 1620q263 -146 263 -456q0 -89 -22 -192q81 -48 81 -229q0 -20 -1 -42l-23 -106q-76 -202 -193 -262q-108 -491 -518 -657h-36l-10 36l23 108q272 180 329 450l36 166q174 92 183 130q18 26 25 58l10 48q4 16 4 31q0 14 -4 27v4q0 39 -128 126q2 10 7 13h-4l44 207
q8 37 8 73q0 164 -162 305l27 126q7 36 61 36z" />
    <glyph glyph-name="asciitilde" unicode="~" horiz-adv-x="1072" 
d="M587 680q-23 14 -49 14h-24q-27 0 -51 -12q-32 -1 -117 -156q-10 0 -10 9v3l-26 -12h-72q-20 0 -20 16q0 4 1 8l15 72q41 192 291 240h48q42 0 129 -72l79 -82q22 -14 49 -14h24q27 0 50 12q32 1 117 156q10 0 10 -9v-3l26 12h72q20 0 20 -16q0 -4 -1 -8l-15 -72
q-41 -192 -291 -240h-48q-41 0 -129 72z" />
    <glyph glyph-name="exclamdown" unicode="&#xa1;" horiz-adv-x="360" 
d="M163 -336h-96q-20 3 -20 18q0 3 1 6l168 792l1 60h12l-7 24l17 24l3 72q39 12 41 24l58 -12q44 12 50 12l7 -24l-206 -972q-9 -24 -29 -24zM425 900h-108l11 48v60q35 24 41 24h84q20 0 20 -16q0 -4 -1 -8l-18 -84q-8 -24 -29 -24z" />
    <glyph glyph-name="cent" unicode="&#xa2;" horiz-adv-x="768" 
d="M561 1032h84q20 -3 20 -18q0 -3 -1 -6l-22 -106q168 -97 168 -208q0 -16 -3 -32l-27 -12h-96q-65 84 -114 84h-24q-156 0 -213 -266l-7 -36q-3 -16 -3 -30q0 -92 138 -126q61 11 179 108q84 -12 103 -24q-29 -136 -251 -220q-39 -140 -66 -140h-104q-3 168 -28 168
q-108 61 -108 191q0 40 10 85l25 114q48 228 272 320q44 154 68 154z" />
    <glyph glyph-name="sterling" unicode="&#xa3;" 
d="M831 0l-55 13h-654q-13 3 -13 18q0 4 1 8l19 90q17 39 59 39h49q7 0 7 -7q0 -3 -1 -6l19 13h69q16 101 43 228q8 36 20 36l1 60l26 126h-22q-17 0 -17 10v3l-36 -13h-100q-9 0 -9 12q0 6 2 14q3 13 10 13l-2 26l5 25q3 13 10 13l-1 26q5 24 68 39l43 -13h82l53 247
q63 295 319 374l82 10q237 0 237 -223q0 -55 -15 -125l-36 -12h-116q1 15 1 28q0 136 -100 136h-22q-147 -63 -170 -172l-2 -16l-53 -247h264q9 -3 9 -16q0 -4 -1 -10l-19 -90q-15 -39 -49 -39h-39q-5 0 -5 6q0 3 1 7l-16 -13h-178l-95 -450h231q22 0 22 -10v-3l44 13h124
q13 0 13 -14q0 -5 -2 -12q-3 -13 -11 -13l3 -26l-5 -25q-3 -13 -11 -13l2 -26q-5 -24 -83 -39z" />
    <glyph glyph-name="currency" unicode="&#xa4;" horiz-adv-x="1228" 
d="M478 365l-40 -33l-34 -11q3 -3 3 -7v-2q-1 -6 -82 -73q-44 -36 -76 -36q-12 0 -23 6l-56 71q-5 7 -5 14v4q3 11 13 23l155 128q-14 13 -28 28q-11 40 -14 102l10 48q45 156 59 222q11 48 76 88l-100 128q-4 9 -4 16q0 2 1 5q2 11 12 20l87 71q13 6 25 6q31 0 61 -36
l108 -138q40 11 86 20l-5 -24l-10 -102q-188 -38 -202 -102l-24 -114q-11 -51 -11 -89q0 -101 79 -101l59 -4l-29 -136h-24q-34 0 -67 8zM1050 1029q44 32 105 71q11 27 66 73q39 15 58 15q13 0 17 -6l56 -71q6 -9 6 -17v-4q-2 -10 -15 -20q-78 -64 -156 -132q3 -6 7 -11
q40 0 40 -81v-15l-23 -108q-40 -189 -132 -273l104 -133q6 -9 6 -16v-4q-2 -11 -14 -21l-87 -71q-8 -7 -20 -7q-19 0 -51 16q-46 38 -46 64q-41 49 -70 86q-32 -6 -81 -13q-21 0 -21 14v4l26 118q162 29 178 106l41 194q1 6 1 13q0 61 -131 107l23 110l3 20l49 -2
q32 0 61 -6z" />
    <glyph glyph-name="yen" unicode="&#xa5;" horiz-adv-x="1044" 
d="M667 348q-3 -17 -7 -36l-38 -180q-28 -132 -64 -132h-84q-20 0 -20 16q0 4 1 8l69 324h-150l-90 -12q-103 13 -103 34v2l17 24q-10 0 -10 8l1 4l5 24l17 24q-10 0 -10 9v3q6 24 31 24h186l58 -12q3 12 41 12h38l28 133l-119 -9v4q0 8 -7 8l-2 -12q-68 12 -203 12
q-13 0 -13 13q0 5 2 11l17 84q4 18 43 36h147q51 0 102 -1l-167 549l2 12q6 26 116 36q48 -76 179 -456q36 0 89 24q248 353 356 432h108l-5 -24q-306 -404 -425 -574h286q13 -3 13 -17q0 -3 -1 -7l-18 -84q-17 -36 -60 -36h-52q-7 0 -7 7q0 2 1 5l-20 -12h-133
q-23 0 -23 10v2l-33 -9v-1h-6l-7 -2l-1 2h-15l-18 -88q-5 -23 -12 -48h164l22 -12q3 12 15 12h75q62 0 66 -36l-18 -84q-4 -20 -30 -24h-324z" />
    <glyph glyph-name="brokenbar" unicode="&#xa6;" horiz-adv-x="372" 
d="M64 -348q-31 10 -31 20v2l99 466l20 37q-2 0 -2 8q0 39 52 283l3 15q3 15 27 15h120q21 0 21 -12v-3l-168 -787q-7 -37 -45 -44h-60l-22 7q-2 -7 -14 -7zM604 1740q31 -10 31 -21v-1l-156 -736l-20 -37q8 0 8 -10q0 -5 -1 -11l-3 -15q-3 -15 -27 -15h-120q-21 0 -21 12v3
l168 787q7 37 45 44h60l22 -7q2 7 14 7z" />
    <glyph glyph-name="section" unicode="&#xa7;" 
d="M493 -308h-48q-268 0 -328 324l6 24l26 12l58 -12q23 12 50 12q34 -204 185 -204h72q227 55 262 216l17 24q4 20 4 38q0 120 -173 182h-49q-153 0 -238 106q-97 78 -97 185q0 10 1 20l35 2l123 -5q8 -28 19 -51q56 -54 198 -101h29q171 41 233 143q63 7 130 7q6 0 7 -1
t1 -3v-1l-2 -5q-66 -128 -205 -212q129 -89 129 -213q0 -27 -6 -55q-65 -308 -439 -432zM430 786h-140q-2 3 -2 6v4q65 128 210 212q-128 86 -128 218q0 32 7 66q61 287 422 408h96q176 0 273 -240q5 -63 5 -85q0 -8 -1 -11q-5 -24 -29 -24h-36q-94 0 -102 84
q-52 108 -181 108h-72q-151 0 -236 -264q-2 -8 -2 -17q0 -91 221 -167h29q96 0 169 -71q133 -88 136 -211v-8q-2 -7 -8 -7l-32 1l-152 -1q-3 10 -3 21q-52 108 -181 108h-72q-102 0 -174 -120q-6 -10 -17 -10z" />
    <glyph glyph-name="dieresis" unicode="&#xa8;" horiz-adv-x="714" 
d="M492 1722q171 0 171 -40v-4l-25 -116q-28 -44 -45 -44h-96l-21 15q-3 -15 -15 -15h-12q-19 0 -19 19q0 4 1 10l28 131zM954 1722q17 0 17 -23v-8l-30 -142q-6 -31 -30 -31h-144l-30 31q49 173 73 173h144z" />
    <glyph glyph-name="copyright" unicode="&#xa9;" horiz-adv-x="1542" 
d="M956 1080h84q202 -130 202 -270q0 -21 -5 -42h-156q-51 96 -123 96q-124 -16 -143 -108l-31 -144q-2 -10 -2 -20q0 -61 85 -100h12q31 0 91 36v-3q0 -9 10 -9q27 72 51 72h84q40 0 76 -36q-96 -228 -264 -228q-3 -12 -39 -12h-48q-10 0 -10 8l1 4l-27 -12h-36
q-120 0 -175 192q-6 21 -6 48q0 36 10 84l23 108q50 235 336 336zM717 1368l-10 -48l-6 -84q-205 -116 -249 -324l7 -24l-3 -12q-2 -12 -14 -12l7 -24l-3 -12q-3 -12 -15 -12l7 -24l-5 -24q-14 -69 -30 -84q-50 -233 -50 -353q0 -127 56 -127l50 -48l-28 -132h-24
q-128 0 -213 240q-1 18 -1 39q0 70 8 165q3 12 15 12l6 84l23 108q2 12 14 12l1 4q0 8 -10 8q50 180 68 264l10 48q48 227 389 360zM1433 1380h12q135 0 182 -216q28 0 28 -80q0 -44 -8 -112l-18 -84h-24l-5 -24h24l-3 -12h-24l-8 -36h24l-5 -24h-24l-5 -24q22 0 22 -10v-2
q-126 -590 -323 -672q-8 -36 -147 -72q-19 0 -19 22q0 6 2 14q3 12 15 12l1 60l5 24q181 119 209 252l112 528q9 40 9 78q0 128 -101 222l26 120h48l-7 24z" />
    <glyph glyph-name="guillemotleft" unicode="&#xab;" horiz-adv-x="1334" 
d="M654 0l-463 270q-14 10 -14 63v20l47 73q97 34 575 265q1 1 3 1q3 0 5 -4l-11 -77l-20 -69q-117 -61 -293 -140q-47 -26 -52 -51q-1 -4 -1 -8q0 -13 11 -25q156 -99 253 -165q-7 -42 -16 -83l-14 -60q-2 -7 -10 -10zM1220 0l-463 270q-14 10 -14 63v20l47 73
q97 34 575 265q1 1 3 1q3 0 5 -4l-11 -77l-20 -69q-117 -61 -293 -140q-47 -26 -52 -51q-1 -4 -1 -8q0 -13 11 -25q156 -99 253 -165q-7 -42 -16 -83l-14 -60q-2 -7 -10 -10z" />
    <glyph glyph-name="logicalnot" unicode="&#xac;" horiz-adv-x="786" 
d="M671 618h-92l-220 -2q-25 0 -64 12q-11 -12 -38 -12q-17 15 -17 30q0 3 1 6l17 84q6 24 18 24q93 0 194 12l-2 -12q6 0 8 12l52 -12h87l1 2l5 -2h4l-1 -1l19 -9q3 12 21 12h56q7 2 17 3h84q20 0 22 -7l-5 -23l1 -4l-1 -5l-18 -84q-1 -8 -4 -14l-3 -10l-27 -137
q-3 -15 -20 -41q8 -4 8 -15q0 -3 -1 -7q-21 -15 -39 -15h-84q-23 0 -23 6v1q12 58 14 120h12v1q0 3 -11 3l19 33z" />
    <glyph glyph-name="uni00AD" unicode="&#xad;" horiz-adv-x="786" 
d="M621 764h4v-2l19 -9q3 13 21 13h92l9 -13q3 13 9 13h36q28 0 28 -33v-5l-19 -89q-5 -21 -18 -26h-224l-220 -2q-25 0 -63 13q-12 -13 -39 -13q-17 16 -17 32q0 3 1 6l19 90q5 25 17 25q93 0 195 13l-3 -13q6 0 9 13l51 -13h88l1 2z" />
    <glyph glyph-name="registered" unicode="&#xae;" horiz-adv-x="1542" 
d="M1407 1368q242 -114 242 -296q0 -31 -7 -64l-10 -48q-18 -84 -44 -264q-12 0 -15 -12q10 0 10 -9v-3l-23 -108l-30 -84q10 0 10 -8l-1 -4q-42 -124 -79 -204q-187 -240 -315 -240h-24l28 132l70 48q108 0 210 480q-3 5 -3 18q0 22 9 66l5 24l17 24q-10 0 -10 8l4 16
l17 24q-10 0 -10 9v3l3 12l17 24q10 46 10 87q0 147 -121 237l30 84zM672 1380l-3 -12l-16 -24h44l-25 -120q-170 -122 -208 -300l-112 -528q-5 -26 -5 -50q0 -106 95 -202l-5 -24l-24 -60q9 0 9 -9v-3q-8 -36 -30 -36q-107 34 -107 67q0 3 1 5q-81 44 -81 238q0 164 58 434
l46 216q55 192 96 192q132 216 256 216h11zM616 315l-22 4l-18 -7q-23 3 -23 30q0 10 3 23q1 7 9 7l-1 33l139 655q2 10 29 20h107q13 -2 13 -11v-2l-50 -232v-40l-11 -13q4 -11 4 -17v-3h-8q4 -11 4 -17v-3q-2 -8 -22 -66q4 -9 4 -16q0 -2 -1 -4h-8v-1q0 -5 7 -5l-22 -67
l-55 -258l-11 -13l-39 7l-7 -3l-4 -4l-5 1l-2 -1q-5 1 -10 3zM1144 312q-14 7 -22 7l-28 -7l-3 2l-12 -2l-1 6l-6 1l-43 -7q-103 311 -137 311l9 27q-7 0 -7 5v1h8q1 2 1 4q0 7 -4 16q13 48 21 63h47q113 0 170 116q-3 109 -138 109h-39q3 25 8 51q6 26 14 52q0 3 9 5l49 1
q238 0 238 -203v-2l-2 -13q-27 -124 -208 -219l111 -311z" />
    <glyph glyph-name="macron" unicode="&#xaf;" horiz-adv-x="612" 
d="M546 1704h245q68 -10 68 -56q0 -8 -2 -16l-13 -60q-4 -17 -89 -36h-245q-39 0 -74 36l5 24q3 12 30 12l-22 24q32 72 97 72z" />
    <glyph glyph-name="degree" unicode="&#xb0;" horiz-adv-x="1092" 
d="M546 676h-12q-135 0 -205 108q-40 0 -40 81v15l9 42h24l3 12h-24l1 6h24l4 18h-24l2 12h24l3 12q-23 0 -23 6q63 295 251 336q4 18 140 36q21 0 21 -13q0 -2 -1 -5q-1 -6 -13 -6l1 -50l-2 -12q-169 -59 -183 -126l-52 -244q-1 -7 -1 -13q0 -62 130 -117l-17 -80h-48
l9 -12zM811 682l5 24l1 62q193 58 210 142l-9 12l1 6q2 6 14 6l-10 12l1 6q2 6 14 6l-10 12l3 12q7 34 21 42q14 66 14 112q0 108 -76 108l-54 24l18 86h24q128 0 238 -120q12 -40 15 -102q-2 -6 -14 -6l3 -42l-11 -54q-1 -6 -13 -6v-2q0 -4 10 -4q-31 -90 -40 -132l-5 -24
q-24 -113 -350 -180z" />
    <glyph glyph-name="plusminus" unicode="&#xb1;" horiz-adv-x="1368" 
d="M752 617q-133 0 -267 -1q-50 0 -130 12q-20 -12 -74 -12q-40 17 -40 33v3l17 84q6 24 30 24q186 0 386 12l-2 -12q12 0 14 12l94 -11l105 493q4 22 28 22h84q18 0 27 -43q0 -22 -3 -38q-4 -18 -13 -27q-13 -74 -23 -119q-31 -144 -63 -289h45l1 2l10 -2h8l-2 -1l41 -9
q3 12 39 12h184l21 -12q3 12 15 12h72q60 0 64 -36l-18 -84q-4 -20 -29 -24q-240 0 -481 -1l-79 -367q-9 -22 -29 -22h-84q-25 8 -25 41q0 11 3 24l56 263q7 32 19 32zM858 0l3 12q-12 0 -15 -12l-105 12h-175l-2 -2l-9 2h-8l1 1l-41 9q-3 -12 -39 -12h-184l-21 12
q-3 -12 -15 -12h-72q-60 0 -64 36l18 84q4 20 29 24q444 0 888 2q50 0 130 -12q20 12 74 12q41 -17 41 -34v-2l-18 -84q-5 -24 -29 -24q-186 0 -387 -12z" />
    <glyph glyph-name="acute" unicode="&#xb4;" horiz-adv-x="584" 
d="M431 1546q148 147 278 194h65q51 -79 51 -120q0 -7 -1 -12q-65 -49 -287 -108h-55t-51 46z" />
    <glyph glyph-name="mu" unicode="&#xb5;" horiz-adv-x="1100" 
d="M444 1404l-2 -12l26 12h120q20 -3 20 -18q0 -3 -1 -6l-214 -1008q-4 -18 -4 -36q0 -112 165 -168h84q213 42 255 240l204 960q30 30 31 36l58 -12l86 12q-5 -52 -5 -79q0 -29 6 -29l-24 -60l-181 -852q-61 -287 -421 -396h-60q-183 0 -258 84h-12l-69 -324l-29 -84
q10 0 10 -8l-1 -4l-27 -12l-57 12l17 24h-12l-109 -24l1 4q0 8 -10 8q36 144 41 168l161 708l57 252q3 12 15 12l1 60q21 102 81 324q14 125 31 204z" />
    <glyph glyph-name="paragraph" unicode="&#xb6;" horiz-adv-x="990" 
d="M1157 1275l-334 -1570q-6 -29 -31 -29h-77q-20 0 -20 19q0 4 1 10l26 119q25 119 46 281l19 29q-3 13 -3 28t3 32l79 370l19 29q-11 0 -11 10l1 5l124 635l-76 10l-78 -12l-327 -1521q-4 -21 -47 -44h-13q-11 0 -11 10l1 5l-28 -15h-25q-20 4 -20 21q0 4 1 9l12 59
q3 15 16 15l-7 29l139 651q3 15 16 15l-7 30l19 88h-28q-229 0 -229 302q0 44 5 94l21 96q67 132 102 168q108 144 339 144l3 -2l3 2h74q161 -2 322 -2q5 -2 5 -11q0 -5 -2 -13l-17 -84z" />
    <glyph glyph-name="periodcentered" unicode="&#xb7;" horiz-adv-x="408" 
d="M452 798l14 -44l-28 -131q-6 -29 -30 -29h-12q-10 0 -10 10l1 5l-27 -15h-96q-17 0 -26 44l24 116q10 44 190 44z" />
    <glyph glyph-name="cedilla" unicode="&#xb8;" horiz-adv-x="540" 
d="M236 180h96q94 -161 94 -226q0 -8 -1 -14l-10 -48q-99 -240 -291 -240h-72q-20 0 -20 16q0 4 1 8l15 72l18 24q-10 0 -10 9v3q166 52 174 84q16 21 22 48l5 24q2 11 2 21q0 58 -70 111l18 84q9 24 29 24z" />
    <glyph glyph-name="guillemotright" unicode="&#xbb;" horiz-adv-x="1334" 
d="M680 0q-6 3 -6 10l12 60q8 41 20 83q124 66 322 165q21 16 24 33q1 4 1 7q0 22 -31 44q-143 79 -234 140l10 69l21 77q4 4 7 4q2 0 3 -1q380 -231 462 -265l16 -73q-27 -71 -50 -83zM261 692l463 -270q14 -10 14 -63v-20l-47 -73q-96 -34 -575 -265q-1 -1 -3 -1
q-3 0 -5 4l11 77l20 69q117 61 293 140q47 26 52 51q1 4 1 8q0 13 -11 25q-156 99 -252 165q6 42 15 83l14 60q2 7 10 10z" />
    <glyph glyph-name="questiondown" unicode="&#xbf;" horiz-adv-x="840" 
d="M367 -336h-12q-238 0 -271 252l31 144q4 19 335 504q37 120 61 120h96q20 0 20 -16q0 -4 -1 -8l-23 -108l-366 -540l-8 -36q-5 -24 -5 -45q0 -123 185 -123q54 0 211 144h108l-3 -12q-44 -207 -358 -276zM651 888h-108q-20 3 -20 18q0 3 1 6l18 84q3 17 43 36h96
q20 0 20 -16q0 -4 -1 -8l-20 -96q-9 -24 -29 -24z" />
    <glyph glyph-name="Agrave" unicode="&#xc0;" horiz-adv-x="1176" 
d="M832 1404q80 -12 103 -24l-406 -840q-1 -4 -1 -9q0 -31 40 -87l-7 -36l-30 -84h-72q-48 0 -186 -312h-144q-20 0 -20 16q0 4 1 8q454 950 657 1344zM1016 1080h12q51 -628 51 -957q0 -61 -2 -111l-27 -12h-108q-34 0 -56 300q-43 0 -43 20v4l-27 -12q-40 17 -40 33v3
l23 108q68 38 75 72l-11 288q119 264 153 264zM890 1500h-54q-197 59 -241 108q9 41 106 132h65q110 -47 196 -194q-32 -46 -72 -46z" />
    <glyph glyph-name="Aacute" unicode="&#xc1;" horiz-adv-x="1176" 
d="M832 1404q80 -12 103 -24l-406 -840q-1 -4 -1 -9q0 -31 40 -87l-7 -36l-30 -84h-72q-48 0 -186 -312h-144q-20 0 -20 16q0 4 1 8q454 950 657 1344zM1016 1080h12q51 -628 51 -957q0 -61 -2 -111l-27 -12h-108q-34 0 -56 300q-43 0 -43 20v4l-27 -12q-40 17 -40 33v3
l23 108q68 38 75 72l-11 288q119 264 153 264zM872 1546q148 147 278 194h65q51 -79 51 -120q0 -7 -1 -12q-65 -49 -287 -108h-55t-51 46z" />
    <glyph glyph-name="Acircumflex" unicode="&#xc2;" horiz-adv-x="1176" 
d="M832 1404q80 -12 103 -24l-406 -840q-1 -4 -1 -9q0 -31 40 -87l-7 -36l-30 -84h-72q-48 0 -186 -312h-144q-20 0 -20 16q0 4 1 8q454 950 657 1344zM1016 1080h12q51 -628 51 -957q0 -61 -2 -111l-27 -12h-108q-34 0 -56 300q-43 0 -43 20v4l-27 -12q-40 17 -40 33v3
l23 108q68 38 75 72l-11 288q119 264 153 264zM1045 1500q-83 47 -95 60h-36q-36 0 -131 -48q-45 0 -46 120l2 12q190 96 213 96q150 -59 181 -108q-9 -41 -88 -132z" />
    <glyph glyph-name="Atilde" unicode="&#xc3;" horiz-adv-x="1176" 
d="M832 1404q80 -12 103 -24l-406 -840q-1 -4 -1 -9q0 -31 40 -87l-7 -36l-30 -84h-72q-48 0 -186 -312h-144q-20 0 -20 16q0 4 1 8q454 950 657 1344zM1016 1080h12q51 -628 51 -957q0 -61 -2 -111l-27 -12h-108q-34 0 -56 300q-43 0 -43 20v4l-27 -12q-40 17 -40 33v3
l23 108q68 38 75 72l-11 288q119 264 153 264zM1193 1645q-25 -116 -172 -145h-28q-25 0 -81 20l-45 50q-14 8 -30 8h-14q-16 0 -29 -7q-20 0 -65 -71q-6 0 -6 5v2l-15 -7h-42q-12 0 -12 10l1 5l17 80q25 116 172 145h28q25 0 80 -20l46 -50q13 -8 29 -8h14q16 0 29 7
q21 1 65 71q6 0 6 -4v-3l16 7h42q12 0 12 -10l-1 -5z" />
    <glyph glyph-name="Adieresis" unicode="&#xc4;" horiz-adv-x="1176" 
d="M832 1404q80 -12 103 -24l-406 -840q-1 -4 -1 -9q0 -31 40 -87l-7 -36l-30 -84h-72q-48 0 -186 -312h-144q-20 0 -20 16q0 4 1 8q454 950 657 1344zM1016 1080h12q51 -628 51 -957q0 -61 -2 -111l-27 -12h-108q-34 0 -56 300q-43 0 -43 20v4l-27 -12q-40 17 -40 33v3
l23 108q68 38 75 72l-11 288q119 264 153 264zM723 1722q171 0 171 -40v-4l-25 -116q-28 -44 -45 -44h-96l-21 15q-3 -15 -15 -15h-12q-19 0 -19 19q0 4 1 10l28 131zM1185 1722q17 0 17 -23v-8l-30 -142q-6 -31 -30 -31h-144l-30 31q49 173 73 173h144z" />
    <glyph glyph-name="Aring" unicode="&#xc5;" horiz-adv-x="1176" 
d="M1016 1080h12q51 -621 51 -950q0 -65 -2 -118l-27 -12h-108q-34 0 -56 300q-43 0 -43 20v4l-27 -12q-40 17 -40 33v3l23 108q68 38 75 72l-11 288q120 264 153 264zM925 1474q96 4 107 57l1 4q2 19 5 33q5 23 12 26q3 14 3 24q0 18 -10 25l-22 3l19 91h17q42 0 122 -80
q9 -23 13 -60q0 -3 -9 -3l4 -25l-7 -31q-1 -4 -10 -4v-1q0 -2 8 -2q-21 -60 -30 -99q-13 -65 -234 -96l-385 -796q-1 -4 -1 -9q0 -31 40 -87l-7 -36l-30 -84h-72q-48 0 -186 -312h-144q-20 0 -20 16q0 4 1 8q437 915 642 1314q-53 14 -87 55q-31 0 -32 55q50 235 184 259
q3 10 69 21q15 0 15 -9v-2q-1 -3 -9 -3l-7 -69l-1 -7q-39 -35 -47 -74l-11 -52q-1 -3 -1 -6q0 -35 96 -45z" />
    <glyph glyph-name="AE" unicode="&#xc6;" horiz-adv-x="1656" 
d="M832 1404q80 -12 103 -24l-406 -840q-1 -4 -1 -9q0 -31 40 -87l-7 -36l-30 -84h-72q-48 0 -186 -312h-144q-20 0 -20 16q0 4 1 8q454 950 657 1344zM1070 1392h744q20 -3 20 -18q0 -3 -1 -6l-23 -108q-5 -24 -104 -36q-79 12 -129 12h-132l-63 -12l3 12l-27 -12
q-43 0 -105 12q-26 -12 -39 -12l1 4q0 8 -10 8q-46 -44 -54 -84l-61 -288q-7 -32 -7 -53q0 -38 22 -43h360q20 -3 20 -18q0 -3 -1 -6l-20 -96q-5 -24 -80 -36l3 12q-12 0 -15 -12l-57 12q-30 0 -99 -12l-57 12l-27 -12q-18 12 -45 12h-12q-18 0 -44 -36l-66 -312
q-4 -17 -4 -32q0 -76 101 -76q79 -12 249 -12h132q27 0 51 12q88 -11 88 -34v-2l-20 -96q-5 -24 -29 -24h-228q-78 0 -243 -12l3 12q-12 0 -15 -12l-117 12h-60q-27 0 -51 -12q-64 15 -64 33v3l283 1332q9 24 29 24z" />
    <glyph glyph-name="Ccedilla" unicode="&#xc7;" horiz-adv-x="1032" 
d="M497 0h-23q-291 79 -291 287q0 35 8 73l81 384q9 43 11 108l17 24l4 72q80 379 514 444h36q244 0 306 -312l-11 -48q-5 -24 -29 -24h-108q-12 0 -65 144q-69 72 -153 72h-24q-228 0 -286 -276l-23 -108q-3 -14 -3 -23q0 -13 7 -13l-25 -60l-59 -276q-12 -55 -12 -101
q0 -172 162 -211h24q183 0 296 204q35 36 43 36q27 0 46 -12q25 12 38 12q21 -12 34 -12l-11 -48q-43 -204 -345 -312q16 -44 16 -70q0 -8 -1 -14l-10 -48q-99 -240 -291 -240h-72q-20 0 -20 16q0 4 1 8l15 72l18 24q-10 0 -10 9v3q166 52 174 84q16 21 22 48l5 24
q2 11 2 21q0 20 -8 39z" />
    <glyph glyph-name="Egrave" unicode="&#xc8;" 
d="M422 1392h744q20 -3 20 -18q0 -3 -1 -6l-23 -108q-5 -24 -104 -36q-79 12 -129 12h-132l-63 -12l3 12l-27 -12q-43 0 -105 12q-26 -12 -39 -12l1 4q0 8 -10 8q-46 -44 -54 -84l-61 -288q-7 -32 -7 -53q0 -38 22 -43h360q20 -3 20 -18q0 -3 -1 -6l-20 -96q-5 -24 -80 -36
l3 12q-12 0 -15 -12l-57 12q-30 0 -99 -12l-57 12l-27 -12q-18 12 -45 12h-12q-18 0 -44 -36l-66 -312q-4 -17 -4 -32q0 -76 101 -76q79 -12 249 -12h132q27 0 51 12q88 -11 88 -34v-2l-20 -96q-5 -24 -29 -24h-228q-78 0 -243 -12l3 12q-12 0 -15 -12l-117 12h-60
q-27 0 -51 -12q-64 15 -64 33v3l283 1332q9 24 29 24zM806 1500h-54q-197 59 -241 108q9 41 106 132h65q110 -47 196 -194q-32 -46 -72 -46z" />
    <glyph glyph-name="Eacute" unicode="&#xc9;" 
d="M422 1392h744q20 -3 20 -18q0 -3 -1 -6l-23 -108q-5 -24 -104 -36q-79 12 -129 12h-132l-63 -12l3 12l-27 -12q-43 0 -105 12q-26 -12 -39 -12l1 4q0 8 -10 8q-46 -44 -54 -84l-61 -288q-7 -32 -7 -53q0 -38 22 -43h360q20 -3 20 -18q0 -3 -1 -6l-20 -96q-5 -24 -80 -36
l3 12q-12 0 -15 -12l-57 12q-30 0 -99 -12l-57 12l-27 -12q-18 12 -45 12h-12q-18 0 -44 -36l-66 -312q-4 -17 -4 -32q0 -76 101 -76q79 -12 249 -12h132q27 0 51 12q88 -11 88 -34v-2l-20 -96q-5 -24 -29 -24h-228q-78 0 -243 -12l3 12q-12 0 -15 -12l-117 12h-60
q-27 0 -51 -12q-64 15 -64 33v3l283 1332q9 24 29 24zM788 1546q148 147 278 194h65q51 -79 51 -120q0 -7 -1 -12q-65 -49 -287 -108h-55t-51 46z" />
    <glyph glyph-name="Ecircumflex" unicode="&#xca;" 
d="M422 1392h744q20 -3 20 -18q0 -3 -1 -6l-23 -108q-5 -24 -104 -36q-79 12 -129 12h-132l-63 -12l3 12l-27 -12q-43 0 -105 12q-26 -12 -39 -12l1 4q0 8 -10 8q-46 -44 -54 -84l-61 -288q-7 -32 -7 -53q0 -38 22 -43h360q20 -3 20 -18q0 -3 -1 -6l-20 -96q-5 -24 -80 -36
l3 12q-12 0 -15 -12l-57 12q-30 0 -99 -12l-57 12l-27 -12q-18 12 -45 12h-12q-18 0 -44 -36l-66 -312q-4 -17 -4 -32q0 -76 101 -76q79 -12 249 -12h132q27 0 51 12q88 -11 88 -34v-2l-20 -96q-5 -24 -29 -24h-228q-78 0 -243 -12l3 12q-12 0 -15 -12l-117 12h-60
q-27 0 -51 -12q-64 15 -64 33v3l283 1332q9 24 29 24zM961 1500q-83 47 -95 60h-36q-36 0 -131 -48q-45 0 -46 120l2 12q190 96 213 96q150 -59 181 -108q-9 -41 -88 -132z" />
    <glyph glyph-name="Edieresis" unicode="&#xcb;" 
d="M422 1392h744q20 -3 20 -18q0 -3 -1 -6l-23 -108q-5 -24 -104 -36q-79 12 -129 12h-132l-63 -12l3 12l-27 -12q-43 0 -105 12q-26 -12 -39 -12l1 4q0 8 -10 8q-46 -44 -54 -84l-61 -288q-7 -32 -7 -53q0 -38 22 -43h360q20 -3 20 -18q0 -3 -1 -6l-20 -96q-5 -24 -80 -36
l3 12q-12 0 -15 -12l-57 12q-30 0 -99 -12l-57 12l-27 -12q-18 12 -45 12h-12q-18 0 -44 -36l-66 -312q-4 -17 -4 -32q0 -76 101 -76q79 -12 249 -12h132q27 0 51 12q88 -11 88 -34v-2l-20 -96q-5 -24 -29 -24h-228q-78 0 -243 -12l3 12q-12 0 -15 -12l-117 12h-60
q-27 0 -51 -12q-64 15 -64 33v3l283 1332q9 24 29 24zM1101 1722l15 -44l-28 -131q-6 -29 -30 -29h-12q-10 0 -10 10l1 5l-27 -15h-96q-18 0 -27 44l25 116q9 44 189 44zM639 1722h144q12 0 12 -42q0 -43 -13 -131l-42 -31h-144q-19 0 -19 20q0 5 1 11l30 142q11 31 31 31z
" />
    <glyph glyph-name="Igrave" unicode="&#xcc;" horiz-adv-x="372" 
d="M434 1392q10 0 10 -8l-1 -4l27 12h60q24 -9 24 -43q0 -13 -3 -29l-276 -1296q-5 -24 -29 -24h-120q-20 0 -20 16q0 4 1 8l5 24q8 36 20 36l1 60l257 1212q4 17 44 36zM488 1500h-54q-197 59 -241 108q9 41 106 132h65q110 -47 196 -194q-32 -46 -72 -46z" />
    <glyph glyph-name="Iacute" unicode="&#xcd;" horiz-adv-x="372" 
d="M434 1392q10 0 10 -8l-1 -4l27 12h60q24 -9 24 -43q0 -13 -3 -29l-276 -1296q-5 -24 -29 -24h-120q-20 0 -20 16q0 4 1 8l5 24q8 36 20 36l1 60l257 1212q4 17 44 36zM470 1546q148 147 278 194h65q51 -79 51 -120q0 -7 -1 -12q-65 -49 -287 -108h-55t-51 46z" />
    <glyph glyph-name="Icircumflex" unicode="&#xce;" horiz-adv-x="372" 
d="M434 1392q10 0 10 -8l-1 -4l27 12h60q24 -9 24 -43q0 -13 -3 -29l-276 -1296q-5 -24 -29 -24h-120q-20 0 -20 16q0 4 1 8l5 24q8 36 20 36l1 60l257 1212q4 17 44 36zM643 1500q-83 47 -95 60h-36q-36 0 -131 -48q-45 0 -46 120l2 12q190 96 213 96q150 -59 181 -108
q-9 -41 -88 -132z" />
    <glyph glyph-name="Idieresis" unicode="&#xcf;" horiz-adv-x="372" 
d="M434 1392q10 0 10 -8l-1 -4l27 12h60q24 -9 24 -43q0 -13 -3 -29l-276 -1296q-5 -24 -29 -24h-120q-20 0 -20 16q0 4 1 8l5 24q8 36 20 36l1 60l257 1212q4 17 44 36zM322 1518l-11 44l28 131q6 29 26 29h10q7 0 7 -8q0 -3 -1 -7l23 15h78q14 0 19 -44l-24 -116
q-10 -44 -155 -44zM696 1518h-117q-8 0 -8 30q0 41 16 143l35 31h117q15 0 15 -17q0 -6 -2 -14l-30 -142q-10 -31 -26 -31z" />
    <glyph glyph-name="Eth" unicode="&#xd0;" horiz-adv-x="1164" 
d="M832 1404h204q239 0 259 -252q-6 -85 -19 -144h-12v-3q0 -9 10 -9l-25 -60l-71 -336q-15 -69 -29 -192l-17 -24l7 -24q-126 -348 -386 -348q-77 12 -154 12h-12l-62 -12l-7 24l23 108q3 17 43 36h60l123 12l-3 -12q180 0 216 168q-5 12 -5 26q0 10 3 22q9 40 25 60
q2 65 11 108l18 84q2 12 14 12q-5 16 -5 27q0 5 1 9l17 24l1 4q0 8 -10 8l42 144l36 168q8 39 8 71q0 133 -145 133h-192q-20 0 -20 16q0 4 1 8l23 108q9 24 29 24zM425 617l-121 -569q-7 -33 -130 -48q-52 14 -52 33v3l2 12q3 12 15 12l-7 24l33 156q3 12 3 22q0 14 -5 26
q17 21 22 48q2 8 2 13q0 11 -8 11l29 84l54 252q3 14 3 23q0 13 -7 13l24 60l125 588q4 17 44 36h132l-19 -144l-100 -470q164 -2 329 -2q6 -3 6 -14q0 -6 -2 -15l-22 -102q-14 -43 -40 -43l-33 -10q-3 0 -3 6q0 3 1 9l-13 -15h-78q-13 0 -13 11v4l-20 -11l-1 -2h-3l-4 -2
l-1 2l-72 10z" />
    <glyph glyph-name="Ntilde" unicode="&#xd1;" 
d="M419 1380h108q209 -831 258 -876h60q54 139 60 168v3q0 9 -10 9l25 60l130 612q9 24 29 24h84q18 0 29 -36l-268 -1260q-3 -12 -15 -12l7 -24l-2 -12q-4 -17 -44 -36h-108q-46 110 -177 636q-26 153 -88 204h-36q-36 0 -82 -216l-46 -216q-3 -12 -15 -12l7 -24l-74 -348
q-5 -24 -29 -24h-96q-20 0 -20 16q0 4 1 8l283 1332q9 24 29 24zM1109 1645q-25 -116 -172 -145h-28q-25 0 -81 20l-45 50q-14 8 -30 8h-14q-16 0 -29 -7q-20 0 -65 -71q-6 0 -6 5v2l-15 -7h-42q-12 0 -12 10l1 5l17 80q25 116 172 145h28q25 0 80 -20l46 -50q13 -8 29 -8
h14q16 0 29 7q21 1 65 71q6 0 6 -4v-3l16 7h42q12 0 12 -10l-1 -5z" />
    <glyph glyph-name="Ograve" unicode="&#xd2;" horiz-adv-x="1044" 
d="M976 1344q175 -98 175 -304q0 -59 -15 -128h-12l7 -24l-84 -396q-71 -332 -347 -444h-24l-7 24l16 72q181 120 219 300l115 540q5 25 5 49q0 109 -107 203l18 84q5 24 41 24zM649 1332h24l-2 -12q-3 -12 -15 -12l7 -24l-3 -12q-10 -51 -153 -156q-40 -78 -47 -108
l-120 -564q-9 -45 -9 -84q0 -125 92 -204l-18 -84q-5 -24 -29 -24q-179 112 -179 300q0 46 11 96l51 240q10 43 11 108l17 24q1 4 1 9q0 11 -5 27q89 418 366 480zM824 1500h-54q-197 59 -241 108q9 41 106 132h65q110 -47 196 -194q-32 -46 -72 -46z" />
    <glyph glyph-name="Oacute" unicode="&#xd3;" horiz-adv-x="1044" 
d="M976 1344q175 -98 175 -304q0 -59 -15 -128h-12l7 -24l-84 -396q-71 -332 -347 -444h-24l-7 24l16 72q181 120 219 300l115 540q5 25 5 49q0 109 -107 203l18 84q5 24 41 24zM649 1332h24l-2 -12q-3 -12 -15 -12l7 -24l-3 -12q-10 -51 -153 -156q-40 -78 -47 -108
l-120 -564q-9 -45 -9 -84q0 -125 92 -204l-18 -84q-5 -24 -29 -24q-179 112 -179 300q0 46 11 96l51 240q10 43 11 108l17 24q1 4 1 9q0 11 -5 27q89 418 366 480zM806 1546q148 147 278 194h65q51 -79 51 -120q0 -7 -1 -12q-65 -49 -287 -108h-55t-51 46z" />
    <glyph glyph-name="Ocircumflex" unicode="&#xd4;" horiz-adv-x="1044" 
d="M976 1344q175 -98 175 -304q0 -59 -15 -128h-12l7 -24l-84 -396q-71 -332 -347 -444h-24l-7 24l16 72q181 120 219 300l115 540q5 25 5 49q0 109 -107 203l18 84q5 24 41 24zM649 1332h24l-2 -12q-3 -12 -15 -12l7 -24l-3 -12q-10 -51 -153 -156q-40 -78 -47 -108
l-120 -564q-9 -45 -9 -84q0 -125 92 -204l-18 -84q-5 -24 -29 -24q-179 112 -179 300q0 46 11 96l51 240q10 43 11 108l17 24q1 4 1 9q0 11 -5 27q89 418 366 480zM703 1500q-34 75 -34 116q0 9 2 16q52 49 227 108q22 0 171 -96l-2 -12q-52 -120 -98 -120q-73 48 -109 48
h-36q-19 -13 -121 -60z" />
    <glyph glyph-name="Otilde" unicode="&#xd5;" horiz-adv-x="1044" 
d="M976 1344q175 -98 175 -304q0 -59 -15 -128h-12l7 -24l-84 -396q-71 -332 -347 -444h-24l-7 24l16 72q181 120 219 300l115 540q5 25 5 49q0 109 -107 203l18 84q5 24 41 24zM649 1332h24l-2 -12q-3 -12 -15 -12l7 -24l-3 -12q-10 -51 -153 -156q-40 -78 -47 -108
l-120 -564q-9 -45 -9 -84q0 -125 92 -204l-18 -84q-5 -24 -29 -24q-179 112 -179 300q0 46 11 96l51 240q10 43 11 108l17 24q1 4 1 9q0 11 -5 27q89 418 366 480zM1127 1645q-25 -116 -172 -145h-28q-25 0 -81 20l-45 50q-14 8 -30 8h-14q-16 0 -29 -7q-20 0 -65 -71
q-6 0 -6 5v2l-15 -7h-42q-12 0 -12 10l1 5l17 80q25 116 172 145h28q25 0 80 -20l46 -50q13 -8 29 -8h14q16 0 29 7q21 1 65 71q6 0 6 -4v-3l16 7h42q12 0 12 -10l-1 -5z" />
    <glyph glyph-name="Odieresis" unicode="&#xd6;" horiz-adv-x="1044" 
d="M976 1344q175 -98 175 -304q0 -59 -15 -128h-12l7 -24l-84 -396q-71 -332 -347 -444h-24l-7 24l16 72q181 120 219 300l115 540q5 25 5 49q0 109 -107 203l18 84q5 24 41 24zM649 1332h24l-2 -12q-3 -12 -15 -12l7 -24l-3 -12q-10 -51 -153 -156q-40 -78 -47 -108
l-120 -564q-9 -45 -9 -84q0 -125 92 -204l-18 -84q-5 -24 -29 -24q-179 112 -179 300q0 46 11 96l51 240q10 43 11 108l17 24q1 4 1 9q0 11 -5 27q89 418 366 480zM657 1722q171 0 171 -40v-4l-25 -116q-28 -44 -45 -44h-96l-21 15q-3 -15 -15 -15h-12q-19 0 -19 19
q0 4 1 10l28 131zM1119 1722q17 0 17 -23v-8l-30 -142q-6 -31 -30 -31h-144l-30 31q49 173 73 173h144z" />
    <glyph glyph-name="multiply" unicode="&#xd7;" horiz-adv-x="1368" 
d="M817 593l-226 -187q-43 -36 -120 -85q-8 -22 -55 -60q-31 -13 -47 -13q-10 0 -14 5l-47 59q-4 7 -4 13v4q2 9 12 17q159 132 322 280l6 -8q6 4 7 8v2q0 4 -3 7l89 60l-274 347q-4 7 -4 13v4q2 9 12 17l71 59q6 5 16 5q16 0 43 -13q37 -30 37 -52v-1q47 -56 76 -92
l146 -187l38 31l-1 2l10 6l7 6v-2l41 24q-1 2 -1 5q2 10 25 29l158 130l28 9q-2 3 -2 6v2q1 5 67 60q37 30 63 30q10 0 19 -5l46 -59q5 -5 5 -11l-1 -4q-2 -9 -11 -19l-412 -341l267 -341q4 -7 4 -13q0 -3 -1 -5q-2 -9 -10 -16l-72 -59q-11 -5 -21 -5q-26 0 -49 30l-163 207
q-13 17 -13 27v2q0 3 3 5l-31 24l-2 -2l-3 6l-8 6l1 2z" />
    <glyph glyph-name="Oslash" unicode="&#xd8;" horiz-adv-x="1260" 
d="M1324 1458h108q29 -5 29 -27q0 -4 -1 -9l-7 -36q-6 -28 -88 -72v1q0 16 -85 107q14 36 44 36zM1078 1374h12q134 0 182 -216q28 0 28 -78q0 -44 -9 -114l-18 -84h-24l-5 -24h24l-2 -12h-24l-8 -36h24l-5 -24h-24l-5 -24q21 0 21 -9v-3q-125 -590 -322 -672
q-8 -36 -148 -72q-18 0 -18 20q0 7 2 16q2 12 14 12l1 60l5 24q182 119 210 252l112 528q9 40 9 78q0 128 -101 222l25 120h48l-6 24zM812 1362l-11 -48l-6 -84q-204 -116 -248 -324l6 -24l-2 -12q-3 -12 -15 -12l7 -24l-2 -12q-3 -12 -15 -12l7 -24l-5 -24q-15 -69 -30 -84
q-50 -233 -50 -353q0 -127 56 -127l50 -48l-28 -132h-24q-128 0 -213 240q-1 18 -1 39q0 70 8 165q3 12 15 12l6 84l23 108q2 12 14 12l1 4q0 8 -10 8q50 180 68 264l10 48q48 227 389 360zM859 906h24q19 -3 19 -17q0 -3 -1 -7l-45 -216q-110 -152 -161 -192q-21 0 -23 60
q16 21 22 48q1 7 1 12q0 12 -8 12l25 60l17 84q124 132 130 156zM176 96h54q-1 -4 -1 -8q0 -31 36 -82l-7 -36q-8 -36 -44 -36h-18q-93 0 -97 54q72 83 77 108z" />
    <glyph glyph-name="Ugrave" unicode="&#xd9;" horiz-adv-x="1044" 
d="M1216 1404q-3 -38 -3 -61q0 -35 7 -35l-22 -48q-69 -381 -106 -552l-17 -24v-3q0 -9 10 -9q-3 -13 -20 -36l-11 -108q-92 -434 -421 -516q-44 0 -111 -12q-284 0 -327 324q1 63 13 120l90 420q4 20 4 35t-4 25l28 72l79 372q9 24 29 24h96q17 0 28 -36l-204 -960v-15
q0 -213 192 -213h36q160 0 288 228l-7 24l207 972h60zM824 1500h-54q-197 59 -241 108q9 41 106 132h65q110 -47 196 -194q-32 -46 -72 -46z" />
    <glyph glyph-name="Uacute" unicode="&#xda;" horiz-adv-x="1044" 
d="M1216 1404q-3 -38 -3 -61q0 -35 7 -35l-22 -48q-69 -381 -106 -552l-17 -24v-3q0 -9 10 -9q-3 -13 -20 -36l-11 -108q-92 -434 -421 -516q-44 0 -111 -12q-284 0 -327 324q1 63 13 120l90 420q4 20 4 35t-4 25l28 72l79 372q9 24 29 24h96q17 0 28 -36l-204 -960v-15
q0 -213 192 -213h36q160 0 288 228l-7 24l207 972h60zM806 1546q148 147 278 194h65q51 -79 51 -120q0 -7 -1 -12q-65 -49 -287 -108h-55t-51 46z" />
    <glyph glyph-name="Ucircumflex" unicode="&#xdb;" horiz-adv-x="1044" 
d="M1216 1404q-3 -38 -3 -61q0 -35 7 -35l-22 -48q-69 -381 -106 -552l-17 -24v-3q0 -9 10 -9q-3 -13 -20 -36l-11 -108q-92 -434 -421 -516q-44 0 -111 -12q-284 0 -327 324q1 63 13 120l90 420q4 20 4 35t-4 25l28 72l79 372q9 24 29 24h96q17 0 28 -36l-204 -960v-15
q0 -213 192 -213h36q160 0 288 228l-7 24l207 972h60zM979 1500q-83 47 -95 60h-36q-36 0 -131 -48q-45 0 -46 120l2 12q190 96 213 96q150 -59 181 -108q-9 -41 -88 -132z" />
    <glyph glyph-name="Udieresis" unicode="&#xdc;" horiz-adv-x="1044" 
d="M1216 1404q-3 -38 -3 -61q0 -35 7 -35l-22 -48q-69 -381 -106 -552l-17 -24v-3q0 -9 10 -9q-3 -13 -20 -36l-11 -108q-92 -434 -421 -516q-44 0 -111 -12q-284 0 -327 324q1 63 13 120l90 420q4 20 4 35t-4 25l28 72l79 372q9 24 29 24h96q17 0 28 -36l-204 -960v-15
q0 -213 192 -213h36q160 0 288 228l-7 24l207 972h60zM1076 1518q-171 0 -171 40v4l25 116q28 44 45 44h96l21 -15q3 15 15 15h12q19 0 19 -19q0 -4 -1 -10l-28 -131zM614 1518q-18 0 -18 24v7l30 142q7 31 31 31h144l29 -31q-48 -173 -72 -173h-144z" />
    <glyph glyph-name="Yacute" unicode="&#xdd;" horiz-adv-x="1044" 
d="M393 1368h108q74 -79 172 -432q43 -24 79 -24q293 380 373 456q100 -9 100 -33v-3l-2 -12l-474 -648q-16 -20 -25 -60l-125 -588q-5 -24 -29 -24h-84q-20 0 -20 42q0 32 12 90l38 180q14 63 35 108q2 63 14 120l28 132q-18 104 -205 672zM806 1546q148 147 278 194h65
q51 -79 51 -120q0 -7 -1 -12q-65 -49 -287 -108h-55t-51 46z" />
    <glyph glyph-name="Thorn" unicode="&#xde;" horiz-adv-x="1092" 
d="M437 1392h14q11 0 11 -8l-1 -4l29 12h27q22 -3 22 -19l-1 -5l-10 -48q-3 -12 -16 -12l8 -24l-112 -528q-3 -12 -16 -12l8 -24l-64 -300q-5 -27 -23 -48l8 -24q-41 -131 -61 -228l-21 -96q-5 -24 -31 -24h-80q-22 0 -22 17q0 3 1 7l283 1332q4 17 47 36zM709 1098
q318 0 391 -144q32 -36 57 -168l-20 -96q-147 -396 -507 -396h-92q-20 0 -20 51q0 27 6 69l29 12h66q335 25 388 276q-10 264 -234 264q-28 -12 -42 -12q-78 0 -78 59q0 11 3 25h13l-8 24q4 17 48 36z" />
    <glyph glyph-name="germandbls" unicode="&#xdf;" horiz-adv-x="1164" 
d="M225 12l-94 10q-20 0 -20 16q0 4 1 8l217 1022q4 19 73 118l93 100q69 55 86 55q6 0 6 -7v-4l-28 -142l-105 -436l-149 -698l-17 -24zM628 12h-115q-20 0 -20 44q0 38 15 108l68 4q347 0 398 240q8 38 8 68q0 137 -157 137l-22 -1q-1 11 -1 23q0 23 5 48q9 41 31 85
q212 58 241 192l2 12q9 44 9 80q0 184 -240 184h-87q-21 0 -21 17q0 3 1 7l26 120q5 24 95 36h50q296 0 365 -336q-2 -9 -3 -72q-21 -101 -173 -288l-3 -12q55 -141 55 -240q0 -32 -6 -60q-58 -271 -419 -384q-50 -12 -102 -12z" />
    <glyph glyph-name="agrave" unicode="&#xe0;" horiz-adv-x="1176" 
d="M832 1404q80 -12 103 -24l-406 -840q-1 -4 -1 -9q0 -31 40 -87l-7 -36l-30 -84h-72q-48 0 -186 -312h-144q-20 0 -20 16q0 4 1 8q454 950 657 1344zM1016 1080h12q51 -628 51 -957q0 -61 -2 -111l-27 -12h-108q-34 0 -56 300q-43 0 -43 20v4l-27 -12q-40 17 -40 33v3
l23 108q68 38 75 72l-11 288q119 264 153 264zM890 1500h-54q-197 59 -241 108q9 41 106 132h65q110 -47 196 -194q-32 -46 -72 -46z" />
    <glyph glyph-name="aacute" unicode="&#xe1;" horiz-adv-x="1176" 
d="M832 1404q80 -12 103 -24l-406 -840q-1 -4 -1 -9q0 -31 40 -87l-7 -36l-30 -84h-72q-48 0 -186 -312h-144q-20 0 -20 16q0 4 1 8q454 950 657 1344zM1016 1080h12q51 -628 51 -957q0 -61 -2 -111l-27 -12h-108q-34 0 -56 300q-43 0 -43 20v4l-27 -12q-40 17 -40 33v3
l23 108q68 38 75 72l-11 288q119 264 153 264zM872 1546q148 147 278 194h65q51 -79 51 -120q0 -7 -1 -12q-65 -49 -287 -108h-55t-51 46z" />
    <glyph glyph-name="acircumflex" unicode="&#xe2;" horiz-adv-x="1176" 
d="M832 1404q80 -12 103 -24l-406 -840q-1 -4 -1 -9q0 -31 40 -87l-7 -36l-30 -84h-72q-48 0 -186 -312h-144q-20 0 -20 16q0 4 1 8q454 950 657 1344zM1016 1080h12q51 -628 51 -957q0 -61 -2 -111l-27 -12h-108q-34 0 -56 300q-43 0 -43 20v4l-27 -12q-40 17 -40 33v3
l23 108q68 38 75 72l-11 288q119 264 153 264zM1045 1500q-83 47 -95 60h-36q-36 0 -131 -48q-45 0 -46 120l2 12q190 96 213 96q150 -59 181 -108q-9 -41 -88 -132z" />
    <glyph glyph-name="atilde" unicode="&#xe3;" horiz-adv-x="1176" 
d="M832 1404q80 -12 103 -24l-406 -840q-1 -4 -1 -9q0 -31 40 -87l-7 -36l-30 -84h-72q-48 0 -186 -312h-144q-20 0 -20 16q0 4 1 8q454 950 657 1344zM1016 1080h12q51 -628 51 -957q0 -61 -2 -111l-27 -12h-108q-34 0 -56 300q-43 0 -43 20v4l-27 -12q-40 17 -40 33v3
l23 108q68 38 75 72l-11 288q119 264 153 264zM1193 1645q-25 -116 -172 -145h-28q-25 0 -81 20l-45 50q-14 8 -30 8h-14q-16 0 -29 -7q-20 0 -65 -71q-6 0 -6 5v2l-15 -7h-42q-12 0 -12 10l1 5l17 80q25 116 172 145h28q25 0 80 -20l46 -50q13 -8 29 -8h14q16 0 29 7
q21 1 65 71q6 0 6 -4v-3l16 7h42q12 0 12 -10l-1 -5z" />
    <glyph glyph-name="adieresis" unicode="&#xe4;" horiz-adv-x="1176" 
d="M832 1404q80 -12 103 -24l-406 -840q-1 -4 -1 -9q0 -31 40 -87l-7 -36l-30 -84h-72q-48 0 -186 -312h-144q-20 0 -20 16q0 4 1 8q454 950 657 1344zM1016 1080h12q51 -628 51 -957q0 -61 -2 -111l-27 -12h-108q-34 0 -56 300q-43 0 -43 20v4l-27 -12q-40 17 -40 33v3
l23 108q68 38 75 72l-11 288q119 264 153 264zM723 1722q171 0 171 -40v-4l-25 -116q-28 -44 -45 -44h-96l-21 15q-3 -15 -15 -15h-12q-19 0 -19 19q0 4 1 10l28 131zM1185 1722q17 0 17 -23v-8l-30 -142q-6 -31 -30 -31h-144l-30 31q49 173 73 173h144z" />
    <glyph glyph-name="aring" unicode="&#xe5;" horiz-adv-x="1176" 
d="M1016 1080h12q51 -621 51 -950q0 -65 -2 -118l-27 -12h-108q-34 0 -56 300q-43 0 -43 20v4l-27 -12q-40 17 -40 33v3l23 108q68 38 75 72l-11 288q120 264 153 264zM925 1474q96 4 107 57l1 4q2 19 5 33q5 23 12 26q3 14 3 24q0 18 -10 25l-22 3l19 91h17q42 0 122 -80
q9 -23 13 -60q0 -3 -9 -3l4 -25l-7 -31q-1 -4 -10 -4v-1q0 -2 8 -2q-21 -60 -30 -99q-13 -65 -234 -96l-385 -796q-1 -4 -1 -9q0 -31 40 -87l-7 -36l-30 -84h-72q-48 0 -186 -312h-144q-20 0 -20 16q0 4 1 8q437 915 642 1314q-53 14 -87 55q-31 0 -32 55q50 235 184 259
q3 10 69 21q15 0 15 -9v-2q-1 -3 -9 -3l-7 -69l-1 -7q-39 -35 -47 -74l-11 -52q-1 -3 -1 -6q0 -35 96 -45z" />
    <glyph glyph-name="ae" unicode="&#xe6;" horiz-adv-x="1656" 
d="M832 1404q80 -12 103 -24l-406 -840q-1 -4 -1 -9q0 -31 40 -87l-7 -36l-30 -84h-72q-48 0 -186 -312h-144q-20 0 -20 16q0 4 1 8q454 950 657 1344zM1070 1392h744q20 -3 20 -18q0 -3 -1 -6l-23 -108q-5 -24 -104 -36q-79 12 -129 12h-132l-63 -12l3 12l-27 -12
q-43 0 -105 12q-26 -12 -39 -12l1 4q0 8 -10 8q-46 -44 -54 -84l-61 -288q-7 -32 -7 -53q0 -38 22 -43h360q20 -3 20 -18q0 -3 -1 -6l-20 -96q-5 -24 -80 -36l3 12q-12 0 -15 -12l-57 12q-30 0 -99 -12l-57 12l-27 -12q-18 12 -45 12h-12q-18 0 -44 -36l-66 -312
q-4 -17 -4 -32q0 -76 101 -76q79 -12 249 -12h132q27 0 51 12q88 -11 88 -34v-2l-20 -96q-5 -24 -29 -24h-228q-78 0 -243 -12l3 12q-12 0 -15 -12l-117 12h-60q-27 0 -51 -12q-64 15 -64 33v3l283 1332q9 24 29 24z" />
    <glyph glyph-name="ccedilla" unicode="&#xe7;" horiz-adv-x="1032" 
d="M497 0h-23q-291 79 -291 287q0 35 8 73l81 384q9 43 11 108l17 24l4 72q80 379 514 444h36q244 0 306 -312l-11 -48q-5 -24 -29 -24h-108q-12 0 -65 144q-69 72 -153 72h-24q-228 0 -286 -276l-23 -108q-3 -14 -3 -23q0 -13 7 -13l-25 -60l-59 -276q-12 -55 -12 -101
q0 -172 162 -211h24q183 0 296 204q35 36 43 36q27 0 46 -12q25 12 38 12q21 -12 34 -12l-11 -48q-43 -204 -345 -312q16 -44 16 -70q0 -8 -1 -14l-10 -48q-99 -240 -291 -240h-72q-20 0 -20 16q0 4 1 8l15 72l18 24q-10 0 -10 9v3q166 52 174 84q16 21 22 48l5 24
q2 11 2 21q0 20 -8 39z" />
    <glyph glyph-name="egrave" unicode="&#xe8;" 
d="M422 1392h744q20 -3 20 -18q0 -3 -1 -6l-23 -108q-5 -24 -104 -36q-79 12 -129 12h-132l-63 -12l3 12l-27 -12q-43 0 -105 12q-26 -12 -39 -12l1 4q0 8 -10 8q-46 -44 -54 -84l-61 -288q-7 -32 -7 -53q0 -38 22 -43h360q20 -3 20 -18q0 -3 -1 -6l-20 -96q-5 -24 -80 -36
l3 12q-12 0 -15 -12l-57 12q-30 0 -99 -12l-57 12l-27 -12q-18 12 -45 12h-12q-18 0 -44 -36l-66 -312q-4 -17 -4 -32q0 -76 101 -76q79 -12 249 -12h132q27 0 51 12q88 -11 88 -34v-2l-20 -96q-5 -24 -29 -24h-228q-78 0 -243 -12l3 12q-12 0 -15 -12l-117 12h-60
q-27 0 -51 -12q-64 15 -64 33v3l283 1332q9 24 29 24zM806 1500h-54q-197 59 -241 108q9 41 106 132h65q110 -47 196 -194q-32 -46 -72 -46z" />
    <glyph glyph-name="eacute" unicode="&#xe9;" 
d="M422 1392h744q20 -3 20 -18q0 -3 -1 -6l-23 -108q-5 -24 -104 -36q-79 12 -129 12h-132l-63 -12l3 12l-27 -12q-43 0 -105 12q-26 -12 -39 -12l1 4q0 8 -10 8q-46 -44 -54 -84l-61 -288q-7 -32 -7 -53q0 -38 22 -43h360q20 -3 20 -18q0 -3 -1 -6l-20 -96q-5 -24 -80 -36
l3 12q-12 0 -15 -12l-57 12q-30 0 -99 -12l-57 12l-27 -12q-18 12 -45 12h-12q-18 0 -44 -36l-66 -312q-4 -17 -4 -32q0 -76 101 -76q79 -12 249 -12h132q27 0 51 12q88 -11 88 -34v-2l-20 -96q-5 -24 -29 -24h-228q-78 0 -243 -12l3 12q-12 0 -15 -12l-117 12h-60
q-27 0 -51 -12q-64 15 -64 33v3l283 1332q9 24 29 24zM788 1546q148 147 278 194h65q51 -79 51 -120q0 -7 -1 -12q-65 -49 -287 -108h-55t-51 46z" />
    <glyph glyph-name="ecircumflex" unicode="&#xea;" 
d="M422 1392h744q20 -3 20 -18q0 -3 -1 -6l-23 -108q-5 -24 -104 -36q-79 12 -129 12h-132l-63 -12l3 12l-27 -12q-43 0 -105 12q-26 -12 -39 -12l1 4q0 8 -10 8q-46 -44 -54 -84l-61 -288q-7 -32 -7 -53q0 -38 22 -43h360q20 -3 20 -18q0 -3 -1 -6l-20 -96q-5 -24 -80 -36
l3 12q-12 0 -15 -12l-57 12q-30 0 -99 -12l-57 12l-27 -12q-18 12 -45 12h-12q-18 0 -44 -36l-66 -312q-4 -17 -4 -32q0 -76 101 -76q79 -12 249 -12h132q27 0 51 12q88 -11 88 -34v-2l-20 -96q-5 -24 -29 -24h-228q-78 0 -243 -12l3 12q-12 0 -15 -12l-117 12h-60
q-27 0 -51 -12q-64 15 -64 33v3l283 1332q9 24 29 24zM961 1500q-83 47 -95 60h-36q-36 0 -131 -48q-45 0 -46 120l2 12q190 96 213 96q150 -59 181 -108q-9 -41 -88 -132z" />
    <glyph glyph-name="edieresis" unicode="&#xeb;" 
d="M422 1392h744q20 -3 20 -18q0 -3 -1 -6l-23 -108q-5 -24 -104 -36q-79 12 -129 12h-132l-63 -12l3 12l-27 -12q-43 0 -105 12q-26 -12 -39 -12l1 4q0 8 -10 8q-46 -44 -54 -84l-61 -288q-7 -32 -7 -53q0 -38 22 -43h360q20 -3 20 -18q0 -3 -1 -6l-20 -96q-5 -24 -80 -36
l3 12q-12 0 -15 -12l-57 12q-30 0 -99 -12l-57 12l-27 -12q-18 12 -45 12h-12q-18 0 -44 -36l-66 -312q-4 -17 -4 -32q0 -76 101 -76q79 -12 249 -12h132q27 0 51 12q88 -11 88 -34v-2l-20 -96q-5 -24 -29 -24h-228q-78 0 -243 -12l3 12q-12 0 -15 -12l-117 12h-60
q-27 0 -51 -12q-64 15 -64 33v3l283 1332q9 24 29 24zM1101 1722l15 -44l-28 -131q-6 -29 -30 -29h-12q-10 0 -10 10l1 5l-27 -15h-96q-18 0 -27 44l25 116q9 44 189 44zM639 1722h144q12 0 12 -42q0 -43 -13 -131l-42 -31h-144q-19 0 -19 20q0 5 1 11l30 142q11 31 31 31z
" />
    <glyph glyph-name="igrave" unicode="&#xec;" horiz-adv-x="372" 
d="M434 1392q10 0 10 -8l-1 -4l27 12h60q24 -9 24 -43q0 -13 -3 -29l-276 -1296q-5 -24 -29 -24h-120q-20 0 -20 16q0 4 1 8l5 24q8 36 20 36l1 60l257 1212q4 17 44 36zM488 1500h-54q-197 59 -241 108q9 41 106 132h65q110 -47 196 -194q-32 -46 -72 -46z" />
    <glyph glyph-name="iacute" unicode="&#xed;" horiz-adv-x="372" 
d="M434 1392q10 0 10 -8l-1 -4l27 12h60q24 -9 24 -43q0 -13 -3 -29l-276 -1296q-5 -24 -29 -24h-120q-20 0 -20 16q0 4 1 8l5 24q8 36 20 36l1 60l257 1212q4 17 44 36zM470 1546q148 147 278 194h65q51 -79 51 -120q0 -7 -1 -12q-65 -49 -287 -108h-55t-51 46z" />
    <glyph glyph-name="icircumflex" unicode="&#xee;" horiz-adv-x="372" 
d="M434 1392q10 0 10 -8l-1 -4l27 12h60q24 -9 24 -43q0 -13 -3 -29l-276 -1296q-5 -24 -29 -24h-120q-20 0 -20 16q0 4 1 8l5 24q8 36 20 36l1 60l257 1212q4 17 44 36zM643 1500q-83 47 -95 60h-36q-36 0 -131 -48q-45 0 -46 120l2 12q190 96 213 96q150 -59 181 -108
q-9 -41 -88 -132z" />
    <glyph glyph-name="idieresis" unicode="&#xef;" horiz-adv-x="372" 
d="M434 1392q10 0 10 -8l-1 -4l27 12h60q24 -9 24 -43q0 -13 -3 -29l-276 -1296q-5 -24 -29 -24h-120q-20 0 -20 16q0 4 1 8l5 24q8 36 20 36l1 60l257 1212q4 17 44 36zM322 1518l-11 44l28 131q6 29 26 29h10q7 0 7 -8q0 -3 -1 -7l23 15h78q14 0 19 -44l-24 -116
q-10 -44 -155 -44zM696 1518h-117q-8 0 -8 30q0 41 16 143l35 31h117q15 0 15 -17q0 -6 -2 -14l-30 -142q-10 -31 -26 -31z" />
    <glyph glyph-name="eth" unicode="&#xf0;" horiz-adv-x="1164" 
d="M832 1404h204q239 0 259 -252q-6 -85 -19 -144h-12v-3q0 -9 10 -9l-25 -60l-71 -336q-15 -69 -29 -192l-17 -24l7 -24q-126 -348 -386 -348q-77 12 -154 12h-12l-62 -12l-7 24l23 108q3 17 43 36h60l123 12l-3 -12q180 0 216 168q-5 12 -5 26q0 10 3 22q9 40 25 60
q2 65 11 108l18 84q2 12 14 12q-5 16 -5 27q0 5 1 9l17 24l1 4q0 8 -10 8l42 144l36 168q8 39 8 71q0 133 -145 133h-192q-20 0 -20 16q0 4 1 8l23 108q9 24 29 24zM425 617l-121 -569q-7 -33 -130 -48q-52 14 -52 33v3l2 12q3 12 15 12l-7 24l33 156q3 12 3 22q0 14 -5 26
q17 21 22 48q2 8 2 13q0 11 -8 11l29 84l54 252q3 14 3 23q0 13 -7 13l24 60l125 588q4 17 44 36h132l-19 -144l-100 -470q164 -2 329 -2q6 -3 6 -14q0 -6 -2 -15l-22 -102q-14 -43 -40 -43l-33 -10q-3 0 -3 6q0 3 1 9l-13 -15h-78q-13 0 -13 11v4l-20 -11l-1 -2h-3l-4 -2
l-1 2l-72 10z" />
    <glyph glyph-name="ntilde" unicode="&#xf1;" 
d="M419 1380h108q209 -831 258 -876h60q54 139 60 168v3q0 9 -10 9l25 60l130 612q9 24 29 24h84q18 0 29 -36l-268 -1260q-3 -12 -15 -12l7 -24l-2 -12q-4 -17 -44 -36h-108q-46 110 -177 636q-26 153 -88 204h-36q-36 0 -82 -216l-46 -216q-3 -12 -15 -12l7 -24l-74 -348
q-5 -24 -29 -24h-96q-20 0 -20 16q0 4 1 8l283 1332q9 24 29 24zM1109 1645q-25 -116 -172 -145h-28q-25 0 -81 20l-45 50q-14 8 -30 8h-14q-16 0 -29 -7q-20 0 -65 -71q-6 0 -6 5v2l-15 -7h-42q-12 0 -12 10l1 5l17 80q25 116 172 145h28q25 0 80 -20l46 -50q13 -8 29 -8
h14q16 0 29 7q21 1 65 71q6 0 6 -4v-3l16 7h42q12 0 12 -10l-1 -5z" />
    <glyph glyph-name="ograve" unicode="&#xf2;" horiz-adv-x="1044" 
d="M976 1344q175 -98 175 -304q0 -59 -15 -128h-12l7 -24l-84 -396q-71 -332 -347 -444h-24l-7 24l16 72q181 120 219 300l115 540q5 25 5 49q0 109 -107 203l18 84q5 24 41 24zM649 1332h24l-2 -12q-3 -12 -15 -12l7 -24l-3 -12q-10 -51 -153 -156q-40 -78 -47 -108
l-120 -564q-9 -45 -9 -84q0 -125 92 -204l-18 -84q-5 -24 -29 -24q-179 112 -179 300q0 46 11 96l51 240q10 43 11 108l17 24q1 4 1 9q0 11 -5 27q89 418 366 480zM824 1500h-54q-197 59 -241 108q9 41 106 132h65q110 -47 196 -194q-32 -46 -72 -46z" />
    <glyph glyph-name="oacute" unicode="&#xf3;" horiz-adv-x="1044" 
d="M976 1344q175 -98 175 -304q0 -59 -15 -128h-12l7 -24l-84 -396q-71 -332 -347 -444h-24l-7 24l16 72q181 120 219 300l115 540q5 25 5 49q0 109 -107 203l18 84q5 24 41 24zM649 1332h24l-2 -12q-3 -12 -15 -12l7 -24l-3 -12q-10 -51 -153 -156q-40 -78 -47 -108
l-120 -564q-9 -45 -9 -84q0 -125 92 -204l-18 -84q-5 -24 -29 -24q-179 112 -179 300q0 46 11 96l51 240q10 43 11 108l17 24q1 4 1 9q0 11 -5 27q89 418 366 480zM806 1546q148 147 278 194h65q51 -79 51 -120q0 -7 -1 -12q-65 -49 -287 -108h-55t-51 46z" />
    <glyph glyph-name="ocircumflex" unicode="&#xf4;" horiz-adv-x="1044" 
d="M976 1344q175 -98 175 -304q0 -59 -15 -128h-12l7 -24l-84 -396q-71 -332 -347 -444h-24l-7 24l16 72q181 120 219 300l115 540q5 25 5 49q0 109 -107 203l18 84q5 24 41 24zM649 1332h24l-2 -12q-3 -12 -15 -12l7 -24l-3 -12q-10 -51 -153 -156q-40 -78 -47 -108
l-120 -564q-9 -45 -9 -84q0 -125 92 -204l-18 -84q-5 -24 -29 -24q-179 112 -179 300q0 46 11 96l51 240q10 43 11 108l17 24q1 4 1 9q0 11 -5 27q89 418 366 480zM703 1500q-34 75 -34 116q0 9 2 16q52 49 227 108q22 0 171 -96l-2 -12q-52 -120 -98 -120q-73 48 -109 48
h-36q-19 -13 -121 -60z" />
    <glyph glyph-name="otilde" unicode="&#xf5;" horiz-adv-x="1044" 
d="M976 1344q175 -98 175 -304q0 -59 -15 -128h-12l7 -24l-84 -396q-71 -332 -347 -444h-24l-7 24l16 72q181 120 219 300l115 540q5 25 5 49q0 109 -107 203l18 84q5 24 41 24zM649 1332h24l-2 -12q-3 -12 -15 -12l7 -24l-3 -12q-10 -51 -153 -156q-40 -78 -47 -108
l-120 -564q-9 -45 -9 -84q0 -125 92 -204l-18 -84q-5 -24 -29 -24q-179 112 -179 300q0 46 11 96l51 240q10 43 11 108l17 24q1 4 1 9q0 11 -5 27q89 418 366 480zM1127 1645q-25 -116 -172 -145h-28q-25 0 -81 20l-45 50q-14 8 -30 8h-14q-16 0 -29 -7q-20 0 -65 -71
q-6 0 -6 5v2l-15 -7h-42q-12 0 -12 10l1 5l17 80q25 116 172 145h28q25 0 80 -20l46 -50q13 -8 29 -8h14q16 0 29 7q21 1 65 71q6 0 6 -4v-3l16 7h42q12 0 12 -10l-1 -5z" />
    <glyph glyph-name="odieresis" unicode="&#xf6;" horiz-adv-x="1044" 
d="M976 1344q175 -98 175 -304q0 -59 -15 -128h-12l7 -24l-84 -396q-71 -332 -347 -444h-24l-7 24l16 72q181 120 219 300l115 540q5 25 5 49q0 109 -107 203l18 84q5 24 41 24zM649 1332h24l-2 -12q-3 -12 -15 -12l7 -24l-3 -12q-10 -51 -153 -156q-40 -78 -47 -108
l-120 -564q-9 -45 -9 -84q0 -125 92 -204l-18 -84q-5 -24 -29 -24q-179 112 -179 300q0 46 11 96l51 240q10 43 11 108l17 24q1 4 1 9q0 11 -5 27q89 418 366 480zM657 1722q171 0 171 -40v-4l-25 -116q-28 -44 -45 -44h-96l-21 15q-3 -15 -15 -15h-12q-19 0 -19 19
q0 4 1 10l28 131zM1119 1722q17 0 17 -23v-8l-30 -142q-6 -31 -30 -31h-144l-30 31q49 173 73 173h144z" />
    <glyph glyph-name="divide" unicode="&#xf7;" horiz-adv-x="1368" 
d="M978 760h8l-2 -1l41 -9q3 12 39 12h184l21 -12q3 12 15 12h72q60 0 64 -36l-18 -84q-4 -20 -29 -24h-448l-440 -2q-50 0 -130 12q-20 -12 -74 -12q-40 17 -40 33v3l17 84q6 24 30 24q186 0 386 12l-2 -12q12 0 14 12l106 -12h174l2 2zM863 1210q171 0 171 -40v-4
l-25 -116q-28 -44 -45 -44h-96l-21 15q-3 -15 -15 -15h-12q-19 0 -19 19q0 4 1 10l28 131zM843 382q18 0 18 -26v-5l-30 -142q-7 -31 -31 -31h-144l-29 31q48 173 72 173h144z" />
    <glyph glyph-name="oslash" unicode="&#xf8;" horiz-adv-x="1260" 
d="M1324 1458h108q29 -5 29 -27q0 -4 -1 -9l-7 -36q-6 -28 -88 -72v1q0 16 -85 107q14 36 44 36zM1078 1374h12q134 0 182 -216q28 0 28 -78q0 -44 -9 -114l-18 -84h-24l-5 -24h24l-2 -12h-24l-8 -36h24l-5 -24h-24l-5 -24q21 0 21 -9v-3q-125 -590 -322 -672
q-8 -36 -148 -72q-18 0 -18 20q0 7 2 16q2 12 14 12l1 60l5 24q182 119 210 252l112 528q9 40 9 78q0 128 -101 222l25 120h48l-6 24zM812 1362l-11 -48l-6 -84q-204 -116 -248 -324l6 -24l-2 -12q-3 -12 -15 -12l7 -24l-2 -12q-3 -12 -15 -12l7 -24l-5 -24q-15 -69 -30 -84
q-50 -233 -50 -353q0 -127 56 -127l50 -48l-28 -132h-24q-128 0 -213 240q-1 18 -1 39q0 70 8 165q3 12 15 12l6 84l23 108q2 12 14 12l1 4q0 8 -10 8q50 180 68 264l10 48q48 227 389 360zM859 906h24q19 -3 19 -17q0 -3 -1 -7l-45 -216q-110 -152 -161 -192q-21 0 -23 60
q16 21 22 48q1 7 1 12q0 12 -8 12l25 60l17 84q124 132 130 156zM176 96h54q-1 -4 -1 -8q0 -31 36 -82l-7 -36q-8 -36 -44 -36h-18q-93 0 -97 54q72 83 77 108z" />
    <glyph glyph-name="ugrave" unicode="&#xf9;" horiz-adv-x="1044" 
d="M1216 1404q-3 -38 -3 -61q0 -35 7 -35l-22 -48q-69 -381 -106 -552l-17 -24v-3q0 -9 10 -9q-3 -13 -20 -36l-11 -108q-92 -434 -421 -516q-44 0 -111 -12q-284 0 -327 324q1 63 13 120l90 420q4 20 4 35t-4 25l28 72l79 372q9 24 29 24h96q17 0 28 -36l-204 -960v-15
q0 -213 192 -213h36q160 0 288 228l-7 24l207 972h60zM824 1500h-54q-197 59 -241 108q9 41 106 132h65q110 -47 196 -194q-32 -46 -72 -46z" />
    <glyph glyph-name="uacute" unicode="&#xfa;" horiz-adv-x="1044" 
d="M1216 1404q-3 -38 -3 -61q0 -35 7 -35l-22 -48q-69 -381 -106 -552l-17 -24v-3q0 -9 10 -9q-3 -13 -20 -36l-11 -108q-92 -434 -421 -516q-44 0 -111 -12q-284 0 -327 324q1 63 13 120l90 420q4 20 4 35t-4 25l28 72l79 372q9 24 29 24h96q17 0 28 -36l-204 -960v-15
q0 -213 192 -213h36q160 0 288 228l-7 24l207 972h60zM806 1546q148 147 278 194h65q51 -79 51 -120q0 -7 -1 -12q-65 -49 -287 -108h-55t-51 46z" />
    <glyph glyph-name="ucircumflex" unicode="&#xfb;" horiz-adv-x="1044" 
d="M1216 1404q-3 -38 -3 -61q0 -35 7 -35l-22 -48q-69 -381 -106 -552l-17 -24v-3q0 -9 10 -9q-3 -13 -20 -36l-11 -108q-92 -434 -421 -516q-44 0 -111 -12q-284 0 -327 324q1 63 13 120l90 420q4 20 4 35t-4 25l28 72l79 372q9 24 29 24h96q17 0 28 -36l-204 -960v-15
q0 -213 192 -213h36q160 0 288 228l-7 24l207 972h60zM979 1500q-83 47 -95 60h-36q-36 0 -131 -48q-45 0 -46 120l2 12q190 96 213 96q150 -59 181 -108q-9 -41 -88 -132z" />
    <glyph glyph-name="udieresis" unicode="&#xfc;" horiz-adv-x="1044" 
d="M1216 1404q-3 -38 -3 -61q0 -35 7 -35l-22 -48q-69 -381 -106 -552l-17 -24v-3q0 -9 10 -9q-3 -13 -20 -36l-11 -108q-92 -434 -421 -516q-44 0 -111 -12q-284 0 -327 324q1 63 13 120l90 420q4 20 4 35t-4 25l28 72l79 372q9 24 29 24h96q17 0 28 -36l-204 -960v-15
q0 -213 192 -213h36q160 0 288 228l-7 24l207 972h60zM1076 1518q-171 0 -171 40v4l25 116q28 44 45 44h96l21 -15q3 15 15 15h12q19 0 19 -19q0 -4 -1 -10l-28 -131zM614 1518q-18 0 -18 24v7l30 142q7 31 31 31h144l29 -31q-48 -173 -72 -173h-144z" />
    <glyph glyph-name="yacute" unicode="&#xfd;" horiz-adv-x="1044" 
d="M393 1368h108q74 -79 172 -432q43 -24 79 -24q293 380 373 456q100 -9 100 -33v-3l-2 -12l-474 -648q-16 -20 -25 -60l-125 -588q-5 -24 -29 -24h-84q-20 0 -20 42q0 32 12 90l38 180q14 63 35 108q2 63 14 120l28 132q-18 104 -205 672zM806 1546q148 147 278 194h65
q51 -79 51 -120q0 -7 -1 -12q-65 -49 -287 -108h-55t-51 46z" />
    <glyph glyph-name="thorn" unicode="&#xfe;" horiz-adv-x="1092" 
d="M437 1392h14q11 0 11 -8l-1 -4l29 12h27q22 -3 22 -19l-1 -5l-10 -48q-3 -12 -16 -12l8 -24l-112 -528q-3 -12 -16 -12l8 -24l-64 -300q-5 -27 -23 -48l8 -24q-41 -131 -61 -228l-21 -96q-5 -24 -31 -24h-80q-22 0 -22 17q0 3 1 7l283 1332q4 17 47 36zM709 1098
q318 0 391 -144q32 -36 57 -168l-20 -96q-147 -396 -507 -396h-92q-20 0 -20 51q0 27 6 69l29 12h66q335 25 388 276q-10 264 -234 264q-28 -12 -42 -12q-78 0 -78 59q0 11 3 25h13l-8 24q4 17 48 36z" />
    <glyph glyph-name="ydieresis" unicode="&#xff;" horiz-adv-x="1044" 
d="M393 1368h108q74 -79 172 -432q43 -24 79 -24q293 380 373 456q100 -9 100 -33v-3l-2 -12l-474 -648q-16 -20 -25 -60l-125 -588q-5 -24 -29 -24h-84q-20 0 -20 42q0 32 12 90l38 180q14 63 35 108q2 63 14 120l28 132q-18 104 -205 672zM614 1518l-15 44l28 131
q6 29 30 29h12q10 0 10 -10l-1 -5l27 15h96q17 0 27 -44l-25 -116q-9 -44 -189 -44zM1076 1518h-144q-12 0 -12 43q0 44 12 130l43 31h144q19 0 19 -19q0 -5 -2 -12l-30 -142q-10 -31 -30 -31z" />
    <glyph glyph-name="Amacron" unicode="&#x100;" horiz-adv-x="1176" 
d="M832 1404q80 -12 103 -24l-406 -840q-1 -4 -1 -9q0 -31 40 -87l-7 -36l-30 -84h-72q-48 0 -186 -312h-144q-20 0 -20 16q0 4 1 8q454 950 657 1344zM1016 1080h12q51 -628 51 -957q0 -61 -2 -111l-27 -12h-108q-34 0 -56 300q-43 0 -43 20v4l-27 -12q-40 17 -40 33v3
l23 108q68 38 75 72l-11 288q119 264 153 264zM828 1704h245q68 -10 68 -56q0 -8 -2 -16l-13 -60q-4 -17 -89 -36h-245q-39 0 -74 36l5 24q3 12 30 12l-22 24q32 72 97 72z" />
    <glyph glyph-name="amacron" unicode="&#x101;" horiz-adv-x="1176" 
d="M832 1404q80 -12 103 -24l-406 -840q-1 -4 -1 -9q0 -31 40 -87l-7 -36l-30 -84h-72q-48 0 -186 -312h-144q-20 0 -20 16q0 4 1 8q454 950 657 1344zM1016 1080h12q51 -628 51 -957q0 -61 -2 -111l-27 -12h-108q-34 0 -56 300q-43 0 -43 20v4l-27 -12q-40 17 -40 33v3
l23 108q68 38 75 72l-11 288q119 264 153 264zM828 1704h245q68 -10 68 -56q0 -8 -2 -16l-13 -60q-4 -17 -89 -36h-245q-39 0 -74 36l5 24q3 12 30 12l-22 24q32 72 97 72z" />
    <glyph glyph-name="Abreve" unicode="&#x102;" horiz-adv-x="1176" 
d="M832 1404q80 -12 103 -24l-406 -840q-1 -4 -1 -9q0 -31 40 -87l-7 -36l-30 -84h-72q-48 0 -186 -312h-144q-20 0 -20 16q0 4 1 8q454 950 657 1344zM1016 1080h12q51 -628 51 -957q0 -61 -2 -111l-27 -12h-108q-34 0 -56 300q-43 0 -43 20v4l-27 -12q-40 17 -40 33v3
l23 108q68 38 75 72l-11 288q119 264 153 264zM1156 1714l-1 -8q-21 -96 -99 -163q-37 -31 -97 -43h-64q-144 0 -144 126v3q-5 0 -5 26q0 23 4 68q4 17 15 17q3 0 12 -2l51 2h17q19 -81 58 -81l36 -10l30 10q41 0 95 81h97z" />
    <glyph glyph-name="abreve" unicode="&#x103;" horiz-adv-x="1176" 
d="M832 1404q80 -12 103 -24l-406 -840q-1 -4 -1 -9q0 -31 40 -87l-7 -36l-30 -84h-72q-48 0 -186 -312h-144q-20 0 -20 16q0 4 1 8q454 950 657 1344zM1016 1080h12q51 -628 51 -957q0 -61 -2 -111l-27 -12h-108q-34 0 -56 300q-43 0 -43 20v4l-27 -12q-40 17 -40 33v3
l23 108q68 38 75 72l-11 288q119 264 153 264zM1156 1714l-1 -8q-21 -96 -99 -163q-37 -31 -97 -43h-64q-144 0 -144 126v3q-5 0 -5 26q0 23 4 68q4 17 15 17q3 0 12 -2l51 2h17q19 -81 58 -81l36 -10l30 10q41 0 95 81h97z" />
    <glyph glyph-name="Aogonek" unicode="&#x104;" horiz-adv-x="1176" 
d="M832 1404q81 -12 103 -24l-406 -840q-1 -4 -1 -9q0 -31 40 -87l-7 -36l-30 -84h-72q-48 0 -186 -312h-144q-20 0 -20 16q0 4 1 8q454 950 657 1344zM899 159q-7 59 -13 141q-43 0 -43 20v4l-27 -12q-40 17 -40 33v3l23 108q68 38 75 72l-11 288q120 264 153 264h12
q51 -621 51 -950q0 -65 -2 -118l-27 -12h-108q-5 0 -10 7q-31 -33 -39 -67l-5 -24q-3 -12 -3 -22q0 -14 5 -26v-3q0 -31 138 -81q-2 -12 -14 -12l6 -24l-15 -72q-5 -24 -29 -24h-72q-189 0 -189 233v7l10 48q12 55 174 219z" />
    <glyph glyph-name="aogonek" unicode="&#x105;" horiz-adv-x="1176" 
d="M832 1404q81 -12 103 -24l-406 -840q-1 -4 -1 -9q0 -31 40 -87l-7 -36l-30 -84h-72q-48 0 -186 -312h-144q-20 0 -20 16q0 4 1 8q454 950 657 1344zM899 159q-7 59 -13 141q-43 0 -43 20v4l-27 -12q-40 17 -40 33v3l23 108q68 38 75 72l-11 288q120 264 153 264h12
q51 -621 51 -950q0 -65 -2 -118l-27 -12h-108q-5 0 -10 7q-31 -33 -39 -67l-5 -24q-3 -12 -3 -22q0 -14 5 -26v-3q0 -31 138 -81q-2 -12 -14 -12l6 -24l-15 -72q-5 -24 -29 -24h-72q-189 0 -189 233v7l10 48q12 55 174 219z" />
    <glyph glyph-name="Cacute" unicode="&#x106;" horiz-adv-x="1032" 
d="M854 1392q244 0 306 -312l-11 -48q-5 -24 -29 -24h-108q-12 0 -65 144q-69 72 -153 72h-24q-228 0 -286 -276l-23 -108q-3 -14 -3 -23q0 -13 7 -13l-25 -60l-59 -276q-12 -55 -12 -101q0 -172 162 -211h24q183 0 296 204q35 36 43 36q27 0 46 -12q25 12 38 12
q21 -12 34 -12l-11 -48q-48 -228 -419 -336h-108q-291 79 -291 287q0 35 8 73l81 384q9 43 11 108l17 24l4 72q80 379 514 444h36zM800 1546q148 147 278 194h65q51 -79 51 -120q0 -7 -1 -12q-65 -49 -287 -108h-55t-51 46z" />
    <glyph glyph-name="cacute" unicode="&#x107;" horiz-adv-x="1032" 
d="M854 1392q244 0 306 -312l-11 -48q-5 -24 -29 -24h-108q-12 0 -65 144q-69 72 -153 72h-24q-228 0 -286 -276l-23 -108q-3 -14 -3 -23q0 -13 7 -13l-25 -60l-59 -276q-12 -55 -12 -101q0 -172 162 -211h24q183 0 296 204q35 36 43 36q27 0 46 -12q25 12 38 12
q21 -12 34 -12l-11 -48q-48 -228 -419 -336h-108q-291 79 -291 287q0 35 8 73l81 384q9 43 11 108l17 24l4 72q80 379 514 444h36zM800 1546q148 147 278 194h65q51 -79 51 -120q0 -7 -1 -12q-65 -49 -287 -108h-55t-51 46z" />
    <glyph glyph-name="Ccircumflex" unicode="&#x108;" horiz-adv-x="1032" 
d="M854 1392q244 0 306 -312l-11 -48q-5 -24 -29 -24h-108q-12 0 -65 144q-69 72 -153 72h-24q-228 0 -286 -276l-23 -108q-3 -14 -3 -23q0 -13 7 -13l-25 -60l-59 -276q-12 -55 -12 -101q0 -172 162 -211h24q183 0 296 204q35 36 43 36q27 0 46 -12q25 12 38 12
q21 -12 34 -12l-11 -48q-48 -228 -419 -336h-108q-291 79 -291 287q0 35 8 73l81 384q9 43 11 108l17 24l4 72q80 379 514 444h36zM973 1500q-83 47 -95 60h-36q-36 0 -131 -48q-45 0 -46 120l2 12q190 96 213 96q150 -59 181 -108q-9 -41 -88 -132z" />
    <glyph glyph-name="ccircumflex" unicode="&#x109;" horiz-adv-x="1032" 
d="M854 1392q244 0 306 -312l-11 -48q-5 -24 -29 -24h-108q-12 0 -65 144q-69 72 -153 72h-24q-228 0 -286 -276l-23 -108q-3 -14 -3 -23q0 -13 7 -13l-25 -60l-59 -276q-12 -55 -12 -101q0 -172 162 -211h24q183 0 296 204q35 36 43 36q27 0 46 -12q25 12 38 12
q21 -12 34 -12l-11 -48q-48 -228 -419 -336h-108q-291 79 -291 287q0 35 8 73l81 384q9 43 11 108l17 24l4 72q80 379 514 444h36zM973 1500q-83 47 -95 60h-36q-36 0 -131 -48q-45 0 -46 120l2 12q190 96 213 96q150 -59 181 -108q-9 -41 -88 -132z" />
    <glyph glyph-name="Cdotaccent" unicode="&#x10a;" horiz-adv-x="1032" 
d="M854 1392q244 0 306 -312l-11 -48q-5 -24 -29 -24h-108q-12 0 -65 144q-69 72 -153 72h-24q-228 0 -286 -276l-23 -108q-3 -14 -3 -23q0 -13 7 -13l-25 -60l-59 -276q-12 -55 -12 -101q0 -172 162 -211h24q183 0 296 204q35 36 43 36q27 0 46 -12q25 12 38 12
q21 -12 34 -12l-11 -48q-48 -228 -419 -336h-108q-291 79 -291 287q0 35 8 73l81 384q9 43 11 108l17 24l4 72q80 379 514 444h36zM804 1722q171 0 171 -40v-4l-25 -116q-28 -44 -45 -44h-96l-21 15q-3 -15 -15 -15h-12q-19 0 -19 19q0 4 1 10l28 131z" />
    <glyph glyph-name="cdotaccent" unicode="&#x10b;" horiz-adv-x="1032" 
d="M854 1392q244 0 306 -312l-11 -48q-5 -24 -29 -24h-108q-12 0 -65 144q-69 72 -153 72h-24q-228 0 -286 -276l-23 -108q-3 -14 -3 -23q0 -13 7 -13l-25 -60l-59 -276q-12 -55 -12 -101q0 -172 162 -211h24q183 0 296 204q35 36 43 36q27 0 46 -12q25 12 38 12
q21 -12 34 -12l-11 -48q-48 -228 -419 -336h-108q-291 79 -291 287q0 35 8 73l81 384q9 43 11 108l17 24l4 72q80 379 514 444h36zM804 1722q171 0 171 -40v-4l-25 -116q-28 -44 -45 -44h-96l-21 15q-3 -15 -15 -15h-12q-19 0 -19 19q0 4 1 10l28 131z" />
    <glyph glyph-name="Ccaron" unicode="&#x10c;" horiz-adv-x="1032" 
d="M854 1392q244 0 306 -312l-11 -48q-5 -24 -29 -24h-108q-12 0 -65 144q-69 72 -153 72h-24q-228 0 -286 -276l-23 -108q-3 -14 -3 -23q0 -13 7 -13l-25 -60l-59 -276q-12 -55 -12 -101q0 -172 162 -211h24q183 0 296 204q35 36 43 36q27 0 46 -12q25 12 38 12
q21 -12 34 -12l-11 -48q-48 -228 -419 -336h-108q-291 79 -291 287q0 35 8 73l81 384q9 43 11 108l17 24l4 72q80 379 514 444h36zM1024 1740q33 -76 33 -117q0 -8 -1 -15q-52 -49 -227 -108q-23 0 -172 96l3 12q52 120 97 120q74 -48 110 -48h36q18 13 121 60z" />
    <glyph glyph-name="ccaron" unicode="&#x10d;" horiz-adv-x="1032" 
d="M854 1392q244 0 306 -312l-11 -48q-5 -24 -29 -24h-108q-12 0 -65 144q-69 72 -153 72h-24q-228 0 -286 -276l-23 -108q-3 -14 -3 -23q0 -13 7 -13l-25 -60l-59 -276q-12 -55 -12 -101q0 -172 162 -211h24q183 0 296 204q35 36 43 36q27 0 46 -12q25 12 38 12
q21 -12 34 -12l-11 -48q-48 -228 -419 -336h-108q-291 79 -291 287q0 35 8 73l81 384q9 43 11 108l17 24l4 72q80 379 514 444h36zM1024 1740q33 -76 33 -117q0 -8 -1 -15q-52 -49 -227 -108q-23 0 -172 96l3 12q52 120 97 120q74 -48 110 -48h36q18 13 121 60z" />
    <glyph glyph-name="Dcaron" unicode="&#x10e;" horiz-adv-x="1164" 
d="M451 1416h132l-19 -144l-260 -1224q-7 -33 -130 -48q-52 14 -52 33v3l2 12q3 12 15 12l-7 24l33 156q3 12 3 22q0 14 -5 26q17 21 22 48q2 8 2 13q0 11 -8 11l29 84l54 252q3 14 3 23q0 13 -7 13l24 60l125 588q4 17 44 36zM832 1404h204q239 0 259 -252q-6 -85 -19 -144
h-12v-3q0 -9 10 -9l-25 -60l-71 -336q-15 -69 -29 -192l-17 -24l7 -24q-127 -348 -386 -348q-77 12 -154 12h-12l-62 -12l-7 24l23 108q3 17 43 36h60l123 12l-3 -12q180 0 216 168q-5 12 -5 26q0 10 3 22q9 40 25 60q2 65 11 108l18 84q2 12 14 12q-5 16 -5 27q0 5 1 9
l17 24l1 4q0 8 -10 8l42 144l36 168q8 39 8 71q0 133 -145 133h-192q-20 0 -20 16q0 4 1 8l23 108q9 24 29 24zM1034 1740q33 -76 33 -117q0 -8 -1 -15q-52 -49 -227 -108q-23 0 -172 96l3 12q52 120 97 120q74 -48 110 -48h36q18 13 121 60z" />
    <glyph glyph-name="dcaron" unicode="&#x10f;" horiz-adv-x="1164" 
d="M451 1416h132l-19 -144l-260 -1224q-7 -33 -130 -48q-52 14 -52 33v3l2 12q3 12 15 12l-7 24l33 156q3 12 3 22q0 14 -5 26q17 21 22 48q2 8 2 13q0 11 -8 11l29 84l54 252q3 14 3 23q0 13 -7 13l24 60l125 588q4 17 44 36zM832 1404h204q239 0 259 -252q-6 -85 -19 -144
h-12v-3q0 -9 10 -9l-25 -60l-71 -336q-15 -69 -29 -192l-17 -24l7 -24q-127 -348 -386 -348q-77 12 -154 12h-12l-62 -12l-7 24l23 108q3 17 43 36h60l123 12l-3 -12q180 0 216 168q-5 12 -5 26q0 10 3 22q9 40 25 60q2 65 11 108l18 84q2 12 14 12q-5 16 -5 27q0 5 1 9
l17 24l1 4q0 8 -10 8l42 144l36 168q8 39 8 71q0 133 -145 133h-192q-20 0 -20 16q0 4 1 8l23 108q9 24 29 24zM1034 1740q33 -76 33 -117q0 -8 -1 -15q-52 -49 -227 -108q-23 0 -172 96l3 12q52 120 97 120q74 -48 110 -48h36q18 13 121 60z" />
    <glyph glyph-name="Dcroat" unicode="&#x110;" horiz-adv-x="1164" 
d="M832 1404h204q239 0 259 -252q-6 -85 -19 -144h-12v-3q0 -9 10 -9l-25 -60l-71 -336q-15 -69 -29 -192l-17 -24l7 -24q-126 -348 -386 -348q-77 12 -154 12h-12l-62 -12l-7 24l23 108q3 17 43 36h60l123 12l-3 -12q180 0 216 168q-5 12 -5 26q0 10 3 22q9 40 25 60
q2 65 11 108l18 84q2 12 14 12q-5 16 -5 27q0 5 1 9l17 24l1 4q0 8 -10 8l42 144l36 168q8 39 8 71q0 133 -145 133h-192q-20 0 -20 16q0 4 1 8l23 108q9 24 29 24zM425 617l-121 -569q-7 -33 -130 -48q-52 14 -52 33v3l2 12q3 12 15 12l-7 24l33 156q3 12 3 22q0 14 -5 26
q17 21 22 48q2 8 2 13q0 11 -8 11l29 84l54 252q3 14 3 23q0 13 -7 13l24 60l125 588q4 17 44 36h132l-19 -144l-100 -470q164 -2 329 -2q6 -3 6 -14q0 -6 -2 -15l-22 -102q-14 -43 -40 -43l-33 -10q-3 0 -3 6q0 3 1 9l-13 -15h-78q-13 0 -13 11v4l-20 -11l-1 -2h-3l-4 -2
l-1 2l-72 10z" />
    <glyph glyph-name="dcroat" unicode="&#x111;" horiz-adv-x="1164" 
d="M832 1404h204q239 0 259 -252q-6 -85 -19 -144h-12v-3q0 -9 10 -9l-25 -60l-71 -336q-15 -69 -29 -192l-17 -24l7 -24q-126 -348 -386 -348q-77 12 -154 12h-12l-62 -12l-7 24l23 108q3 17 43 36h60l123 12l-3 -12q180 0 216 168q-5 12 -5 26q0 10 3 22q9 40 25 60
q2 65 11 108l18 84q2 12 14 12q-5 16 -5 27q0 5 1 9l17 24l1 4q0 8 -10 8l42 144l36 168q8 39 8 71q0 133 -145 133h-192q-20 0 -20 16q0 4 1 8l23 108q9 24 29 24zM425 617l-121 -569q-7 -33 -130 -48q-52 14 -52 33v3l2 12q3 12 15 12l-7 24l33 156q3 12 3 22q0 14 -5 26
q17 21 22 48q2 8 2 13q0 11 -8 11l29 84l54 252q3 14 3 23q0 13 -7 13l24 60l125 588q4 17 44 36h132l-19 -144l-100 -470q164 -2 329 -2q6 -3 6 -14q0 -6 -2 -15l-22 -102q-14 -43 -40 -43l-33 -10q-3 0 -3 6q0 3 1 9l-13 -15h-78q-13 0 -13 11v4l-20 -11l-1 -2h-3l-4 -2
l-1 2l-72 10z" />
    <glyph glyph-name="Emacron" unicode="&#x112;" 
d="M422 1392h744q20 -3 20 -18q0 -3 -1 -6l-23 -108q-5 -24 -104 -36q-79 12 -129 12h-132l-63 -12l3 12l-27 -12q-43 0 -105 12q-26 -12 -39 -12l1 4q0 8 -10 8q-46 -44 -54 -84l-61 -288q-7 -32 -7 -53q0 -38 22 -43h360q20 -3 20 -18q0 -3 -1 -6l-20 -96q-5 -24 -80 -36
l3 12q-12 0 -15 -12l-57 12q-30 0 -99 -12l-57 12l-27 -12q-18 12 -45 12h-12q-18 0 -44 -36l-66 -312q-4 -17 -4 -32q0 -76 101 -76q79 -12 249 -12h132q27 0 51 12q88 -11 88 -34v-2l-20 -96q-5 -24 -29 -24h-228q-78 0 -243 -12l3 12q-12 0 -15 -12l-117 12h-60
q-27 0 -51 -12q-64 15 -64 33v3l283 1332q9 24 29 24zM989 1704q64 0 66 -72l-32 -24q24 0 24 -10v-2l-5 -24q-50 -36 -89 -36h-245q-74 18 -74 34v2l13 60q13 60 97 72h245z" />
    <glyph glyph-name="emacron" unicode="&#x113;" 
d="M422 1392h744q20 -3 20 -18q0 -3 -1 -6l-23 -108q-5 -24 -104 -36q-79 12 -129 12h-132l-63 -12l3 12l-27 -12q-43 0 -105 12q-26 -12 -39 -12l1 4q0 8 -10 8q-46 -44 -54 -84l-61 -288q-7 -32 -7 -53q0 -38 22 -43h360q20 -3 20 -18q0 -3 -1 -6l-20 -96q-5 -24 -80 -36
l3 12q-12 0 -15 -12l-57 12q-30 0 -99 -12l-57 12l-27 -12q-18 12 -45 12h-12q-18 0 -44 -36l-66 -312q-4 -17 -4 -32q0 -76 101 -76q79 -12 249 -12h132q27 0 51 12q88 -11 88 -34v-2l-20 -96q-5 -24 -29 -24h-228q-78 0 -243 -12l3 12q-12 0 -15 -12l-117 12h-60
q-27 0 -51 -12q-64 15 -64 33v3l283 1332q9 24 29 24zM989 1704q64 0 66 -72l-32 -24q24 0 24 -10v-2l-5 -24q-50 -36 -89 -36h-245q-74 18 -74 34v2l13 60q13 60 97 72h245z" />
    <glyph glyph-name="Ebreve" unicode="&#x114;" 
d="M422 1392h744q20 -3 20 -18q0 -3 -1 -6l-23 -108q-5 -24 -104 -36q-79 12 -129 12h-132l-63 -12l3 12l-27 -12q-43 0 -105 12q-26 -12 -39 -12l1 4q0 8 -10 8q-46 -44 -54 -84l-61 -288q-7 -32 -7 -53q0 -38 22 -43h360q20 -3 20 -18q0 -3 -1 -6l-20 -96q-5 -24 -80 -36
l3 12q-12 0 -15 -12l-57 12q-30 0 -99 -12l-57 12l-27 -12q-18 12 -45 12h-12q-18 0 -44 -36l-66 -312q-4 -17 -4 -32q0 -76 101 -76q79 -12 249 -12h132q27 0 51 12q88 -11 88 -34v-2l-20 -96q-5 -24 -29 -24h-228q-78 0 -243 -12l3 12q-12 0 -15 -12l-117 12h-60
q-27 0 -51 -12q-64 15 -64 33v3l283 1332q9 24 29 24zM1072 1714l-1 -8q-21 -96 -99 -163q-37 -31 -97 -43h-64q-144 0 -144 126v3q-5 0 -5 26q0 23 4 68q4 17 15 17q3 0 12 -2l51 2h17q19 -81 58 -81l36 -10l30 10q41 0 95 81h97z" />
    <glyph glyph-name="ebreve" unicode="&#x115;" 
d="M422 1392h744q20 -3 20 -18q0 -3 -1 -6l-23 -108q-5 -24 -104 -36q-79 12 -129 12h-132l-63 -12l3 12l-27 -12q-43 0 -105 12q-26 -12 -39 -12l1 4q0 8 -10 8q-46 -44 -54 -84l-61 -288q-7 -32 -7 -53q0 -38 22 -43h360q20 -3 20 -18q0 -3 -1 -6l-20 -96q-5 -24 -80 -36
l3 12q-12 0 -15 -12l-57 12q-30 0 -99 -12l-57 12l-27 -12q-18 12 -45 12h-12q-18 0 -44 -36l-66 -312q-4 -17 -4 -32q0 -76 101 -76q79 -12 249 -12h132q27 0 51 12q88 -11 88 -34v-2l-20 -96q-5 -24 -29 -24h-228q-78 0 -243 -12l3 12q-12 0 -15 -12l-117 12h-60
q-27 0 -51 -12q-64 15 -64 33v3l283 1332q9 24 29 24zM1072 1714l-1 -8q-21 -96 -99 -163q-37 -31 -97 -43h-64q-144 0 -144 126v3q-5 0 -5 26q0 23 4 68q4 17 15 17q3 0 12 -2l51 2h17q19 -81 58 -81l36 -10l30 10q41 0 95 81h97z" />
    <glyph glyph-name="Edotaccent" unicode="&#x116;" 
d="M422 1392h744q20 -3 20 -18q0 -3 -1 -6l-23 -108q-5 -24 -104 -36q-79 12 -129 12h-132l-63 -12l3 12l-27 -12q-43 0 -105 12q-26 -12 -39 -12l1 4q0 8 -10 8q-46 -44 -54 -84l-61 -288q-7 -32 -7 -53q0 -38 22 -43h360q20 -3 20 -18q0 -3 -1 -6l-20 -96q-5 -24 -80 -36
l3 12q-12 0 -15 -12l-57 12q-30 0 -99 -12l-57 12l-27 -12q-18 12 -45 12h-12q-18 0 -44 -36l-66 -312q-4 -17 -4 -32q0 -76 101 -76q79 -12 249 -12h132q27 0 51 12q88 -11 88 -34v-2l-20 -96q-5 -24 -29 -24h-228q-78 0 -243 -12l3 12q-12 0 -15 -12l-117 12h-60
q-27 0 -51 -12q-64 15 -64 33v3l283 1332q9 24 29 24zM749 1518l-15 44l28 131q6 29 30 29h12q10 0 10 -10l-1 -5l27 15h96q17 0 27 -44l-25 -116q-9 -44 -189 -44z" />
    <glyph glyph-name="edotaccent" unicode="&#x117;" 
d="M422 1392h744q20 -3 20 -18q0 -3 -1 -6l-23 -108q-5 -24 -104 -36q-79 12 -129 12h-132l-63 -12l3 12l-27 -12q-43 0 -105 12q-26 -12 -39 -12l1 4q0 8 -10 8q-46 -44 -54 -84l-61 -288q-7 -32 -7 -53q0 -38 22 -43h360q20 -3 20 -18q0 -3 -1 -6l-20 -96q-5 -24 -80 -36
l3 12q-12 0 -15 -12l-57 12q-30 0 -99 -12l-57 12l-27 -12q-18 12 -45 12h-12q-18 0 -44 -36l-66 -312q-4 -17 -4 -32q0 -76 101 -76q79 -12 249 -12h132q27 0 51 12q88 -11 88 -34v-2l-20 -96q-5 -24 -29 -24h-228q-78 0 -243 -12l3 12q-12 0 -15 -12l-117 12h-60
q-27 0 -51 -12q-64 15 -64 33v3l283 1332q9 24 29 24zM749 1518l-15 44l28 131q6 29 30 29h12q10 0 10 -10l-1 -5l27 15h96q17 0 27 -44l-25 -116q-9 -44 -189 -44z" />
    <glyph glyph-name="Eogonek" unicode="&#x118;" 
d="M598 11q-72 -3 -184 -11l3 12q-12 0 -15 -12l-117 12h-60q-27 0 -51 -12q-64 15 -64 33v3l283 1332q9 24 29 24h744q20 -3 20 -18q0 -3 -1 -6l-23 -108q-5 -24 -104 -36q-79 12 -129 12h-132l-63 -12l3 12l-27 -12q-43 0 -105 12q-26 -12 -39 -12l1 4q0 8 -10 8
q-46 -44 -54 -84l-61 -288q-7 -32 -7 -53q0 -38 22 -43h360q20 -3 20 -18q0 -3 -1 -6l-20 -96q-5 -24 -80 -36l3 12q-12 0 -15 -12l-57 12q-30 0 -99 -12l-57 12l-27 -12q-18 12 -45 12h-12q-17 0 -44 -36l-66 -312q-4 -17 -4 -32q0 -76 101 -76q79 -12 249 -12h132
q27 0 51 12q88 -11 88 -34v-2l-20 -96q-5 -24 -29 -24h-117q-35 -35 -43 -72l-5 -24q-3 -12 -3 -22q0 -14 5 -26v-3q0 -31 138 -81q-2 -12 -14 -12l6 -24l-15 -72q-5 -24 -29 -24h-72q-189 0 -189 233v7l10 48q5 25 41 71z" />
    <glyph glyph-name="eogonek" unicode="&#x119;" 
d="M598 11q-72 -3 -184 -11l3 12q-12 0 -15 -12l-117 12h-60q-27 0 -51 -12q-64 15 -64 33v3l283 1332q9 24 29 24h744q20 -3 20 -18q0 -3 -1 -6l-23 -108q-5 -24 -104 -36q-79 12 -129 12h-132l-63 -12l3 12l-27 -12q-43 0 -105 12q-26 -12 -39 -12l1 4q0 8 -10 8
q-46 -44 -54 -84l-61 -288q-7 -32 -7 -53q0 -38 22 -43h360q20 -3 20 -18q0 -3 -1 -6l-20 -96q-5 -24 -80 -36l3 12q-12 0 -15 -12l-57 12q-30 0 -99 -12l-57 12l-27 -12q-18 12 -45 12h-12q-17 0 -44 -36l-66 -312q-4 -17 -4 -32q0 -76 101 -76q79 -12 249 -12h132
q27 0 51 12q88 -11 88 -34v-2l-20 -96q-5 -24 -29 -24h-117q-35 -35 -43 -72l-5 -24q-3 -12 -3 -22q0 -14 5 -26v-3q0 -31 138 -81q-2 -12 -14 -12l6 -24l-15 -72q-5 -24 -29 -24h-72q-189 0 -189 233v7l10 48q5 25 41 71z" />
    <glyph glyph-name="Ecaron" unicode="&#x11a;" 
d="M422 1392h744q20 -3 20 -18q0 -3 -1 -6l-23 -108q-5 -24 -104 -36q-79 12 -129 12h-132l-63 -12l3 12l-27 -12q-43 0 -105 12q-26 -12 -39 -12l1 4q0 8 -10 8q-46 -44 -54 -84l-61 -288q-7 -32 -7 -53q0 -38 22 -43h360q20 -3 20 -18q0 -3 -1 -6l-20 -96q-5 -24 -80 -36
l3 12q-12 0 -15 -12l-57 12q-30 0 -99 -12l-57 12l-27 -12q-18 12 -45 12h-12q-18 0 -44 -36l-66 -312q-4 -17 -4 -32q0 -76 101 -76q79 -12 249 -12h132q27 0 51 12q88 -11 88 -34v-2l-20 -96q-5 -24 -29 -24h-228q-78 0 -243 -12l3 12q-12 0 -15 -12l-117 12h-60
q-27 0 -51 -12q-64 15 -64 33v3l283 1332q9 24 29 24zM1012 1740q33 -76 33 -117q0 -8 -1 -15q-52 -49 -227 -108q-23 0 -172 96l3 12q52 120 97 120q74 -48 110 -48h36q18 13 121 60z" />
    <glyph glyph-name="ecaron" unicode="&#x11b;" 
d="M422 1392h744q20 -3 20 -18q0 -3 -1 -6l-23 -108q-5 -24 -104 -36q-79 12 -129 12h-132l-63 -12l3 12l-27 -12q-43 0 -105 12q-26 -12 -39 -12l1 4q0 8 -10 8q-46 -44 -54 -84l-61 -288q-7 -32 -7 -53q0 -38 22 -43h360q20 -3 20 -18q0 -3 -1 -6l-20 -96q-5 -24 -80 -36
l3 12q-12 0 -15 -12l-57 12q-30 0 -99 -12l-57 12l-27 -12q-18 12 -45 12h-12q-18 0 -44 -36l-66 -312q-4 -17 -4 -32q0 -76 101 -76q79 -12 249 -12h132q27 0 51 12q88 -11 88 -34v-2l-20 -96q-5 -24 -29 -24h-228q-78 0 -243 -12l3 12q-12 0 -15 -12l-117 12h-60
q-27 0 -51 -12q-64 15 -64 33v3l283 1332q9 24 29 24zM1012 1740q33 -76 33 -117q0 -8 -1 -15q-52 -49 -227 -108q-23 0 -172 96l3 12q52 120 97 120q74 -48 110 -48h36q18 13 121 60z" />
    <glyph glyph-name="Gcircumflex" unicode="&#x11c;" horiz-adv-x="1032" 
d="M830 1392q270 0 315 -324l2 -48q-12 0 -15 -12q-153 0 -153 60q0 6 1 12q-53 156 -159 156q-288 0 -357 -324l-102 -480q-5 -37 -5 -69q0 -207 198 -207q264 56 306 252l5 24q2 8 2 15q0 57 -107 57q-101 0 -101 31q0 3 1 5l25 120h48q27 0 51 12q21 -12 33 -12
q24 0 27 12l223 -24l-18 -84q-3 -12 -15 -12v-3q0 -9 10 -9q-90 -424 -398 -516q-107 -24 -125 -24q-273 0 -332 300q27 206 27 240l27 72l31 144q2 11 2 21q0 15 -4 27q16 21 22 48l18 84q3 12 3 22q0 14 -5 26q59 277 396 396q66 12 123 12zM973 1500q-83 47 -95 60h-36
q-36 0 -131 -48q-45 0 -46 120l2 12q190 96 213 96q150 -59 181 -108q-9 -41 -88 -132z" />
    <glyph glyph-name="gcircumflex" unicode="&#x11d;" horiz-adv-x="1032" 
d="M830 1392q270 0 315 -324l2 -48q-12 0 -15 -12q-153 0 -153 60q0 6 1 12q-53 156 -159 156q-288 0 -357 -324l-102 -480q-5 -37 -5 -69q0 -207 198 -207q264 56 306 252l5 24q2 8 2 15q0 57 -107 57q-101 0 -101 31q0 3 1 5l25 120h48q27 0 51 12q21 -12 33 -12
q24 0 27 12l223 -24l-18 -84q-3 -12 -15 -12v-3q0 -9 10 -9q-90 -424 -398 -516q-107 -24 -125 -24q-273 0 -332 300q27 206 27 240l27 72l31 144q2 11 2 21q0 15 -4 27q16 21 22 48l18 84q3 12 3 22q0 14 -5 26q59 277 396 396q66 12 123 12zM973 1500q-83 47 -95 60h-36
q-36 0 -131 -48q-45 0 -46 120l2 12q190 96 213 96q150 -59 181 -108q-9 -41 -88 -132z" />
    <glyph glyph-name="Gbreve" unicode="&#x11e;" horiz-adv-x="1032" 
d="M830 1392q270 0 315 -324l2 -48q-12 0 -15 -12q-153 0 -153 60q0 6 1 12q-53 156 -159 156q-288 0 -357 -324l-102 -480q-5 -37 -5 -69q0 -207 198 -207q264 56 306 252l5 24q2 8 2 15q0 57 -107 57q-101 0 -101 31q0 3 1 5l25 120h48q27 0 51 12q21 -12 33 -12
q24 0 27 12l223 -24l-18 -84q-3 -12 -15 -12v-3q0 -9 10 -9q-90 -424 -398 -516q-107 -24 -125 -24q-273 0 -332 300q27 206 27 240l27 72l31 144q2 11 2 21q0 15 -4 27q16 21 22 48l18 84q3 12 3 22q0 14 -5 26q59 277 396 396q66 12 123 12zM1084 1714l-1 -8
q-21 -96 -99 -163q-37 -31 -97 -43h-64q-144 0 -144 126v3q-5 0 -5 26q0 23 4 68q4 17 15 17q3 0 12 -2l51 2h17q19 -81 58 -81l36 -10l30 10q41 0 95 81h97z" />
    <glyph glyph-name="gbreve" unicode="&#x11f;" horiz-adv-x="1032" 
d="M830 1392q270 0 315 -324l2 -48q-12 0 -15 -12q-153 0 -153 60q0 6 1 12q-53 156 -159 156q-288 0 -357 -324l-102 -480q-5 -37 -5 -69q0 -207 198 -207q264 56 306 252l5 24q2 8 2 15q0 57 -107 57q-101 0 -101 31q0 3 1 5l25 120h48q27 0 51 12q21 -12 33 -12
q24 0 27 12l223 -24l-18 -84q-3 -12 -15 -12v-3q0 -9 10 -9q-90 -424 -398 -516q-107 -24 -125 -24q-273 0 -332 300q27 206 27 240l27 72l31 144q2 11 2 21q0 15 -4 27q16 21 22 48l18 84q3 12 3 22q0 14 -5 26q59 277 396 396q66 12 123 12zM1084 1714l-1 -8
q-21 -96 -99 -163q-37 -31 -97 -43h-64q-144 0 -144 126v3q-5 0 -5 26q0 23 4 68q4 17 15 17q3 0 12 -2l51 2h17q19 -81 58 -81l36 -10l30 10q41 0 95 81h97z" />
    <glyph glyph-name="Gdotaccent" unicode="&#x120;" horiz-adv-x="1032" 
d="M830 1392q270 0 315 -324l2 -48q-12 0 -15 -12q-153 0 -153 60q0 6 1 12q-53 156 -159 156q-288 0 -357 -324l-102 -480q-5 -37 -5 -69q0 -207 198 -207q264 56 306 252l5 24q2 8 2 15q0 57 -107 57q-101 0 -101 31q0 3 1 5l25 120h48q27 0 51 12q21 -12 33 -12
q24 0 27 12l223 -24l-18 -84q-3 -12 -15 -12v-3q0 -9 10 -9q-90 -424 -398 -516q-107 -24 -125 -24q-273 0 -332 300q27 206 27 240l27 72l31 144q2 11 2 21q0 15 -4 27q16 21 22 48l18 84q3 12 3 22q0 14 -5 26q59 277 396 396q66 12 123 12zM960 1722l15 -44l-28 -131
q-6 -29 -30 -29h-12q-10 0 -10 10l1 5l-27 -15h-96q-18 0 -27 44l25 116q9 44 189 44z" />
    <glyph glyph-name="gdotaccent" unicode="&#x121;" horiz-adv-x="1032" 
d="M830 1392q270 0 315 -324l2 -48q-12 0 -15 -12q-153 0 -153 60q0 6 1 12q-53 156 -159 156q-288 0 -357 -324l-102 -480q-5 -37 -5 -69q0 -207 198 -207q264 56 306 252l5 24q2 8 2 15q0 57 -107 57q-101 0 -101 31q0 3 1 5l25 120h48q27 0 51 12q21 -12 33 -12
q24 0 27 12l223 -24l-18 -84q-3 -12 -15 -12v-3q0 -9 10 -9q-90 -424 -398 -516q-107 -24 -125 -24q-273 0 -332 300q27 206 27 240l27 72l31 144q2 11 2 21q0 15 -4 27q16 21 22 48l18 84q3 12 3 22q0 14 -5 26q59 277 396 396q66 12 123 12zM960 1722l15 -44l-28 -131
q-6 -29 -30 -29h-12q-10 0 -10 10l1 5l-27 -15h-96q-18 0 -27 44l25 116q9 44 189 44z" />
    <glyph glyph-name="uni0122" unicode="&#x122;" horiz-adv-x="1032" 
d="M655 27q17 -46 17 -73q0 -8 -1 -14l-10 -48q-99 -240 -291 -240h-72q-20 0 -20 16q0 4 1 8l15 72l18 24q-10 0 -10 9v3q166 52 174 84q16 21 22 48l5 24q2 11 2 22q0 20 -8 39q-251 13 -307 299q27 199 27 237v3l27 72l31 144q2 11 2 21q0 15 -4 27q16 21 22 48l18 84
q3 12 3 22q0 14 -5 26q59 277 396 396q66 12 123 12q270 0 315 -324l2 -48q-12 0 -15 -12q-153 0 -153 60q0 6 1 12q-53 156 -159 156q-288 0 -357 -324l-102 -480q-5 -37 -5 -70q0 -206 198 -206q264 56 306 252l5 24q2 8 2 15q0 57 -107 57q-101 0 -101 31q0 3 1 5l25 120
h48q27 0 51 12q20 -12 33 -12q24 0 27 12l223 -24l-18 -84q-3 -12 -15 -12v-3q0 -9 10 -9q-89 -418 -390 -513z" />
    <glyph glyph-name="uni0123" unicode="&#x123;" horiz-adv-x="1032" 
d="M655 27q17 -46 17 -73q0 -8 -1 -14l-10 -48q-99 -240 -291 -240h-72q-20 0 -20 16q0 4 1 8l15 72l18 24q-10 0 -10 9v3q166 52 174 84q16 21 22 48l5 24q2 11 2 22q0 20 -8 39q-251 13 -307 299q27 199 27 237v3l27 72l31 144q2 11 2 21q0 15 -4 27q16 21 22 48l18 84
q3 12 3 22q0 14 -5 26q59 277 396 396q66 12 123 12q270 0 315 -324l2 -48q-12 0 -15 -12q-153 0 -153 60q0 6 1 12q-53 156 -159 156q-288 0 -357 -324l-102 -480q-5 -37 -5 -70q0 -206 198 -206q264 56 306 252l5 24q2 8 2 15q0 57 -107 57q-101 0 -101 31q0 3 1 5l25 120
h48q27 0 51 12q20 -12 33 -12q24 0 27 12l223 -24l-18 -84q-3 -12 -15 -12v-3q0 -9 10 -9q-89 -418 -390 -513z" />
    <glyph glyph-name="Hcircumflex" unicode="&#x124;" 
d="M434 1392q79 -12 129 -12q-38 -124 -42 -144q-1 -2 -1 -8q0 -12 3 -40l-18 -24q5 -12 5 -26q0 -10 -3 -22q-2 -12 -14 -12l7 -24l-6 -24q-14 -66 -47 -168q5 -16 5 -27q0 -5 -1 -9h-12q-2 -9 -2 -16q0 -56 95 -56h300q62 0 97 60q22 162 39 240l61 288q9 24 29 24l21 -12
l27 12l21 -12q24 12 51 12l16 -36l-237 -1116q-3 -12 -15 -12l7 -24l-12 -60l-28 -72q4 -10 4 -25t-4 -35l-27 -12h-36q-27 0 -45 12q-26 -12 -39 -12l-16 36h12q-5 18 -5 30v6q8 36 20 36l13 120l26 120q9 43 35 108q5 45 5 76q0 80 -32 80h-108q-10 0 -10 8l1 4
q-12 0 -15 -12l-81 12q-216 0 -234 -84l-8 -36v-3q0 -9 10 -9l-25 -60l-13 -60q-3 -14 -3 -23q0 -13 7 -13l-24 -60l-54 -252q-5 -24 -29 -24h-108l-21 12q2 13 19 36l11 108l30 84q2 11 8 96q35 106 40 132v12q0 41 6 72h12l-7 24q3 12 15 12l-7 24l18 84q2 12 14 12l-6 24
l17 24v3q0 9 -10 9q5 24 17 24q31 198 52 300l49 228q22 72 51 72zM961 1500q-83 47 -95 60h-36q-36 0 -131 -48q-45 0 -46 120l2 12q190 96 213 96q150 -59 181 -108q-9 -41 -88 -132z" />
    <glyph glyph-name="hcircumflex" unicode="&#x125;" 
d="M434 1392q79 -12 129 -12q-38 -124 -42 -144q-1 -2 -1 -8q0 -12 3 -40l-18 -24q5 -12 5 -26q0 -10 -3 -22q-2 -12 -14 -12l7 -24l-6 -24q-14 -66 -47 -168q5 -16 5 -27q0 -5 -1 -9h-12q-2 -9 -2 -16q0 -56 95 -56h300q62 0 97 60q22 162 39 240l61 288q9 24 29 24l21 -12
l27 12l21 -12q24 12 51 12l16 -36l-237 -1116q-3 -12 -15 -12l7 -24l-12 -60l-28 -72q4 -10 4 -25t-4 -35l-27 -12h-36q-27 0 -45 12q-26 -12 -39 -12l-16 36h12q-5 18 -5 30v6q8 36 20 36l13 120l26 120q9 43 35 108q5 45 5 76q0 80 -32 80h-108q-10 0 -10 8l1 4
q-12 0 -15 -12l-81 12q-216 0 -234 -84l-8 -36v-3q0 -9 10 -9l-25 -60l-13 -60q-3 -14 -3 -23q0 -13 7 -13l-24 -60l-54 -252q-5 -24 -29 -24h-108l-21 12q2 13 19 36l11 108l30 84q2 11 8 96q35 106 40 132v12q0 41 6 72h12l-7 24q3 12 15 12l-7 24l18 84q2 12 14 12l-6 24
l17 24v3q0 9 -10 9q5 24 17 24q31 198 52 300l49 228q22 72 51 72zM961 1500q-83 47 -95 60h-36q-36 0 -131 -48q-45 0 -46 120l2 12q190 96 213 96q150 -59 181 -108q-9 -41 -88 -132z" />
    <glyph glyph-name="Hbar" unicode="&#x126;" 
d="M349 1163l34 157q23 72 51 72q79 -12 129 -12q-38 -124 -42 -144q-1 -2 -1 -8q0 -12 3 -40l-18 -24q1 -1 1 -2q82 -1 165 -1q5 -3 5 -12q0 -6 -2 -14l-19 -89q-12 -38 -34 -38h-27q-3 0 -3 5q0 3 1 8l-12 -13h-68q-12 0 -12 9q0 2 1 4l-17 -9l-1 -2q-13 -53 -36 -122
q5 -16 5 -27q0 -5 -1 -9h-12q-2 -9 -2 -16q0 -56 95 -56h300q62 0 97 60q12 93 23 159h-156q-5 3 -5 12q0 6 2 14l19 89q12 38 34 38h27q3 0 3 -5q0 -3 -1 -8l12 13h68q12 0 12 -9q0 -2 -1 -4l16 8l47 221q9 24 29 24l21 -12l27 12l21 -12q24 12 51 12l16 -36l-42 -197
q34 -9 91 -9q6 0 6 -10q0 -6 -2 -15l-19 -90q-4 -19 -26 -38h-84l-161 -757q-3 -12 -15 -12l7 -24l-12 -60l-28 -72q4 -10 4 -25t-4 -35l-27 -12h-36q-27 0 -45 12q-26 -12 -39 -12l-16 36h12q-5 18 -5 30v6q8 36 20 36l13 120l26 120q9 43 35 108q5 43 5 75q0 81 -32 81
h-108q-10 0 -10 8l1 4q-12 0 -15 -12l-81 12q-216 0 -234 -84l-8 -36v-3q0 -9 10 -9l-25 -60l-13 -60q-3 -14 -3 -23q0 -13 7 -13l-24 -60l-54 -252q-5 -24 -29 -24h-108l-21 12q2 13 19 36l11 108l30 84q2 11 8 96q35 106 40 132v12q0 41 6 72h12l-7 24q3 12 15 12l-7 24
l18 84q2 12 14 12l-6 24l17 24v3q0 9 -10 9q5 24 17 24q19 123 34 208q-33 10 -92 10q-6 0 -6 10q0 6 2 15l19 90q4 19 26 38h84z" />
    <glyph glyph-name="hbar" unicode="&#x127;" 
d="M349 1163l34 157q23 72 51 72q79 -12 129 -12q-38 -124 -42 -144q-1 -2 -1 -8q0 -12 3 -40l-18 -24q1 -1 1 -2q82 -1 165 -1q5 -3 5 -12q0 -6 -2 -14l-19 -89q-12 -38 -34 -38h-27q-3 0 -3 5q0 3 1 8l-12 -13h-68q-12 0 -12 9q0 2 1 4l-17 -9l-1 -2q-13 -53 -36 -122
q5 -16 5 -27q0 -5 -1 -9h-12q-2 -9 -2 -16q0 -56 95 -56h300q62 0 97 60q12 93 23 159h-156q-5 3 -5 12q0 6 2 14l19 89q12 38 34 38h27q3 0 3 -5q0 -3 -1 -8l12 13h68q12 0 12 -9q0 -2 -1 -4l16 8l47 221q9 24 29 24l21 -12l27 12l21 -12q24 12 51 12l16 -36l-42 -197
q34 -9 91 -9q6 0 6 -10q0 -6 -2 -15l-19 -90q-4 -19 -26 -38h-84l-161 -757q-3 -12 -15 -12l7 -24l-12 -60l-28 -72q4 -10 4 -25t-4 -35l-27 -12h-36q-27 0 -45 12q-26 -12 -39 -12l-16 36h12q-5 18 -5 30v6q8 36 20 36l13 120l26 120q9 43 35 108q5 43 5 75q0 81 -32 81
h-108q-10 0 -10 8l1 4q-12 0 -15 -12l-81 12q-216 0 -234 -84l-8 -36v-3q0 -9 10 -9l-25 -60l-13 -60q-3 -14 -3 -23q0 -13 7 -13l-24 -60l-54 -252q-5 -24 -29 -24h-108l-21 12q2 13 19 36l11 108l30 84q2 11 8 96q35 106 40 132v12q0 41 6 72h12l-7 24q3 12 15 12l-7 24
l18 84q2 12 14 12l-6 24l17 24v3q0 9 -10 9q5 24 17 24q19 123 34 208q-33 10 -92 10q-6 0 -6 10q0 6 2 15l19 90q4 19 26 38h84z" />
    <glyph glyph-name="Itilde" unicode="&#x128;" horiz-adv-x="372" 
d="M434 1392q10 0 10 -8l-1 -4l27 12h60q24 -9 24 -43q0 -13 -3 -29l-276 -1296q-5 -24 -29 -24h-120q-20 0 -20 16q0 4 1 8l5 24q8 36 20 36l1 60l257 1212q4 17 44 36zM740 1645q-25 -116 -144 -145h-22q-20 0 -64 20l-34 50q-11 8 -24 8h-11q-13 0 -23 -7q-16 0 -55 -71
q-5 0 -5 5v2l-12 -7h-34q-9 0 -9 9q0 3 1 6l17 80q25 116 144 145h22q20 0 64 -20l34 -50q10 -8 23 -8h11q13 0 24 7q16 1 55 71q5 0 5 -4q0 -1 -1 -3l13 7h34q9 0 9 -9q0 -3 -1 -6z" />
    <glyph glyph-name="itilde" unicode="&#x129;" horiz-adv-x="372" 
d="M434 1392q10 0 10 -8l-1 -4l27 12h60q24 -9 24 -43q0 -13 -3 -29l-276 -1296q-5 -24 -29 -24h-120q-20 0 -20 16q0 4 1 8l5 24q8 36 20 36l1 60l257 1212q4 17 44 36zM740 1645q-25 -116 -144 -145h-22q-20 0 -64 20l-34 50q-11 8 -24 8h-11q-13 0 -23 -7q-16 0 -55 -71
q-5 0 -5 5v2l-12 -7h-34q-9 0 -9 9q0 3 1 6l17 80q25 116 144 145h22q20 0 64 -20l34 -50q10 -8 23 -8h11q13 0 24 7q16 1 55 71q5 0 5 -4q0 -1 -1 -3l13 7h34q9 0 9 -9q0 -3 -1 -6z" />
    <glyph glyph-name="Imacron" unicode="&#x12a;" horiz-adv-x="372" 
d="M434 1392q10 0 10 -8l-1 -4l27 12h60q24 -9 24 -43q0 -13 -3 -29l-276 -1296q-5 -24 -29 -24h-120q-20 0 -20 16q0 4 1 8l5 24q8 36 20 36l1 60l257 1212q4 17 44 36zM610 1536h-195q-52 10 -52 53q0 9 2 19l12 60q4 17 73 36h196q31 0 58 -36l-5 -24q-3 -12 -25 -12
l17 -24q-29 -72 -81 -72z" />
    <glyph glyph-name="imacron" unicode="&#x12b;" horiz-adv-x="372" 
d="M434 1392q10 0 10 -8l-1 -4l27 12h60q24 -9 24 -43q0 -13 -3 -29l-276 -1296q-5 -24 -29 -24h-120q-20 0 -20 16q0 4 1 8l5 24q8 36 20 36l1 60l257 1212q4 17 44 36zM610 1536h-195q-52 10 -52 53q0 9 2 19l12 60q4 17 73 36h196q31 0 58 -36l-5 -24q-3 -12 -25 -12
l17 -24q-29 -72 -81 -72z" />
    <glyph glyph-name="Ibreve" unicode="&#x12c;" horiz-adv-x="372" 
d="M434 1392q10 0 10 -8l-1 -4l27 12h60q24 -9 24 -43q0 -13 -3 -29l-276 -1296q-5 -24 -29 -24h-120q-20 0 -20 16q0 4 1 8l5 24q8 36 20 36l1 60l257 1212q4 17 44 36zM754 1714l-1 -8q-21 -96 -99 -163q-37 -31 -97 -43h-64q-144 0 -144 126v3q-5 0 -5 26q0 23 4 68
q4 17 15 17q3 0 12 -2l51 2h17q19 -81 58 -81l36 -10l30 10q41 0 95 81h97z" />
    <glyph glyph-name="ibreve" unicode="&#x12d;" horiz-adv-x="372" 
d="M434 1392q10 0 10 -8l-1 -4l27 12h60q24 -9 24 -43q0 -13 -3 -29l-276 -1296q-5 -24 -29 -24h-120q-20 0 -20 16q0 4 1 8l5 24q8 36 20 36l1 60l257 1212q4 17 44 36zM754 1714l-1 -8q-21 -96 -99 -163q-37 -31 -97 -43h-64q-144 0 -144 126v3q-5 0 -5 26q0 23 4 68
q4 17 15 17q3 0 12 -2l51 2h17q19 -81 58 -81l36 -10l30 10q41 0 95 81h97z" />
    <glyph glyph-name="Iogonek" unicode="&#x12e;" horiz-adv-x="372" 
d="M140 180l250 1176q4 17 44 36q10 0 10 -8l-1 -4l27 12h60q24 -9 24 -43q0 -13 -3 -29l-276 -1296q-5 -24 -29 -24h-125q-25 -29 -32 -60l-5 -24q-3 -12 -3 -22q0 -14 5 -26v-3q0 -31 138 -81q-2 -12 -14 -12l6 -24l-15 -72q-5 -24 -29 -24h-72q-189 0 -189 233v7l10 48
q13 59 195 240h24z" />
    <glyph glyph-name="iogonek" unicode="&#x12f;" horiz-adv-x="372" 
d="M140 180l250 1176q4 17 44 36q10 0 10 -8l-1 -4l27 12h60q24 -9 24 -43q0 -13 -3 -29l-276 -1296q-5 -24 -29 -24h-125q-25 -29 -32 -60l-5 -24q-3 -12 -3 -22q0 -14 5 -26v-3q0 -31 138 -81q-2 -12 -14 -12l6 -24l-15 -72q-5 -24 -29 -24h-72q-189 0 -189 233v7l10 48
q13 59 195 240h24z" />
    <glyph glyph-name="Idotaccent" unicode="&#x130;" horiz-adv-x="372" 
d="M434 1392q10 0 10 -8l-1 -4l27 12h60q24 -9 24 -43q0 -13 -3 -29l-276 -1296q-5 -24 -29 -24h-120q-20 0 -20 16q0 4 1 8l5 24q8 36 20 36l1 60l257 1212q4 17 44 36zM431 1518l-15 44l28 131q6 29 30 29h12q10 0 10 -10l-1 -5l27 15h96q17 0 27 -44l-25 -116
q-9 -44 -189 -44z" />
    <glyph glyph-name="dotlessi" unicode="&#x131;" horiz-adv-x="372" 
d="M434 1392q10 0 10 -8l-1 -4l27 12h60q24 -9 24 -43q0 -13 -3 -29l-276 -1296q-5 -24 -29 -24h-120q-20 0 -20 16q0 4 1 8l5 24q8 36 20 36l1 60l257 1212q4 17 44 36zM431 1518l-15 44l28 131q6 29 30 29h12q10 0 10 -10l-1 -5l27 15h96q17 0 27 -44l-25 -116
q-9 -44 -189 -44z" />
    <glyph glyph-name="Jcircumflex" unicode="&#x134;" horiz-adv-x="1020" 
d="M1060 1404q6 0 46 -12l86 12v-3q0 -9 10 -9q-35 -222 -57 -324l-13 -60q-7 -36 -19 -36l-1 -60l-107 -504q-67 -316 -447 -408h-60q-277 0 -330 312l8 36l27 12h96q111 -204 220 -204h12q266 67 301 228l211 996zM1279 1500q-83 47 -95 60h-36q-36 0 -131 -48
q-45 0 -46 120l2 12q190 96 213 96q150 -59 181 -108q-9 -41 -88 -132z" />
    <glyph glyph-name="jcircumflex" unicode="&#x135;" horiz-adv-x="1020" 
d="M1060 1404q6 0 46 -12l86 12v-3q0 -9 10 -9q-35 -222 -57 -324l-13 -60q-7 -36 -19 -36l-1 -60l-107 -504q-67 -316 -447 -408h-60q-277 0 -330 312l8 36l27 12h96q111 -204 220 -204h12q266 67 301 228l211 996zM1279 1500q-83 47 -95 60h-36q-36 0 -131 -48
q-45 0 -46 120l2 12q190 96 213 96q150 -59 181 -108q-9 -41 -88 -132z" />
    <glyph glyph-name="uni0136" unicode="&#x136;" horiz-adv-x="1116" 
d="M424 1404h108q25 -9 25 -42q0 -13 -4 -30l-71 -336l-28 -72q-8 -62 -8 -97q0 -47 14 -47h48q141 116 547 540q76 72 87 72h132l31 -24l-564 -564l-5 -24q247 -705 247 -754v-2q-5 -24 -29 -24h-120q-15 4 -232 600l-22 12h-24q-182 -123 -202 -216l-79 -372
q-5 -24 -29 -24q-10 0 -10 8l1 4l-27 -12h-84q-20 0 -20 16q0 4 1 8l288 1356q9 24 29 24zM482 180h96q94 -161 94 -226q0 -8 -1 -14l-10 -48q-99 -240 -291 -240h-72q-20 0 -20 16q0 4 1 8l15 72l18 24q-10 0 -10 9v3q166 52 174 84q16 21 22 48l5 24q2 11 2 21
q0 58 -70 111l18 84q9 24 29 24z" />
    <glyph glyph-name="uni0137" unicode="&#x137;" horiz-adv-x="1116" 
d="M424 1404h108q25 -9 25 -42q0 -13 -4 -30l-71 -336l-28 -72q-8 -62 -8 -97q0 -47 14 -47h48q141 116 547 540q76 72 87 72h132l31 -24l-564 -564l-5 -24q247 -705 247 -754v-2q-5 -24 -29 -24h-120q-15 4 -232 600l-22 12h-24q-182 -123 -202 -216l-79 -372
q-5 -24 -29 -24q-10 0 -10 8l1 4l-27 -12h-84q-20 0 -20 16q0 4 1 8l288 1356q9 24 29 24zM482 180h96q94 -161 94 -226q0 -8 -1 -14l-10 -48q-99 -240 -291 -240h-72q-20 0 -20 16q0 4 1 8l15 72l18 24q-10 0 -10 9v3q166 52 174 84q16 21 22 48l5 24q2 11 2 21
q0 58 -70 111l18 84q9 24 29 24z" />
    <glyph glyph-name="Lacute" unicode="&#x139;" horiz-adv-x="1020" 
d="M424 1404h108q19 0 19 -22q0 -6 -2 -14q-3 -12 -15 -12l-1 -60l-219 -1032q-3 -15 -3 -27q0 -57 69 -57h288q27 0 46 -12q12 0 14 12l58 -12h132q17 0 28 -36l-23 -108q-5 -24 -29 -24q-104 12 -129 12q-26 -12 -39 -12l3 12l-27 -12h-60q-66 0 -165 12l-27 -12
q-10 0 -10 8l1 4l-63 -12h-240l-21 12q114 594 184 924l56 264l27 72q-3 9 -3 23q0 16 4 37l10 48q9 24 29 24zM481 1546q148 147 278 194h65q51 -79 51 -120q0 -7 -1 -12q-65 -49 -287 -108h-55t-51 46z" />
    <glyph glyph-name="lacute" unicode="&#x13a;" horiz-adv-x="1020" 
d="M424 1404h108q19 0 19 -22q0 -6 -2 -14q-3 -12 -15 -12l-1 -60l-219 -1032q-3 -15 -3 -27q0 -57 69 -57h288q27 0 46 -12q12 0 14 12l58 -12h132q17 0 28 -36l-23 -108q-5 -24 -29 -24q-104 12 -129 12q-26 -12 -39 -12l3 12l-27 -12h-60q-66 0 -165 12l-27 -12
q-10 0 -10 8l1 4l-63 -12h-240l-21 12q114 594 184 924l56 264l27 72q-3 9 -3 23q0 16 4 37l10 48q9 24 29 24zM481 1546q148 147 278 194h65q51 -79 51 -120q0 -7 -1 -12q-65 -49 -287 -108h-55t-51 46z" />
    <glyph glyph-name="uni013B" unicode="&#x13b;" horiz-adv-x="1020" 
d="M486 11q-5 0 -9 1l-27 -12q-10 0 -10 8l1 4l-63 -12h-240l-21 12q114 594 184 924l56 264l27 72q-3 9 -3 23q0 16 4 37l10 48q9 24 29 24h108q19 0 19 -22q0 -6 -2 -14q-3 -12 -15 -12l-1 -60l-219 -1032q-3 -15 -3 -27q0 -57 69 -57h288q27 0 46 -12q12 0 14 12l58 -12
h132q17 0 28 -36l-23 -108q-5 -24 -29 -24q-103 12 -129 12q-26 -12 -39 -12l3 12l-27 -12h-44q8 -27 8 -46q0 -8 -1 -14l-10 -48q-99 -240 -291 -240h-72q-20 0 -20 16q0 4 1 8l15 72l18 24q-10 0 -10 9v3q166 52 174 84q16 21 22 48l5 24q2 11 2 21q0 25 -13 50z" />
    <glyph glyph-name="uni013C" unicode="&#x13c;" horiz-adv-x="1020" 
d="M486 11q-5 0 -9 1l-27 -12q-10 0 -10 8l1 4l-63 -12h-240l-21 12q114 594 184 924l56 264l27 72q-3 9 -3 23q0 16 4 37l10 48q9 24 29 24h108q19 0 19 -22q0 -6 -2 -14q-3 -12 -15 -12l-1 -60l-219 -1032q-3 -15 -3 -27q0 -57 69 -57h288q27 0 46 -12q12 0 14 12l58 -12
h132q17 0 28 -36l-23 -108q-5 -24 -29 -24q-103 12 -129 12q-26 -12 -39 -12l3 12l-27 -12h-44q8 -27 8 -46q0 -8 -1 -14l-10 -48q-99 -240 -291 -240h-72q-20 0 -20 16q0 4 1 8l15 72l18 24q-10 0 -10 9v3q166 52 174 84q16 21 22 48l5 24q2 11 2 21q0 25 -13 50z" />
    <glyph glyph-name="Lcaron" unicode="&#x13d;" horiz-adv-x="1020" 
d="M424 1404h108q19 0 19 -22q0 -6 -2 -14q-3 -12 -15 -12l-1 -60l-219 -1032q-3 -15 -3 -27q0 -57 69 -57h288q27 0 46 -12q12 0 14 12l58 -12h132q17 0 28 -36l-23 -108q-5 -24 -29 -24q-104 12 -129 12q-26 -12 -39 -12l3 12l-27 -12h-60q-66 0 -165 12l-27 -12
q-10 0 -10 8l1 4l-63 -12h-240l-21 12q114 594 184 924l56 264l27 72q-3 9 -3 23q0 16 4 37l10 48q9 24 29 24zM854 1010l38 178q13 64 51 191l108 13l-3 -13l24 13h10q17 0 17 -16q0 -4 -1 -9l-62 -294l-3 -63q-21 0 -27 -26l-18 13l-129 -13z" />
    <glyph glyph-name="lcaron" unicode="&#x13e;" horiz-adv-x="1020" 
d="M424 1404h108q19 0 19 -22q0 -6 -2 -14q-3 -12 -15 -12l-1 -60l-219 -1032q-3 -15 -3 -27q0 -57 69 -57h288q27 0 46 -12q12 0 14 12l58 -12h132q17 0 28 -36l-23 -108q-5 -24 -29 -24q-104 12 -129 12q-26 -12 -39 -12l3 12l-27 -12h-60q-66 0 -165 12l-27 -12
q-10 0 -10 8l1 4l-63 -12h-240l-21 12q114 594 184 924l56 264l27 72q-3 9 -3 23q0 16 4 37l10 48q9 24 29 24zM854 1010l38 178q13 64 51 191l108 13l-3 -13l24 13h10q17 0 17 -16q0 -4 -1 -9l-62 -294l-3 -63q-21 0 -27 -26l-18 13l-129 -13z" />
    <glyph glyph-name="Ldot" unicode="&#x13f;" horiz-adv-x="1020" 
d="M424 1404h108q19 0 19 -22q0 -6 -2 -14q-3 -12 -15 -12l-1 -60l-219 -1032q-3 -15 -3 -27q0 -57 69 -57h288q27 0 46 -12q12 0 14 12l58 -12h132q17 0 28 -36l-23 -108q-5 -24 -29 -24q-104 12 -129 12q-26 -12 -39 -12l3 12l-27 -12h-60q-66 0 -165 12l-27 -12
q-10 0 -10 8l1 4l-63 -12h-240l-21 12q114 594 184 924l56 264l27 72q-3 9 -3 23q0 16 4 37l10 48q9 24 29 24zM855 887l15 -44l-28 -131q-6 -29 -30 -29h-12q-10 0 -10 9q0 2 1 5l-27 -14h-96q-17 0 -27 43l25 117q9 44 189 44z" />
    <glyph glyph-name="ldot" unicode="&#x140;" horiz-adv-x="1020" 
d="M424 1404h108q19 0 19 -22q0 -6 -2 -14q-3 -12 -15 -12l-1 -60l-219 -1032q-3 -15 -3 -27q0 -57 69 -57h288q27 0 46 -12q12 0 14 12l58 -12h132q17 0 28 -36l-23 -108q-5 -24 -29 -24q-104 12 -129 12q-26 -12 -39 -12l3 12l-27 -12h-60q-66 0 -165 12l-27 -12
q-10 0 -10 8l1 4l-63 -12h-240l-21 12q114 594 184 924l56 264l27 72q-3 9 -3 23q0 16 4 37l10 48q9 24 29 24zM855 887l15 -44l-28 -131q-6 -29 -30 -29h-12q-10 0 -10 9q0 2 1 5l-27 -14h-96q-17 0 -27 43l25 117q9 44 189 44z" />
    <glyph glyph-name="Lslash" unicode="&#x141;" horiz-adv-x="1122" 
d="M357 713q25 123 46 223l56 264l27 72q-3 9 -3 23q0 16 4 37l10 48q9 24 29 24h108q19 0 19 -22q0 -6 -2 -14q-3 -12 -15 -12l-1 -60l-110 -519l217 82q33 13 91 23q11 16 48 30q36 -4 39 -21q16 -80 16 -90v-1q-2 -11 -12 -15q-127 -48 -260 -111l-2 11q-6 -2 -7 -7v-2
q0 -2 1 -5l-77 -17l-87 -33l-76 -357q-3 -15 -3 -27q0 -57 69 -57h288q27 0 46 -12q12 0 14 12l58 -12h132q17 0 28 -36l-23 -108q-5 -24 -29 -24q-103 12 -129 12q-26 -12 -39 -12l3 12l-27 -12h-60q-66 0 -165 12l-27 -12q-10 0 -10 8l1 4l-63 -12h-240l-21 12
q59 308 106 546l-172 -66q-22 107 -22 122v2q2 12 11 15z" />
    <glyph glyph-name="lslash" unicode="&#x142;" horiz-adv-x="1122" 
d="M357 713q25 123 46 223l56 264l27 72q-3 9 -3 23q0 16 4 37l10 48q9 24 29 24h108q19 0 19 -22q0 -6 -2 -14q-3 -12 -15 -12l-1 -60l-110 -519l217 82q33 13 91 23q11 16 48 30q36 -4 39 -21q16 -80 16 -90v-1q-2 -11 -12 -15q-127 -48 -260 -111l-2 11q-6 -2 -7 -7v-2
q0 -2 1 -5l-77 -17l-87 -33l-76 -357q-3 -15 -3 -27q0 -57 69 -57h288q27 0 46 -12q12 0 14 12l58 -12h132q17 0 28 -36l-23 -108q-5 -24 -29 -24q-103 12 -129 12q-26 -12 -39 -12l3 12l-27 -12h-60q-66 0 -165 12l-27 -12q-10 0 -10 8l1 4l-63 -12h-240l-21 12
q59 308 106 546l-172 -66q-22 107 -22 122v2q2 12 11 15z" />
    <glyph glyph-name="Nacute" unicode="&#x143;" 
d="M419 1380h108q209 -831 258 -876h60q54 139 60 168v3q0 9 -10 9l25 60l130 612q9 24 29 24h84q18 0 29 -36l-268 -1260q-3 -12 -15 -12l7 -24l-2 -12q-4 -17 -44 -36h-108q-46 110 -177 636q-26 153 -88 204h-36q-36 0 -82 -216l-46 -216q-3 -12 -15 -12l7 -24l-74 -348
q-5 -24 -29 -24h-96q-20 0 -20 16q0 4 1 8l283 1332q9 24 29 24zM788 1546q148 147 278 194h65q51 -79 51 -120q0 -7 -1 -12q-65 -49 -287 -108h-55t-51 46z" />
    <glyph glyph-name="nacute" unicode="&#x144;" 
d="M419 1380h108q209 -831 258 -876h60q54 139 60 168v3q0 9 -10 9l25 60l130 612q9 24 29 24h84q18 0 29 -36l-268 -1260q-3 -12 -15 -12l7 -24l-2 -12q-4 -17 -44 -36h-108q-46 110 -177 636q-26 153 -88 204h-36q-36 0 -82 -216l-46 -216q-3 -12 -15 -12l7 -24l-74 -348
q-5 -24 -29 -24h-96q-20 0 -20 16q0 4 1 8l283 1332q9 24 29 24zM788 1546q148 147 278 194h65q51 -79 51 -120q0 -7 -1 -12q-65 -49 -287 -108h-55t-51 46z" />
    <glyph glyph-name="uni0145" unicode="&#x145;" 
d="M419 1380h108q209 -831 258 -876h60q54 139 60 168v3q0 9 -10 9l25 60l130 612q9 24 29 24h84q18 0 29 -36l-268 -1260q-3 -12 -15 -12l7 -24l-2 -12q-4 -17 -44 -36h-108q-46 110 -177 636q-26 153 -88 204h-36q-36 0 -82 -216l-46 -216q-3 -12 -15 -12l7 -24l-74 -348
q-5 -24 -29 -24h-96q-20 0 -20 16q0 4 1 8l283 1332q9 24 29 24zM470 180h96q94 -161 94 -226q0 -8 -1 -14l-10 -48q-99 -240 -291 -240h-72q-20 0 -20 16q0 4 1 8l15 72l18 24q-10 0 -10 9v3q166 52 174 84q16 21 22 48l5 24q2 11 2 21q0 58 -70 111l18 84q9 24 29 24z" />
    <glyph glyph-name="uni0146" unicode="&#x146;" 
d="M419 1380h108q209 -831 258 -876h60q54 139 60 168v3q0 9 -10 9l25 60l130 612q9 24 29 24h84q18 0 29 -36l-268 -1260q-3 -12 -15 -12l7 -24l-2 -12q-4 -17 -44 -36h-108q-46 110 -177 636q-26 153 -88 204h-36q-36 0 -82 -216l-46 -216q-3 -12 -15 -12l7 -24l-74 -348
q-5 -24 -29 -24h-96q-20 0 -20 16q0 4 1 8l283 1332q9 24 29 24zM470 180h96q94 -161 94 -226q0 -8 -1 -14l-10 -48q-99 -240 -291 -240h-72q-20 0 -20 16q0 4 1 8l15 72l18 24q-10 0 -10 9v3q166 52 174 84q16 21 22 48l5 24q2 11 2 21q0 58 -70 111l18 84q9 24 29 24z" />
    <glyph glyph-name="Ncaron" unicode="&#x147;" 
d="M419 1380h108q209 -831 258 -876h60q54 139 60 168v3q0 9 -10 9l25 60l130 612q9 24 29 24h84q18 0 29 -36l-268 -1260q-3 -12 -15 -12l7 -24l-2 -12q-4 -17 -44 -36h-108q-46 110 -177 636q-26 153 -88 204h-36q-36 0 -82 -216l-46 -216q-3 -12 -15 -12l7 -24l-74 -348
q-5 -24 -29 -24h-96q-20 0 -20 16q0 4 1 8l283 1332q9 24 29 24zM1012 1740q33 -76 33 -117q0 -8 -1 -15q-52 -49 -227 -108q-23 0 -172 96l3 12q52 120 97 120q74 -48 110 -48h36q18 13 121 60z" />
    <glyph glyph-name="ncaron" unicode="&#x148;" 
d="M419 1380h108q209 -831 258 -876h60q54 139 60 168v3q0 9 -10 9l25 60l130 612q9 24 29 24h84q18 0 29 -36l-268 -1260q-3 -12 -15 -12l7 -24l-2 -12q-4 -17 -44 -36h-108q-46 110 -177 636q-26 153 -88 204h-36q-36 0 -82 -216l-46 -216q-3 -12 -15 -12l7 -24l-74 -348
q-5 -24 -29 -24h-96q-20 0 -20 16q0 4 1 8l283 1332q9 24 29 24zM1012 1740q33 -76 33 -117q0 -8 -1 -15q-52 -49 -227 -108q-23 0 -172 96l3 12q52 120 97 120q74 -48 110 -48h36q18 13 121 60z" />
    <glyph glyph-name="Eng" unicode="&#x14a;" 
d="M911 29q-79 -281 -391 -367h-53q-15 20 -15 46q0 11 3 23q16 74 45 87q207 59 258 192q-47 122 -173 626q-25 153 -88 204h-36q-36 0 -82 -216l-46 -216q-3 -12 -15 -12l7 -24l-74 -348q-5 -24 -29 -24h-96q-20 0 -20 16q0 4 1 8l283 1332q9 24 29 24h108
q209 -831 258 -876h60q54 139 60 168v3q0 9 -10 9l25 60l130 612q9 24 29 24h84q17 0 29 -36l-268 -1260q-1 -3 -2 -5l-1 -9l-7 -34q-1 -3 -3 -7z" />
    <glyph glyph-name="eng" unicode="&#x14b;" 
d="M911 29q-79 -281 -391 -367h-53q-15 20 -15 46q0 11 3 23q16 74 45 87q207 59 258 192q-47 122 -173 626q-25 153 -88 204h-36q-36 0 -82 -216l-46 -216q-3 -12 -15 -12l7 -24l-74 -348q-5 -24 -29 -24h-96q-20 0 -20 16q0 4 1 8l283 1332q9 24 29 24h108
q209 -831 258 -876h60q54 139 60 168v3q0 9 -10 9l25 60l130 612q9 24 29 24h84q17 0 29 -36l-268 -1260q-1 -3 -2 -5l-1 -9l-7 -34q-1 -3 -3 -7z" />
    <glyph glyph-name="Omacron" unicode="&#x14c;" horiz-adv-x="1044" 
d="M976 1344q175 -98 175 -304q0 -59 -15 -128h-12l7 -24l-84 -396q-71 -332 -347 -444h-24l-7 24l16 72q181 120 219 300l115 540q5 25 5 49q0 109 -107 203l18 84q5 24 41 24zM649 1332h24l-2 -12q-3 -12 -15 -12l7 -24l-3 -12q-10 -51 -153 -156q-40 -78 -47 -108
l-120 -564q-9 -45 -9 -84q0 -125 92 -204l-18 -84q-5 -24 -29 -24q-179 112 -179 300q0 46 11 96l51 240q10 43 11 108l17 24q1 4 1 9q0 11 -5 27q89 418 366 480zM762 1704h245q68 -10 68 -56q0 -8 -2 -16l-13 -60q-4 -17 -89 -36h-245q-39 0 -74 36l5 24q3 12 30 12
l-22 24q32 72 97 72z" />
    <glyph glyph-name="omacron" unicode="&#x14d;" horiz-adv-x="1044" 
d="M976 1344q175 -98 175 -304q0 -59 -15 -128h-12l7 -24l-84 -396q-71 -332 -347 -444h-24l-7 24l16 72q181 120 219 300l115 540q5 25 5 49q0 109 -107 203l18 84q5 24 41 24zM649 1332h24l-2 -12q-3 -12 -15 -12l7 -24l-3 -12q-10 -51 -153 -156q-40 -78 -47 -108
l-120 -564q-9 -45 -9 -84q0 -125 92 -204l-18 -84q-5 -24 -29 -24q-179 112 -179 300q0 46 11 96l51 240q10 43 11 108l17 24q1 4 1 9q0 11 -5 27q89 418 366 480zM762 1704h245q68 -10 68 -56q0 -8 -2 -16l-13 -60q-4 -17 -89 -36h-245q-39 0 -74 36l5 24q3 12 30 12
l-22 24q32 72 97 72z" />
    <glyph glyph-name="Obreve" unicode="&#x14e;" horiz-adv-x="1044" 
d="M976 1344q175 -98 175 -304q0 -59 -15 -128h-12l7 -24l-84 -396q-71 -332 -347 -444h-24l-7 24l16 72q181 120 219 300l115 540q5 25 5 49q0 109 -107 203l18 84q5 24 41 24zM649 1332h24l-2 -12q-3 -12 -15 -12l7 -24l-3 -12q-10 -51 -153 -156q-40 -78 -47 -108
l-120 -564q-9 -45 -9 -84q0 -125 92 -204l-18 -84q-5 -24 -29 -24q-179 112 -179 300q0 46 11 96l51 240q10 43 11 108l17 24q1 4 1 9q0 11 -5 27q89 418 366 480zM1090 1714l-1 -8q-21 -96 -99 -163q-37 -31 -97 -43h-64q-144 0 -144 126v3q-5 0 -5 26q0 23 4 68
q4 17 15 17q3 0 12 -2l51 2h17q19 -81 58 -81l36 -10l30 10q41 0 95 81h97z" />
    <glyph glyph-name="obreve" unicode="&#x14f;" horiz-adv-x="1044" 
d="M976 1344q175 -98 175 -304q0 -59 -15 -128h-12l7 -24l-84 -396q-71 -332 -347 -444h-24l-7 24l16 72q181 120 219 300l115 540q5 25 5 49q0 109 -107 203l18 84q5 24 41 24zM649 1332h24l-2 -12q-3 -12 -15 -12l7 -24l-3 -12q-10 -51 -153 -156q-40 -78 -47 -108
l-120 -564q-9 -45 -9 -84q0 -125 92 -204l-18 -84q-5 -24 -29 -24q-179 112 -179 300q0 46 11 96l51 240q10 43 11 108l17 24q1 4 1 9q0 11 -5 27q89 418 366 480zM1090 1714l-1 -8q-21 -96 -99 -163q-37 -31 -97 -43h-64q-144 0 -144 126v3q-5 0 -5 26q0 23 4 68
q4 17 15 17q3 0 12 -2l51 2h17q19 -81 58 -81l36 -10l30 10q41 0 95 81h97z" />
    <glyph glyph-name="Ohungarumlaut" unicode="&#x150;" horiz-adv-x="1044" 
d="M976 1344q175 -98 175 -304q0 -59 -15 -128h-12l7 -24l-84 -396q-71 -332 -347 -444h-24l-7 24l16 72q181 120 219 300l115 540q5 25 5 49q0 109 -107 203l18 84q5 24 41 24zM649 1332h24l-2 -12q-3 -12 -15 -12l7 -24l-3 -12q-10 -51 -153 -156q-40 -78 -47 -108
l-120 -564q-9 -45 -9 -84q0 -125 92 -204l-18 -84q-5 -24 -29 -24q-179 112 -179 300q0 46 11 96l51 240q10 43 11 108l17 24q1 4 1 9q0 11 -5 27q89 418 366 480zM967 1546q124 147 231 194h51q37 -76 37 -117q0 -8 -2 -15q-54 -49 -234 -108h-44t-39 46zM607 1546
q124 147 231 194h51q37 -76 37 -117q0 -8 -2 -15q-54 -49 -234 -108h-44t-39 46z" />
    <glyph glyph-name="ohungarumlaut" unicode="&#x151;" horiz-adv-x="1044" 
d="M976 1344q175 -98 175 -304q0 -59 -15 -128h-12l7 -24l-84 -396q-71 -332 -347 -444h-24l-7 24l16 72q181 120 219 300l115 540q5 25 5 49q0 109 -107 203l18 84q5 24 41 24zM649 1332h24l-2 -12q-3 -12 -15 -12l7 -24l-3 -12q-10 -51 -153 -156q-40 -78 -47 -108
l-120 -564q-9 -45 -9 -84q0 -125 92 -204l-18 -84q-5 -24 -29 -24q-179 112 -179 300q0 46 11 96l51 240q10 43 11 108l17 24q1 4 1 9q0 11 -5 27q89 418 366 480zM967 1546q124 147 231 194h51q37 -76 37 -117q0 -8 -2 -15q-54 -49 -234 -108h-44t-39 46zM607 1546
q124 147 231 194h51q37 -76 37 -117q0 -8 -2 -15q-54 -49 -234 -108h-44t-39 46z" />
    <glyph glyph-name="OE" unicode="&#x152;" horiz-adv-x="1510" 
d="M649 1332h24l-2 -12q-3 -12 -15 -12l7 -24l-3 -12q-10 -51 -153 -156q-40 -78 -47 -108l-120 -564q-9 -45 -9 -84q0 -125 92 -204l-18 -84q-5 -24 -29 -24q-179 112 -179 300q0 46 11 96l51 240q10 43 11 108l17 24q1 4 1 9q0 11 -5 27q89 418 366 480zM924 1392h744
q20 -3 20 -18q0 -3 -1 -6l-23 -108q-5 -24 -104 -36q-79 12 -129 12h-132l-63 -12l3 12l-27 -12q-43 0 -105 12q-26 -12 -39 -12l1 4q0 8 -10 8q-46 -44 -54 -84l-61 -288q-7 -32 -7 -53q0 -38 22 -43h360q20 -3 20 -18q0 -3 -1 -6l-20 -96q-5 -24 -80 -36l3 12
q-12 0 -15 -12l-57 12q-30 0 -99 -12l-57 12l-27 -12q-18 12 -45 12h-12q-18 0 -44 -36l-66 -312q-4 -17 -4 -32q0 -76 101 -76q79 -12 249 -12h132q27 0 51 12q88 -11 88 -34v-2l-20 -96q-5 -24 -29 -24h-228q-78 0 -243 -12l3 12q-12 0 -15 -12l-117 12h-60q-27 0 -51 -12
q-64 15 -64 33v3l283 1332q9 24 29 24z" />
    <glyph glyph-name="oe" unicode="&#x153;" horiz-adv-x="1510" 
d="M649 1332h24l-2 -12q-3 -12 -15 -12l7 -24l-3 -12q-10 -51 -153 -156q-40 -78 -47 -108l-120 -564q-9 -45 -9 -84q0 -125 92 -204l-18 -84q-5 -24 -29 -24q-179 112 -179 300q0 46 11 96l51 240q10 43 11 108l17 24q1 4 1 9q0 11 -5 27q89 418 366 480zM924 1392h744
q20 -3 20 -18q0 -3 -1 -6l-23 -108q-5 -24 -104 -36q-79 12 -129 12h-132l-63 -12l3 12l-27 -12q-43 0 -105 12q-26 -12 -39 -12l1 4q0 8 -10 8q-46 -44 -54 -84l-61 -288q-7 -32 -7 -53q0 -38 22 -43h360q20 -3 20 -18q0 -3 -1 -6l-20 -96q-5 -24 -80 -36l3 12
q-12 0 -15 -12l-57 12q-30 0 -99 -12l-57 12l-27 -12q-18 12 -45 12h-12q-18 0 -44 -36l-66 -312q-4 -17 -4 -32q0 -76 101 -76q79 -12 249 -12h132q27 0 51 12q88 -11 88 -34v-2l-20 -96q-5 -24 -29 -24h-228q-78 0 -243 -12l3 12q-12 0 -15 -12l-117 12h-60q-27 0 -51 -12
q-64 15 -64 33v3l283 1332q9 24 29 24z" />
    <glyph glyph-name="Racute" unicode="&#x154;" horiz-adv-x="1116" 
d="M434 1392h84q20 -3 20 -18q0 -3 -1 -6l-89 -420l-4 -72l-17 -24q5 -16 5 -27q0 -5 -1 -9h-12q6 -17 6 -28q0 -4 -1 -8q-3 -15 -38 -120q5 -18 5 -30v-6h-12l-1 -4q0 -8 10 -8l-37 -120l-100 -468l-17 -24l-57 12l-27 -12q-33 5 -33 52q0 19 5 44q3 12 15 12l1 60
l252 1188q4 17 44 36zM791 1380h72q342 0 342 -341q0 -15 -1 -31l-5 -24q-48 -225 -324 -396l144 -564l-53 -24q-21 12 -33 12l-63 -12q-132 564 -180 564l-103 24q40 132 64 132h144q168 0 272 264q1 16 1 32q0 220 -187 220h-108q-18 0 -29 36l18 84q9 24 29 24zM791 1546
q148 147 278 194h65q51 -79 51 -120q0 -7 -1 -12q-65 -49 -287 -108h-55t-51 46z" />
    <glyph glyph-name="racute" unicode="&#x155;" horiz-adv-x="1116" 
d="M434 1392h84q20 -3 20 -18q0 -3 -1 -6l-89 -420l-4 -72l-17 -24q5 -16 5 -27q0 -5 -1 -9h-12q6 -17 6 -28q0 -4 -1 -8q-3 -15 -38 -120q5 -18 5 -30v-6h-12l-1 -4q0 -8 10 -8l-37 -120l-100 -468l-17 -24l-57 12l-27 -12q-33 5 -33 52q0 19 5 44q3 12 15 12l1 60
l252 1188q4 17 44 36zM791 1380h72q342 0 342 -341q0 -15 -1 -31l-5 -24q-48 -225 -324 -396l144 -564l-53 -24q-21 12 -33 12l-63 -12q-132 564 -180 564l-103 24q40 132 64 132h144q168 0 272 264q1 16 1 32q0 220 -187 220h-108q-18 0 -29 36l18 84q9 24 29 24zM791 1546
q148 147 278 194h65q51 -79 51 -120q0 -7 -1 -12q-65 -49 -287 -108h-55t-51 46z" />
    <glyph glyph-name="uni0156" unicode="&#x156;" horiz-adv-x="1116" 
d="M434 1392h84q20 -3 20 -18q0 -3 -1 -6l-89 -420l-4 -72l-17 -24q5 -16 5 -27q0 -5 -1 -9h-12q6 -17 6 -28q0 -4 -1 -8q-3 -15 -38 -120q5 -18 5 -30v-6h-12l-1 -4q0 -8 10 -8l-37 -120l-100 -468l-17 -24l-57 12l-27 -12q-33 5 -33 52q0 19 5 44q3 12 15 12l1 60
l252 1188q4 17 44 36zM791 1380h72q342 0 342 -341q0 -15 -1 -31l-5 -24q-48 -225 -324 -396l144 -564l-53 -24q-21 12 -33 12l-63 -12q-132 564 -180 564l-103 24q40 132 64 132h144q168 0 272 264q1 16 1 32q0 220 -187 220h-108q-18 0 -29 36l18 84q9 24 29 24zM482 180
h96q94 -161 94 -226q0 -8 -1 -14l-10 -48q-99 -240 -291 -240h-72q-20 0 -20 16q0 4 1 8l15 72l18 24q-10 0 -10 9v3q166 52 174 84q16 21 22 48l5 24q2 11 2 21q0 58 -70 111l18 84q9 24 29 24z" />
    <glyph glyph-name="uni0157" unicode="&#x157;" horiz-adv-x="1116" 
d="M434 1392h84q20 -3 20 -18q0 -3 -1 -6l-89 -420l-4 -72l-17 -24q5 -16 5 -27q0 -5 -1 -9h-12q6 -17 6 -28q0 -4 -1 -8q-3 -15 -38 -120q5 -18 5 -30v-6h-12l-1 -4q0 -8 10 -8l-37 -120l-100 -468l-17 -24l-57 12l-27 -12q-33 5 -33 52q0 19 5 44q3 12 15 12l1 60
l252 1188q4 17 44 36zM791 1380h72q342 0 342 -341q0 -15 -1 -31l-5 -24q-48 -225 -324 -396l144 -564l-53 -24q-21 12 -33 12l-63 -12q-132 564 -180 564l-103 24q40 132 64 132h144q168 0 272 264q1 16 1 32q0 220 -187 220h-108q-18 0 -29 36l18 84q9 24 29 24zM482 180
h96q94 -161 94 -226q0 -8 -1 -14l-10 -48q-99 -240 -291 -240h-72q-20 0 -20 16q0 4 1 8l15 72l18 24q-10 0 -10 9v3q166 52 174 84q16 21 22 48l5 24q2 11 2 21q0 58 -70 111l18 84q9 24 29 24z" />
    <glyph glyph-name="Rcaron" unicode="&#x158;" horiz-adv-x="1116" 
d="M434 1392h84q20 -3 20 -18q0 -3 -1 -6l-89 -420l-4 -72l-17 -24q5 -16 5 -27q0 -5 -1 -9h-12q6 -17 6 -28q0 -4 -1 -8q-3 -15 -38 -120q5 -18 5 -30v-6h-12l-1 -4q0 -8 10 -8l-37 -120l-100 -468l-17 -24l-57 12l-27 -12q-33 5 -33 52q0 19 5 44q3 12 15 12l1 60
l252 1188q4 17 44 36zM791 1380h72q342 0 342 -341q0 -15 -1 -31l-5 -24q-48 -225 -324 -396l144 -564l-53 -24q-21 12 -33 12l-63 -12q-132 564 -180 564l-103 24q40 132 64 132h144q168 0 272 264q1 16 1 32q0 220 -187 220h-108q-18 0 -29 36l18 84q9 24 29 24z
M1014 1740q33 -76 33 -117q0 -8 -1 -15q-52 -49 -227 -108q-23 0 -172 96l3 12q52 120 97 120q74 -48 110 -48h36q18 13 121 60z" />
    <glyph glyph-name="rcaron" unicode="&#x159;" horiz-adv-x="1116" 
d="M434 1392h84q20 -3 20 -18q0 -3 -1 -6l-89 -420l-4 -72l-17 -24q5 -16 5 -27q0 -5 -1 -9h-12q6 -17 6 -28q0 -4 -1 -8q-3 -15 -38 -120q5 -18 5 -30v-6h-12l-1 -4q0 -8 10 -8l-37 -120l-100 -468l-17 -24l-57 12l-27 -12q-33 5 -33 52q0 19 5 44q3 12 15 12l1 60
l252 1188q4 17 44 36zM791 1380h72q342 0 342 -341q0 -15 -1 -31l-5 -24q-48 -225 -324 -396l144 -564l-53 -24q-21 12 -33 12l-63 -12q-132 564 -180 564l-103 24q40 132 64 132h144q168 0 272 264q1 16 1 32q0 220 -187 220h-108q-18 0 -29 36l18 84q9 24 29 24z
M1014 1740q33 -76 33 -117q0 -8 -1 -15q-52 -49 -227 -108q-23 0 -172 96l3 12q52 120 97 120q74 -48 110 -48h36q18 13 121 60z" />
    <glyph glyph-name="Sacute" unicode="&#x15a;" 
d="M830 1392q175 0 273 -240l6 -84l-3 -12q-5 -24 -29 -24h-36q-94 0 -102 84q-52 108 -181 108h-72q-151 0 -236 -264q-2 -8 -2 -16q0 -119 374 -212q182 -98 182 -245q0 -27 -6 -55q-66 -308 -440 -432h-48q-268 0 -327 324l5 24l27 12l57 -12q24 12 51 12
q34 -204 184 -204h72q228 55 262 216l17 24q4 20 4 39q0 171 -356 225q-202 92 -202 258q0 32 7 66q61 287 423 408h96zM788 1546q148 147 278 194h65q51 -79 51 -120q0 -7 -1 -12q-65 -49 -287 -108h-55t-51 46z" />
    <glyph glyph-name="sacute" unicode="&#x15b;" 
d="M830 1392q175 0 273 -240l6 -84l-3 -12q-5 -24 -29 -24h-36q-94 0 -102 84q-52 108 -181 108h-72q-151 0 -236 -264q-2 -8 -2 -16q0 -119 374 -212q182 -98 182 -245q0 -27 -6 -55q-66 -308 -440 -432h-48q-268 0 -327 324l5 24l27 12l57 -12q24 12 51 12
q34 -204 184 -204h72q228 55 262 216l17 24q4 20 4 39q0 171 -356 225q-202 92 -202 258q0 32 7 66q61 287 423 408h96zM788 1546q148 147 278 194h65q51 -79 51 -120q0 -7 -1 -12q-65 -49 -287 -108h-55t-51 46z" />
    <glyph glyph-name="Scircumflex" unicode="&#x15c;" 
d="M830 1392q175 0 273 -240l6 -84l-3 -12q-5 -24 -29 -24h-36q-94 0 -102 84q-52 108 -181 108h-72q-151 0 -236 -264q-2 -8 -2 -16q0 -119 374 -212q182 -98 182 -245q0 -27 -6 -55q-66 -308 -440 -432h-48q-268 0 -327 324l5 24l27 12l57 -12q24 12 51 12
q34 -204 184 -204h72q228 55 262 216l17 24q4 20 4 39q0 171 -356 225q-202 92 -202 258q0 32 7 66q61 287 423 408h96zM961 1500q-83 47 -95 60h-36q-36 0 -131 -48q-45 0 -46 120l2 12q190 96 213 96q150 -59 181 -108q-9 -41 -88 -132z" />
    <glyph glyph-name="scircumflex" unicode="&#x15d;" 
d="M830 1392q175 0 273 -240l6 -84l-3 -12q-5 -24 -29 -24h-36q-94 0 -102 84q-52 108 -181 108h-72q-151 0 -236 -264q-2 -8 -2 -16q0 -119 374 -212q182 -98 182 -245q0 -27 -6 -55q-66 -308 -440 -432h-48q-268 0 -327 324l5 24l27 12l57 -12q24 12 51 12
q34 -204 184 -204h72q228 55 262 216l17 24q4 20 4 39q0 171 -356 225q-202 92 -202 258q0 32 7 66q61 287 423 408h96zM961 1500q-83 47 -95 60h-36q-36 0 -131 -48q-45 0 -46 120l2 12q190 96 213 96q150 -59 181 -108q-9 -41 -88 -132z" />
    <glyph glyph-name="Scedilla" unicode="&#x15e;" 
d="M485 1q-246 15 -302 323l5 24l27 12l57 -12q24 12 51 12q33 -204 184 -204h72q228 55 262 216l17 24q4 20 4 39q0 171 -356 225q-202 92 -202 258q0 32 7 66q61 287 423 408h96q176 0 273 -240l6 -84l-3 -12q-5 -24 -29 -24h-36q-94 0 -102 84q-52 108 -181 108h-72
q-151 0 -236 -264q-2 -8 -2 -16q0 -119 374 -212q182 -98 182 -245q0 -27 -6 -55q-58 -272 -357 -400q20 -48 20 -77q0 -8 -2 -15l-10 -48q-99 -240 -291 -240h-72q-20 0 -20 16q0 4 1 8l15 72l18 24q-10 0 -10 9v3q166 52 174 84q16 21 22 48l5 24q2 11 2 22q0 20 -8 39z
" />
    <glyph glyph-name="scedilla" unicode="&#x15f;" 
d="M485 1q-246 15 -302 323l5 24l27 12l57 -12q24 12 51 12q33 -204 184 -204h72q228 55 262 216l17 24q4 20 4 39q0 171 -356 225q-202 92 -202 258q0 32 7 66q61 287 423 408h96q176 0 273 -240l6 -84l-3 -12q-5 -24 -29 -24h-36q-94 0 -102 84q-52 108 -181 108h-72
q-151 0 -236 -264q-2 -8 -2 -16q0 -119 374 -212q182 -98 182 -245q0 -27 -6 -55q-58 -272 -357 -400q20 -48 20 -77q0 -8 -2 -15l-10 -48q-99 -240 -291 -240h-72q-20 0 -20 16q0 4 1 8l15 72l18 24q-10 0 -10 9v3q166 52 174 84q16 21 22 48l5 24q2 11 2 22q0 20 -8 39z
" />
    <glyph glyph-name="Scaron" unicode="&#x160;" 
d="M830 1392q175 0 273 -240l6 -84l-3 -12q-5 -24 -29 -24h-36q-94 0 -102 84q-52 108 -181 108h-72q-151 0 -236 -264q-2 -8 -2 -16q0 -119 374 -212q182 -98 182 -245q0 -27 -6 -55q-66 -308 -440 -432h-48q-268 0 -327 324l5 24l27 12l57 -12q24 12 51 12
q34 -204 184 -204h72q228 55 262 216l17 24q4 20 4 39q0 171 -356 225q-202 92 -202 258q0 32 7 66q61 287 423 408h96zM736 1740q82 -47 95 -60h36q36 0 130 48q46 0 47 -120l-3 -12q-190 -96 -212 -96q-150 59 -181 108q8 41 88 132z" />
    <glyph glyph-name="scaron" unicode="&#x161;" 
d="M830 1392q175 0 273 -240l6 -84l-3 -12q-5 -24 -29 -24h-36q-94 0 -102 84q-52 108 -181 108h-72q-151 0 -236 -264q-2 -8 -2 -16q0 -119 374 -212q182 -98 182 -245q0 -27 -6 -55q-66 -308 -440 -432h-48q-268 0 -327 324l5 24l27 12l57 -12q24 12 51 12
q34 -204 184 -204h72q228 55 262 216l17 24q4 20 4 39q0 171 -356 225q-202 92 -202 258q0 32 7 66q61 287 423 408h96zM736 1740q82 -47 95 -60h36q36 0 130 48q46 0 47 -120l-3 -12q-190 -96 -212 -96q-150 59 -181 108q8 41 88 132z" />
    <glyph glyph-name="uni0162" unicode="&#x162;" horiz-adv-x="996" 
d="M517 0h-55q-17 0 -28 36l120 564q2 12 14 12l-7 24l21 96l27 72q-4 9 -4 23q0 16 5 37l2 12q3 12 15 12q-5 18 -5 30v6q3 13 20 36l3 72l5 24q3 12 15 12l-7 24q3 12 15 12q5 23 5 42q0 90 -109 90h-180q-20 0 -20 16q0 4 1 8l7 36q3 12 15 12l-7 24l5 24q5 24 164 36
l-3 -12l27 12h336q268 0 268 -34v-2l-20 -96q-5 -24 -29 -24h-120q-180 0 -196 -72q-21 -156 -41 -252l-5 -24q-3 -12 -15 -12l7 -24q-108 -472 -156 -686q85 -150 85 -212q0 -8 -1 -14l-10 -48q-99 -240 -291 -240h-72q-20 0 -20 16q0 4 1 8l15 72l18 24q-10 0 -10 9v3
q166 52 174 84q16 21 22 48l5 24q2 11 2 21q0 20 -8 39z" />
    <glyph glyph-name="uni0163" unicode="&#x163;" horiz-adv-x="996" 
d="M517 0h-55q-17 0 -28 36l120 564q2 12 14 12l-7 24l21 96l27 72q-4 9 -4 23q0 16 5 37l2 12q3 12 15 12q-5 18 -5 30v6q3 13 20 36l3 72l5 24q3 12 15 12l-7 24q3 12 15 12q5 23 5 42q0 90 -109 90h-180q-20 0 -20 16q0 4 1 8l7 36q3 12 15 12l-7 24l5 24q5 24 164 36
l-3 -12l27 12h336q268 0 268 -34v-2l-20 -96q-5 -24 -29 -24h-120q-180 0 -196 -72q-21 -156 -41 -252l-5 -24q-3 -12 -15 -12l7 -24q-108 -472 -156 -686q85 -150 85 -212q0 -8 -1 -14l-10 -48q-99 -240 -291 -240h-72q-20 0 -20 16q0 4 1 8l15 72l18 24q-10 0 -10 9v3
q166 52 174 84q16 21 22 48l5 24q2 11 2 21q0 20 -8 39z" />
    <glyph glyph-name="Tcaron" unicode="&#x164;" horiz-adv-x="996" 
d="M554 1392l-3 -12l27 12h336q268 0 268 -34v-2l-20 -96q-5 -24 -29 -24h-120q-180 0 -196 -72q-21 -156 -41 -252l-5 -24q-3 -12 -15 -12l7 -24q-165 -720 -190 -840l-27 -12h-84q-17 0 -28 36l120 564q2 12 14 12l-7 24l21 96l27 72q-4 9 -4 23q0 16 5 37l2 12
q3 12 15 12q-5 18 -5 30v6q3 13 20 36l3 72l5 24q3 12 15 12l-7 24q3 12 15 12q5 23 5 42q0 90 -109 90h-180q-20 0 -20 16q0 4 1 8l7 36q3 12 15 12l-7 24l5 24q5 24 164 36zM730 1740q82 -47 95 -60h36q36 0 130 48q46 0 47 -120l-3 -12q-190 -96 -212 -96
q-150 59 -181 108q8 41 88 132z" />
    <glyph glyph-name="tcaron" unicode="&#x165;" horiz-adv-x="996" 
d="M554 1392l-3 -12l27 12h336q268 0 268 -34v-2l-20 -96q-5 -24 -29 -24h-120q-180 0 -196 -72q-21 -156 -41 -252l-5 -24q-3 -12 -15 -12l7 -24q-165 -720 -190 -840l-27 -12h-84q-17 0 -28 36l120 564q2 12 14 12l-7 24l21 96l27 72q-4 9 -4 23q0 16 5 37l2 12
q3 12 15 12q-5 18 -5 30v6q3 13 20 36l3 72l5 24q3 12 15 12l-7 24q3 12 15 12q5 23 5 42q0 90 -109 90h-180q-20 0 -20 16q0 4 1 8l7 36q3 12 15 12l-7 24l5 24q5 24 164 36zM730 1740q82 -47 95 -60h36q36 0 130 48q46 0 47 -120l-3 -12q-190 -96 -212 -96
q-150 59 -181 108q8 41 88 132z" />
    <glyph glyph-name="Tbar" unicode="&#x166;" horiz-adv-x="996" 
d="M580 773q7 39 15 79l17 24q-10 0 -10 8l1 4l5 24q20 96 65 252q1 6 1 11q0 61 -165 61h-120q-20 0 -20 16q0 4 1 8l20 96q8 36 284 36h336l21 -12l3 12q148 -12 148 -34v-2l-5 -24l-17 -24q10 0 10 -8l-1 -4l-7 -36q-5 -24 -29 -24h-180q-132 0 -160 -132q10 0 10 -8
l-1 -4l-17 -24q10 0 10 -8l-1 -4l-5 -24l-27 -72q5 -16 5 -27q0 -5 -1 -9q-2 -13 -19 -36q10 0 10 -8l-1 -4l-2 -12q-9 -40 -25 -60l-2 -32h239q9 -3 9 -15q0 -4 -1 -9l-18 -84q-15 -36 -47 -36h-40q-4 0 -4 5q0 3 1 7l-16 -12h-100q-17 0 -17 9v3l-25 -9v-1h-4l-4 -1
l-12 -17q10 0 10 -9v-3l-120 -564q-27 -36 -44 -36h-84l-21 12q21 100 121 613l-64 -7q1 4 1 7q0 5 -4 5l-3 -12q-50 12 -152 12q-9 0 -9 13q0 4 1 11l18 84q4 18 34 36h111q48 0 97 -1z" />
    <glyph glyph-name="tbar" unicode="&#x167;" horiz-adv-x="996" 
d="M580 773q7 39 15 79l17 24q-10 0 -10 8l1 4l5 24q20 96 65 252q1 6 1 11q0 61 -165 61h-120q-20 0 -20 16q0 4 1 8l20 96q8 36 284 36h336l21 -12l3 12q148 -12 148 -34v-2l-5 -24l-17 -24q10 0 10 -8l-1 -4l-7 -36q-5 -24 -29 -24h-180q-132 0 -160 -132q10 0 10 -8
l-1 -4l-17 -24q10 0 10 -8l-1 -4l-5 -24l-27 -72q5 -16 5 -27q0 -5 -1 -9q-2 -13 -19 -36q10 0 10 -8l-1 -4l-2 -12q-9 -40 -25 -60l-2 -32h239q9 -3 9 -15q0 -4 -1 -9l-18 -84q-15 -36 -47 -36h-40q-4 0 -4 5q0 3 1 7l-16 -12h-100q-17 0 -17 9v3l-25 -9v-1h-4l-4 -1
l-12 -17q10 0 10 -9v-3l-120 -564q-27 -36 -44 -36h-84l-21 12q21 100 121 613l-64 -7q1 4 1 7q0 5 -4 5l-3 -12q-50 12 -152 12q-9 0 -9 13q0 4 1 11l18 84q4 18 34 36h111q48 0 97 -1z" />
    <glyph glyph-name="Utilde" unicode="&#x168;" horiz-adv-x="1044" 
d="M1216 1404q-3 -38 -3 -61q0 -35 7 -35l-22 -48q-69 -381 -106 -552l-17 -24v-3q0 -9 10 -9q-3 -13 -20 -36l-11 -108q-92 -434 -421 -516q-44 0 -111 -12q-284 0 -327 324q1 63 13 120l90 420q4 20 4 35t-4 25l28 72l79 372q9 24 29 24h96q17 0 28 -36l-204 -960v-15
q0 -213 192 -213h36q160 0 288 228l-7 24l207 972h60zM1127 1645q-25 -116 -172 -145h-28q-25 0 -81 20l-45 50q-14 8 -30 8h-14q-16 0 -29 -7q-20 0 -65 -71q-6 0 -6 5v2l-15 -7h-42q-12 0 -12 10l1 5l17 80q25 116 172 145h28q25 0 80 -20l46 -50q13 -8 29 -8h14
q16 0 29 7q21 1 65 71q6 0 6 -4v-3l16 7h42q12 0 12 -10l-1 -5z" />
    <glyph glyph-name="utilde" unicode="&#x169;" horiz-adv-x="1044" 
d="M1216 1404q-3 -38 -3 -61q0 -35 7 -35l-22 -48q-69 -381 -106 -552l-17 -24v-3q0 -9 10 -9q-3 -13 -20 -36l-11 -108q-92 -434 -421 -516q-44 0 -111 -12q-284 0 -327 324q1 63 13 120l90 420q4 20 4 35t-4 25l28 72l79 372q9 24 29 24h96q17 0 28 -36l-204 -960v-15
q0 -213 192 -213h36q160 0 288 228l-7 24l207 972h60zM1127 1645q-25 -116 -172 -145h-28q-25 0 -81 20l-45 50q-14 8 -30 8h-14q-16 0 -29 -7q-20 0 -65 -71q-6 0 -6 5v2l-15 -7h-42q-12 0 -12 10l1 5l17 80q25 116 172 145h28q25 0 80 -20l46 -50q13 -8 29 -8h14
q16 0 29 7q21 1 65 71q6 0 6 -4v-3l16 7h42q12 0 12 -10l-1 -5z" />
    <glyph glyph-name="Umacron" unicode="&#x16a;" horiz-adv-x="1044" 
d="M1216 1404q-3 -38 -3 -61q0 -35 7 -35l-22 -48q-69 -381 -106 -552l-17 -24v-3q0 -9 10 -9q-3 -13 -20 -36l-11 -108q-92 -434 -421 -516q-44 0 -111 -12q-284 0 -327 324q1 63 13 120l90 420q4 20 4 35t-4 25l28 72l79 372q9 24 29 24h96q17 0 28 -36l-204 -960v-15
q0 -213 192 -213h36q160 0 288 228l-7 24l207 972h60zM971 1536h-245q-68 10 -68 56q0 8 2 16l13 60q3 17 89 36h245q39 0 74 -36l-6 -24q-2 -12 -29 -12l22 -24q-33 -72 -97 -72z" />
    <glyph glyph-name="umacron" unicode="&#x16b;" horiz-adv-x="1044" 
d="M1216 1404q-3 -38 -3 -61q0 -35 7 -35l-22 -48q-69 -381 -106 -552l-17 -24v-3q0 -9 10 -9q-3 -13 -20 -36l-11 -108q-92 -434 -421 -516q-44 0 -111 -12q-284 0 -327 324q1 63 13 120l90 420q4 20 4 35t-4 25l28 72l79 372q9 24 29 24h96q17 0 28 -36l-204 -960v-15
q0 -213 192 -213h36q160 0 288 228l-7 24l207 972h60zM971 1536h-245q-68 10 -68 56q0 8 2 16l13 60q3 17 89 36h245q39 0 74 -36l-6 -24q-2 -12 -29 -12l22 -24q-33 -72 -97 -72z" />
    <glyph glyph-name="Ubreve" unicode="&#x16c;" horiz-adv-x="1044" 
d="M1216 1404q-3 -38 -3 -61q0 -35 7 -35l-22 -48q-69 -381 -106 -552l-17 -24v-3q0 -9 10 -9q-3 -13 -20 -36l-11 -108q-92 -434 -421 -516q-44 0 -111 -12q-284 0 -327 324q1 63 13 120l90 420q4 20 4 35t-4 25l28 72l79 372q9 24 29 24h96q17 0 28 -36l-204 -960v-15
q0 -213 192 -213h36q160 0 288 228l-7 24l207 972h60zM1090 1714l-1 -8q-21 -96 -99 -163q-37 -31 -97 -43h-64q-144 0 -144 126v3q-5 0 -5 26q0 23 4 68q4 17 15 17q3 0 12 -2l51 2h17q19 -81 58 -81l36 -10l30 10q41 0 95 81h97z" />
    <glyph glyph-name="ubreve" unicode="&#x16d;" horiz-adv-x="1044" 
d="M1216 1404q-3 -38 -3 -61q0 -35 7 -35l-22 -48q-69 -381 -106 -552l-17 -24v-3q0 -9 10 -9q-3 -13 -20 -36l-11 -108q-92 -434 -421 -516q-44 0 -111 -12q-284 0 -327 324q1 63 13 120l90 420q4 20 4 35t-4 25l28 72l79 372q9 24 29 24h96q17 0 28 -36l-204 -960v-15
q0 -213 192 -213h36q160 0 288 228l-7 24l207 972h60zM1090 1714l-1 -8q-21 -96 -99 -163q-37 -31 -97 -43h-64q-144 0 -144 126v3q-5 0 -5 26q0 23 4 68q4 17 15 17q3 0 12 -2l51 2h17q19 -81 58 -81l36 -10l30 10q41 0 95 81h97z" />
    <glyph glyph-name="Uring" unicode="&#x16e;" horiz-adv-x="1044" 
d="M1187 1264q-4 -41 -4 -65q0 -31 7 -31l-22 -48q-18 -141 -76 -412l-17 -24v-3q0 -9 10 -9q-3 -13 -20 -36l-11 -108q-92 -434 -421 -516q-43 0 -111 -12q-284 0 -327 324q1 63 13 120l102 480q5 21 5 37q0 14 -4 23l27 72l37 172q9 24 29 24h96q17 0 28 -36l-174 -820
v-15q0 -213 192 -213h36q161 0 288 228l-7 24l177 832h60zM925 1731q104 -11 157 -74q31 0 32 -55q-50 -235 -185 -259q-2 -10 -68 -21q-15 0 -15 9v2q1 3 9 3l7 69l1 7q39 35 47 74l11 52l1 5q0 36 -100 45q-96 -4 -108 -57v-4q-2 -19 -5 -33q-5 -23 -12 -26q-3 -14 -3 -24
q0 -18 10 -25l22 -3l-19 -91h-17q-42 0 -122 80q-9 23 -14 60q1 3 10 3l-4 25l7 31q1 4 10 4q0 3 -9 3q22 60 30 99q14 66 244 97z" />
    <glyph glyph-name="uring" unicode="&#x16f;" horiz-adv-x="1044" 
d="M1187 1264q-4 -41 -4 -65q0 -31 7 -31l-22 -48q-18 -141 -76 -412l-17 -24v-3q0 -9 10 -9q-3 -13 -20 -36l-11 -108q-92 -434 -421 -516q-43 0 -111 -12q-284 0 -327 324q1 63 13 120l102 480q5 21 5 37q0 14 -4 23l27 72l37 172q9 24 29 24h96q17 0 28 -36l-174 -820
v-15q0 -213 192 -213h36q161 0 288 228l-7 24l177 832h60zM925 1731q104 -11 157 -74q31 0 32 -55q-50 -235 -185 -259q-2 -10 -68 -21q-15 0 -15 9v2q1 3 9 3l7 69l1 7q39 35 47 74l11 52l1 5q0 36 -100 45q-96 -4 -108 -57v-4q-2 -19 -5 -33q-5 -23 -12 -26q-3 -14 -3 -24
q0 -18 10 -25l22 -3l-19 -91h-17q-42 0 -122 80q-9 23 -14 60q1 3 10 3l-4 25l7 31q1 4 10 4q0 3 -9 3q22 60 30 99q14 66 244 97z" />
    <glyph glyph-name="Uhungarumlaut" unicode="&#x170;" horiz-adv-x="1044" 
d="M1216 1404q-3 -38 -3 -61q0 -35 7 -35l-22 -48q-69 -381 -106 -552l-17 -24v-3q0 -9 10 -9q-3 -13 -20 -36l-11 -108q-92 -434 -421 -516q-44 0 -111 -12q-284 0 -327 324q1 63 13 120l90 420q4 20 4 35t-4 25l28 72l79 372q9 24 29 24h96q17 0 28 -36l-204 -960v-15
q0 -213 192 -213h36q160 0 288 228l-7 24l207 972h60zM967 1546q124 147 231 194h51q37 -76 37 -117q0 -8 -2 -15q-54 -49 -234 -108h-44t-39 46zM607 1546q124 147 231 194h51q37 -76 37 -117q0 -8 -2 -15q-54 -49 -234 -108h-44t-39 46z" />
    <glyph glyph-name="uhungarumlaut" unicode="&#x171;" horiz-adv-x="1044" 
d="M1216 1404q-3 -38 -3 -61q0 -35 7 -35l-22 -48q-69 -381 -106 -552l-17 -24v-3q0 -9 10 -9q-3 -13 -20 -36l-11 -108q-92 -434 -421 -516q-44 0 -111 -12q-284 0 -327 324q1 63 13 120l90 420q4 20 4 35t-4 25l28 72l79 372q9 24 29 24h96q17 0 28 -36l-204 -960v-15
q0 -213 192 -213h36q160 0 288 228l-7 24l207 972h60zM967 1546q124 147 231 194h51q37 -76 37 -117q0 -8 -2 -15q-54 -49 -234 -108h-44t-39 46zM607 1546q124 147 231 194h51q37 -76 37 -117q0 -8 -2 -15q-54 -49 -234 -108h-44t-39 46z" />
    <glyph glyph-name="Uogonek" unicode="&#x172;" horiz-adv-x="1044" 
d="M390 22q-163 62 -195 302q1 63 13 120l90 420q4 20 4 35t-4 25l28 72l79 372q9 24 29 24h96q17 0 28 -36l-204 -960v-15q0 -213 192 -213h36q161 0 288 228l-7 24l207 972h60l86 12q-3 -38 -3 -61q0 -35 7 -35l-22 -48q-69 -381 -106 -552l-17 -24v-3q0 -9 10 -9
q-3 -13 -20 -36l-11 -108q-92 -434 -421 -516q-36 0 -89 -8q-28 -31 -35 -64l-5 -24q-3 -12 -3 -22q0 -14 5 -26v-3q0 -31 138 -81q-2 -12 -14 -12l6 -24l-15 -72q-5 -24 -29 -24h-72q-189 0 -189 233v7l10 48q6 27 49 82z" />
    <glyph glyph-name="uogonek" unicode="&#x173;" horiz-adv-x="1044" 
d="M390 22q-163 62 -195 302q1 63 13 120l90 420q4 20 4 35t-4 25l28 72l79 372q9 24 29 24h96q17 0 28 -36l-204 -960v-15q0 -213 192 -213h36q161 0 288 228l-7 24l207 972h60l86 12q-3 -38 -3 -61q0 -35 7 -35l-22 -48q-69 -381 -106 -552l-17 -24v-3q0 -9 10 -9
q-3 -13 -20 -36l-11 -108q-92 -434 -421 -516q-36 0 -89 -8q-28 -31 -35 -64l-5 -24q-3 -12 -3 -22q0 -14 5 -26v-3q0 -31 138 -81q-2 -12 -14 -12l6 -24l-15 -72q-5 -24 -29 -24h-72q-189 0 -189 233v7l10 48q6 27 49 82z" />
    <glyph glyph-name="Wcircumflex" unicode="&#x174;" horiz-adv-x="1764" 
d="M436 1404q10 0 10 -9v-3l26 12q84 0 84 -100q0 -9 -1 -20q16 -716 45 -804q109 0 277 456q196 403 243 468l22 -12q68 12 98 12q24 -60 52 -888q17 0 28 -36q94 0 238 384q100 189 256 528h108q21 0 23 -60l-616 -1320l-27 -12h-120q-40 0 -48 792q-10 120 -82 120
q-129 -211 -446 -912h-132q-36 40 -44 696q-16 39 -35 684zM1339 1500q-83 47 -95 60h-36q-36 0 -131 -48q-45 0 -46 120l2 12q190 96 213 96q150 -59 181 -108q-9 -41 -88 -132z" />
    <glyph glyph-name="wcircumflex" unicode="&#x175;" horiz-adv-x="1764" 
d="M436 1404q10 0 10 -9v-3l26 12q84 0 84 -100q0 -9 -1 -20q16 -716 45 -804q109 0 277 456q196 403 243 468l22 -12q68 12 98 12q24 -60 52 -888q17 0 28 -36q94 0 238 384q100 189 256 528h108q21 0 23 -60l-616 -1320l-27 -12h-120q-40 0 -48 792q-10 120 -82 120
q-129 -211 -446 -912h-132q-36 40 -44 696q-16 39 -35 684zM1339 1500q-83 47 -95 60h-36q-36 0 -131 -48q-45 0 -46 120l2 12q190 96 213 96q150 -59 181 -108q-9 -41 -88 -132z" />
    <glyph glyph-name="Ycircumflex" unicode="&#x176;" horiz-adv-x="1044" 
d="M393 1368h108q74 -79 172 -432q43 -24 79 -24q293 380 373 456q100 -9 100 -33v-3l-2 -12l-474 -648q-16 -20 -25 -60l-125 -588q-5 -24 -29 -24h-84q-20 0 -20 42q0 32 12 90l38 180q14 63 35 108q2 63 14 120l28 132q-18 104 -205 672zM979 1500q-83 47 -95 60h-36
q-36 0 -131 -48q-45 0 -46 120l2 12q190 96 213 96q150 -59 181 -108q-9 -41 -88 -132z" />
    <glyph glyph-name="ycircumflex" unicode="&#x177;" horiz-adv-x="1044" 
d="M393 1368h108q74 -79 172 -432q43 -24 79 -24q293 380 373 456q100 -9 100 -33v-3l-2 -12l-474 -648q-16 -20 -25 -60l-125 -588q-5 -24 -29 -24h-84q-20 0 -20 42q0 32 12 90l38 180q14 63 35 108q2 63 14 120l28 132q-18 104 -205 672zM979 1500q-83 47 -95 60h-36
q-36 0 -131 -48q-45 0 -46 120l2 12q190 96 213 96q150 -59 181 -108q-9 -41 -88 -132z" />
    <glyph glyph-name="Ydieresis" unicode="&#x178;" horiz-adv-x="1044" 
d="M393 1368h108q74 -79 172 -432q43 -24 79 -24q293 380 373 456q100 -9 100 -33v-3l-2 -12l-474 -648q-16 -20 -25 -60l-125 -588q-5 -24 -29 -24h-84q-20 0 -20 42q0 32 12 90l38 180q14 63 35 108q2 63 14 120l28 132q-18 104 -205 672zM614 1518l-15 44l28 131
q6 29 30 29h12q10 0 10 -10l-1 -5l27 15h96q17 0 27 -44l-25 -116q-9 -44 -189 -44zM1076 1518h-144q-12 0 -12 43q0 44 12 130l43 31h144q19 0 19 -19q0 -5 -2 -12l-30 -142q-10 -31 -30 -31z" />
    <glyph glyph-name="Zacute" unicode="&#x179;" 
d="M431 1380h612q149 0 149 -33v-3l-28 -132q-7 -30 -680 -828q-111 -97 -152 -204q28 -20 173 -36q23 12 50 12l-2 -12q12 0 14 12q139 -12 202 -12h144q20 -3 20 -18q0 -3 -1 -6l-18 -84q-8 -36 -200 -36h-60q-27 0 -45 12q-12 0 -15 -12q-39 12 -45 12l-87 -12
q-10 0 -10 8l1 4l-87 -12h-108q-148 0 -148 33v3l12 60q3 12 15 12l-7 24l8 36q21 62 407 504q354 394 422 516q-54 48 -194 48h-36l-87 -12l3 12l-27 -12h-228q-17 0 -28 36l18 84q3 17 43 36zM788 1546q148 147 278 194h65q51 -79 51 -120q0 -7 -1 -12q-65 -49 -287 -108
h-55t-51 46z" />
    <glyph glyph-name="zacute" unicode="&#x17a;" 
d="M431 1380h612q149 0 149 -33v-3l-28 -132q-7 -30 -680 -828q-111 -97 -152 -204q28 -20 173 -36q23 12 50 12l-2 -12q12 0 14 12q139 -12 202 -12h144q20 -3 20 -18q0 -3 -1 -6l-18 -84q-8 -36 -200 -36h-60q-27 0 -45 12q-12 0 -15 -12q-39 12 -45 12l-87 -12
q-10 0 -10 8l1 4l-87 -12h-108q-148 0 -148 33v3l12 60q3 12 15 12l-7 24l8 36q21 62 407 504q354 394 422 516q-54 48 -194 48h-36l-87 -12l3 12l-27 -12h-228q-17 0 -28 36l18 84q3 17 43 36zM788 1546q148 147 278 194h65q51 -79 51 -120q0 -7 -1 -12q-65 -49 -287 -108
h-55t-51 46z" />
    <glyph glyph-name="Zdotaccent" unicode="&#x17b;" 
d="M431 1380h612q149 0 149 -33v-3l-28 -132q-7 -30 -680 -828q-111 -97 -152 -204q28 -20 173 -36q23 12 50 12l-2 -12q12 0 14 12q139 -12 202 -12h144q20 -3 20 -18q0 -3 -1 -6l-18 -84q-8 -36 -200 -36h-60q-27 0 -45 12q-12 0 -15 -12q-39 12 -45 12l-87 -12
q-10 0 -10 8l1 4l-87 -12h-108q-148 0 -148 33v3l12 60q3 12 15 12l-7 24l8 36q21 62 407 504q354 394 422 516q-54 48 -194 48h-36l-87 -12l3 12l-27 -12h-228q-17 0 -28 36l18 84q3 17 43 36zM905 1518q-171 0 -171 40v4l25 116q28 44 45 44h96l21 -15q3 15 15 15h12
q19 0 19 -19q0 -4 -1 -10l-28 -131z" />
    <glyph glyph-name="zdotaccent" unicode="&#x17c;" 
d="M431 1380h612q149 0 149 -33v-3l-28 -132q-7 -30 -680 -828q-111 -97 -152 -204q28 -20 173 -36q23 12 50 12l-2 -12q12 0 14 12q139 -12 202 -12h144q20 -3 20 -18q0 -3 -1 -6l-18 -84q-8 -36 -200 -36h-60q-27 0 -45 12q-12 0 -15 -12q-39 12 -45 12l-87 -12
q-10 0 -10 8l1 4l-87 -12h-108q-148 0 -148 33v3l12 60q3 12 15 12l-7 24l8 36q21 62 407 504q354 394 422 516q-54 48 -194 48h-36l-87 -12l3 12l-27 -12h-228q-17 0 -28 36l18 84q3 17 43 36zM905 1518q-171 0 -171 40v4l25 116q28 44 45 44h96l21 -15q3 15 15 15h12
q19 0 19 -19q0 -4 -1 -10l-28 -131z" />
    <glyph glyph-name="Zcaron" unicode="&#x17d;" 
d="M431 1380h612q149 0 149 -33v-3l-28 -132q-7 -30 -680 -828q-111 -97 -152 -204q28 -20 173 -36q23 12 50 12l-2 -12q12 0 14 12q139 -12 202 -12h144q20 -3 20 -18q0 -3 -1 -6l-18 -84q-8 -36 -200 -36h-60q-27 0 -45 12q-12 0 -15 -12q-39 12 -45 12l-87 -12
q-10 0 -10 8l1 4l-87 -12h-108q-148 0 -148 33v3l12 60q3 12 15 12l-7 24l8 36q21 62 407 504q354 394 422 516q-54 48 -194 48h-36l-87 -12l3 12l-27 -12h-228q-17 0 -28 36l18 84q3 17 43 36zM1012 1740q33 -76 33 -117q0 -8 -1 -15q-52 -49 -227 -108q-23 0 -172 96l3 12
q52 120 97 120q74 -48 110 -48h36q18 13 121 60z" />
    <glyph glyph-name="zcaron" unicode="&#x17e;" 
d="M431 1380h612q149 0 149 -33v-3l-28 -132q-7 -30 -680 -828q-111 -97 -152 -204q28 -20 173 -36q23 12 50 12l-2 -12q12 0 14 12q139 -12 202 -12h144q20 -3 20 -18q0 -3 -1 -6l-18 -84q-8 -36 -200 -36h-60q-27 0 -45 12q-12 0 -15 -12q-39 12 -45 12l-87 -12
q-10 0 -10 8l1 4l-87 -12h-108q-148 0 -148 33v3l12 60q3 12 15 12l-7 24l8 36q21 62 407 504q354 394 422 516q-54 48 -194 48h-36l-87 -12l3 12l-27 -12h-228q-17 0 -28 36l18 84q3 17 43 36zM1012 1740q33 -76 33 -117q0 -8 -1 -15q-52 -49 -227 -108q-23 0 -172 96l3 12
q52 120 97 120q74 -48 110 -48h36q18 13 121 60z" />
    <glyph glyph-name="longs" unicode="&#x17f;" horiz-adv-x="656" 
d="M188 -330q-6 0 -50 -8l-82 8v3q0 9 -10 9q106 552 140 714q8 36 20 36l1 60l107 504q67 316 447 408h60q19 -21 19 -50q0 -9 -2 -19q-16 -74 -50 -87q-267 -67 -301 -228l-282 -1326z" />
    <glyph glyph-name="uni0180" unicode="&#x180;" horiz-adv-x="1164" 
d="M883 1416q20 -12 33 -12q12 0 15 12q285 0 349 -336q-2 -9 -4 -72q-21 -101 -169 -288l-3 -12q51 -139 51 -237q0 -34 -6 -63q-58 -271 -406 -384q-48 -12 -98 -12h-120q-20 0 -20 42q0 32 12 90l55 36q13 0 34 -12q324 0 375 240q7 32 7 59q0 157 -225 157
q-12 0 -15 -12q-112 12 -112 34v2l23 108q9 24 29 24h96l69 -12q205 58 233 192l3 12q9 45 9 82q0 182 -229 182h-84q-20 0 -20 16q0 4 1 8l25 120q5 24 92 36zM202 471l191 897q4 19 58 48h72q10 0 10 -8l-1 -4l27 12h12q18 0 18 -20q0 -7 -2 -16l-28 -192q-17 -23 -20 -36
l-1 -4q0 -8 10 -8l-37 -120l-117 -550q150 -1 331 -1q7 -3 7 -14q0 -6 -2 -13l-20 -95q-14 -40 -43 -40h-35q-3 0 -3 5q0 3 1 8l-15 -13h-166q-14 0 -14 9v4l-23 -9l1 -2h-4l-6 -2l1 2h-44l-61 -285l-17 -24l-57 12h-96q-20 0 -20 16q0 4 1 8l57 269q-37 4 -89 4q-8 0 -8 13
q0 6 1 14l21 95q4 20 31 40h79z" />
    <glyph glyph-name="uni0181" unicode="&#x181;" horiz-adv-x="1312" 
d="M1031 1416q20 -12 33 -12q12 0 15 12q285 0 349 -336q-2 -9 -4 -72q-21 -101 -169 -288l-3 -12q51 -139 51 -237q0 -34 -6 -63q-58 -271 -406 -384q-48 -12 -98 -12h-120q-20 0 -20 42q0 32 12 90l55 36q13 0 34 -12q324 0 375 240q7 32 7 59q0 157 -225 157
q-12 0 -15 -12q-112 12 -112 34v2l23 108q9 24 29 24h96l69 -12q205 58 233 192l3 12q9 45 9 82q0 182 -229 182h-84q-20 0 -20 16q0 4 1 8l25 120q5 24 92 36zM581 1406q8 5 18 10h72q10 0 10 -8l-1 -4l27 12h12q18 0 18 -20q0 -7 -2 -16l-28 -192q-17 -23 -20 -36l-1 -4
q0 -8 10 -8l-37 -120l-212 -996l-17 -24l-57 12h-96q-20 0 -20 16q0 4 1 8l249 1172q-117 -66 -141 -176l-26 -126l-17 -24q-5 0 -43 -8l-72 8q1 3 1 5q0 7 -9 7l14 114q64 300 367 398z" />
    <glyph glyph-name="uni0186" unicode="&#x186;" horiz-adv-x="1032" 
d="M770 1392h36q339 -54 339 -328q0 -54 -13 -116l-28 -72l7 -24q-26 -65 -35 -108l-81 -384q-57 -268 -437 -360h-108q-283 94 -283 279q0 28 6 57l11 48q12 0 38 12q13 0 34 -12q23 12 50 12q8 0 29 -36q26 -204 208 -204h24q227 50 282 312l59 276l1 60q12 0 20 36
l23 108q12 56 12 101q0 175 -182 175h-24q-84 0 -183 -72q-114 -144 -127 -144h-108q-20 0 -20 16q0 4 1 8l11 48q194 312 438 312z" />
    <glyph glyph-name="uni0189" unicode="&#x189;" horiz-adv-x="1164" 
d="M832 1404h204q239 0 259 -252q-6 -85 -19 -144h-12v-3q0 -9 10 -9l-25 -60l-71 -336q-15 -69 -29 -192l-17 -24l7 -24q-126 -348 -386 -348q-77 12 -154 12h-12l-62 -12l-7 24l23 108q3 17 43 36h60l123 12l-3 -12q180 0 216 168q-5 12 -5 26q0 10 3 22q9 40 25 60
q2 65 11 108l18 84q2 12 14 12q-5 16 -5 27q0 5 1 9l17 24l1 4q0 8 -10 8l42 144l36 168q8 39 8 71q0 133 -145 133h-192q-20 0 -20 16q0 4 1 8l23 108q9 24 29 24zM425 617l-121 -569q-7 -33 -130 -48q-52 14 -52 33v3l2 12q3 12 15 12l-7 24l33 156q3 12 3 22q0 14 -5 26
q17 21 22 48q2 8 2 13q0 11 -8 11l29 84l54 252q3 14 3 23q0 13 -7 13l24 60l125 588q4 17 44 36h132l-19 -144l-100 -470q164 -2 329 -2q6 -3 6 -14q0 -6 -2 -15l-22 -102q-14 -43 -40 -43l-33 -10q-3 0 -3 6q0 3 1 9l-13 -15h-78q-13 0 -13 11v4l-20 -11l-1 -2h-3l-4 -2
l-1 2l-72 10z" />
    <glyph glyph-name="uni018A" unicode="&#x18a;" horiz-adv-x="1312" 
d="M980 1404h204q239 0 259 -252q-6 -85 -19 -144h-12v-3q0 -9 10 -9l-25 -60l-71 -336q-15 -69 -29 -192l-17 -24l7 -24q-126 -348 -386 -348q-77 12 -154 12h-12l-62 -12l-7 24l23 108q3 17 43 36h60l123 12l-3 -12q180 0 216 168q-5 12 -5 26q0 10 3 22q9 40 25 60
q2 65 11 108l18 84q2 12 14 12q-5 16 -5 27q0 5 1 9l17 24l1 4q0 8 -10 8l42 144l36 168q8 39 8 71q0 133 -145 133h-192q-20 0 -20 16q0 4 1 8l23 108q9 24 29 24zM579 1405q8 5 20 11h132l-19 -144l-260 -1224q-7 -33 -130 -48q-52 14 -52 33v3l2 12q3 12 15 12l-7 24
l33 156q3 12 3 22q0 14 -5 26q17 21 22 48q2 8 2 13q0 11 -8 11l29 84l54 252q3 14 3 23q0 13 -7 13l24 60l90 424q-129 -68 -154 -184l-26 -126l-17 -24q-5 0 -43 -8l-72 8q1 3 1 5q0 7 -9 7l14 114q64 298 365 397z" />
    <glyph glyph-name="uni018F" unicode="&#x18f;" horiz-adv-x="1032" 
d="M621 28q-7 0 -11 13l30 140q7 12 10 14q95 48 165 175q7 8 14 14q15 39 24 84l35 165h-44q-6 0 -6 7q0 2 1 6l-17 -13h-75q-6 0 -7 17l25 121q3 11 19 17h128l1 16q11 0 19 36l23 108q12 58 12 103q0 173 -177 173h-23q-83 0 -180 -72q-113 -144 -125 -144h-106
q-19 0 -19 16q0 4 1 8l10 48q192 312 431 312h35q331 -54 331 -326q0 -55 -13 -118l-28 -72l7 -24q-25 -65 -35 -108l-81 -384q-53 -247 -374 -332zM429 12q-257 79 -257 280q0 37 9 78l81 384q6 18 37 36l279 -1q7 0 11 -8l-28 -131q-4 -9 -11 -15q-12 0 -122 -13q1 4 1 7
q0 6 -5 6l-3 -13l-21 4l-31 -148q-13 -62 -13 -113q0 -144 110 -190q6 -2 7 -13l-27 -89q-5 -25 -9 -50l-1 -4q-1 -7 -7 -7z" />
    <glyph glyph-name="uni0190" unicode="&#x190;" horiz-adv-x="1044" 
d="M815 1380q30 0 94 -12q233 -98 233 -280q0 -33 -7 -68l-5 -24q-4 -18 -56 -36q-70 0 -90 84q-26 180 -190 180h-60q-157 0 -276 -228q-6 -28 -6 -56q0 -68 37 -136l138 -84l-18 -84l-17 -24q-179 0 -247 -204l-5 -24q-6 -26 -6 -50q0 -143 209 -178h36q96 0 227 108
q81 144 187 144h12l21 -12q-13 -61 -54 -144q-210 -252 -402 -252h-120q-269 102 -269 287q0 30 7 61l17 24q-10 0 -10 8l1 4l17 24q-10 0 -10 9v3l17 24h-12q9 38 133 228q-34 140 -34 242q0 52 9 94q12 0 20 36q186 336 479 336z" />
    <glyph glyph-name="uni0191" unicode="&#x191;" horiz-adv-x="984" 
d="M107 24l286 1344q9 24 29 24h396q10 0 10 -8l-1 -4l27 12h300q20 -3 20 -18q0 -3 -1 -6l-21 -96q-3 -17 -43 -36h-552q-19 0 -58 -48l-64 -300q-5 -23 -5 -42q0 -90 109 -90h276l-8 -36l-1 -60h-12l7 -24q-5 -24 -139 -36q-19 12 -46 12h-36l-62 -12l2 12l-26 -12h-84
q-42 -83 -55 -144l-5 -24l-6 -84h-12l7 -24l-25 -60l7 -24l-17 -24q5 -16 5 -27q0 -5 -1 -9l-17 -24l7 -24q-15 -52 -32 -84q-74 -297 -396 -386h-53q-15 20 -15 46q0 11 3 23q16 74 45 87q211 60 257 206z" />
    <glyph glyph-name="florin" unicode="&#x192;" horiz-adv-x="984" 
d="M107 24l286 1344q9 24 29 24h396q10 0 10 -8l-1 -4l27 12h300q20 -3 20 -18q0 -3 -1 -6l-21 -96q-3 -17 -43 -36h-552q-19 0 -58 -48l-64 -300q-5 -23 -5 -42q0 -90 109 -90h276l-8 -36l-1 -60h-12l7 -24q-5 -24 -139 -36q-19 12 -46 12h-36l-62 -12l2 12l-26 -12h-84
q-42 -83 -55 -144l-5 -24l-6 -84h-12l7 -24l-25 -60l7 -24l-17 -24q5 -16 5 -27q0 -5 -1 -9l-17 -24l7 -24q-15 -52 -32 -84q-74 -297 -396 -386h-53q-15 20 -15 46q0 11 3 23q16 74 45 87q211 60 257 206z" />
    <glyph glyph-name="uni0193" unicode="&#x193;" horiz-adv-x="1032" 
d="M1088 1251q42 -73 57 -183l2 -48q-12 0 -15 -12q-153 0 -153 60q0 6 1 12q-53 156 -159 156q-288 0 -357 -324l-102 -480q-5 -37 -5 -70q0 -206 198 -206q264 56 306 252l5 24q2 8 2 15q0 57 -107 57q-101 0 -101 31q0 3 1 5l25 120h48q27 0 51 12q20 -12 33 -12
q24 0 27 12l223 -24l-18 -84q-3 -12 -15 -12v-3q0 -9 10 -9q-90 -424 -398 -516q-107 -24 -125 -24q-273 0 -332 300q27 199 27 237v3l27 72l31 144q2 11 2 21q0 15 -4 27q16 21 22 48l18 84q3 12 3 22q0 14 -5 26q59 277 396 396q66 12 123 12q94 0 161 -40
q103 116 284 166h53q15 -20 15 -46q0 -11 -3 -23q-16 -74 -45 -87q-138 -39 -207 -111z" />
    <glyph glyph-name="uni0194" unicode="&#x194;" horiz-adv-x="1044" 
d="M671 165q85 -13 135 -78q37 0 37 -69v-4q-65 -304 -226 -335q-3 -13 -83 -27q-18 0 -18 11v3q1 4 12 4l8 90l2 9q47 45 58 95l14 67q1 4 1 8q0 45 -119 58q-115 -6 -129 -74l-1 -5q-3 -25 -6 -42q-7 -31 -15 -34q-4 -19 -4 -33q0 -23 11 -31l27 -4l-25 -118h-21
q-50 0 -145 104q-10 30 -14 78q0 4 11 4l-4 32l9 40q1 5 12 5v1q0 3 -10 3q27 78 38 129q15 68 195 107q-30 920 -30 1141q0 58 2 68q3 13 19 36q10 0 10 -9v-3q12 0 14 12q45 -12 94 -12q33 -715 61 -900l32 -42q59 42 182 318q283 624 313 624h96l21 -12
q-412 -911 -564 -1215z" />
    <glyph glyph-name="uni0197" unicode="&#x197;" horiz-adv-x="372" 
d="M268 779l122 577q4 17 44 36q10 0 10 -8l-1 -4l27 12h60q24 -9 24 -43q0 -13 -3 -29l-116 -543h94q4 -3 4 -12q0 -6 -1 -14l-19 -89q-12 -38 -31 -38h-23q-3 0 -3 5q0 3 1 7l-10 -12h-44l-128 -600q-5 -24 -29 -24h-120q-20 0 -20 16q0 4 1 8l5 24q8 36 20 36l1 60
l99 469q1 6 1 9q0 4 -2 4l-3 -13q-28 13 -87 13q-5 0 -5 9q0 6 2 16l20 90q4 19 23 38h87z" />
    <glyph glyph-name="uni0198" unicode="&#x198;" horiz-adv-x="1116" 
d="M460 780h48q140 116 547 540q76 72 87 72h132l31 -24l-564 -564l-5 -24q247 -705 247 -754v-2q-5 -24 -29 -24h-120q-15 4 -232 600l-22 12h-24q-182 -123 -202 -216l-79 -372q-5 -24 -29 -24q-10 0 -10 8l1 4l-27 -12h-84q-20 0 -20 16q0 4 1 8l203 956q2 4 4 7l2 21
q67 316 401 408h53q15 -20 15 -46q0 -11 -3 -23q-15 -74 -45 -87q-211 -60 -256 -270q-29 -137 -29 -185q0 -25 8 -25z" />
    <glyph glyph-name="uni0199" unicode="&#x199;" horiz-adv-x="1116" 
d="M460 780h48q140 116 547 540q76 72 87 72h132l31 -24l-564 -564l-5 -24q247 -705 247 -754v-2q-5 -24 -29 -24h-120q-15 4 -232 600l-22 12h-24q-182 -123 -202 -216l-79 -372q-5 -24 -29 -24q-10 0 -10 8l1 4l-27 -12h-84q-20 0 -20 16q0 4 1 8l203 956q2 4 4 7l2 21
q67 316 401 408h53q15 -20 15 -46q0 -11 -3 -23q-15 -74 -45 -87q-211 -60 -256 -270q-29 -137 -29 -185q0 -25 8 -25z" />
    <glyph glyph-name="uni019D" unicode="&#x19d;" 
d="M245 10q-84 -265 -385 -348h-53q-15 20 -15 46q0 11 3 23q16 74 45 87q235 67 269 228l27 126l254 1184q9 24 29 24h108q209 -831 258 -876h60q54 139 60 168v3q0 9 -10 9l25 60l130 612q9 24 29 24h84q17 0 29 -36l-268 -1260q-3 -12 -15 -12l7 -24l-2 -12
q-4 -17 -44 -36h-108q-46 110 -177 636q-25 153 -88 204h-36q-36 0 -82 -216l-46 -216q-3 -12 -15 -12l7 -24l-74 -348q-2 -9 -6 -14z" />
    <glyph glyph-name="Ohorn" unicode="&#x1a0;" horiz-adv-x="1192" 
d="M649 1332h24l-2 -12q-3 -12 -15 -12l7 -24l-3 -12q-10 -51 -153 -156q-40 -78 -47 -108l-120 -564q-9 -45 -9 -84q0 -125 92 -204l-18 -84q-5 -24 -29 -24q-179 112 -179 300q0 46 11 96l51 240q10 43 11 108l17 24q1 4 1 9q0 11 -5 27q90 418 366 480zM1149 996
q-4 -40 -13 -84h-12l7 -24l-84 -396q-71 -332 -347 -444h-24l-7 24l16 72q181 120 219 300l115 540q5 25 5 49q0 109 -107 203l18 84q5 24 41 24q121 -68 158 -189q171 69 200 205l27 126l16 24q5 0 44 8l71 -8q-1 -3 -1 -5q0 -7 9 -7l-14 -114q-60 -285 -337 -388z" />
    <glyph glyph-name="ohorn" unicode="&#x1a1;" horiz-adv-x="1192" 
d="M649 1332h24l-2 -12q-3 -12 -15 -12l7 -24l-3 -12q-10 -51 -153 -156q-40 -78 -47 -108l-120 -564q-9 -45 -9 -84q0 -125 92 -204l-18 -84q-5 -24 -29 -24q-179 112 -179 300q0 46 11 96l51 240q10 43 11 108l17 24q1 4 1 9q0 11 -5 27q90 418 366 480zM1149 996
q-4 -40 -13 -84h-12l7 -24l-84 -396q-71 -332 -347 -444h-24l-7 24l16 72q181 120 219 300l115 540q5 25 5 49q0 109 -107 203l18 84q5 24 41 24q121 -68 158 -189q171 69 200 205l27 126l16 24q5 0 44 8l71 -8q-1 -3 -1 -5q0 -7 9 -7l-14 -114q-60 -285 -337 -388z" />
    <glyph glyph-name="Uhorn" unicode="&#x1af;" horiz-adv-x="1192" 
d="M1149 997q-34 -184 -57 -289l-17 -24v-3q0 -9 10 -9q-3 -13 -20 -36l-11 -108q-92 -434 -421 -516q-43 0 -111 -12q-284 0 -327 324q1 63 13 120l90 420q4 20 4 35t-4 25l28 72l79 372q9 24 29 24h96q17 0 28 -36l-204 -960v-15q0 -213 192 -213h36q161 0 288 228l-7 24
l207 972h60l86 12q-3 -38 -3 -61q0 -35 7 -35l-22 -48q-8 -42 -15 -82q127 67 151 182l27 126l16 24q5 0 44 8l71 -8q-1 -3 -1 -5q0 -7 9 -7l-14 -114q-60 -284 -337 -387z" />
    <glyph glyph-name="uhorn" unicode="&#x1b0;" horiz-adv-x="1192" 
d="M1149 997q-34 -184 -57 -289l-17 -24v-3q0 -9 10 -9q-3 -13 -20 -36l-11 -108q-92 -434 -421 -516q-43 0 -111 -12q-284 0 -327 324q1 63 13 120l90 420q4 20 4 35t-4 25l28 72l79 372q9 24 29 24h96q17 0 28 -36l-204 -960v-15q0 -213 192 -213h36q161 0 288 228l-7 24
l207 972h60l86 12q-3 -38 -3 -61q0 -35 7 -35l-22 -48q-8 -42 -15 -82q127 67 151 182l27 126l16 24q5 0 44 8l71 -8q-1 -3 -1 -5q0 -7 9 -7l-14 -114q-60 -284 -337 -387z" />
    <glyph glyph-name="uni01B1" unicode="&#x1b1;" horiz-adv-x="1324" 
d="M660 1111v9l7 32q3 14 3 25q0 59 -79 59h-48q-27 0 -106 12h-34q-17 0 -28 36l23 108q5 24 29 24q153 -12 179 -12l237 12l11 -12l-32 -208l-27 -72q4 -9 4 -23q0 -16 -5 -37l-14 -72q-9 -24 -29 -24l-26 -5l-1 -1q-236 -39 -314 -358q-22 -104 -22 -183q0 -241 208 -241
h44q14 0 19 -8q7 8 61 8h84q276 0 366 424q12 67 12 121q0 194 -152 233l-45 10q-19 0 -19 22v2l16 72l28 132l56 208l27 12h114l21 -12l3 12q13 0 83 -12q26 0 185 12q20 0 20 -16q0 -4 -1 -8l-23 -108q-27 -36 -44 -36l-24 -12v3q0 9 -10 9q-83 -12 -110 -12h-48
q-94 0 -112 -84l-7 -32l-3 -9q227 -87 227 -359q0 -83 -21 -184l-62 -232q-206 -336 -491 -336l1 4q0 8 -10 8q-13 0 -59 -12h-80q-20 12 -93 12q-12 0 -15 -12q-285 0 -349 336l38 232q91 429 437 543z" />
    <glyph glyph-name="uni01B2" unicode="&#x1b2;" horiz-adv-x="1044" 
d="M989 1020q5 24 5 47q0 124 -162 181q-18 8 -18 41q0 19 6 46q8 41 45 69h61q240 -75 240 -298q0 -50 -12 -108l-62 -290l-17 -24v-3q0 -9 10 -9q-3 -13 -20 -36l-11 -108q-92 -434 -421 -516q-43 0 -111 -12q-284 0 -327 324q1 63 13 120l90 420q4 20 4 35t-4 25l28 72
l79 372q9 24 29 24h96q17 0 28 -36l-204 -960v-15q0 -213 192 -213h36q161 0 288 228l-7 24z" />
    <glyph glyph-name="uni01B3" unicode="&#x1b3;" horiz-adv-x="1044" 
d="M1118 1177l-369 -505q-16 -20 -25 -60l-125 -588q-5 -24 -29 -24h-84q-20 0 -20 42q0 32 12 90l38 180q14 63 35 108q2 63 14 120l28 132q-18 104 -205 672l5 24h108q74 -79 172 -432q43 -24 79 -24q293 380 373 456l5 6q21 9 38 9q18 0 31 -10q81 -82 81 -213
q0 -52 -13 -112l-34 -114q-11 0 -14 -12l-75 -8q-35 8 -40 8l-6 24l27 126q5 23 5 44q0 33 -12 61z" />
    <glyph glyph-name="uni01B4" unicode="&#x1b4;" horiz-adv-x="1044" 
d="M1118 1177l-369 -505q-16 -20 -25 -60l-125 -588q-5 -24 -29 -24h-84q-20 0 -20 42q0 32 12 90l38 180q14 63 35 108q2 63 14 120l28 132q-18 104 -205 672l5 24h108q74 -79 172 -432q43 -24 79 -24q293 380 373 456l5 6q21 9 38 9q18 0 31 -10q81 -82 81 -213
q0 -52 -13 -112l-34 -114q-11 0 -14 -12l-75 -8q-35 8 -40 8l-6 24l27 126q5 23 5 44q0 33 -12 61z" />
    <glyph glyph-name="uni01B5" unicode="&#x1b5;" 
d="M630 768q278 313 337 420q-54 48 -194 48h-36l-87 -12l3 12l-27 -12h-228q-17 0 -28 36l18 84q3 17 43 36h612q149 0 149 -33v-3l-28 -132q-5 -22 -359 -445q74 -1 164 -1q10 -3 10 -15q0 -4 -1 -9l-18 -84q-16 -36 -48 -36h-41q-4 0 -4 5q0 3 1 7l-16 -12l-172 -5
l-196 -233q-111 -97 -152 -204q28 -20 173 -36q23 12 50 12l-2 -12q12 0 14 12q139 -12 202 -12h144q20 -3 20 -18q0 -3 -1 -6l-18 -84q-8 -36 -200 -36h-60q-27 0 -45 12q-12 0 -15 -12q-39 12 -45 12l-87 -12q-10 0 -10 8l1 4l-87 -12h-108q-148 0 -148 33v3l12 60
q3 12 15 12l-7 24l8 36q19 58 355 444h-10q1 4 1 7q0 5 -4 5l-3 -12q-51 12 -154 12q-10 0 -10 13q0 5 1 11l18 84q3 18 34 36h264z" />
    <glyph glyph-name="uni01B6" unicode="&#x1b6;" 
d="M630 768q278 313 337 420q-54 48 -194 48h-36l-87 -12l3 12l-27 -12h-228q-17 0 -28 36l18 84q3 17 43 36h612q149 0 149 -33v-3l-28 -132q-5 -22 -359 -445q74 -1 164 -1q10 -3 10 -15q0 -4 -1 -9l-18 -84q-16 -36 -48 -36h-41q-4 0 -4 5q0 3 1 7l-16 -12l-172 -5
l-196 -233q-111 -97 -152 -204q28 -20 173 -36q23 12 50 12l-2 -12q12 0 14 12q139 -12 202 -12h144q20 -3 20 -18q0 -3 -1 -6l-18 -84q-8 -36 -200 -36h-60q-27 0 -45 12q-12 0 -15 -12q-39 12 -45 12l-87 -12q-10 0 -10 8l1 4l-87 -12h-108q-148 0 -148 33v3l12 60
q3 12 15 12l-7 24l8 36q19 58 355 444h-10q1 4 1 7q0 5 -4 5l-3 -12q-51 12 -154 12q-10 0 -10 13q0 5 1 11l18 84q3 18 34 36h264z" />
    <glyph glyph-name="uni01B7" unicode="&#x1b7;" horiz-adv-x="1044" 
d="M530 0q-30 0 -124 12q-235 97 -235 280q0 32 8 68l5 24q3 18 66 36q80 0 100 -84q21 -160 195 -160h51q147 0 267 228q8 38 8 74q0 75 -35 138l-97 65l-157 43l339 416q3 13 20 36q1 6 1 12q0 48 -97 48h-348q-17 0 -28 36l18 84q3 17 44 36h24q10 0 10 -8l-1 -4l27 12
h466q27 0 46 -12q23 12 63 12q17 0 28 -36l-28 -132l-308 -379q91 -51 147 -97q32 -131 32 -237q0 -64 -12 -119q-12 0 -19 -36q-182 -356 -476 -356z" />
    <glyph glyph-name="uni01C0" unicode="&#x1c0;" horiz-adv-x="360" 
d="M417 1368h96q18 -4 18 -22q0 -4 -1 -10l-226 -1062l-5 -81h-12l5 -32l-19 -32l-8 -97q-40 -16 -43 -32l-57 16q-45 -16 -51 -16l-5 32l277 1304q11 32 31 32z" />
    <glyph glyph-name="uni01C1" unicode="&#x1c1;" horiz-adv-x="692" 
d="M434 1392q10 0 10 -8l-1 -4l27 12h60q24 -9 24 -43q0 -13 -3 -29l-276 -1296q-5 -24 -29 -24h-120q-20 0 -20 16q0 4 1 8l5 24q8 36 20 36l1 60l257 1212q4 17 44 36zM754 1392q10 0 10 -8l-1 -4l27 12h60q24 -9 24 -43q0 -13 -3 -29l-276 -1296q-5 -24 -29 -24h-120
q-20 0 -20 16q0 4 1 8l5 24q8 36 20 36l1 60l257 1212q4 17 44 36z" />
    <glyph glyph-name="uni01C2" unicode="&#x1c2;" horiz-adv-x="692" 
d="M539 511h34q13 0 13 -10q0 -2 -1 -4l28 14h76q6 0 6 -10q0 -7 -3 -19q-3 -14 -8 -14l-1 -29l-6 -28q-3 -14 -8 -14l-1 -29q-5 -26 -54 -43l-32 14h-80l-56 -263q-13 -60 -51 -72h-60l-22 12q-2 -12 -14 -12q-28 17 -28 32v4l63 299h-150q-6 3 -6 14q0 6 2 15l21 100
q15 43 40 43h30q3 0 3 -5q0 -4 -1 -9l13 14h85l75 354h-53q-21 0 -53 14q-11 -14 -34 -14q-12 16 -12 33q0 5 1 10l21 100q6 29 16 29q73 0 153 12l43 203l25 60q-7 0 -7 13q0 9 3 23l5 24q5 24 29 24h120q20 0 20 -16q0 -4 -1 -8l-72 -335h160l-30 -143q-8 -29 -16 -29
h-150z" />
    <glyph glyph-name="uni01C3" unicode="&#x1c3;" horiz-adv-x="360" 
d="M417 1368h96q20 -3 20 -18q0 -3 -1 -6l-169 -792v-60h-12l6 -24l-17 -24l-3 -72q-38 -12 -41 -24l-57 12q-45 -12 -51 -12l-7 24l207 972q9 24 29 24zM154 132h108l-10 -48l-1 -60q-35 -24 -41 -24h-84q-20 0 -20 16q0 4 1 8l18 84q9 24 29 24z" />
    <glyph glyph-name="uni01CA" unicode="&#x1ca;" horiz-adv-x="1926" 
d="M419 1380h108q209 -831 258 -876h60q54 139 60 168v3q0 9 -10 9l25 60l130 612q9 24 29 24h84q18 0 29 -36l-268 -1260q-3 -12 -15 -12l7 -24l-2 -12q-4 -17 -44 -36h-108q-46 110 -177 636q-26 153 -88 204h-36q-36 0 -82 -216l-46 -216q-3 -12 -15 -12l7 -24l-74 -348
q-5 -24 -29 -24h-96q-20 0 -20 16q0 4 1 8l283 1332q9 24 29 24zM1966 1404q6 0 46 -12l86 12v-3q0 -9 10 -9q-35 -222 -57 -324l-13 -60q-7 -36 -19 -36l-1 -60l-107 -504q-67 -316 -447 -408h-60q-277 0 -330 312l8 36l27 12h96q111 -204 220 -204h12q266 67 301 228
l211 996z" />
    <glyph glyph-name="uni01CB" unicode="&#x1cb;" horiz-adv-x="1926" 
d="M419 1380h108q209 -831 258 -876h60q54 139 60 168v3q0 9 -10 9l25 60l130 612q9 24 29 24h84q18 0 29 -36l-268 -1260q-3 -12 -15 -12l7 -24l-2 -12q-4 -17 -44 -36h-108q-46 110 -177 636q-26 153 -88 204h-36q-36 0 -82 -216l-46 -216q-3 -12 -15 -12l7 -24l-74 -348
q-5 -24 -29 -24h-96q-20 0 -20 16q0 4 1 8l283 1332q9 24 29 24zM1966 1404q6 0 46 -12l86 12v-3q0 -9 10 -9q-35 -222 -57 -324l-13 -60q-7 -36 -19 -36l-1 -60l-107 -504q-67 -316 -447 -408h-60q-277 0 -330 312l8 36l27 12h96q111 -204 220 -204h12q266 67 301 228
l211 996z" />
    <glyph glyph-name="uni01CC" unicode="&#x1cc;" horiz-adv-x="1926" 
d="M419 1380h108q209 -831 258 -876h60q54 139 60 168v3q0 9 -10 9l25 60l130 612q9 24 29 24h84q18 0 29 -36l-268 -1260q-3 -12 -15 -12l7 -24l-2 -12q-4 -17 -44 -36h-108q-46 110 -177 636q-26 153 -88 204h-36q-36 0 -82 -216l-46 -216q-3 -12 -15 -12l7 -24l-74 -348
q-5 -24 -29 -24h-96q-20 0 -20 16q0 4 1 8l283 1332q9 24 29 24zM1966 1404q6 0 46 -12l86 12v-3q0 -9 10 -9q-35 -222 -57 -324l-13 -60q-7 -36 -19 -36l-1 -60l-107 -504q-67 -316 -447 -408h-60q-277 0 -330 312l8 36l27 12h96q111 -204 220 -204h12q266 67 301 228
l211 996z" />
    <glyph glyph-name="uni01CD" unicode="&#x1cd;" horiz-adv-x="1176" 
d="M832 1404q80 -12 103 -24l-406 -840q-1 -4 -1 -9q0 -31 40 -87l-7 -36l-30 -84h-72q-48 0 -186 -312h-144q-20 0 -20 16q0 4 1 8q454 950 657 1344zM1016 1080h12q51 -628 51 -957q0 -61 -2 -111l-27 -12h-108q-34 0 -56 300q-43 0 -43 20v4l-27 -12q-40 17 -40 33v3
l23 108q68 38 75 72l-11 288q119 264 153 264zM1096 1740q33 -76 33 -117q0 -8 -1 -15q-52 -49 -227 -108q-23 0 -172 96l3 12q52 120 97 120q74 -48 110 -48h36q18 13 121 60z" />
    <glyph glyph-name="uni01CE" unicode="&#x1ce;" horiz-adv-x="1176" 
d="M832 1404q80 -12 103 -24l-406 -840q-1 -4 -1 -9q0 -31 40 -87l-7 -36l-30 -84h-72q-48 0 -186 -312h-144q-20 0 -20 16q0 4 1 8q454 950 657 1344zM1016 1080h12q51 -628 51 -957q0 -61 -2 -111l-27 -12h-108q-34 0 -56 300q-43 0 -43 20v4l-27 -12q-40 17 -40 33v3
l23 108q68 38 75 72l-11 288q119 264 153 264zM1096 1740q33 -76 33 -117q0 -8 -1 -15q-52 -49 -227 -108q-23 0 -172 96l3 12q52 120 97 120q74 -48 110 -48h36q18 13 121 60z" />
    <glyph glyph-name="uni01CF" unicode="&#x1cf;" horiz-adv-x="372" 
d="M434 1392q10 0 10 -8l-1 -4l27 12h60q24 -9 24 -43q0 -13 -3 -29l-276 -1296q-5 -24 -29 -24h-120q-20 0 -20 16q0 4 1 8l5 24q8 36 20 36l1 60l257 1212q4 17 44 36zM694 1740q33 -76 33 -117q0 -8 -1 -15q-52 -49 -227 -108q-23 0 -172 96l3 12q52 120 97 120
q74 -48 110 -48h36q18 13 121 60z" />
    <glyph glyph-name="uni01D0" unicode="&#x1d0;" horiz-adv-x="372" 
d="M434 1392q10 0 10 -8l-1 -4l27 12h60q24 -9 24 -43q0 -13 -3 -29l-276 -1296q-5 -24 -29 -24h-120q-20 0 -20 16q0 4 1 8l5 24q8 36 20 36l1 60l257 1212q4 17 44 36zM694 1740q33 -76 33 -117q0 -8 -1 -15q-52 -49 -227 -108q-23 0 -172 96l3 12q52 120 97 120
q74 -48 110 -48h36q18 13 121 60z" />
    <glyph glyph-name="uni01D1" unicode="&#x1d1;" horiz-adv-x="1044" 
d="M976 1344q175 -98 175 -304q0 -59 -15 -128h-12l7 -24l-84 -396q-71 -332 -347 -444h-24l-7 24l16 72q181 120 219 300l115 540q5 25 5 49q0 109 -107 203l18 84q5 24 41 24zM649 1332h24l-2 -12q-3 -12 -15 -12l7 -24l-3 -12q-10 -51 -153 -156q-40 -78 -47 -108
l-120 -564q-9 -45 -9 -84q0 -125 92 -204l-18 -84q-5 -24 -29 -24q-179 112 -179 300q0 46 11 96l51 240q10 43 11 108l17 24q1 4 1 9q0 11 -5 27q89 418 366 480zM754 1740q82 -47 95 -60h36q36 0 130 48q46 0 47 -120l-3 -12q-190 -96 -212 -96q-150 59 -181 108
q8 41 88 132z" />
    <glyph glyph-name="uni01D2" unicode="&#x1d2;" horiz-adv-x="1044" 
d="M976 1344q175 -98 175 -304q0 -59 -15 -128h-12l7 -24l-84 -396q-71 -332 -347 -444h-24l-7 24l16 72q181 120 219 300l115 540q5 25 5 49q0 109 -107 203l18 84q5 24 41 24zM649 1332h24l-2 -12q-3 -12 -15 -12l7 -24l-3 -12q-10 -51 -153 -156q-40 -78 -47 -108
l-120 -564q-9 -45 -9 -84q0 -125 92 -204l-18 -84q-5 -24 -29 -24q-179 112 -179 300q0 46 11 96l51 240q10 43 11 108l17 24q1 4 1 9q0 11 -5 27q89 418 366 480zM754 1740q82 -47 95 -60h36q36 0 130 48q46 0 47 -120l-3 -12q-190 -96 -212 -96q-150 59 -181 108
q8 41 88 132z" />
    <glyph glyph-name="uni01D3" unicode="&#x1d3;" horiz-adv-x="1044" 
d="M1216 1404q-3 -38 -3 -61q0 -35 7 -35l-22 -48q-69 -381 -106 -552l-17 -24v-3q0 -9 10 -9q-3 -13 -20 -36l-11 -108q-92 -434 -421 -516q-44 0 -111 -12q-284 0 -327 324q1 63 13 120l90 420q4 20 4 35t-4 25l28 72l79 372q9 24 29 24h96q17 0 28 -36l-204 -960v-15
q0 -213 192 -213h36q160 0 288 228l-7 24l207 972h60zM1030 1740q33 -76 33 -117q0 -8 -1 -15q-52 -49 -227 -108q-23 0 -172 96l3 12q52 120 97 120q74 -48 110 -48h36q18 13 121 60z" />
    <glyph glyph-name="uni01D4" unicode="&#x1d4;" horiz-adv-x="1044" 
d="M1216 1404q-3 -38 -3 -61q0 -35 7 -35l-22 -48q-69 -381 -106 -552l-17 -24v-3q0 -9 10 -9q-3 -13 -20 -36l-11 -108q-92 -434 -421 -516q-44 0 -111 -12q-284 0 -327 324q1 63 13 120l90 420q4 20 4 35t-4 25l28 72l79 372q9 24 29 24h96q17 0 28 -36l-204 -960v-15
q0 -213 192 -213h36q160 0 288 228l-7 24l207 972h60zM1030 1740q33 -76 33 -117q0 -8 -1 -15q-52 -49 -227 -108q-23 0 -172 96l3 12q52 120 97 120q74 -48 110 -48h36q18 13 121 60z" />
    <glyph glyph-name="uni01E4" unicode="&#x1e4;" horiz-adv-x="1032" 
d="M288 829q5 11 7 23l18 84q3 12 3 22q0 14 -5 26q59 277 396 396q66 12 123 12q270 0 315 -324l2 -48q-12 0 -15 -12q-153 0 -153 60q0 6 1 12q-53 156 -159 156q-288 0 -357 -324l-18 -85h154q5 -3 5 -12q0 -6 -2 -14l-19 -89q-12 -38 -34 -38h-27q-3 0 -3 5q0 3 1 8
l-12 -13h-68q-12 0 -12 9q0 2 1 4l-16 -8l-52 -247q-5 -37 -5 -70q0 -206 198 -206q264 56 306 252l5 24q2 8 2 15q0 57 -107 57q-101 0 -101 31q0 3 1 5l25 120h48q27 0 51 12q20 -12 33 -12q24 0 27 12l223 -24l-18 -84q-3 -12 -15 -12v-3q0 -9 10 -9q-90 -424 -398 -516
q-107 -24 -125 -24q-273 0 -332 300q27 199 27 237v3l27 72l11 51q-34 13 -102 13q-6 0 -6 10q0 6 2 15l19 90q4 19 26 38h94z" />
    <glyph glyph-name="uni01E5" unicode="&#x1e5;" horiz-adv-x="1032" 
d="M288 829q5 11 7 23l18 84q3 12 3 22q0 14 -5 26q59 277 396 396q66 12 123 12q270 0 315 -324l2 -48q-12 0 -15 -12q-153 0 -153 60q0 6 1 12q-53 156 -159 156q-288 0 -357 -324l-18 -85h154q5 -3 5 -12q0 -6 -2 -14l-19 -89q-12 -38 -34 -38h-27q-3 0 -3 5q0 3 1 8
l-12 -13h-68q-12 0 -12 9q0 2 1 4l-16 -8l-52 -247q-5 -37 -5 -70q0 -206 198 -206q264 56 306 252l5 24q2 8 2 15q0 57 -107 57q-101 0 -101 31q0 3 1 5l25 120h48q27 0 51 12q20 -12 33 -12q24 0 27 12l223 -24l-18 -84q-3 -12 -15 -12v-3q0 -9 10 -9q-90 -424 -398 -516
q-107 -24 -125 -24q-273 0 -332 300q27 199 27 237v3l27 72l11 51q-34 13 -102 13q-6 0 -6 10q0 6 2 15l19 90q4 19 26 38h94z" />
    <glyph glyph-name="Gcaron" unicode="&#x1e6;" horiz-adv-x="1032" 
d="M830 1392q270 0 315 -324l2 -48q-12 0 -15 -12q-153 0 -153 60q0 6 1 12q-53 156 -159 156q-288 0 -357 -324l-102 -480q-5 -37 -5 -69q0 -207 198 -207q264 56 306 252l5 24q2 8 2 15q0 57 -107 57q-101 0 -101 31q0 3 1 5l25 120h48q27 0 51 12q21 -12 33 -12
q24 0 27 12l223 -24l-18 -84q-3 -12 -15 -12v-3q0 -9 10 -9q-90 -424 -398 -516q-107 -24 -125 -24q-273 0 -332 300q27 206 27 240l27 72l31 144q2 11 2 21q0 15 -4 27q16 21 22 48l18 84q3 12 3 22q0 14 -5 26q59 277 396 396q66 12 123 12zM1024 1740q33 -76 33 -117
q0 -8 -1 -15q-52 -49 -227 -108q-23 0 -172 96l3 12q52 120 97 120q74 -48 110 -48h36q18 13 121 60z" />
    <glyph glyph-name="gcaron" unicode="&#x1e7;" horiz-adv-x="1032" 
d="M830 1392q270 0 315 -324l2 -48q-12 0 -15 -12q-153 0 -153 60q0 6 1 12q-53 156 -159 156q-288 0 -357 -324l-102 -480q-5 -37 -5 -69q0 -207 198 -207q264 56 306 252l5 24q2 8 2 15q0 57 -107 57q-101 0 -101 31q0 3 1 5l25 120h48q27 0 51 12q21 -12 33 -12
q24 0 27 12l223 -24l-18 -84q-3 -12 -15 -12v-3q0 -9 10 -9q-90 -424 -398 -516q-107 -24 -125 -24q-273 0 -332 300q27 206 27 240l27 72l31 144q2 11 2 21q0 15 -4 27q16 21 22 48l18 84q3 12 3 22q0 14 -5 26q59 277 396 396q66 12 123 12zM1024 1740q33 -76 33 -117
q0 -8 -1 -15q-52 -49 -227 -108q-23 0 -172 96l3 12q52 120 97 120q74 -48 110 -48h36q18 13 121 60z" />
    <glyph glyph-name="uni01E8" unicode="&#x1e8;" horiz-adv-x="1116" 
d="M424 1404h108q25 -9 25 -42q0 -13 -4 -30l-71 -336l-28 -72q-8 -62 -8 -97q0 -47 14 -47h48q141 116 547 540q76 72 87 72h132l31 -24l-564 -564l-5 -24q247 -705 247 -754v-2q-5 -24 -29 -24h-120q-15 4 -232 600l-22 12h-24q-182 -123 -202 -216l-79 -372
q-5 -24 -29 -24q-10 0 -10 8l1 4l-27 -12h-84q-20 0 -20 16q0 4 1 8l288 1356q9 24 29 24zM1066 1740q33 -76 33 -117q0 -8 -1 -15q-52 -49 -227 -108q-23 0 -172 96l3 12q52 120 97 120q74 -48 110 -48h36q18 13 121 60z" />
    <glyph glyph-name="uni01E9" unicode="&#x1e9;" horiz-adv-x="1116" 
d="M424 1404h108q25 -9 25 -42q0 -13 -4 -30l-71 -336l-28 -72q-8 -62 -8 -97q0 -47 14 -47h48q141 116 547 540q76 72 87 72h132l31 -24l-564 -564l-5 -24q247 -705 247 -754v-2q-5 -24 -29 -24h-120q-15 4 -232 600l-22 12h-24q-182 -123 -202 -216l-79 -372
q-5 -24 -29 -24q-10 0 -10 8l1 4l-27 -12h-84q-20 0 -20 16q0 4 1 8l288 1356q9 24 29 24zM1066 1740q33 -76 33 -117q0 -8 -1 -15q-52 -49 -227 -108q-23 0 -172 96l3 12q52 120 97 120q74 -48 110 -48h36q18 13 121 60z" />
    <glyph glyph-name="uni01EA" unicode="&#x1ea;" horiz-adv-x="1044" 
d="M649 1332h24l-2 -12q-3 -12 -15 -12l7 -24l-3 -12q-10 -51 -153 -156q-40 -78 -47 -108l-120 -564q-9 -45 -9 -84q0 -125 92 -204l-18 -84q-5 -24 -29 -24q-179 112 -179 300q0 46 11 96l51 240q10 43 11 108l17 24q1 4 1 9q0 11 -5 27q90 418 366 480zM904 444l115 540
q5 25 5 49q0 109 -107 203l18 84q5 24 41 24q175 -98 175 -304q0 -59 -15 -128h-12l7 -24l-84 -396q-51 -240 -222 -420q-109 -63 -124 -132l-5 -24q-3 -12 -3 -22q0 -14 5 -26v-3q0 -31 138 -81q-2 -12 -14 -12l6 -24l-15 -72q-5 -24 -29 -24h-72q-189 0 -189 233v7l10 48
q11 51 152 204l43 36q144 110 176 264z" />
    <glyph glyph-name="uni01EB" unicode="&#x1eb;" horiz-adv-x="1044" 
d="M649 1332h24l-2 -12q-3 -12 -15 -12l7 -24l-3 -12q-10 -51 -153 -156q-40 -78 -47 -108l-120 -564q-9 -45 -9 -84q0 -125 92 -204l-18 -84q-5 -24 -29 -24q-179 112 -179 300q0 46 11 96l51 240q10 43 11 108l17 24q1 4 1 9q0 11 -5 27q90 418 366 480zM904 444l115 540
q5 25 5 49q0 109 -107 203l18 84q5 24 41 24q175 -98 175 -304q0 -59 -15 -128h-12l7 -24l-84 -396q-51 -240 -222 -420q-109 -63 -124 -132l-5 -24q-3 -12 -3 -22q0 -14 5 -26v-3q0 -31 138 -81q-2 -12 -14 -12l6 -24l-15 -72q-5 -24 -29 -24h-72q-189 0 -189 233v7l10 48
q11 51 152 204l43 36q144 110 176 264z" />
    <glyph glyph-name="uni01EE" unicode="&#x1ee;" horiz-adv-x="1044" 
d="M1060 1740q34 -75 34 -116q0 -9 -2 -16q-52 -49 -227 -108q-23 0 -172 96l3 12q52 120 97 120q74 -48 110 -48h36q19 13 121 60zM530 0q-30 0 -124 12q-235 97 -235 280q0 32 8 68l5 24q3 18 66 36q80 0 100 -84q21 -160 195 -160h51q147 0 267 228q8 38 8 74
q0 75 -35 138l-97 65l-157 43l339 416q3 13 20 36q1 6 1 12q0 48 -97 48h-348q-17 0 -28 36l18 84q3 17 44 36h24q10 0 10 -8l-1 -4l27 12h466q27 0 46 -12q23 12 63 12q17 0 28 -36l-28 -132l-308 -379q91 -51 147 -97q32 -131 32 -237q0 -64 -12 -119q-12 0 -19 -36
q-182 -356 -476 -356z" />
    <glyph glyph-name="uni01EF" unicode="&#x1ef;" horiz-adv-x="1044" 
d="M1060 1740q34 -75 34 -116q0 -9 -2 -16q-52 -49 -227 -108q-23 0 -172 96l3 12q52 120 97 120q74 -48 110 -48h36q19 13 121 60zM530 0q-30 0 -124 12q-235 97 -235 280q0 32 8 68l5 24q3 18 66 36q80 0 100 -84q21 -160 195 -160h51q147 0 267 228q8 38 8 74
q0 75 -35 138l-97 65l-157 43l339 416q3 13 20 36q1 6 1 12q0 48 -97 48h-348q-17 0 -28 36l18 84q3 17 44 36h24q10 0 10 -8l-1 -4l27 12h466q27 0 46 -12q23 12 63 12q17 0 28 -36l-28 -132l-308 -379q91 -51 147 -97q32 -131 32 -237q0 -64 -12 -119q-12 0 -19 -36
q-182 -356 -476 -356z" />
    <glyph glyph-name="uni01F4" unicode="&#x1f4;" horiz-adv-x="1032" 
d="M830 1392q270 0 315 -324l2 -48q-12 0 -15 -12q-153 0 -153 60q0 6 1 12q-53 156 -159 156q-288 0 -357 -324l-102 -480q-5 -37 -5 -69q0 -207 198 -207q264 56 306 252l5 24q2 8 2 15q0 57 -107 57q-101 0 -101 31q0 3 1 5l25 120h48q27 0 51 12q21 -12 33 -12
q24 0 27 12l223 -24l-18 -84q-3 -12 -15 -12v-3q0 -9 10 -9q-90 -424 -398 -516q-107 -24 -125 -24q-273 0 -332 300q27 206 27 240l27 72l31 144q2 11 2 21q0 15 -4 27q16 21 22 48l18 84q3 12 3 22q0 14 -5 26q59 277 396 396q66 12 123 12zM800 1546q148 147 278 194h65
q51 -79 51 -120q0 -7 -1 -12q-65 -49 -287 -108h-55t-51 46z" />
    <glyph glyph-name="uni01F5" unicode="&#x1f5;" horiz-adv-x="1032" 
d="M830 1392q270 0 315 -324l2 -48q-12 0 -15 -12q-153 0 -153 60q0 6 1 12q-53 156 -159 156q-288 0 -357 -324l-102 -480q-5 -37 -5 -69q0 -207 198 -207q264 56 306 252l5 24q2 8 2 15q0 57 -107 57q-101 0 -101 31q0 3 1 5l25 120h48q27 0 51 12q21 -12 33 -12
q24 0 27 12l223 -24l-18 -84q-3 -12 -15 -12v-3q0 -9 10 -9q-90 -424 -398 -516q-107 -24 -125 -24q-273 0 -332 300q27 206 27 240l27 72l31 144q2 11 2 21q0 15 -4 27q16 21 22 48l18 84q3 12 3 22q0 14 -5 26q59 277 396 396q66 12 123 12zM800 1546q148 147 278 194h65
q51 -79 51 -120q0 -7 -1 -12q-65 -49 -287 -108h-55t-51 46z" />
    <glyph glyph-name="uni01F8" unicode="&#x1f8;" 
d="M419 1380h108q209 -831 258 -876h60q54 139 60 168v3q0 9 -10 9l25 60l130 612q9 24 29 24h84q18 0 29 -36l-268 -1260q-3 -12 -15 -12l7 -24l-2 -12q-4 -17 -44 -36h-108q-46 110 -177 636q-26 153 -88 204h-36q-36 0 -82 -216l-46 -216q-3 -12 -15 -12l7 -24l-74 -348
q-5 -24 -29 -24h-96q-20 0 -20 16q0 4 1 8l283 1332q9 24 29 24zM806 1500h-54q-197 59 -241 108q9 41 106 132h65q110 -47 196 -194q-32 -46 -72 -46z" />
    <glyph glyph-name="uni01F9" unicode="&#x1f9;" 
d="M419 1380h108q209 -831 258 -876h60q54 139 60 168v3q0 9 -10 9l25 60l130 612q9 24 29 24h84q18 0 29 -36l-268 -1260q-3 -12 -15 -12l7 -24l-2 -12q-4 -17 -44 -36h-108q-46 110 -177 636q-26 153 -88 204h-36q-36 0 -82 -216l-46 -216q-3 -12 -15 -12l7 -24l-74 -348
q-5 -24 -29 -24h-96q-20 0 -20 16q0 4 1 8l283 1332q9 24 29 24zM806 1500h-54q-197 59 -241 108q9 41 106 132h65q110 -47 196 -194q-32 -46 -72 -46z" />
    <glyph glyph-name="uni0218" unicode="&#x218;" 
d="M830 1392q175 0 273 -240l6 -84l-3 -12q-5 -24 -29 -24h-36q-94 0 -102 84q-52 108 -181 108h-72q-151 0 -236 -264q-2 -8 -2 -16q0 -119 374 -212q182 -98 182 -245q0 -27 -6 -55q-66 -308 -440 -432h-48q-268 0 -327 324l5 24l27 12l57 -12q24 12 51 12
q34 -204 184 -204h72q228 55 262 216l17 24q4 20 4 39q0 171 -356 225q-202 92 -202 258q0 32 7 66q61 287 423 408h96zM427 -100h122q21 0 28 -40q-97 -168 -149 -184q-12 0 -14 -8l-59 8q-18 0 -42 -24q-81 11 -81 23v1q52 0 116 200z" />
    <glyph glyph-name="uni0219" unicode="&#x219;" 
d="M830 1392q175 0 273 -240l6 -84l-3 -12q-5 -24 -29 -24h-36q-94 0 -102 84q-52 108 -181 108h-72q-151 0 -236 -264q-2 -8 -2 -16q0 -119 374 -212q182 -98 182 -245q0 -27 -6 -55q-66 -308 -440 -432h-48q-268 0 -327 324l5 24l27 12l57 -12q24 12 51 12
q34 -204 184 -204h72q228 55 262 216l17 24q4 20 4 39q0 171 -356 225q-202 92 -202 258q0 32 7 66q61 287 423 408h96zM427 -100h122q21 0 28 -40q-97 -168 -149 -184q-12 0 -14 -8l-59 8q-18 0 -42 -24q-81 11 -81 23v1q52 0 116 200z" />
    <glyph glyph-name="uni021A" unicode="&#x21a;" horiz-adv-x="996" 
d="M554 1392l-3 -12l27 12h336q268 0 268 -34v-2l-20 -96q-5 -24 -29 -24h-120q-180 0 -196 -72q-21 -156 -41 -252l-5 -24q-3 -12 -15 -12l7 -24q-165 -720 -190 -840l-27 -12h-84q-17 0 -28 36l120 564q2 12 14 12l-7 24l21 96l27 72q-4 9 -4 23q0 16 5 37l2 12
q3 12 15 12q-5 18 -5 30v6q3 13 20 36l3 72l5 24q3 12 15 12l-7 24q3 12 15 12q5 23 5 42q0 90 -109 90h-180q-20 0 -20 16q0 4 1 8l7 36q3 12 15 12l-7 24l5 24q5 24 164 36zM427 -100h122q21 0 28 -40q-97 -168 -149 -184q-12 0 -14 -8l-59 8q-18 0 -42 -24q-81 11 -81 23
v1q52 0 116 200z" />
    <glyph glyph-name="uni021B" unicode="&#x21b;" horiz-adv-x="996" 
d="M554 1392l-3 -12l27 12h336q268 0 268 -34v-2l-20 -96q-5 -24 -29 -24h-120q-180 0 -196 -72q-21 -156 -41 -252l-5 -24q-3 -12 -15 -12l7 -24q-165 -720 -190 -840l-27 -12h-84q-17 0 -28 36l120 564q2 12 14 12l-7 24l21 96l27 72q-4 9 -4 23q0 16 5 37l2 12
q3 12 15 12q-5 18 -5 30v6q3 13 20 36l3 72l5 24q3 12 15 12l-7 24q3 12 15 12q5 23 5 42q0 90 -109 90h-180q-20 0 -20 16q0 4 1 8l7 36q3 12 15 12l-7 24l5 24q5 24 164 36zM427 -100h122q21 0 28 -40q-97 -168 -149 -184q-12 0 -14 -8l-59 8q-18 0 -42 -24q-81 11 -81 23
v1q52 0 116 200z" />
    <glyph glyph-name="uni021E" unicode="&#x21e;" 
d="M434 1392q79 -12 129 -12q-38 -124 -42 -144q-1 -2 -1 -8q0 -12 3 -40l-18 -24q5 -12 5 -26q0 -10 -3 -22q-2 -12 -14 -12l7 -24l-6 -24q-14 -66 -47 -168q5 -16 5 -27q0 -5 -1 -9h-12q-2 -9 -2 -16q0 -56 95 -56h300q62 0 97 60q22 162 39 240l61 288q9 24 29 24l21 -12
l27 12l21 -12q24 12 51 12l16 -36l-237 -1116q-3 -12 -15 -12l7 -24l-12 -60l-28 -72q4 -10 4 -25t-4 -35l-27 -12h-36q-27 0 -45 12q-26 -12 -39 -12l-16 36h12q-5 18 -5 30v6q8 36 20 36l13 120l26 120q9 43 35 108q5 45 5 76q0 80 -32 80h-108q-10 0 -10 8l1 4
q-12 0 -15 -12l-81 12q-216 0 -234 -84l-8 -36v-3q0 -9 10 -9l-25 -60l-13 -60q-3 -14 -3 -23q0 -13 7 -13l-24 -60l-54 -252q-5 -24 -29 -24h-108l-21 12q2 13 19 36l11 108l30 84q2 11 8 96q35 106 40 132v12q0 41 6 72h12l-7 24q3 12 15 12l-7 24l18 84q2 12 14 12l-6 24
l17 24v3q0 9 -10 9q5 24 17 24q31 198 52 300l49 228q22 72 51 72zM1012 1740q33 -76 33 -117q0 -8 -1 -15q-52 -49 -227 -108q-23 0 -172 96l3 12q52 120 97 120q74 -48 110 -48h36q18 13 121 60z" />
    <glyph glyph-name="uni021F" unicode="&#x21f;" 
d="M434 1392q79 -12 129 -12q-38 -124 -42 -144q-1 -2 -1 -8q0 -12 3 -40l-18 -24q5 -12 5 -26q0 -10 -3 -22q-2 -12 -14 -12l7 -24l-6 -24q-14 -66 -47 -168q5 -16 5 -27q0 -5 -1 -9h-12q-2 -9 -2 -16q0 -56 95 -56h300q62 0 97 60q22 162 39 240l61 288q9 24 29 24l21 -12
l27 12l21 -12q24 12 51 12l16 -36l-237 -1116q-3 -12 -15 -12l7 -24l-12 -60l-28 -72q4 -10 4 -25t-4 -35l-27 -12h-36q-27 0 -45 12q-26 -12 -39 -12l-16 36h12q-5 18 -5 30v6q8 36 20 36l13 120l26 120q9 43 35 108q5 45 5 76q0 80 -32 80h-108q-10 0 -10 8l1 4
q-12 0 -15 -12l-81 12q-216 0 -234 -84l-8 -36v-3q0 -9 10 -9l-25 -60l-13 -60q-3 -14 -3 -23q0 -13 7 -13l-24 -60l-54 -252q-5 -24 -29 -24h-108l-21 12q2 13 19 36l11 108l30 84q2 11 8 96q35 106 40 132v12q0 41 6 72h12l-7 24q3 12 15 12l-7 24l18 84q2 12 14 12l-6 24
l17 24v3q0 9 -10 9q5 24 17 24q31 198 52 300l49 228q22 72 51 72zM1012 1740q33 -76 33 -117q0 -8 -1 -15q-52 -49 -227 -108q-23 0 -172 96l3 12q52 120 97 120q74 -48 110 -48h36q18 13 121 60z" />
    <glyph glyph-name="uni0226" unicode="&#x226;" horiz-adv-x="1176" 
d="M832 1404q80 -12 103 -24l-406 -840q-1 -4 -1 -9q0 -31 40 -87l-7 -36l-30 -84h-72q-48 0 -186 -312h-144q-20 0 -20 16q0 4 1 8q454 950 657 1344zM1016 1080h12q51 -628 51 -957q0 -61 -2 -111l-27 -12h-108q-34 0 -56 300q-43 0 -43 20v4l-27 -12q-40 17 -40 33v3
l23 108q68 38 75 72l-11 288q119 264 153 264zM833 1518l-15 44l28 131q6 29 30 29h12q10 0 10 -10l-1 -5l27 15h96q17 0 27 -44l-25 -116q-9 -44 -189 -44z" />
    <glyph glyph-name="uni0227" unicode="&#x227;" horiz-adv-x="1176" 
d="M832 1404q80 -12 103 -24l-406 -840q-1 -4 -1 -9q0 -31 40 -87l-7 -36l-30 -84h-72q-48 0 -186 -312h-144q-20 0 -20 16q0 4 1 8q454 950 657 1344zM1016 1080h12q51 -628 51 -957q0 -61 -2 -111l-27 -12h-108q-34 0 -56 300q-43 0 -43 20v4l-27 -12q-40 17 -40 33v3
l23 108q68 38 75 72l-11 288q119 264 153 264zM833 1518l-15 44l28 131q6 29 30 29h12q10 0 10 -10l-1 -5l27 15h96q17 0 27 -44l-25 -116q-9 -44 -189 -44z" />
    <glyph glyph-name="uni022E" unicode="&#x22e;" horiz-adv-x="1044" 
d="M976 1344q175 -98 175 -304q0 -59 -15 -128h-12l7 -24l-84 -396q-71 -332 -347 -444h-24l-7 24l16 72q181 120 219 300l115 540q5 25 5 49q0 109 -107 203l18 84q5 24 41 24zM649 1332h24l-2 -12q-3 -12 -15 -12l7 -24l-3 -12q-10 -51 -153 -156q-40 -78 -47 -108
l-120 -564q-9 -45 -9 -84q0 -125 92 -204l-18 -84q-5 -24 -29 -24q-179 112 -179 300q0 46 11 96l51 240q10 43 11 108l17 24q1 4 1 9q0 11 -5 27q89 418 366 480zM767 1518l-15 44l28 131q6 29 30 29h12q10 0 10 -10l-1 -5l27 15h96q17 0 27 -44l-25 -116q-9 -44 -189 -44z
" />
    </font>
</defs>
</svg>
